<svg width="55" height="55" viewBox="0 0 55 55" fill="none" xmlns="http://www.w3.org/2000/svg">
<path d="M16.6842 41.2365C16.5426 42.3793 15.9881 43.431 15.1248 44.1936C14.2615 44.9562 13.1491 45.3771 11.9969 45.3771C10.8448 45.3771 9.73227 44.9562 8.86898 44.1936C8.00569 43.431 7.45111 42.3793 7.30956 41.2365H3.25101C2.63762 41.2365 2.4638 41.0525 2.45358 40.4395C2.44335 39.8264 2.45358 39.2338 2.45358 38.6207V25.6647C2.45358 25.2355 2.45361 24.7553 2.99543 24.6429C3.39413 24.5918 3.57809 24.9392 3.57809 25.6647V33.5425H6.88027V26.3186C6.88027 25.5523 7.02339 25.4195 7.7799 25.4195H15.0281V18.1649C15.0281 17.4088 15.1712 17.2759 15.9379 17.2759H23.1554C23.1554 16.6527 23.1554 16.0703 23.1554 15.4981C23.1554 14.9259 23.3394 14.7113 23.9017 14.7113H31.6509C32.2336 14.7113 32.4074 14.9157 32.4074 15.5491C32.4074 18.3284 32.4074 21.0974 32.4074 23.8766V33.5527H33.0719C33.0719 33.3586 33.0719 33.1645 33.0719 32.9806V13.1276C33.0719 12.2386 32.9083 12.1058 32.0496 12.1058H3.42485C3.23289 12.1479 3.03402 12.1479 2.84206 12.1058C2.6376 12.0036 2.3616 11.7788 2.3616 11.6051C2.3616 11.4314 2.61712 11.2066 2.81136 11.0636C3.0056 10.9205 3.08742 11.0636 3.23054 11.0636H32.1825C32.4593 11.0287 32.7404 11.0575 33.0044 11.1478C33.2683 11.2382 33.5082 11.3877 33.7055 11.5849C33.9028 11.7821 34.0523 12.0218 34.1427 12.2856C34.2331 12.5494 34.262 12.8304 34.2271 13.1071C34.2271 14.6398 34.2271 16.1724 34.2271 17.6949V18.3284H34.8507C36.8953 18.3284 38.9399 18.3284 41.0458 18.3284C41.3129 18.3193 41.5789 18.3674 41.8258 18.4697C42.0727 18.5719 42.2947 18.7258 42.4771 18.921C42.61 19.064 42.7634 19.1866 42.8861 19.3399C43.1174 19.6368 43.4055 19.8845 43.7338 20.0688C44.062 20.253 44.4238 20.3699 44.7978 20.4128C45.4208 20.5401 45.9888 20.8579 46.4232 21.3221C47.8851 22.8139 49.255 24.3875 50.6658 25.9099C51.2393 26.558 51.5333 27.4064 51.4837 28.2702C51.4837 30.4057 51.4837 32.5412 51.4837 34.6767V35.2795H52.6287C53.2114 35.2795 53.375 35.4533 53.375 36.0561V38.9375C53.382 39.2413 53.3272 39.5434 53.2141 39.8255C53.101 40.1076 52.9318 40.3638 52.7168 40.5787C52.5018 40.7936 52.2454 40.9626 51.9632 41.0757C51.681 41.1888 51.3788 41.2434 51.0748 41.2365H46.3517C46.2801 41.5123 46.2187 41.7678 46.1472 42.0232C45.8537 43.032 45.2298 43.913 44.3756 44.5252C43.5214 45.1373 42.4863 45.4451 41.4362 45.3991C40.3861 45.3532 39.382 44.9562 38.5845 44.2718C37.7871 43.5874 37.2426 42.6553 37.0385 41.6247C36.9771 41.3489 36.8953 41.2365 36.5988 41.2365H16.7762H16.6842ZM50.4205 35.2285H48.7234C48.2838 35.2285 48.0794 35.0241 48.0794 34.5847C48.0794 33.7469 48.0794 32.909 48.0794 32.0712C48.0794 31.5705 48.3043 31.3662 48.795 31.3764C49.2858 31.3866 49.8889 31.3764 50.4103 31.3764V28.9037H39.0933C38.3879 28.9037 38.2447 28.7606 38.2447 28.0658V23.1613C38.2447 22.3541 38.3674 22.2213 39.1648 22.2213H45.2987H45.9325C45.7155 21.9143 45.4224 21.6691 45.0818 21.5096C44.7412 21.3502 44.365 21.2821 43.9901 21.3119H34.8609H34.3803V37.7624C35.5356 37.7624 36.65 37.7624 37.7745 37.7624C37.9402 37.7423 38.0929 37.6624 38.2038 37.5376C38.6396 37.0348 39.1776 36.6306 39.7821 36.352C40.3865 36.0733 41.0434 35.9267 41.709 35.9219C42.3746 35.917 43.0336 36.0541 43.6421 36.3239C44.2505 36.5937 44.7943 36.9901 45.2373 37.4866C45.36 37.6092 45.5134 37.7624 45.6565 37.7624C47.2513 37.7624 48.8563 37.7624 50.4715 37.7624L50.4205 35.2285ZM33.1229 37.7829V34.7176H3.65996V35.8313H5.29563C5.92947 35.8313 6.0726 35.9948 6.0726 36.6283C6.0726 36.9961 6.0726 37.364 6.0726 37.7727C6.71666 37.7727 7.30963 37.7727 7.89234 37.7727C8.1255 37.7577 8.34444 37.6555 8.50571 37.4866C8.94449 37.0054 9.47887 36.621 10.0747 36.358C10.6706 36.095 11.3149 35.9592 11.9662 35.9592C12.6176 35.9592 13.2619 36.095 13.8577 36.358C14.4536 36.621 14.988 37.0054 15.4268 37.4866C15.5292 37.6037 15.657 37.6958 15.8005 37.756C15.944 37.8162 16.0994 37.8429 16.2548 37.834H33.1127L33.1229 37.7829ZM29.5755 15.8659C29.5755 16.5198 29.5755 17.1227 29.5755 17.7255C29.5755 18.3284 29.1768 18.6655 28.5532 18.3181C28.3258 18.1581 28.0544 18.0722 27.7763 18.0722C27.4981 18.0722 27.2267 18.1581 26.9993 18.3181C26.4268 18.6655 26.0486 18.3999 26.0384 17.7357C26.0282 17.0716 26.0384 16.4994 26.0384 15.8761H24.2799V25.4092H31.2624V15.8659H29.5755ZM50.3693 27.79L50.5227 27.6673C50.3116 27.2358 50.0655 26.8223 49.7867 26.431C48.9893 25.5012 48.1305 24.6225 47.3126 23.7131C47.2122 23.5923 47.0852 23.4963 46.9416 23.4325C46.798 23.3687 46.6416 23.3388 46.4846 23.3453H39.8601H39.3489V27.7593L50.3693 27.79ZM13.2492 26.5843V28.3928C13.2492 29.1489 12.9119 29.4146 12.2269 29.0161C12.0204 28.871 11.774 28.7931 11.5215 28.7931C11.269 28.7931 11.0227 28.871 10.8161 29.0161C10.1312 29.4248 9.79383 29.1796 9.79383 28.3928V26.6251H8.03548V33.5834H15.0383V26.6047L13.2492 26.5843ZM23.1554 33.5834V26.5945H21.4073C21.4073 27.2586 21.4073 27.8819 21.4073 28.495C21.4073 29.108 21.029 29.3635 20.4974 29.0467C20.2621 28.8823 19.9819 28.7942 19.6949 28.7942C19.4078 28.7942 19.1277 28.8823 18.8924 29.0467C18.3097 29.3941 17.9621 29.1285 17.9621 28.4337C17.9621 27.7389 17.9621 27.2076 17.9621 26.5945H16.1833V33.5936L23.1554 33.5834ZM24.3413 26.5741V33.563H31.2931V26.6047H29.5755C29.5755 27.2484 29.5755 27.8513 29.5755 28.4541C29.5755 29.057 29.1768 29.3737 28.5532 29.0263C28.3221 28.8708 28.0498 28.7877 27.7711 28.7877C27.4925 28.7877 27.2202 28.8708 26.9891 29.0263C26.4063 29.3635 26.0486 29.108 26.0384 28.4337C26.0282 27.7593 26.0384 27.1973 26.0384 26.5638L24.3413 26.5741ZM16.1628 25.4092H23.1656V18.451H21.4175C21.4175 19.0743 21.4175 19.6567 21.4175 20.2391C21.4175 20.9952 21.0495 21.2608 20.3952 20.8726C20.1797 20.7258 19.925 20.6474 19.6643 20.6474C19.4035 20.6474 19.1487 20.7258 18.9332 20.8726C18.3096 21.2404 17.9109 20.9952 17.9109 20.28C17.9109 19.5647 17.9109 19.0538 17.9109 18.451H16.1116L16.1628 25.4092ZM37.2838 38.8864H16.4184L16.7251 40.1023H36.425C36.5296 40.123 36.6373 40.123 36.742 40.1023C36.8743 40.0517 36.9859 39.9581 37.0588 39.8366C37.1486 39.5243 37.2204 39.207 37.2736 38.8864H37.2838ZM41.7718 44.2507C42.484 44.2345 43.1754 44.008 43.759 43.5997C44.3426 43.1914 44.7923 42.6196 45.0514 41.9563C45.3104 41.293 45.3671 40.568 45.2146 39.8725C45.062 39.177 44.707 38.5422 44.1941 38.048C43.6813 37.5539 43.0336 37.2225 42.3326 37.0956C41.6316 36.9688 40.9087 37.0521 40.255 37.3352C39.6013 37.6182 39.0461 38.0883 38.6593 38.6862C38.2724 39.2841 38.0712 39.983 38.0811 40.6949C38.0999 41.6534 38.4977 42.5655 39.1873 43.2318C39.8769 43.898 40.8025 44.2644 41.7615 44.2507H41.7718ZM8.36257 40.6438C8.3646 41.3539 8.57682 42.0474 8.97256 42.6371C9.3683 43.2268 9.92986 43.6862 10.5864 43.9574C11.2429 44.2287 11.9652 44.2996 12.662 44.1613C13.3588 44.023 13.999 43.6817 14.5021 43.1804C15.0051 42.679 15.3483 42.04 15.4887 41.344C15.629 40.6479 15.5602 39.9259 15.2906 39.269C15.0211 38.612 14.563 38.0495 13.9742 37.6523C13.3853 37.2551 12.692 37.041 11.9816 37.037C11.5057 37.0315 11.0334 37.121 10.5925 37.3002C10.1516 37.4794 9.75097 37.7447 9.41396 38.0806C9.07694 38.4165 8.81042 38.8162 8.62988 39.2563C8.44933 39.6965 8.35846 40.1682 8.36257 40.6438ZM51.5655 36.3728C51.5655 36.4546 51.5041 36.4852 51.5041 36.5159C51.5041 37.0165 51.5041 37.5377 51.5041 38.0077C51.5041 38.7434 51.3917 38.8557 50.6761 38.8557H46.0347L46.3722 40.0921C47.9874 40.0921 49.5719 40.0921 51.1463 40.0921C51.4348 40.1089 51.7184 40.0108 51.9349 39.8194C52.1513 39.6279 52.2831 39.3586 52.3015 39.0703C52.3015 38.1916 52.3015 37.3129 52.3015 36.4035L51.5655 36.3728ZM34.2577 20.1471H42.1908C42.0338 19.8815 41.8092 19.6621 41.5399 19.5114C41.2706 19.3606 40.966 19.2838 40.6574 19.2888C38.7252 19.3399 36.7829 19.2888 34.8405 19.2888H34.2577V20.1471ZM7.5549 38.8966H3.58833V40.0614H7.26875L7.5549 38.8966ZM49.1426 32.4901V34.1249H50.3591V32.4901H49.1426ZM28.4306 15.8659H27.2139V16.8877H28.4306V15.8659ZM28.4306 26.5741H27.2139V27.5958H28.4306V26.5741ZM12.1348 27.5958V26.5741H10.9183V27.5958H12.1348ZM20.3133 26.5741H19.0764V27.5958H20.3133V26.5741ZM19.0661 18.3999V19.4217H20.3032V18.3999H19.0661ZM3.65996 37.7216H4.96855V36.9144H3.65996V37.7216Z" fill="#124F2E"/>
<path d="M4.69255 23.6822C3.73157 23.6822 2.77053 23.6822 1.80956 23.6822C1.42108 23.6822 1.11443 23.5596 1.09399 23.1509C1.07354 22.7422 1.40061 22.5991 1.78909 22.5991H7.56518C7.94343 22.5991 8.27064 22.7013 8.27064 23.1304C8.27064 23.5596 7.93329 23.6924 7.52437 23.6822C6.58384 23.672 5.6433 23.6822 4.69255 23.6822Z" fill="#124F2E"/>
<path d="M2.82159 13.9756H4.95831C5.35701 13.9756 5.64318 14.1186 5.64318 14.5376C5.64318 14.9565 5.33658 15.0587 4.96855 15.0484H0.644061C0.286252 15.0484 0 14.936 0 14.5171C0 14.0982 0.265796 13.9756 0.633828 13.9756H2.82159Z" fill="#124F2E"/>
<path d="M3.25109 20.8009H1.12473C0.736248 20.8009 0.490908 20.6374 0.501132 20.2389C0.511355 19.8404 0.746451 19.728 1.10426 19.728H5.29571C5.68419 19.728 5.93976 19.9017 5.92954 20.2798C5.91932 20.6578 5.67399 20.8009 5.31618 20.8009H3.25109Z" fill="#124F2E"/>
<path d="M4.32456 17.4905H2.67853C2.29005 17.4905 2.04471 17.3169 2.05493 16.9388C2.06516 16.5607 2.30039 16.4177 2.66842 16.4279H6.07267C6.15179 16.4053 6.23501 16.4014 6.3159 16.4164C6.39679 16.4315 6.47309 16.4651 6.53878 16.5146C6.60447 16.5642 6.65783 16.6282 6.69452 16.7018C6.73122 16.7755 6.75031 16.8566 6.75031 16.9388C6.75031 17.021 6.73122 17.1021 6.69452 17.1757C6.65783 17.2494 6.60447 17.3134 6.53878 17.363C6.47309 17.4125 6.39679 17.4461 6.3159 17.4611C6.23501 17.4762 6.15179 17.4723 6.07267 17.4497L4.32456 17.4905Z" fill="#124F2E"/>
<path d="M50.4103 35.2794V37.8338C48.795 37.8338 47.1901 37.8338 45.5953 37.8338C45.4521 37.8338 45.2987 37.6806 45.1761 37.558C44.733 37.0615 44.1891 36.6651 43.5807 36.3953C42.9723 36.1255 42.3134 35.9884 41.6478 35.9933C40.9822 35.9981 40.3253 36.1447 39.7208 36.4234C39.1164 36.702 38.5783 37.1062 38.1426 37.609C38.0316 37.7338 37.8789 37.8137 37.7131 37.8338C36.5886 37.8338 35.4743 37.8338 34.3191 37.8338V21.3833H34.7996H43.9289C44.3038 21.3534 44.6799 21.4216 45.0204 21.581C45.361 21.7405 45.6542 21.9857 45.8712 22.2927H45.2373H39.1035C38.3061 22.2927 38.1835 22.4255 38.1835 23.2327V28.127C38.1835 28.8218 38.3266 28.9649 39.032 28.9649H50.3489V31.4375C49.8275 31.4375 49.3266 31.4375 48.7337 31.4375C48.1408 31.4375 48.0079 31.6317 48.0181 32.1324C48.0181 32.9702 48.0181 33.8081 48.0181 34.6459C48.0181 35.0853 48.2226 35.2999 48.6622 35.2896L50.4103 35.2794ZM39.4102 33.1848C39.7802 33.2312 40.1545 33.2312 40.5245 33.1848C40.7494 33.1337 40.9028 32.8578 41.0971 32.6739C40.913 32.49 40.7392 32.163 40.545 32.1426C39.7863 32.0813 39.0239 32.0813 38.2652 32.1426C38.071 32.1426 37.8052 32.4491 37.7438 32.6637C37.6825 32.8783 37.9278 33.1848 38.2448 33.2052C38.5617 33.2257 39.032 33.1235 39.4102 33.1337V33.1848Z" fill="#43B02A"/>
<path d="M33.1127 37.7827H16.2548C16.0995 37.7916 15.9441 37.7649 15.8006 37.7047C15.6571 37.6445 15.5293 37.5523 15.4268 37.4353C14.988 36.9541 14.4537 36.5697 13.8578 36.3067C13.2619 36.0437 12.6177 35.9079 11.9663 35.9079C11.3149 35.9079 10.6707 36.0437 10.0748 36.3067C9.47892 36.5697 8.94453 36.9541 8.50575 37.4353C8.34449 37.6042 8.12554 37.7064 7.89239 37.7214C7.30967 37.7214 6.7167 37.7214 6.07264 37.7214C6.07264 37.3127 6.07264 36.9448 6.07264 36.577C6.07264 35.9435 5.92951 35.7902 5.29568 35.78H3.66V34.6663H33.1127V37.7827Z" fill="#43B02A"/>
<path d="M29.5755 15.8657H31.3032V25.4091H24.3208V15.8657H26.0792C26.0792 16.489 26.0792 17.1021 26.0792 17.7254C26.0792 18.3486 26.4677 18.6552 27.0402 18.3078C27.2676 18.1477 27.539 18.0618 27.8172 18.0618C28.0953 18.0618 28.3667 18.1477 28.5942 18.3078C29.1666 18.6552 29.5551 18.3895 29.6165 17.7151C29.6778 17.0408 29.5755 16.5197 29.5755 15.8657Z" fill="#43B02A"/>
<path d="M50.3695 27.7897H39.349V23.3756H39.8602H46.4847C46.6418 23.3692 46.7981 23.399 46.9417 23.4628C47.0854 23.5266 47.2123 23.6226 47.3128 23.7435C48.1306 24.6528 48.9894 25.5315 49.7868 26.4613C50.0656 26.8526 50.3118 27.2661 50.5228 27.6977L50.3695 27.7897Z" fill="white"/>
<path d="M13.2494 26.584H15.0384V33.5627H8.03561V26.6044H9.79396V28.3721C9.79396 29.1588 10.1518 29.3939 10.8163 28.9954C11.0228 28.8503 11.2691 28.7724 11.5216 28.7724C11.7741 28.7724 12.0205 28.8503 12.2271 28.9954C12.8916 29.3632 13.2494 29.1282 13.2494 28.3721V26.584Z" fill="#43B02A"/>
<path d="M23.1555 33.5831H16.1731V26.584H17.9519C17.9519 27.197 17.9519 27.8101 17.9519 28.4232C17.9519 29.0363 18.2996 29.3837 18.8823 29.0363C19.1176 28.8718 19.3976 28.7837 19.6847 28.7837C19.9718 28.7837 20.252 28.8718 20.4873 29.0363C21.0189 29.353 21.3869 29.1078 21.3971 28.4845C21.4073 27.8612 21.3971 27.2481 21.3971 26.584H23.1452L23.1555 33.5831Z" fill="#43B02A"/>
<path d="M24.3413 26.574H26.0792C26.0792 27.2075 26.0792 27.8205 26.0792 28.4438C26.0792 29.0671 26.4472 29.3736 27.03 29.0364C27.2611 28.8809 27.5334 28.7979 27.812 28.7979C28.0907 28.7979 28.363 28.8809 28.5941 29.0364C29.1666 29.3838 29.5551 29.1284 29.6164 28.4642C29.6778 27.8001 29.6164 27.2585 29.6164 26.6148H31.3339V33.5731H24.3822L24.3413 26.574Z" fill="#43B02A"/>
<path d="M16.1527 25.4092V18.4509H17.952C17.952 19.0538 17.952 19.6668 17.952 20.2799C17.952 20.893 18.3098 21.2404 18.9743 20.8725C19.1898 20.7258 19.4444 20.6473 19.7052 20.6473C19.9659 20.6473 20.2207 20.7258 20.4362 20.8725C21.0803 21.2404 21.4585 20.9951 21.4585 20.239C21.4585 19.6566 21.4585 19.0742 21.4585 18.4509H23.2067V25.4092H16.1527Z" fill="#43B02A"/>
<path d="M37.2737 38.8862C37.2168 39.2036 37.1418 39.5175 37.0489 39.8262C36.9759 39.9477 36.8643 40.0412 36.7319 40.0919C36.6273 40.1125 36.5195 40.1125 36.4149 40.0919H16.7151L16.4083 38.876L37.2737 38.8862Z" fill="white"/>
<path d="M41.7617 44.2507C41.0522 44.264 40.3544 44.068 39.7557 43.6871C39.1571 43.3062 38.6842 42.7573 38.396 42.1092C38.1078 41.461 38.0172 40.7423 38.1355 40.043C38.2539 39.3437 38.5759 38.6947 39.0613 38.1774C39.5467 37.66 40.174 37.2971 40.8647 37.1341C41.5553 36.9711 42.2787 37.0153 42.9444 37.2611C43.61 37.5069 44.1884 37.9433 44.6072 38.5159C45.026 39.0885 45.2666 39.7718 45.2988 40.4803C45.3194 40.9613 45.2436 41.4414 45.0761 41.8928C44.9085 42.3441 44.6525 42.7574 44.3231 43.1086C43.9936 43.4597 43.5975 43.7416 43.1576 43.9377C42.7178 44.1338 42.2432 44.2402 41.7617 44.2507ZM39.1036 40.6642C39.1096 41.1737 39.2663 41.6701 39.5537 42.0909C39.8411 42.5118 40.2465 42.8383 40.719 43.0296C41.1916 43.2209 41.71 43.2683 42.2094 43.166C42.7089 43.0636 43.1668 42.816 43.5259 42.4543C43.885 42.0926 44.1291 41.6329 44.2276 41.133C44.3261 40.6331 44.2745 40.1152 44.0795 39.6444C43.8844 39.1737 43.5545 38.771 43.1312 38.4871C42.7079 38.2031 42.2101 38.0506 41.7003 38.0485C41.3572 38.0471 41.0172 38.114 40.7002 38.2452C40.3832 38.3765 40.0955 38.5694 39.8538 38.8128C39.6122 39.0563 39.4214 39.3454 39.2926 39.6632C39.1638 39.9811 39.0995 40.3213 39.1036 40.6642Z" fill="white"/>
<path d="M8.36282 40.6437C8.36486 39.932 8.57813 39.2368 8.97568 38.6463C9.37323 38.0557 9.93722 37.5963 10.5961 37.3263C11.255 37.0562 11.9793 36.9877 12.6772 37.1292C13.3751 37.2708 14.0154 37.6162 14.5168 38.1217C15.0182 38.6271 15.3582 39.2699 15.4939 39.9686C15.6296 40.6674 15.5548 41.3907 15.279 42.0469C15.0032 42.7031 14.5388 43.2628 13.9446 43.6551C13.3504 44.0474 12.6531 44.2546 11.9409 44.2506C11.4688 44.2493 11.0017 44.1548 10.5662 43.9727C10.1307 43.7906 9.73537 43.5244 9.40298 43.1893C9.07059 42.8542 8.80762 42.4569 8.62913 42.0201C8.45065 41.5833 8.36013 41.1156 8.36282 40.6437ZM11.9614 43.2288C12.4767 43.2288 12.9803 43.0755 13.4081 42.7884C13.836 42.5014 14.1688 42.0936 14.364 41.617C14.5593 41.1404 14.6082 40.6165 14.5047 40.112C14.4011 39.6075 14.1497 39.1451 13.7825 38.7839C13.4152 38.4226 12.9488 38.1787 12.4425 38.0832C11.9361 37.9877 11.4126 38.045 10.9389 38.2477C10.4652 38.4504 10.0626 38.7894 9.78223 39.2216C9.50188 39.6537 9.35655 40.1594 9.36467 40.6744C9.38075 41.361 9.66637 42.0137 10.1599 42.4917C10.6533 42.9696 11.3152 43.2344 12.0023 43.2288H11.9614Z" fill="white"/>
<path d="M51.6065 36.3728H52.3426C52.3426 37.2822 52.3426 38.1609 52.3426 39.0396C52.3241 39.3279 52.1922 39.5972 51.9758 39.7887C51.7593 39.9801 51.4759 40.0782 51.1873 40.0614C49.613 40.0614 48.0283 40.0614 46.4131 40.0614L46.0758 38.825H50.7171C51.4327 38.825 51.5349 38.7127 51.5451 37.977C51.5451 37.4763 51.5451 36.9552 51.5451 36.4852C51.5451 36.4852 51.5758 36.4545 51.6065 36.3728Z" fill="white"/>
<path d="M7.59594 38.8965L7.30966 40.0613H3.62936V38.8965H7.59594Z" fill="white"/>
<path d="M49.1836 32.49H50.4001V34.1248H49.1836V32.49Z" fill="white"/>
<path d="M28.4308 15.8657V16.8875H27.2142V15.8657H28.4308Z" fill="white"/>
<path d="M28.4308 26.584V27.6058H27.2142V26.584H28.4308Z" fill="white"/>
<path d="M12.1349 27.6058H10.9185V26.584H12.1349V27.6058Z" fill="white"/>
<path d="M20.2828 26.584V27.6058H19.0457V26.584H20.2828Z" fill="white"/>
<path d="M19.0355 18.4407H20.2726V19.4624H19.0355V18.4407Z" fill="white"/>
<path d="M3.62936 37.7623V36.9551H4.93795V37.7623H3.62936Z" fill="white"/>
<path d="M39.4102 33.1235C39.0217 33.1235 38.6332 33.1235 38.2448 33.1235C37.8563 33.1235 37.6518 32.9089 37.7438 32.5819C37.8358 32.255 38.071 32.0711 38.2652 32.0609C39.0239 31.9996 39.7863 31.9996 40.545 32.0609C40.7392 32.0609 40.913 32.4082 41.0971 32.5922C40.9028 32.7761 40.7494 33.052 40.5245 33.1031C40.1557 33.1607 39.7808 33.1676 39.4102 33.1235Z" fill="#124F2E"/>
<path d="M39.1034 40.6641C39.0994 40.152 39.2476 39.6502 39.5294 39.2224C39.8111 38.7946 40.2137 38.4601 40.686 38.2613C41.1582 38.0625 41.6788 38.0084 42.1819 38.1058C42.6849 38.2032 43.1478 38.4478 43.5115 38.8085C43.8753 39.1692 44.1236 39.6298 44.2251 40.1318C44.3266 40.6338 44.2765 41.1546 44.0813 41.6282C43.8862 42.1017 43.5548 42.5067 43.129 42.7916C42.7033 43.0766 42.2023 43.2287 41.6899 43.2288C41.0075 43.2288 40.3527 42.9592 39.8682 42.4788C39.3837 41.9984 39.1088 41.3462 39.1034 40.6641ZM41.6797 39.1621C41.2837 39.1647 40.9045 39.3224 40.6236 39.6014C40.3426 39.8803 40.1823 40.2581 40.1769 40.6539C40.1924 41.0481 40.3574 41.4217 40.6384 41.6987C40.9194 41.9758 41.2953 42.1356 41.6899 42.1457C42.0849 42.1403 42.462 41.9797 42.7394 41.6986C43.0169 41.4175 43.1724 41.0385 43.1724 40.6437C43.1751 40.4475 43.1383 40.2527 43.0642 40.071C42.99 39.8894 42.88 39.7245 42.7407 39.5862C42.6014 39.4479 42.4357 39.3391 42.2534 39.2662C42.0711 39.1934 41.876 39.158 41.6797 39.1621Z" fill="#124F2E"/>
<path d="M12.0021 43.2287C11.6481 43.2509 11.2932 43.2005 10.9595 43.0803C10.6257 42.9602 10.3201 42.7731 10.0616 42.5304C9.80301 42.2877 9.59694 41.9946 9.45608 41.6692C9.31521 41.3438 9.24255 40.993 9.24255 40.6385C9.24255 40.284 9.31521 39.9332 9.45608 39.6079C9.59694 39.2825 9.80301 38.9894 10.0616 38.7467C10.3201 38.504 10.6257 38.3168 10.9595 38.1967C11.2932 38.0766 11.6481 38.0261 12.0021 38.0483C12.3561 38.0261 12.7109 38.0766 13.0446 38.1967C13.3784 38.3168 13.684 38.504 13.9425 38.7467C14.2011 38.9894 14.4072 39.2825 14.548 39.6079C14.6889 39.9332 14.7616 40.284 14.7616 40.6385C14.7616 40.993 14.6889 41.3438 14.548 41.6692C14.4072 41.9946 14.2011 42.2877 13.9425 42.5304C13.684 42.7731 13.3784 42.9602 13.0446 43.0803C12.7109 43.2005 12.3561 43.2509 12.0021 43.2287ZM13.4844 40.6436C13.4872 40.4483 13.4507 40.2544 13.3772 40.0734C13.3037 39.8924 13.1946 39.728 13.0564 39.5899C12.9182 39.4517 12.7536 39.3427 12.5726 39.2692C12.3915 39.1957 12.1975 39.1593 12.0021 39.162C11.8057 39.1607 11.611 39.1983 11.4293 39.2728C11.2476 39.3473 11.0825 39.4572 10.9436 39.596C10.8047 39.7348 10.6948 39.8997 10.6203 40.0814C10.5458 40.263 10.5081 40.4576 10.5095 40.6539C10.5198 41.0462 10.6804 41.4197 10.9581 41.6973C11.2358 41.9748 11.6095 42.1353 12.0021 42.1456C12.3962 42.1402 12.7721 41.9793 13.0479 41.6979C13.3237 41.4165 13.4769 41.0375 13.4742 40.6436H13.4844Z" fill="#124F2E"/>
</svg>
