<svg width="55" height="55" viewBox="0 0 55 55" fill="none" xmlns="http://www.w3.org/2000/svg">
<path fill-rule="evenodd" clip-rule="evenodd" d="M24.5965 16.2707C24.6195 16.0054 24.6313 15.7368 24.6313 15.4655C24.6313 10.3956 20.5213 6.28564 15.4514 6.28564C10.3816 6.28564 6.27161 10.3956 6.27161 15.4655C6.27161 20.5354 10.3816 24.6453 15.4514 24.6453C15.6844 24.6453 15.9154 24.6366 16.144 24.6196C12.1157 24.2991 8.94895 21.008 8.94895 16.9953C8.94895 12.7704 12.4595 9.34545 16.7901 9.34545C20.8701 9.34545 24.2223 12.3857 24.5965 16.2707Z" fill="#124F2E"/>
<path fill-rule="evenodd" clip-rule="evenodd" d="M30.4035 16.2707C30.3805 16.0054 30.3687 15.7368 30.3687 15.4655C30.3687 10.3956 34.4787 6.28564 39.5486 6.28564C44.6184 6.28564 48.7284 10.3956 48.7284 15.4655C48.7284 20.5354 44.6184 24.6453 39.5486 24.6453C39.3156 24.6453 39.0846 24.6366 38.856 24.6196C42.8843 24.2991 46.0511 21.008 46.0511 16.9953C46.0511 12.7704 42.5405 9.34545 38.2099 9.34545C34.1299 9.34545 30.7777 12.3857 30.4035 16.2707Z" fill="#124F2E"/>
<path fill-rule="evenodd" clip-rule="evenodd" d="M24.5965 38.9485C24.6195 39.2139 24.6313 39.4824 24.6313 39.7538C24.6313 44.8236 20.5213 48.9336 15.4514 48.9336C10.3816 48.9336 6.27161 44.8236 6.27161 39.7538C6.27161 34.6839 10.3816 30.5739 15.4514 30.5739C15.6844 30.5739 15.9154 30.5826 16.144 30.5996C12.1157 30.9202 8.94895 34.2112 8.94895 38.2239C8.94895 42.4488 12.4595 45.8738 16.7901 45.8738C20.8701 45.8738 24.2223 42.8336 24.5965 38.9485Z" fill="#124F2E"/>
<path fill-rule="evenodd" clip-rule="evenodd" d="M30.4035 38.9485C30.3805 39.2139 30.3687 39.4824 30.3687 39.7538C30.3687 44.8236 34.4787 48.9336 39.5486 48.9336C44.6184 48.9336 48.7284 44.8236 48.7284 39.7538C48.7284 34.6839 44.6184 30.5739 39.5486 30.5739C39.3156 30.5739 39.0846 30.5826 38.856 30.5996C42.8843 30.9202 46.0511 34.2112 46.0511 38.2239C46.0511 42.4488 42.5405 45.8738 38.2099 45.8738C34.1299 45.8738 30.7777 42.8336 30.4035 38.9485Z" fill="#124F2E"/>
<path d="M36.4887 27.1315C36.4887 32.2014 32.3788 36.3113 27.3089 36.3113C22.239 36.3113 18.129 32.2014 18.129 27.1315C18.129 22.0616 22.239 17.9517 27.3089 17.9517C32.3788 17.9517 36.4887 22.0616 36.4887 27.1315ZM20.5135 27.1315C20.5135 30.8845 23.5559 33.9269 27.3089 33.9269C31.0619 33.9269 34.1043 30.8845 34.1043 27.1315C34.1043 23.3785 31.0619 20.3361 27.3089 20.3361C23.5559 20.3361 20.5135 23.3785 20.5135 27.1315Z" fill="#124F2E"/>
<path d="M33.4289 27.1314C33.4289 30.5113 30.6889 33.2513 27.309 33.2513C23.9291 33.2513 21.1891 30.5113 21.1891 27.1314C21.1891 23.7514 23.9291 21.0115 27.309 21.0115C30.6889 21.0115 33.4289 23.7514 33.4289 27.1314ZM22.7787 27.1314C22.7787 29.6334 24.807 31.6616 27.309 31.6616C29.811 31.6616 31.8392 29.6334 31.8392 27.1314C31.8392 24.6294 29.811 22.6011 27.309 22.6011C24.807 22.6011 22.7787 24.6294 22.7787 27.1314Z" fill="#43B02A"/>
<ellipse cx="27.3085" cy="27.1317" rx="3.05995" ry="3.05995" fill="#124F2E"/>
<path d="M16.9811 17.5693L19.2761 21.3943L21.3798 19.2906L17.7461 16.8044L16.9811 17.5693Z" fill="#43B02A"/>
<path d="M18.5111 15.4656C18.5111 17.05 17.2267 18.3343 15.6424 18.3343C14.058 18.3343 12.7737 17.05 12.7737 15.4656C12.7737 13.8813 14.058 12.5969 15.6424 12.5969C17.2267 12.5969 18.5111 13.8813 18.5111 15.4656Z" fill="#43B02A"/>
<path d="M37.8276 17.5693L35.5326 21.3943L33.4289 19.2906L37.0626 16.8044L37.8276 17.5693Z" fill="#43B02A"/>
<path d="M36.2976 15.4656C36.2976 17.05 37.582 18.3343 39.1663 18.3343C40.7507 18.3343 42.035 17.05 42.035 15.4656C42.035 13.8813 40.7507 12.5969 39.1663 12.5969C37.582 12.5969 36.2976 13.8813 36.2976 15.4656Z" fill="#43B02A"/>
<path d="M16.9811 37.0762L19.2761 33.2512L21.3798 35.355L17.7461 37.8412L16.9811 37.0762Z" fill="#43B02A"/>
<path d="M18.5111 39.1799C18.5111 37.5955 17.2267 36.3112 15.6424 36.3112C14.058 36.3112 12.7737 37.5955 12.7737 39.1799C12.7737 40.7642 14.058 42.0486 15.6424 42.0486C17.2267 42.0486 18.5111 40.7642 18.5111 39.1799Z" fill="#43B02A"/>
<path d="M37.8276 37.0762L35.5326 33.2512L33.4289 35.355L37.0626 37.8412L37.8276 37.0762Z" fill="#43B02A"/>
<path d="M36.2976 39.1799C36.2976 37.5955 37.582 36.3112 39.1663 36.3112C40.7507 36.3112 42.035 37.5955 42.035 39.1799C42.035 40.7642 40.7507 42.0486 39.1663 42.0486C37.582 42.0486 36.2976 40.7642 36.2976 39.1799Z" fill="#43B02A"/>
</svg>
