<svg width="55" height="55" viewBox="0 0 55 55" fill="none" xmlns="http://www.w3.org/2000/svg">
<path d="M34.9356 36.7339H37.9787C38.0758 36.723 38.1739 36.733 38.2668 36.7632C38.3596 36.7934 38.4449 36.843 38.517 36.9089C38.589 36.9747 38.6462 37.0552 38.6845 37.1449C38.7229 37.2346 38.7416 37.3315 38.7395 37.4291C38.7465 37.5307 38.7311 37.6326 38.6943 37.7276C38.6576 37.8227 38.6003 37.9084 38.5267 37.9789C38.453 38.0494 38.3648 38.1028 38.2682 38.1354C38.1717 38.1681 38.0692 38.1791 37.9679 38.1677H33.8597C33.8597 38.9932 33.7728 39.7753 33.7511 40.5682C33.7511 40.666 33.8489 40.7855 33.9032 40.8833C34.5444 41.9695 35.1857 43.1209 35.8486 44.2288C35.9871 44.4262 36.0613 44.6613 36.0613 44.9023C36.0613 45.1433 35.9871 45.3785 35.8486 45.5758C35.7105 45.7862 35.5066 45.945 35.2688 46.0275C35.0309 46.11 34.7724 46.1116 34.5335 46.032C34.1205 45.9342 33.675 45.9016 33.2512 45.8256C33.1947 45.8077 33.1351 45.8021 33.0763 45.8092C33.0175 45.8164 32.9609 45.8361 32.9103 45.867C32.8598 45.8979 32.8166 45.9393 32.7835 45.9884C32.7504 46.0375 32.7283 46.0931 32.7186 46.1515C32.5882 46.5751 32.3925 46.9879 32.2404 47.4115C32.1796 47.6376 32.0514 47.8398 31.8728 47.9911C31.6941 48.1425 31.4735 48.2359 31.2405 48.2588C30.999 48.283 30.7561 48.231 30.5456 48.1103C30.3351 47.9895 30.1676 47.806 30.0668 47.5853C29.4147 46.4231 28.7409 45.2716 28.0671 44.1202C28.0019 43.9899 27.915 43.8704 27.8171 43.7075C27.4325 44.0132 26.9555 44.1797 26.4641 44.1797C25.9726 44.1797 25.4956 44.0132 25.111 43.7075C24.8067 44.218 24.535 44.6959 24.2633 45.163L22.8395 47.6179C22.751 47.8285 22.5985 48.0059 22.4034 48.1249C22.2083 48.2438 21.9805 48.2983 21.7527 48.2805C21.5175 48.2708 21.2918 48.1852 21.1095 48.0363C20.9272 47.8874 20.7983 47.6834 20.742 47.4549C20.579 47.0313 20.3942 46.6185 20.2529 46.1949C20.2449 46.1329 20.2232 46.0735 20.1895 46.0208C20.1557 45.9682 20.1108 45.9237 20.0579 45.8904C20.0049 45.8572 19.9452 45.8361 19.8831 45.8286C19.821 45.8212 19.7579 45.8276 19.6986 45.8473C19.2421 45.9451 18.7858 45.9885 18.3294 46.0754C18.109 46.1331 17.8759 46.12 17.6634 46.0382C17.4508 45.9563 17.2693 45.8097 17.1446 45.6192C17.0136 45.4352 16.9433 45.215 16.9433 44.9892C16.9433 44.7634 17.0136 44.5432 17.1446 44.3592C17.7859 43.273 18.4488 42.1324 19.0683 41.0027C19.1894 40.7598 19.2527 40.4921 19.2531 40.2206C19.2531 39.558 19.2531 38.9063 19.2531 38.1894H8.66764C8.3601 38.2085 8.05196 38.162 7.76378 38.053C7.47559 37.944 7.21391 37.775 6.99604 37.5573C6.77816 37.3395 6.60904 37.0779 6.5 36.7899C6.39096 36.5019 6.34454 36.194 6.36361 35.8866V16.052C6.35275 15.9328 6.35275 15.8128 6.36361 15.6936C6.38531 15.5275 6.46899 15.3758 6.59804 15.269C6.72708 15.1622 6.89179 15.1082 7.05905 15.1179C7.23278 15.1025 7.40576 15.1549 7.54156 15.2643C7.67736 15.3737 7.76544 15.5315 7.78726 15.7045C7.79792 15.8563 7.79792 16.0088 7.78726 16.1607V35.615C7.78726 36.5275 7.99375 36.7013 8.87407 36.7013H18.1772L17.7967 36.3102C17.5562 36.1063 17.3631 35.8525 17.2306 35.5664C17.0981 35.2804 17.0295 34.9689 17.0295 34.6537C17.0295 34.3385 17.0981 34.0271 17.2306 33.741C17.3631 33.455 17.5562 33.2012 17.7967 32.9972C18.1525 32.6761 18.49 32.3352 18.8075 31.9762C18.9984 31.7224 19.1183 31.4225 19.1552 31.1072C19.1824 30.568 19.1824 30.0279 19.1552 29.4887C19.1395 29.1993 19.1851 28.9098 19.2888 28.6391C19.3925 28.3685 19.5519 28.1227 19.757 27.9177C19.962 27.7128 20.208 27.5533 20.4788 27.4496C20.7496 27.346 21.0392 27.3006 21.3288 27.3163C21.8179 27.3163 22.3178 27.3163 22.8177 27.3163C23.0108 27.3347 23.2054 27.3046 23.3838 27.2287C23.5622 27.1528 23.7189 27.0335 23.8394 26.8817C24.1654 26.5341 24.524 26.1974 24.8609 25.8607C25.0645 25.6402 25.3115 25.4642 25.5865 25.3438C25.8614 25.2234 26.1585 25.1613 26.4586 25.1613C26.7588 25.1613 27.0557 25.2234 27.3307 25.3438C27.6056 25.4642 27.8527 25.6402 28.0562 25.8607C28.4366 26.2409 28.7952 26.6536 29.2082 27.0012C29.4143 27.1637 29.6638 27.262 29.9255 27.2837C30.5124 27.2837 31.0992 27.2837 31.6861 27.2837C32.2262 27.272 32.749 27.4746 33.14 27.8471C33.531 28.2196 33.7586 28.7317 33.7728 29.2715C33.7728 29.8218 33.7728 30.3758 33.7728 30.9334C33.7542 31.1369 33.7851 31.3419 33.8626 31.531C33.9402 31.7201 34.0623 31.8877 34.2184 32.0196C34.588 32.3455 34.9249 32.7148 35.3052 33.1059C35.5239 33.3024 35.6988 33.5428 35.8185 33.8114C35.9382 34.0799 36 34.3706 36 34.6646C36 34.9586 35.9382 35.2493 35.8185 35.5178C35.6988 35.7864 35.5239 36.0267 35.3052 36.2233C35.1748 36.3537 35.0335 36.4623 34.8923 36.5818L34.9356 36.7339ZM20.6225 38.9063C20.6225 39.2213 20.6225 39.5363 20.6225 39.8513C20.6225 40.351 20.8289 40.5683 21.3288 40.5791C21.8287 40.59 22.2853 40.5791 22.7635 40.5791C23.1858 40.5491 23.6092 40.6201 23.9986 40.7863C24.388 40.9526 24.732 41.2092 25.0022 41.535C25.2961 41.8776 25.6158 42.1972 25.9586 42.4909C26.0197 42.5783 26.1011 42.6496 26.1957 42.6989C26.2903 42.7482 26.3953 42.7739 26.502 42.7739C26.6087 42.7739 26.7139 42.7482 26.8085 42.6989C26.9031 42.6496 26.9843 42.5783 27.0454 42.4909C27.4584 42.0999 27.8605 41.6979 28.2518 41.2852C28.5806 40.9253 29.0366 40.7071 29.5234 40.6769C30.2298 40.6769 30.9363 40.6769 31.6318 40.6226C32.1318 40.6226 32.3382 40.3836 32.349 39.8948C32.3599 39.406 32.349 38.8085 32.349 38.3197C32.3307 37.9658 32.3903 37.6121 32.5236 37.2836C32.6569 36.9552 32.8608 36.66 33.1208 36.4188C33.4794 36.0821 33.8272 35.7237 34.2076 35.3326C34.5879 34.9416 34.6858 34.5831 34.2076 34.116C33.824 33.7528 33.4612 33.3684 33.1208 32.9646C32.8263 32.6325 32.6173 32.2335 32.5121 31.8024C32.435 31.0809 32.4024 30.3554 32.4143 29.6299C32.4143 29.0433 32.1861 28.8152 31.5883 28.8152C30.9906 28.8152 30.5015 28.8152 29.9255 28.8152C29.6769 28.8302 29.428 28.7956 29.1929 28.7136C28.9578 28.6315 28.7413 28.5036 28.5561 28.3373C28.0562 27.892 27.5889 27.4031 27.0998 26.9361C27.0387 26.8487 26.9573 26.7773 26.8627 26.728C26.7681 26.6788 26.6631 26.653 26.5564 26.653C26.4497 26.653 26.3447 26.6788 26.2501 26.728C26.1555 26.7773 26.0741 26.8487 26.013 26.9361C25.6326 27.3054 25.2414 27.6856 24.9262 28.0766C24.7193 28.3058 24.466 28.4882 24.183 28.6119C23.9 28.7355 23.5939 28.7974 23.2851 28.7935H21.6223C20.9702 28.7935 20.7529 29.0216 20.742 29.6516C20.7312 30.2817 20.742 30.651 20.742 31.1398C20.7553 31.5019 20.6891 31.8626 20.5483 32.1966C20.4075 32.5306 20.1955 32.8298 19.9269 33.0733C19.5465 33.3991 19.1988 33.7793 18.8401 34.1595C18.4815 34.5397 18.4597 34.8438 18.8401 35.2457C19.2205 35.6476 19.6877 36.093 20.1116 36.5166C20.5026 36.9221 20.7208 37.4634 20.7203 38.0265C20.6225 38.3089 20.6116 38.5913 20.6225 38.8737V38.9063ZM21.8831 46.4122L24.0567 42.6973C23.9269 42.4788 23.7371 42.3023 23.5097 42.1886C23.2824 42.075 23.0271 42.0291 22.7743 42.0564C21.9298 42.1838 21.0666 42.0979 20.2638 41.8066L18.688 44.5439C19.2748 44.457 19.7747 44.3809 20.2529 44.3266C20.7311 44.2723 21.0789 44.3266 21.3397 44.9458C21.6005 45.5649 21.6657 45.8256 21.8831 46.347V46.4122ZM28.9364 42.6973L31.1101 46.4122L31.7405 44.8154C31.7961 44.6258 31.9242 44.4658 32.0972 44.3702C32.2702 44.2746 32.474 44.2511 32.6642 44.3049C33.1859 44.4026 33.7511 44.457 34.3271 44.5439L32.8273 41.9586C31.9035 41.9586 31.0884 42.0672 30.2733 42.0564C30.0152 42.0133 29.7501 42.0483 29.512 42.1566C29.2738 42.265 29.0734 42.4419 28.9364 42.6647V42.6973Z" fill="#124F2E"/>
<path d="M38.751 9.33949H8.82043C7.94012 9.33949 7.73362 9.55673 7.73362 10.4257V12.1311C7.73362 12.6308 7.45102 12.9349 7.0163 12.9349C6.91495 12.9386 6.81402 12.9205 6.72032 12.8817C6.62661 12.843 6.54224 12.7845 6.47316 12.7103C6.40408 12.6361 6.35187 12.5479 6.31993 12.4517C6.28799 12.3555 6.2771 12.2536 6.28809 12.1528V10.0347C6.28809 9.45852 6.51713 8.90594 6.92476 8.49853C7.33239 8.09111 7.88522 7.86223 8.4617 7.86223H39.1857C39.3873 7.84452 39.5902 7.87352 39.7787 7.94699C39.9672 8.02047 40.1362 8.13643 40.2725 8.28584C42.2831 10.3171 44.3045 12.3266 46.326 14.3362C46.4729 14.4744 46.5872 14.6436 46.6606 14.8315C46.7339 15.0194 46.7643 15.2212 46.7498 15.4224C46.7498 22.2367 46.7498 29.051 46.7498 35.8652C46.7727 36.1773 46.7279 36.4906 46.6184 36.7837C46.5089 37.0769 46.3373 37.3429 46.1154 37.5636C45.8935 37.7843 45.6266 37.9546 45.3328 38.0626C45.039 38.1707 44.7254 38.2141 44.4133 38.1898H41.805C41.2724 38.1898 40.9681 37.9182 40.979 37.4511C40.9898 36.9841 41.2724 36.756 41.7832 36.756H44.4024C45.0328 36.756 45.3044 36.4844 45.3044 35.8435V16.1393C45.3044 16.0524 45.3044 15.9655 45.3044 15.8352H40.9572C40.3807 15.8352 39.8279 15.6063 39.4203 15.1989C39.0126 14.7914 38.7836 14.2389 38.7836 13.6627C38.7401 12.2615 38.751 10.8276 38.751 9.33949ZM40.2616 10.4257C40.2616 10.48 40.1965 10.5126 40.1965 10.5561C40.1965 11.5663 40.1965 12.5873 40.1965 13.6084C40.1933 13.7109 40.2115 13.8131 40.25 13.9082C40.2884 14.0034 40.3463 14.0895 40.4199 14.161C40.4935 14.2325 40.5813 14.288 40.6775 14.3237C40.7738 14.3595 40.8765 14.3748 40.979 14.3687H44.1632C44.1144 14.2957 44.06 14.2267 44.0003 14.1624L40.2616 10.4257Z" fill="#124F2E"/>
<path d="M22.1556 15.1065H13.6024C12.9395 15.1065 12.5157 14.5308 12.8961 14.0203C12.9816 13.9164 13.0872 13.831 13.2068 13.7694C13.3264 13.7078 13.4573 13.6712 13.5916 13.6619C14.9609 13.6619 16.3303 13.6619 17.6888 13.6619H30.6654C31.1001 13.6619 31.4152 13.7922 31.513 14.2267C31.6108 14.6612 31.2848 15.1065 30.7196 15.1065H22.1556Z" fill="#124F2E"/>
<path d="M19.3186 19.4412H24.9917C25.1597 19.4258 25.3277 19.471 25.4652 19.5686C25.6027 19.6662 25.7009 19.8098 25.7417 19.9734C25.7921 20.1175 25.7904 20.2747 25.7368 20.4176C25.6831 20.5605 25.581 20.6801 25.4482 20.7555C25.2957 20.8415 25.1235 20.8864 24.9483 20.8859H13.5911C13.0803 20.8859 12.7978 20.6252 12.7869 20.1907C12.776 19.7562 13.0695 19.452 13.602 19.452L19.3186 19.4412Z" fill="#124F2E"/>
<path d="M20.6236 38.874C20.6236 38.5916 20.6236 38.3092 20.6236 38.0268C20.6242 37.4637 20.4059 36.9224 20.0149 36.5169C19.5911 36.0933 19.1563 35.6697 18.7433 35.246C18.3303 34.8224 18.352 34.5508 18.7433 34.1598C19.1345 33.7688 19.4497 33.4103 19.8301 33.0736C20.0987 32.8301 20.3108 32.5309 20.4516 32.1969C20.5924 31.8629 20.6585 31.5023 20.6452 31.1401C20.6452 30.6513 20.6452 30.1516 20.6452 29.652C20.6452 29.1523 20.8735 28.8047 21.5256 28.7938H23.1884C23.4972 28.7977 23.8032 28.7358 24.0862 28.6122C24.3692 28.4886 24.6226 28.3061 24.8295 28.0769C25.199 27.6859 25.5903 27.3057 25.9163 26.9364C25.9774 26.849 26.0587 26.7776 26.1533 26.7283C26.2479 26.6791 26.353 26.6533 26.4597 26.6533C26.5664 26.6533 26.6714 26.6791 26.766 26.7283C26.8606 26.7776 26.942 26.849 27.0031 26.9364C27.4922 27.4035 27.9595 27.8923 28.4594 28.3376C28.6446 28.5039 28.861 28.6318 29.0961 28.7139C29.3311 28.7959 29.5802 28.8305 29.8288 28.8155C30.3831 28.8155 30.9156 28.8155 31.4916 28.8155C32.0676 28.8155 32.3067 29.0436 32.3176 29.6302C32.3057 30.3557 32.3383 31.0812 32.4154 31.8027C32.5206 32.2338 32.7294 32.6328 33.0239 32.9649C33.3644 33.3688 33.7272 33.7532 34.1107 34.1163C34.5781 34.5834 34.5781 34.855 34.1107 35.3329C33.6434 35.8109 33.4152 36.039 33.0239 36.4191C32.764 36.6603 32.5603 36.9555 32.4269 37.2839C32.2936 37.6124 32.234 37.9661 32.2523 38.3201C32.2523 38.8414 32.2523 39.4063 32.2523 39.8951C32.2523 40.3839 32.0349 40.6012 31.535 40.6229C30.8395 40.6229 30.1331 40.6229 29.4267 40.6772C28.9399 40.7075 28.4839 40.9256 28.1551 41.2855C27.7638 41.6982 27.3617 42.1002 26.9487 42.4912C26.8876 42.5786 26.8064 42.6499 26.7118 42.6992C26.6172 42.7485 26.512 42.7742 26.4053 42.7742C26.2986 42.7742 26.1936 42.7485 26.099 42.6992C26.0044 42.6499 25.923 42.5786 25.8619 42.4912C25.5191 42.1975 25.1994 41.8779 24.9055 41.5353C24.6353 41.2096 24.2913 40.9529 23.9019 40.7866C23.5125 40.6204 23.0891 40.5494 22.6668 40.5794C22.1886 40.5794 21.7103 40.5794 21.2321 40.5794C20.7539 40.5794 20.5257 40.3513 20.5257 39.8516C20.6126 39.504 20.6236 39.189 20.6236 38.874ZM30.9265 34.7355C30.9562 34.1343 30.8634 33.5334 30.6537 32.9691C30.444 32.4049 30.1219 31.8891 29.7067 31.4531C29.2916 31.0171 28.792 30.6699 28.2385 30.4327C27.685 30.1955 27.089 30.0732 26.4868 30.0732C25.8846 30.0732 25.2887 30.1955 24.7352 30.4327C24.1817 30.6699 23.6821 31.0171 23.267 31.4531C22.8518 31.8891 22.5295 32.4049 22.3199 32.9691C22.1102 33.5334 22.0175 34.1343 22.0472 34.7355C22.1036 35.8744 22.596 36.9479 23.4224 37.734C24.2489 38.5201 25.3459 38.9586 26.4868 38.9586C27.6276 38.9586 28.7248 38.5201 29.5513 37.734C30.3777 36.9479 30.8701 35.8744 30.9265 34.7355Z" fill="#43B02A"/>
<path d="M21.884 46.3475C21.6667 45.7936 21.5037 45.3373 21.3081 44.8811C21.1125 44.4249 20.8625 44.1859 20.2213 44.262C19.5801 44.338 19.2431 44.3923 18.6562 44.4792L20.2322 41.7419C21.0351 42.0333 21.8981 42.1191 22.7426 41.9918C22.9954 41.9645 23.2507 42.0104 23.478 42.124C23.7054 42.2376 23.8953 42.4142 24.0251 42.6326L21.884 46.3475Z" fill="#43B02A"/>
<path d="M28.937 42.6654C29.0681 42.4404 29.263 42.2594 29.4971 42.1453C29.7312 42.0312 29.9941 41.9892 30.2521 42.0245C31.0672 42.0245 31.8823 42.0245 32.8061 41.9268L34.3059 44.512C33.6864 44.4251 33.2191 44.3708 32.6431 44.273C32.4528 44.2192 32.249 44.2427 32.076 44.3383C31.903 44.4339 31.7749 44.5939 31.7193 44.7835L31.089 46.3803L28.937 42.6654Z" fill="#43B02A"/>
<path d="M40.2725 10.502L44.0111 14.2386C44.0708 14.303 44.1253 14.372 44.1741 14.445H40.9898C40.8873 14.4511 40.7847 14.4357 40.6884 14.4C40.5922 14.3642 40.5044 14.3088 40.4308 14.2372C40.3572 14.1657 40.2993 14.0796 40.2608 13.9845C40.2224 13.8893 40.204 13.7872 40.2072 13.6846C40.2072 12.6635 40.2072 11.6425 40.2072 10.6323C40.1964 10.5019 40.2725 10.502 40.2725 10.502Z" fill="#43B02A"/>
<path d="M30.9263 34.7358C30.8699 35.8746 30.3775 36.9482 29.5511 37.7343C28.7247 38.5204 27.6275 38.9588 26.4866 38.9588C25.3458 38.9588 24.2487 38.5204 23.4223 37.7343C22.5959 36.9482 22.1035 35.8746 22.0471 34.7358C22.0173 34.1346 22.11 33.5336 22.3197 32.9694C22.5294 32.4051 22.8516 31.8894 23.2668 31.4534C23.682 31.0173 24.1815 30.6702 24.735 30.433C25.2885 30.1958 25.8844 30.0735 26.4866 30.0735C27.0889 30.0735 27.6849 30.1958 28.2384 30.433C28.7918 30.6702 29.2914 31.0173 29.7066 31.4534C30.1218 31.8894 30.4439 32.4051 30.6535 32.9694C30.8632 33.5336 30.9561 34.1346 30.9263 34.7358ZM26.5029 37.6577C26.8941 37.6652 27.2827 37.5935 27.6455 37.4469C28.0082 37.3004 28.3375 37.0821 28.6137 36.805C28.8898 36.528 29.107 36.1981 29.2523 35.835C29.3976 35.4719 29.468 35.0832 29.4591 34.6923C29.4837 34.2871 29.425 33.8811 29.2867 33.4994C29.1484 33.1176 28.9333 32.7682 28.6549 32.4726C28.3765 32.177 28.0405 31.9414 27.6676 31.7804C27.2947 31.6194 26.8928 31.5363 26.4866 31.5363C26.0804 31.5363 25.6785 31.6194 25.3056 31.7804C24.9327 31.9414 24.5969 32.177 24.3184 32.4726C24.04 32.7682 23.825 33.1176 23.6867 33.4994C23.5484 33.8811 23.4897 34.2871 23.5142 34.6923C23.5052 35.0861 23.5766 35.4775 23.7238 35.8428C23.8711 36.2081 24.0913 36.5396 24.371 36.8171C24.6506 37.0945 24.9838 37.3122 25.3503 37.4567C25.7169 37.6013 26.1091 37.6696 26.5029 37.6577Z" fill="#124F2E"/>
</svg>
