<svg width="55" height="55" viewBox="0 0 55 55" fill="none" xmlns="http://www.w3.org/2000/svg">
<path d="M28.8794 4.57289C29.1316 4.70471 29.3541 4.88682 29.533 5.10799C29.712 5.32916 29.8437 5.58467 29.9199 5.85871C30.1177 6.36228 30.3571 6.8485 30.6358 7.31228C30.8707 7.74834 30.8148 8.12848 30.4569 8.34092C30.3767 8.39224 30.2861 8.4253 30.1917 8.43773C30.0972 8.45016 30.0012 8.44163 29.9105 8.41282C29.8197 8.38401 29.7365 8.33561 29.6666 8.27101C29.5967 8.20641 29.5419 8.12721 29.506 8.03905C29.1878 7.47731 28.9002 6.89875 28.6446 6.30595C28.5215 6.02642 28.432 5.89227 28.1076 5.91464C27.7832 5.937 26.9889 5.75809 26.6868 5.97053C26.3848 6.18297 26.2392 6.76437 26.0267 7.17808C25.5229 8.1935 24.8213 9.09812 23.963 9.83878C23.1046 10.5794 22.1069 11.1412 21.0283 11.4912C19.9497 11.8412 18.812 11.9722 17.682 11.8767C16.5521 11.7812 15.4526 11.461 14.4481 10.935C14.3266 10.874 14.1926 10.8422 14.0566 10.8422C13.9206 10.8422 13.7866 10.874 13.6651 10.935C12.6135 11.3151 12.3338 11.9748 12.3449 13.1041C12.4233 18.9966 12.3449 24.8778 12.3449 30.7591C12.2456 33.2634 12.9334 35.7358 14.3118 37.8294C15.6902 39.923 17.69 41.5326 20.0304 42.4322C22.6812 43.5282 24.7919 45.6257 25.9037 48.2687C26.0938 48.716 26.2058 49.3086 26.5526 49.5322C26.8994 49.7558 27.4923 49.5322 27.9622 49.6105C28.432 49.6888 28.5215 49.4763 28.6558 49.1521C29.1672 47.7786 29.9003 46.4982 30.826 45.3617C31.9599 44.0827 33.3722 43.0806 34.9541 42.4322C36.7217 41.7309 38.2975 40.6203 39.5519 39.1915C40.8064 37.7628 41.7035 36.0569 42.1697 34.2141C42.443 33.2196 42.5822 32.193 42.5836 31.1616C42.5836 24.7884 42.5836 18.4263 42.5836 12.0531C42.5882 11.9229 42.556 11.7941 42.4907 11.6813C42.4254 11.5686 42.3297 11.4766 42.2145 11.4157C41.8637 11.1451 41.4403 10.9847 40.9981 10.9548C40.556 10.925 40.1149 11.027 39.7308 11.248C38.4431 11.8076 37.0323 12.0235 35.6361 11.8745C34.2398 11.7256 32.9061 11.2169 31.7657 10.3982C31.6566 10.3172 31.5669 10.2131 31.503 10.0932C31.4392 9.97327 31.4029 9.84069 31.3965 9.70502C31.4336 9.58335 31.497 9.47128 31.582 9.37663C31.667 9.28199 31.7716 9.20708 31.8887 9.15716C32.1233 9.13292 32.3586 9.19668 32.5488 9.33606C33.8263 10.1804 35.3366 10.6027 36.867 10.5436C37.9574 10.5171 39.0249 10.2254 39.9771 9.69383C40.2523 9.50587 40.5778 9.40533 40.9111 9.40533C41.2445 9.40533 41.57 9.50587 41.8452 9.69383C42.2479 9.951 42.6954 10.1523 43.1093 10.3871C43.3633 10.5076 43.5762 10.7001 43.7214 10.9407C43.8666 11.1813 43.9378 11.4593 43.926 11.74C43.926 18.2921 44.0602 24.8443 43.926 31.3853C43.7694 37.0876 40.8607 41.1911 35.6699 43.5391C34.4646 44.0206 33.3667 44.7358 32.4393 45.6435C31.5119 46.5512 30.7735 47.6335 30.2666 48.8278C30.0876 49.2639 29.8862 49.6776 29.6849 50.1025C29.5765 50.3537 29.3945 50.5662 29.1628 50.7119C28.9311 50.8576 28.6608 50.9297 28.3873 50.9187H26.6196C26.3294 50.9346 26.0415 50.8589 25.7966 50.7024C25.5517 50.5459 25.3622 50.3165 25.2549 50.0466L24.5501 48.4924C23.5778 46.2838 21.7727 44.5479 19.5271 43.6621C16.2831 42.3573 13.6695 39.8493 12.2331 36.6628C11.42 34.9389 10.9997 33.0562 11.0026 31.1504C11.0026 24.7101 11.0026 18.2586 11.0026 11.8183C10.9849 11.5149 11.0587 11.2133 11.2142 10.9522C11.3698 10.6911 11.6 10.4826 11.8752 10.3535C12.3003 10.1299 12.7366 9.91746 13.1393 9.66029C13.4068 9.49016 13.7172 9.3998 14.0342 9.3998C14.3512 9.3998 14.6618 9.49016 14.9292 9.66029C16.0224 10.2724 17.2592 10.5817 18.512 10.5561C19.7648 10.5306 20.9881 10.1712 22.0554 9.51496C23.4739 8.71186 24.5515 7.42018 25.087 5.88109C25.1583 5.59765 25.2889 5.33249 25.4702 5.10314C25.6515 4.8738 25.8793 4.68548 26.1387 4.55054L28.8794 4.57289Z" fill="#124F2E"/>
<path d="M39.5744 26.9575H28.2307V43.595C28.9349 42.8794 29.6821 42.2073 30.4681 41.5824C31.4537 40.8672 32.5064 40.2494 33.6116 39.7375C35.132 39.0964 36.4864 38.1175 37.5718 36.8751C37.6202 36.7887 37.6875 36.7143 37.7686 36.6574C37.8497 36.6005 37.9426 36.5625 38.0404 36.5464C38.1382 36.5303 38.2385 36.5364 38.3336 36.5643C38.4287 36.5921 38.5163 36.6411 38.5899 36.7074C38.6621 36.7734 38.7198 36.8538 38.7592 36.9433C38.7987 37.0328 38.819 37.1295 38.819 37.2273C38.819 37.3252 38.7987 37.4219 38.7592 37.5114C38.7198 37.601 38.6621 37.6813 38.5899 37.7473L38.2318 38.1498C37.2103 39.2894 35.9446 40.1837 34.529 40.7662C31.9332 41.7757 29.7509 43.6261 28.3313 46.0213C28.2653 46.1693 28.1577 46.295 28.0217 46.3833C27.8857 46.4715 27.7271 46.5184 27.5649 46.5184C27.4028 46.5184 27.2441 46.4715 27.1081 46.3833C26.9721 46.295 26.8647 46.1693 26.7987 46.0213C25.3309 43.6447 23.1448 41.7964 20.5564 40.7438C18.628 39.9853 16.9807 38.6504 15.8394 36.9215C14.6982 35.1925 14.1186 33.1537 14.1797 31.0833C14.0902 25.4927 14.1797 19.8016 14.1797 14.1551C14.1797 13.3053 14.6384 12.9587 15.4662 13.1935C17.4841 13.805 19.6417 13.7787 21.6441 13.1183C23.6465 12.4579 25.3959 11.1955 26.6533 9.50373C27.2685 8.68751 27.8503 8.69869 28.4992 9.50373C29.4825 10.8411 30.7816 11.9146 32.2807 12.6286C33.7797 13.3426 35.4321 13.6749 37.0907 13.596C37.9901 13.5288 38.8813 13.3791 39.7533 13.1488C40.5028 12.9811 40.9727 13.3053 40.9727 14.0656C40.9727 19.8351 40.9727 25.6008 40.9727 31.3628C40.9569 32.5095 40.7411 33.6446 40.335 34.7172C40.1672 35.1868 39.8205 35.3769 39.4289 35.2315C39.3377 35.1958 39.2551 35.1411 39.1865 35.0711C39.118 35.0011 39.0651 34.9174 39.0313 34.8255C38.9974 34.7336 38.9835 34.6356 38.9903 34.5379C38.9971 34.4402 39.0246 34.3451 39.0709 34.2587C39.4719 33.1326 39.6652 31.943 39.6414 30.7479C39.5631 29.5068 39.5744 28.2545 39.5744 26.9575ZM26.8211 26.9575H21.2276C20.713 26.9575 20.4332 26.7227 20.4332 26.2978C20.4332 25.8729 20.7129 25.6158 21.2052 25.6158H26.7987V11.4157C25.3596 12.8977 23.557 13.9769 21.5706 14.5459C19.5842 15.1148 17.4834 15.1535 15.4774 14.6582V25.571H17.7148C18.2742 25.571 18.5986 25.817 18.5986 26.253C18.5986 26.6891 18.2853 26.9128 17.7036 26.9128H15.4662C15.4662 28.4446 15.4662 29.9205 15.4662 31.3852C15.4739 31.7941 15.5151 32.2017 15.5892 32.604C15.8422 34.1671 16.5028 35.636 17.5044 36.8628C18.506 38.0896 19.8132 39.031 21.2946 39.5922C23.2885 40.4012 25.0632 41.6692 26.4742 43.2931C26.583 43.4224 26.6988 43.5455 26.8211 43.6621V26.9575ZM28.2195 11.4045V25.571H39.552V14.6359C37.5434 15.1342 35.4391 15.0958 33.45 14.5248C31.461 13.9537 29.6572 12.8699 28.2195 11.3822V11.4045Z" fill="#124F2E"/>
<path d="M26.8211 26.9349V43.7066C26.6988 43.5901 26.583 43.4669 26.4742 43.3377C25.0632 41.7138 23.2885 40.4457 21.2946 39.6367C19.8132 39.0755 18.506 38.1341 17.5044 36.9073C16.5028 35.6805 15.8422 34.2116 15.5892 32.6485C15.515 32.2463 15.4739 31.8387 15.4662 31.4298C15.4662 29.9538 15.4662 28.4779 15.4662 26.9573H17.7036C18.2853 26.9573 18.5874 26.7225 18.5986 26.2976C18.6098 25.8727 18.2741 25.6156 17.7148 25.6156H15.4774V14.658C17.4834 15.1533 19.5842 15.1146 21.5706 14.5457C23.557 13.9768 25.3596 12.8975 26.7987 11.4155V25.5708H21.2052C20.7129 25.5708 20.4332 25.828 20.4332 26.2529C20.4332 26.6778 20.7129 26.9126 21.2275 26.9126H26.8211V26.9349Z" fill="#43B02A"/>
<path d="M28.2196 11.3821C29.6585 12.8679 31.4628 13.9496 33.4518 14.5187C35.4408 15.0878 37.5445 15.1243 39.5521 14.6246V25.5709H28.2196V11.3821Z" fill="#43B02A"/>
</svg>
