<svg width="35" height="35" viewBox="0 0 35 35" fill="none" xmlns="http://www.w3.org/2000/svg">
<circle cx="17.5" cy="17.5" r="17.5" fill="#858585"/>
<path d="M24.6667 27H11.3333C10.597 27 10 26.4175 10 25.699C10 23.547 11.3683 21.6208 13.4334 20.8655L13.8435 20.7155C16.5235 19.7354 19.4765 19.7354 22.1565 20.7155L22.5666 20.8655C24.6317 21.6208 26 23.547 26 25.699C26 26.4175 25.403 27 24.6667 27Z" stroke="white" stroke-linecap="round" stroke-linejoin="round"/>
<path d="M15.9672 16.8739C17.2431 17.5135 18.7569 17.5135 20.0328 16.8739C21.2204 16.2787 22.0712 15.1946 22.3505 13.9207L22.4251 13.5808C22.7107 12.2781 22.4056 10.9186 21.5881 9.85164L21.4684 9.6954C20.6508 8.62834 19.3654 8 18 8C16.6346 8 15.3492 8.62834 14.5316 9.69541L14.4119 9.85164C13.5944 10.9186 13.2893 12.2781 13.5749 13.5808L13.6495 13.9207C13.9288 15.1946 14.7796 16.2787 15.9672 16.8739Z" stroke="white" stroke-linecap="round" stroke-linejoin="round"/>
</svg>
