<svg width="32" height="37" viewBox="0 0 32 37" fill="none" xmlns="http://www.w3.org/2000/svg">
<path d="M28.5 36H3.50001C2.11929 36 1 34.927 1 33.6034C1 29.6391 3.56551 26.0909 7.43769 24.6996L8.20649 24.4234C13.2315 22.6179 18.7685 22.6179 23.7935 24.4234L24.5623 24.6996C28.4345 26.0909 31 29.6391 31 33.6034C31 34.927 29.8807 36 28.5 36Z" stroke="#124F2E" stroke-linecap="round" stroke-linejoin="round"/>
<path d="M12.1884 17.3467C14.5809 18.5248 17.4191 18.5248 19.8116 17.3467C22.0382 16.2502 23.6335 14.2532 24.1572 11.9066L24.297 11.2803C24.8326 8.88073 24.2605 6.37629 22.7278 4.41092L22.5033 4.12311C20.9703 2.15746 18.5601 1 16 1C13.4399 1 11.0297 2.15746 9.49669 4.12312L9.27223 4.41092C7.73948 6.37629 7.16736 8.88073 7.70297 11.2803L7.84276 11.9066C8.36653 14.2532 9.96182 16.2502 12.1884 17.3467Z" stroke="#124F2E" stroke-linecap="round" stroke-linejoin="round"/>
</svg>
