<svg width="13" height="16" viewBox="0 0 13 16" fill="none" xmlns="http://www.w3.org/2000/svg">
<path d="M11.9167 15.5H1.08334C0.485027 15.5 0 15.0401 0 14.4729C0 12.7739 1.11172 11.2532 2.78967 10.657L3.12281 10.5386C5.30031 9.76481 7.69969 9.76481 9.87719 10.5386L10.2103 10.657C11.8883 11.2532 13 12.7739 13 14.4729C13 15.0401 12.515 15.5 11.9167 15.5Z" fill="white"/>
<path d="M4.84831 7.50571C5.88505 8.01063 7.11495 8.01063 8.15169 7.50571C9.11655 7.0358 9.80784 6.17992 10.0348 5.17426L10.0954 4.90586C10.3275 3.87745 10.0796 2.80413 9.41537 1.96182L9.3181 1.83848C8.65381 0.996054 7.60939 0.5 6.5 0.5C5.39061 0.5 4.34619 0.996056 3.6819 1.83848L3.58463 1.96182C2.92044 2.80413 2.67252 3.87745 2.90462 4.90586L2.9652 5.17426C3.19216 6.17992 3.88345 7.0358 4.84831 7.50571Z" fill="white"/>
</svg>
