<svg width="60" height="24" viewBox="0 0 60 24" fill="none" xmlns="http://www.w3.org/2000/svg">
<path d="M2 10.5C1.17157 10.5 0.5 11.1716 0.5 12C0.5 12.8284 1.17157 13.5 2 13.5V10.5ZM59.0607 13.0607C59.6464 12.4749 59.6464 11.5251 59.0607 10.9393L49.5147 1.3934C48.9289 0.807611 47.9792 0.807611 47.3934 1.3934C46.8076 1.97919 46.8076 2.92893 47.3934 3.51472L55.8787 12L47.3934 20.4853C46.8076 21.0711 46.8076 22.0208 47.3934 22.6066C47.9792 23.1924 48.9289 23.1924 49.5147 22.6066L59.0607 13.0607ZM2 13.5H58V10.5H2V13.5Z" fill="#BDDDBD"/>
</svg>
