<svg width="16" height="15" viewBox="0 0 16 15" fill="none" xmlns="http://www.w3.org/2000/svg">
<path fill-rule="evenodd" clip-rule="evenodd" d="M4.25 1C4.50642 1 4.71429 1.20893 4.71429 1.46667V2.86667H11.2857V1.46667C11.2857 1.20893 11.4936 1 11.75 1C12.0064 1 12.2143 1.20893 12.2143 1.46667V2.86667H13.9167C14.515 2.86667 15 3.35418 15 3.95556V12.9111C15 13.5125 14.515 14 13.9167 14H2.08333C1.48502 14 1 13.5125 1 12.9111V3.95556C1 3.35418 1.48502 2.86667 2.08333 2.86667H3.78571V1.46667C3.78571 1.20893 3.99358 1 4.25 1ZM2.08333 3.8C1.99786 3.8 1.92857 3.86964 1.92857 3.95556V5.97778H14.0714V3.95556C14.0714 3.86964 14.0021 3.8 13.9167 3.8H2.08333ZM14.0714 6.91111H1.92857V12.9111C1.92857 12.997 1.99786 13.0667 2.08333 13.0667H13.9167C14.0021 13.0667 14.0714 12.997 14.0714 12.9111V6.91111Z" fill="#515151"/>
</svg>
