<svg width="16" height="16" viewBox="0 0 16 16" fill="none" xmlns="http://www.w3.org/2000/svg">
<path fill-rule="evenodd" clip-rule="evenodd" d="M9 0C5.13401 0 2 3.13401 2 7C2 8.57638 2.52107 10.0311 3.40037 11.2012L3.34551 11.2441L3.29289 11.2929L0.292893 14.2929C-0.0976315 14.6834 -0.0976315 15.3166 0.292893 15.7071C0.653378 16.0676 1.22061 16.0953 1.6129 15.7903L1.70711 15.7071L4.70711 12.7071C4.74131 12.6729 4.77252 12.6368 4.80073 12.5992C5.96895 13.4789 7.42362 14 9 14C12.866 14 16 10.866 16 7C16 3.13401 12.866 0 9 0ZM9 2C11.7614 2 14 4.23858 14 7C14 9.76142 11.7614 12 9 12C6.23858 12 4 9.76142 4 7C4 4.23858 6.23858 2 9 2Z" fill="#124F2E"/>
</svg>
