<svg width="30" height="35" viewBox="0 0 30 35" fill="none" xmlns="http://www.w3.org/2000/svg">
<path d="M19.9121 20.3207C19.7235 20.1659 19.5382 20.0079 19.3561 19.8469C18.6051 19.1827 17.4074 19.2279 16.7455 20.0152C15.8343 21.099 14.1287 20.9843 13.4409 19.793L10.3733 14.4798C9.68549 13.2885 10.439 11.754 11.8331 11.5068C12.7931 11.3366 13.3911 10.3667 13.1797 9.44072C13.0904 9.0496 13.0127 8.65472 12.9469 8.25652C12.8155 7.46186 12.7327 6.66249 12.6978 5.86247C12.6403 4.54342 11.4397 3.51521 10.121 3.80865L6.64575 4.58197C6.07364 4.70928 5.61526 5.15025 5.5059 5.71662C4.5856 10.4831 5.39335 15.3685 7.7873 19.515C10.1812 23.6614 14.0083 26.8037 18.5963 28.3899C19.1419 28.5785 19.7534 28.4019 20.15 27.9698L22.688 25.2044C23.6129 24.1966 23.3025 22.6201 22.162 21.9215C21.3785 21.4416 20.6266 20.9074 19.9121 20.3207Z" stroke="#858585" stroke-width="2" stroke-linecap="round" stroke-linejoin="round"/>
</svg>
