<svg width="26" height="26" viewBox="0 0 26 26" fill="none" xmlns="http://www.w3.org/2000/svg">
<path d="M19.4597 12.9339L21.0941 13.0282L21.1431 11.3423C21.1431 11.3423 21.2357 9.07003 19.6013 8.94438C17.967 8.81872 6.25928 8.98625 6.25928 8.98625C5.95679 9.05801 5.68552 9.21957 5.48405 9.44797C5.28258 9.67637 5.16118 9.95998 5.13704 10.2585C4.91367 11.4051 4.97902 12.8763 5.24597 12.9549C5.69879 12.9992 6.15513 12.9992 6.60795 12.9549L7.05472 12.0282L7.59952 11.7193L8.6891 11.6669L9.57167 12.5046C9.57167 12.5046 9.89308 12.9182 9.96936 12.9287C10.0456 12.9392 15.657 12.9706 15.6897 12.981C15.7224 12.9915 16.1528 12.9496 16.1528 12.9496L16.289 12.269L16.7194 11.8135L17.3894 11.4836L18.7133 11.8554L18.9694 12.5255L19.1219 13.0491L19.4597 12.9339Z" fill="#124F2E"/>
<path d="M2.95229 2.45215H23.4039C23.4761 2.45215 23.5454 2.42458 23.5965 2.37549C23.6476 2.3264 23.6763 2.2598 23.6763 2.19037C23.6763 2.12094 23.6476 2.05436 23.5965 2.00527C23.5454 1.95617 23.4761 1.92859 23.4039 1.92859H2.95229C2.88048 1.92993 2.81201 1.95795 2.76122 2.00675C2.71044 2.05556 2.68128 2.12136 2.67989 2.19037C2.67989 2.2598 2.70861 2.3264 2.75969 2.37549C2.81078 2.42458 2.88004 2.45215 2.95229 2.45215Z" fill="#124F2E"/>
<path d="M19.0724 4.40509H21.3606V2.20612H19.0724V4.40509ZM20.8158 3.88152H19.6172V2.72968H20.8158V3.88152Z" fill="#124F2E"/>
<path d="M19.0724 4.40509H21.3606V2.20612H19.0724V4.40509ZM20.8158 3.88152H19.6172V2.72968H20.8158V3.88152Z" fill="#124F2E"/>
<path d="M4.8317 4.40509H7.11987V2.20612H4.8317V4.40509ZM6.57508 3.88152H5.37649V2.72968H6.57508V3.88152Z" fill="#124F2E"/>
<path d="M20.2549 9.1589L21.9111 6.64579L20.5328 4.03845L20.0479 4.27405L21.2846 6.61437L19.7973 8.87617L20.2549 9.1589Z" fill="#124F2E"/>
<path d="M6.1066 9.19555L6.56421 8.91282L5.03876 6.61437L6.27545 4.27405L5.79058 4.03845L4.4123 6.64579L6.1066 9.19555Z" fill="#124F2E"/>
<path d="M5.64892 23.4416H21.1538C21.226 23.4416 21.2953 23.414 21.3464 23.3649C21.3975 23.3158 21.4262 23.2492 21.4262 23.1798V17.9808L23.6054 15.8237C23.6428 15.7872 23.668 15.7408 23.6777 15.6904C23.6874 15.64 23.6812 15.588 23.6598 15.541C23.6401 15.4942 23.6062 15.4542 23.5625 15.4261C23.5187 15.3981 23.4673 15.3834 23.4147 15.384L14.431 15.2792C14.3588 15.2855 14.2903 15.3129 14.2349 15.3578L12.0884 17.3787L9.64775 15.2845C9.59578 15.243 9.53004 15.2207 9.46248 15.2216H2.92495C2.87117 15.2219 2.81872 15.2375 2.77412 15.2663C2.72952 15.2952 2.6948 15.3361 2.67437 15.384C2.65314 15.4326 2.64804 15.4863 2.65973 15.5379C2.67143 15.5894 2.69936 15.6362 2.73974 15.6719L5.37107 18.0855V23.1589C5.36801 23.1954 5.37297 23.2322 5.38563 23.2667C5.39829 23.3013 5.41836 23.333 5.44456 23.3596C5.47075 23.3863 5.50252 23.4073 5.53773 23.4215C5.57293 23.4356 5.61078 23.4424 5.64892 23.4416ZM20.9031 22.918H5.94313V18.0175C5.94399 17.9823 5.93719 17.9474 5.92311 17.9149C5.90903 17.8824 5.88799 17.8532 5.8614 17.829L3.63321 15.7871H9.3699L11.925 17.9546C11.9753 17.9995 12.0415 18.0245 12.1102 18.0245C12.1789 18.0245 12.2451 17.9995 12.2954 17.9546L14.54 15.8604L22.7827 15.9494L20.9794 17.7452C20.931 17.795 20.9038 17.8604 20.9031 17.9285V22.918Z" fill="#124F2E"/>
<path d="M19.3451 18.0803H21.0504C21.1226 18.0803 21.1919 18.0527 21.243 18.0036C21.2941 17.9546 21.3228 17.888 21.3228 17.8185C21.3228 17.7491 21.2941 17.6825 21.243 17.6334C21.1919 17.5843 21.1226 17.5568 21.0504 17.5568H19.3451C19.2729 17.5568 19.2036 17.5843 19.1526 17.6334C19.1015 17.6825 19.0728 17.7491 19.0728 17.8185C19.0741 17.8876 19.1033 17.9534 19.1541 18.0022C19.2049 18.051 19.2733 18.079 19.3451 18.0803Z" fill="#124F2E"/>
<path d="M5.44211 18.0804L16.1092 17.9966C16.1447 17.9967 16.1799 17.9898 16.2126 17.9766C16.2454 17.9634 16.2751 17.944 16.3 17.9197C16.3248 17.8953 16.3443 17.8664 16.3574 17.8346C16.3705 17.8029 16.3769 17.769 16.3762 17.7349C16.3762 17.6654 16.3474 17.5989 16.2964 17.5498C16.2453 17.5007 16.176 17.4731 16.1038 17.4731L5.43673 17.5569C5.36448 17.5569 5.29515 17.5844 5.24407 17.6335C5.19298 17.6826 5.16433 17.7492 5.16433 17.8186C5.16576 17.8885 5.19564 17.9551 5.24759 18.0041C5.29954 18.053 5.36936 18.0804 5.44211 18.0804Z" fill="#124F2E"/>
<path d="M7.27228 23.2794C7.34452 23.2794 7.41379 23.2518 7.46487 23.2027C7.51596 23.1536 7.54468 23.087 7.54468 23.0176V20.9495C7.54468 20.8801 7.51596 20.8135 7.46487 20.7644C7.41379 20.7153 7.34452 20.6877 7.27228 20.6877C7.20004 20.6877 7.13071 20.7153 7.07962 20.7644C7.02854 20.8135 6.99988 20.8801 6.99988 20.9495V23.0176C6.99988 23.087 7.02854 23.1536 7.07962 23.2027C7.13071 23.2518 7.20004 23.2794 7.27228 23.2794Z" fill="#124F2E"/>
<path d="M12.0828 23.2532C12.1551 23.2532 12.2243 23.2256 12.2754 23.1765C12.3265 23.1274 12.3552 23.0609 12.3552 22.9914V17.7558C12.3552 17.6864 12.3265 17.6198 12.2754 17.5707C12.2243 17.5216 12.1551 17.494 12.0828 17.494C12.011 17.4954 11.9425 17.5234 11.8918 17.5722C11.841 17.621 11.8118 17.6868 11.8104 17.7558V22.9914C11.8104 23.0609 11.8392 23.1274 11.8902 23.1765C11.9413 23.2256 12.0106 23.2532 12.0828 23.2532Z" fill="#124F2E"/>
<path d="M5.3712 13.1905H6.88029V12.9339C6.90072 12.6439 7.03505 12.3722 7.25604 12.1737C7.47703 11.9752 7.76822 11.8648 8.0707 11.8648C8.37318 11.8648 8.66437 11.9752 8.88536 12.1737C9.10635 12.3722 9.24061 12.6439 9.26104 12.9339V13.1905H16.2998V12.9339C16.3202 12.6439 16.4546 12.3722 16.6755 12.1737C16.8965 11.9752 17.1877 11.8648 17.4902 11.8648C17.7927 11.8648 18.0838 11.9752 18.3048 12.1737C18.5258 12.3722 18.6601 12.6439 18.6805 12.9339V13.1905H20.9305C21.075 13.1905 21.2136 13.1353 21.3158 13.0371C21.418 12.939 21.4753 12.8058 21.4753 12.6669V10.9392C21.4741 10.3613 21.2454 9.80522 20.835 9.38275C20.4247 8.96027 19.8633 8.70266 19.2634 8.66166L19.2253 8.62501L17.275 6.2271C17.0675 5.97027 16.8014 5.7626 16.4973 5.6201C16.1932 5.4776 15.8591 5.40404 15.5207 5.4051H10.6993C10.361 5.40404 10.0269 5.4776 9.72277 5.6201C9.41865 5.7626 9.15259 5.97027 8.94508 6.2271L6.95657 8.66166C6.35675 8.70266 5.79534 8.96027 5.38504 9.38275C4.97474 9.80522 4.74598 10.3613 4.74474 10.9392V12.6669C4.74385 12.7428 4.76009 12.818 4.79243 12.8872C4.82476 12.9565 4.87242 13.0181 4.93202 13.0679C4.99161 13.1177 5.06174 13.1545 5.13758 13.1757C5.21342 13.1968 5.29312 13.2019 5.3712 13.1905ZM6.36277 12.6669H5.3712V10.913C5.3714 10.4683 5.54684 10.0402 5.8622 9.71478C6.17755 9.38937 6.60949 9.1908 7.07102 9.15904C7.1509 9.15248 7.22845 9.13001 7.2988 9.09305C7.36914 9.05609 7.43075 9.00547 7.47962 8.94439L9.45716 6.52029C9.61447 6.32741 9.81545 6.17151 10.0448 6.06446C10.2742 5.95741 10.526 5.90201 10.781 5.90248H15.6024C15.8575 5.90201 16.1092 5.95741 16.3386 6.06446C16.568 6.17151 16.769 6.32741 16.9263 6.52029L18.8985 8.94439C18.9484 9.00562 19.011 9.05627 19.0822 9.09321C19.1535 9.13015 19.2319 9.15256 19.3125 9.15904C19.7741 9.1908 20.2059 9.38937 20.5213 9.71478C20.8366 10.0402 21.0121 10.4683 21.0123 10.913V12.6407H19.2362C19.1675 12.2518 18.9578 11.8988 18.6442 11.6443C18.3306 11.3898 17.9333 11.2501 17.5229 11.2501C17.1124 11.2501 16.7152 11.3898 16.4016 11.6443C16.0879 11.8988 15.8782 12.2518 15.8095 12.6407H9.81674C9.7516 12.2498 9.54363 11.8939 9.23012 11.637C8.91661 11.3802 8.51807 11.2391 8.10608 11.2391C7.69409 11.2391 7.29562 11.3802 6.98211 11.637C6.6686 11.8939 6.46056 12.2498 6.39542 12.6407L6.36277 12.6669Z" fill="#124F2E"/>
<path d="M17.498 14.6093C17.8412 14.6093 18.1768 14.5116 18.4624 14.3285C18.7479 14.1455 18.9707 13.8853 19.1025 13.5807C19.2344 13.2761 19.2694 12.9408 19.2032 12.6171C19.137 12.2934 18.9726 11.9958 18.7307 11.7619C18.4887 11.5279 18.18 11.368 17.8436 11.3024C17.5072 11.2367 17.1582 11.2683 16.8404 11.3931C16.5227 11.5179 16.2505 11.7304 16.0582 12.0036C15.866 12.2769 15.7622 12.5988 15.7601 12.9287C15.7587 13.1489 15.8025 13.3672 15.8892 13.571C15.9759 13.7749 16.1037 13.9602 16.2652 14.1164C16.4268 14.2726 16.6188 14.3966 16.8304 14.4812C17.042 14.5658 17.2688 14.6093 17.498 14.6093ZM17.498 11.7978C17.7342 11.7978 17.9651 11.8652 18.1614 11.9914C18.3577 12.1176 18.5106 12.297 18.6008 12.5068C18.6909 12.7166 18.7142 12.9474 18.6677 13.17C18.6213 13.3926 18.5071 13.5968 18.3397 13.757C18.1723 13.9171 17.9592 14.0259 17.7274 14.0696C17.4956 14.1132 17.2555 14.0898 17.0376 14.0022C16.8197 13.9146 16.6338 13.7668 16.5033 13.5776C16.3729 13.3883 16.3038 13.1661 16.3049 12.9391C16.3063 12.6359 16.4326 12.3457 16.6562 12.1318C16.8798 11.9179 17.1825 11.7978 17.498 11.7978Z" fill="#124F2E"/>
<path d="M8.07313 14.6093C8.41662 14.6103 8.75269 14.5135 9.03895 14.3311C9.32522 14.1487 9.54882 13.8888 9.68151 13.5843C9.81419 13.2798 9.85002 12.9444 9.78445 12.6204C9.71889 12.2963 9.55489 11.9982 9.31315 11.7637C9.07141 11.5292 8.7628 11.3688 8.42626 11.3028C8.08972 11.2367 7.74032 11.268 7.42226 11.3926C7.1042 11.5173 6.83176 11.7297 6.63925 12.0031C6.44675 12.2765 6.34281 12.5986 6.34065 12.9287C6.33922 13.1484 6.38292 13.3663 6.46927 13.5698C6.55563 13.7733 6.68294 13.9584 6.84388 14.1146C7.00483 14.2707 7.1963 14.3948 7.40723 14.4797C7.61817 14.5646 7.84444 14.6086 8.07313 14.6093ZM8.07313 11.7978C8.30956 11.7967 8.54099 11.8632 8.73803 11.9888C8.93506 12.1144 9.08883 12.2934 9.17981 12.5032C9.27078 12.7129 9.29483 12.9439 9.24897 13.1668C9.20311 13.3897 9.08936 13.5945 8.92217 13.7551C8.75499 13.9158 8.54196 14.0251 8.31001 14.0692C8.07807 14.1133 7.83767 14.0901 7.61944 14.0027C7.40121 13.9152 7.21498 13.7675 7.08429 13.5781C6.95361 13.3888 6.88437 13.1663 6.88545 12.9391C6.88688 12.6368 7.0125 12.3473 7.23492 12.1336C7.45734 11.9198 7.75858 11.7991 8.07313 11.7978Z" fill="#124F2E"/>
<path d="M12.8893 5.77148H13.4341V12.8343H12.8893V5.77148Z" fill="#124F2E"/>
<path d="M7.02192 8.63544H19.2961V9.159H7.02192V8.63544Z" fill="#124F2E"/>
<path d="M14.502 11.1117C14.3335 11.1117 14.197 10.9805 14.197 10.8185C14.197 10.6566 14.3335 10.5253 14.502 10.5253C14.6705 10.5253 14.8071 10.6566 14.8071 10.8185C14.8071 10.9805 14.6705 11.1117 14.502 11.1117Z" fill="#124F2E"/>
</svg>
