<svg width="26" height="26" viewBox="0 0 26 26" fill="none" xmlns="http://www.w3.org/2000/svg">
<path d="M6.96434 18.2981C7.14482 18.0309 7.32046 17.759 7.4863 17.5106C7.36625 17.4288 7.25068 17.3412 7.13999 17.248C6.83757 16.9621 6.56436 16.648 6.23755 16.3949C6.04799 16.2478 5.89967 16.0576 5.80598 15.8415C5.71228 15.6254 5.67618 15.3902 5.701 15.1573C5.701 11.829 5.701 8.50073 5.701 5.16775C5.68984 4.934 5.72723 4.70045 5.81098 4.48073C5.89473 4.26101 6.02316 4.05951 6.18878 3.88799C6.3517 3.7178 6.55021 3.58263 6.7713 3.49134C6.99239 3.40005 7.23105 3.35471 7.47165 3.35828H17.7151C17.957 3.34962 18.1983 3.38927 18.4235 3.47473C18.6487 3.5602 18.853 3.68961 19.0235 3.85481C19.194 4.02001 19.327 4.2174 19.4142 4.4345C19.5013 4.65161 19.5406 4.88373 19.5296 5.11618C19.5296 8.62261 19.5296 12.1478 19.5296 15.6448C19.5325 15.7195 19.5182 15.794 19.4879 15.8628C19.4575 15.9317 19.4118 15.9933 19.354 16.0433C18.9345 16.4371 18.5248 16.8402 18.1053 17.234C18.0029 17.3324 17.876 17.4121 17.7541 17.5106L17.8517 17.6606L20.6857 21.9405C20.7247 22.0014 20.7979 22.067 20.7979 22.1327C20.8089 22.2412 20.7776 22.3497 20.7101 22.4374C20.6859 22.4581 20.6571 22.4732 20.6259 22.4817C20.5948 22.4902 20.562 22.4918 20.5301 22.4864C20.4982 22.481 20.4679 22.4687 20.4417 22.4505C20.4154 22.4323 20.3937 22.4085 20.3784 22.3811C20.3382 22.3325 20.3023 22.2808 20.2711 22.2264C19.2532 20.6888 18.2354 19.1528 17.2175 17.6184C17.1785 17.5527 17.1054 17.4684 17.0419 17.4637C16.8029 17.4637 16.5542 17.4637 16.2859 17.4637L16.3932 17.6981L18.2224 21.6264C18.2956 21.7905 18.3736 21.9498 18.4516 22.0952C18.4708 22.1244 18.4831 22.1572 18.4877 22.1914C18.4924 22.2257 18.4893 22.2605 18.4786 22.2934C18.468 22.3264 18.45 22.3567 18.426 22.3824C18.402 22.408 18.3724 22.4284 18.3395 22.442C18.3076 22.4598 18.2719 22.4703 18.2351 22.4726C18.1984 22.4749 18.1616 22.469 18.1276 22.4554C18.0936 22.4418 18.0633 22.4208 18.0391 22.3941C18.015 22.3674 17.9976 22.3357 17.9883 22.3014C17.9541 22.2412 17.9247 22.1785 17.9004 22.1139C17.8517 21.9498 17.7444 21.9123 17.5688 21.9123C14.3169 21.9123 11.065 21.9123 7.81314 21.9123C7.54973 21.9123 7.37413 21.9545 7.32535 22.217C7.32069 22.2652 7.29819 22.3101 7.26194 22.3436C7.16748 22.4034 7.05788 22.4374 6.94487 22.442C6.80829 22.442 6.77413 22.292 6.80339 22.1655C6.82104 22.1059 6.84389 22.0479 6.87169 21.992C7.54483 20.5545 8.21635 19.1138 8.88623 17.6699C8.9155 17.6043 8.93987 17.5387 8.98377 17.4449C8.76427 17.4449 8.57893 17.4449 8.39357 17.4449C8.32116 17.4362 8.2477 17.449 8.18314 17.4817C8.11858 17.5144 8.06604 17.5654 8.03262 17.6277C7.02778 19.1653 6.01646 20.6966 4.99862 22.2217C4.96448 22.2827 4.93033 22.3624 4.87668 22.3858C4.82302 22.4092 4.63767 22.4702 4.57425 22.428C4.49969 22.348 4.45807 22.2447 4.45719 22.1373C4.45719 22.0764 4.53035 22.0061 4.57425 21.9451L6.96434 18.2981ZM19.0028 4.98024C19.0019 4.82245 18.9673 4.66652 18.9014 4.52203C18.8354 4.37753 18.7394 4.24751 18.6193 4.13996C18.4991 4.03241 18.3574 3.94959 18.2027 3.89659C18.0481 3.84359 17.8838 3.82152 17.72 3.83174H7.5253C7.35827 3.82272 7.19111 3.84683 7.03419 3.90256C6.87726 3.9583 6.73394 4.04447 6.61315 4.15571C6.49237 4.26695 6.39672 4.40089 6.3321 4.54919C6.26749 4.69749 6.23528 4.85698 6.23755 5.01774C6.23755 7.08972 6.23755 9.1617 6.23755 11.229C6.23755 11.2571 6.23755 11.2805 6.23755 11.3227H19.0028C19.0028 9.18982 19.0028 7.08503 19.0028 4.98024ZM8.01309 20.6888C7.92041 20.9279 7.79849 21.1576 7.67654 21.4154H17.5395C17.4029 21.1154 17.2761 20.8248 17.1298 20.5435C17.1298 20.5013 17.0029 20.4732 16.9346 20.4732H8.32527C8.25431 20.4667 8.18328 20.4849 8.12509 20.5244C8.0669 20.564 8.02541 20.6224 8.0082 20.6888H8.01309ZM8.3838 19.9669H16.8956C16.8274 19.8216 16.7737 19.6857 16.7005 19.5638C16.6536 19.5188 16.5911 19.4921 16.5249 19.4888C16.3249 19.4888 16.1249 19.4888 15.9249 19.4888H8.95453C8.5204 19.4888 8.47648 19.5263 8.37892 19.9669H8.3838ZM8.81306 18.9872H16.4322C16.3725 18.8262 16.3008 18.6695 16.2176 18.5184C16.1543 18.4698 16.074 18.4463 15.9932 18.4528H11.7007C10.891 18.4528 10.0862 18.4528 9.26184 18.4528C9.08624 18.4528 8.99843 18.4997 8.94965 18.6544C8.91078 18.7684 8.86349 18.8796 8.80817 18.9872H8.81306ZM15.9542 17.9559C15.8762 17.7824 15.8079 17.6277 15.725 17.4871C15.725 17.4543 15.6274 17.4449 15.5737 17.4449H9.67644C9.59335 17.4622 9.52014 17.5091 9.47155 17.5762C9.40135 17.6997 9.34102 17.8282 9.29107 17.9606L15.9542 17.9559ZM17.5151 16.948C17.6102 16.9437 17.7012 16.9091 17.7736 16.8496C18.159 16.4886 18.5346 16.123 18.9102 15.7527C18.97 15.6967 19.0064 15.6217 19.0126 15.5417C19.0126 14.3416 19.0126 13.1385 19.0126 11.9321C19.0126 11.9321 19.0126 11.8806 19.0126 11.8431H6.2522C6.2522 11.9181 6.2522 11.9837 6.2522 12.054C6.2522 13.1931 6.2522 14.337 6.2522 15.4761C6.25605 15.5874 6.30101 15.6937 6.37903 15.7761C6.73511 16.1417 7.10583 16.498 7.4863 16.8449C7.55657 16.9054 7.64583 16.9417 7.73996 16.948H17.5151Z" fill="#124F2E"/>
<path d="M6.35934 15.7761C6.28133 15.6937 6.23636 15.5874 6.23252 15.4761C6.23252 14.337 6.23252 13.1931 6.23252 12.054C6.23252 11.9837 6.23252 11.9181 6.23252 11.8431H19.0027C19.0027 11.8806 19.0027 11.9087 19.0027 11.9321C19.0027 13.1385 19.0027 14.3416 19.0027 15.5417C18.9965 15.6217 18.9601 15.6967 18.9003 15.7527C18.5247 16.123 18.149 16.4886 17.7637 16.8496C17.6913 16.9091 17.6004 16.9437 17.5052 16.948H7.71539C7.62127 16.9417 7.532 16.9054 7.46174 16.8449C7.08614 16.498 6.71542 16.1417 6.35934 15.7761ZM15.6272 15.6917C15.9548 15.6908 16.2748 15.5966 16.5468 15.4212C16.8188 15.2457 17.0306 14.9967 17.1555 14.7057C17.2804 14.4146 17.3129 14.0945 17.2487 13.7858C17.1846 13.4771 17.0267 13.1935 16.795 12.9709C16.5634 12.7483 16.2683 12.5966 15.9471 12.5349C15.6258 12.4733 15.2928 12.5044 14.9899 12.6245C14.6871 12.7445 14.428 12.9481 14.2454 13.2095C14.0628 13.4709 13.9649 13.7784 13.9639 14.0932C13.9652 14.516 14.1401 14.9211 14.4507 15.2205C14.7614 15.5199 15.1824 15.6892 15.6223 15.6917H15.6272ZM9.62264 15.6917C9.84102 15.6923 10.0573 15.6514 10.2592 15.5712C10.461 15.491 10.6443 15.3732 10.7985 15.2246C10.9527 15.076 11.0747 14.8995 11.1576 14.7053C11.2404 14.5111 11.2824 14.3031 11.2811 14.0932C11.2811 13.7768 11.1834 13.4676 11.0004 13.2046C10.8174 12.9416 10.5574 12.7368 10.2531 12.6159C9.94893 12.4951 9.61425 12.4637 9.29146 12.5257C8.96867 12.5878 8.67229 12.7405 8.43986 12.9645C8.20744 13.1886 8.04941 13.4738 7.98578 13.7842C7.92215 14.0946 7.95578 14.4162 8.08242 14.7082C8.20906 15.0002 8.42303 15.2495 8.69721 15.4246C8.97139 15.5997 9.29346 15.6926 9.62264 15.6917Z" fill="#43B02A"/>
<path d="M6.24253 11.3228C6.24253 11.2806 6.24253 11.2571 6.24253 11.229C6.24253 9.16173 6.24253 7.08975 6.24253 5.01777C6.24025 4.85701 6.27246 4.69752 6.33708 4.54922C6.4017 4.40092 6.49734 4.26699 6.61813 4.15575C6.73891 4.04451 6.88224 3.95833 7.03916 3.9026C7.19608 3.84687 7.36325 3.82276 7.53028 3.83178H17.7249C17.8888 3.82155 18.0531 3.84362 18.2077 3.89663C18.3624 3.94963 18.5041 4.03245 18.6242 4.14C18.7444 4.24755 18.8404 4.37757 18.9063 4.52206C18.9723 4.66656 19.0068 4.82249 19.0078 4.98027C19.0078 7.08506 19.0078 9.19923 19.0078 11.3228H6.24253ZM18.0274 5.13497C18.0274 4.84902 17.9591 4.78339 17.6615 4.7787H7.59369C7.27176 4.7787 7.20832 4.83965 7.20832 5.15372C7.20832 6.45223 7.20832 7.75541 7.20832 9.05391C7.20315 9.13553 7.22305 9.21681 7.26555 9.28765C7.30804 9.35849 7.37131 9.41578 7.44739 9.45237C9.01205 10.3379 10.7948 10.8048 12.6106 10.8048C14.4263 10.8048 16.209 10.3379 17.7737 9.45237C17.8619 9.40917 17.9344 9.34118 17.9815 9.25744C18.0285 9.17371 18.0479 9.0782 18.0371 8.9836C18.0274 7.7226 18.0274 6.42878 18.0274 5.13497Z" fill="#43B02A"/>
<path d="M15.9202 19.4889C16.1202 19.4889 16.3202 19.4889 16.5201 19.4889C16.5863 19.4922 16.6489 19.5189 16.6957 19.5639C16.7689 19.6858 16.8226 19.8217 16.8909 19.967H8.37903C8.47659 19.5264 8.52051 19.4983 8.94976 19.4983L15.9202 19.4889Z" fill="white"/>
<path d="M9.46682 17.5714C9.5154 17.5044 9.58862 17.4575 9.67171 17.4402H15.5885C15.6422 17.4402 15.7202 17.4402 15.7398 17.4824C15.8227 17.6277 15.8909 17.7824 15.969 17.9511H9.30587C9.34973 17.8209 9.40351 17.694 9.46682 17.5714Z" fill="white"/>
<path d="M15.6374 12.504C16.0773 12.504 16.4991 12.6719 16.8101 12.9708C17.1212 13.2698 17.2959 13.6751 17.2959 14.0979C17.2959 14.5206 17.1212 14.926 16.8101 15.2249C16.4991 15.5238 16.0773 15.6917 15.6374 15.6917C15.4188 15.6923 15.2022 15.6514 15.0001 15.5713C14.798 15.4912 14.6144 15.3734 14.4598 15.2249C14.3052 15.0763 14.1828 14.8999 14.0994 14.7056C14.016 14.5114 13.9734 14.3033 13.9741 14.0932C13.9804 13.672 14.158 13.2699 14.4689 12.9729C14.7797 12.676 15.1991 12.5077 15.6374 12.504ZM15.6374 15.1995C15.8639 15.1976 16.0848 15.1313 16.2721 15.0089C16.4594 14.8866 16.6048 14.7136 16.6899 14.5119C16.775 14.3102 16.7961 14.0887 16.7504 13.8755C16.7046 13.6623 16.5942 13.4669 16.4331 13.314C16.2719 13.1611 16.0672 13.0574 15.8448 13.0162C15.6224 12.975 15.3922 12.998 15.1834 13.0824C14.9746 13.1667 14.7965 13.3087 14.6716 13.4902C14.5466 13.6718 14.4804 13.8849 14.4814 14.1025C14.4839 14.3927 14.605 14.6703 14.8185 14.8755C15.032 15.0807 15.3208 15.197 15.6228 15.1995H15.6374Z" fill="#124F2E"/>
<path d="M9.59836 12.504C10.0392 12.504 10.4623 12.6707 10.7763 12.968C11.0903 13.2654 11.27 13.6696 11.2764 14.0932C11.2764 14.5171 11.1011 14.9237 10.7892 15.2235C10.4772 15.5233 10.0542 15.6917 9.61301 15.6917C9.17187 15.6917 8.74878 15.5233 8.43684 15.2235C8.12491 14.9237 7.94966 14.5171 7.94966 14.0932C7.9547 13.674 8.12989 13.2733 8.43786 12.9765C8.74583 12.6796 9.16223 12.5101 9.59836 12.504ZM9.59836 15.1995C9.7489 15.1995 9.89795 15.171 10.037 15.1156C10.1761 15.0603 10.3025 14.9791 10.4089 14.8768C10.5154 14.7745 10.5998 14.6531 10.6574 14.5194C10.715 14.3858 10.7446 14.2425 10.7446 14.0979C10.7446 13.9532 10.715 13.8099 10.6574 13.6763C10.5998 13.5426 10.5154 13.4212 10.4089 13.3189C10.3025 13.2166 10.1761 13.1355 10.037 13.0801C9.89795 13.0247 9.7489 12.9962 9.59836 12.9962C9.29509 13.0011 9.00575 13.1194 8.79172 13.3259C8.5777 13.5325 8.45585 13.8111 8.45209 14.1025C8.45336 14.2478 8.48439 14.3915 8.54343 14.5252C8.60246 14.659 8.68833 14.7802 8.79613 14.8821C8.90393 14.9839 9.03157 15.0644 9.17173 15.1189C9.31189 15.1733 9.46184 15.2007 9.61301 15.1995H9.59836Z" fill="#124F2E"/>
<path d="M17.7689 9.46182C16.2042 10.3473 14.4215 10.8143 12.6057 10.8143C10.7899 10.8143 9.00719 10.3473 7.44253 9.46182C7.36645 9.42522 7.30318 9.36794 7.26069 9.2971C7.21819 9.22626 7.19835 9.14498 7.20353 9.06337C7.20353 7.76486 7.20353 6.46167 7.20353 5.16317C7.20353 4.84909 7.2669 4.78815 7.58883 4.78815H17.6567C17.9542 4.78815 18.0225 4.85847 18.0225 5.14442C18.0225 6.43823 18.0225 7.73205 18.0225 9.02118C18.0282 9.11021 18.0074 9.19896 17.9625 9.27701C17.9176 9.35506 17.8504 9.41917 17.7689 9.46182ZM12.3496 5.28505H7.72054V6.94919C7.72054 7.58672 7.72054 8.22895 7.72054 8.86648C7.72189 8.91058 7.73304 8.95388 7.75323 8.9935C7.77343 9.03311 7.80218 9.06812 7.83761 9.09618C9.1593 9.83533 10.6466 10.2582 12.174 10.3291H12.3008C12.3008 10.3291 12.3008 10.3291 12.3496 10.3291V5.28505ZM17.5152 5.40693C17.5152 5.36943 17.5152 5.32724 17.5152 5.28036H12.9008V10.3291C13.3886 10.2775 13.8276 10.2447 14.2812 10.1697C15.3729 9.99548 16.4225 9.63171 17.3787 9.09618C17.4164 9.07152 17.4485 9.03965 17.4728 9.00254C17.4971 8.96544 17.5132 8.92391 17.5201 8.88054C17.5396 7.73205 17.5152 6.57887 17.5152 5.40693Z" fill="#124F2E"/>
<path d="M15.6323 12.9962C15.8579 12.9999 16.0774 13.0675 16.2632 13.1905C16.449 13.3136 16.5929 13.4866 16.6768 13.688C16.7608 13.8893 16.781 14.1099 16.7349 14.3222C16.6889 14.5346 16.5788 14.7291 16.4182 14.8815C16.2576 15.0339 16.0538 15.1373 15.8323 15.1788C15.6108 15.2204 15.3815 15.1982 15.1731 15.115C14.9646 15.0318 14.7864 14.8913 14.6607 14.7112C14.535 14.5311 14.4674 14.3193 14.4664 14.1025C14.469 13.8074 14.5932 13.5253 14.8117 13.318C15.0302 13.1106 15.3252 12.9949 15.6323 12.9962Z" fill="white"/>
<path d="M9.60348 12.9962C9.82998 12.9962 10.0514 13.0606 10.2398 13.1815C10.4282 13.3023 10.5751 13.4741 10.662 13.6751C10.7489 13.8761 10.7719 14.0974 10.7281 14.311C10.6842 14.5245 10.5756 14.7208 10.4158 14.8751C10.2559 15.0293 10.0521 15.1346 9.8301 15.1776C9.60806 15.2207 9.37775 15.1995 9.16821 15.1169C8.95867 15.0342 8.77928 14.8937 8.65274 14.7132C8.5262 14.5327 8.45816 14.3201 8.4572 14.1025C8.45973 13.8106 8.58118 13.5313 8.79547 13.3245C9.00976 13.1177 9.29981 12.9998 9.60348 12.9962Z" fill="white"/>
</svg>
