<svg width="26" height="26" viewBox="0 0 26 26" fill="none" xmlns="http://www.w3.org/2000/svg">
<path d="M18.1129 19.2438C18.1798 19.7633 18.4419 20.2413 18.85 20.588C19.2581 20.9346 19.784 21.1259 20.3287 21.1259C20.8733 21.1259 21.3992 20.9346 21.8073 20.588C22.2154 20.2413 22.4776 19.7633 22.5445 19.2438H24.4631C24.7531 19.2438 24.8352 19.1602 24.8401 18.8816C24.8449 18.6029 24.8401 18.3335 24.8401 18.0549V12.1658C24.8401 11.9707 24.8401 11.7524 24.5839 11.7013C24.3954 11.6781 24.3085 11.836 24.3085 12.1658V15.7466H22.7474V12.463C22.7474 12.1147 22.6798 12.0543 22.3222 12.0543H18.8958V8.75676C18.8958 8.41308 18.8281 8.3527 18.4656 8.3527H15.0538C15.0538 8.06939 15.0538 7.80466 15.0538 7.54457C15.0538 7.28448 14.9668 7.18695 14.701 7.18695H11.0377C10.7622 7.18695 10.6801 7.27984 10.6801 7.5678C10.6801 8.83108 10.6801 10.0897 10.6801 11.353V15.7512H10.366C10.366 15.663 10.366 15.5748 10.366 15.4912V6.46707C10.366 6.06301 10.4433 6.00263 10.8492 6.00263H24.3809C24.4717 6.02176 24.5657 6.02176 24.6564 6.00263C24.7531 5.95619 24.8835 5.85401 24.8835 5.77505C24.8835 5.6961 24.7628 5.59392 24.6709 5.5289C24.5791 5.46388 24.5404 5.5289 24.4728 5.5289H10.7864C10.6555 5.51303 10.5227 5.52613 10.3979 5.5672C10.2731 5.60827 10.1597 5.67622 10.0664 5.76585C9.97318 5.85549 9.90247 5.96444 9.85973 6.08436C9.817 6.20429 9.80334 6.33202 9.81985 6.45778C9.81985 7.15444 9.81985 7.8511 9.81985 8.54312V8.83108H9.52506C8.55851 8.83108 7.592 8.83108 6.59645 8.83108C6.4702 8.82693 6.34445 8.84883 6.22774 8.8953C6.11103 8.94176 6.00607 9.01172 5.91985 9.10045C5.85703 9.16548 5.78452 9.2212 5.72653 9.29087C5.61719 9.4258 5.48096 9.53843 5.32579 9.62216C5.17062 9.7059 4.99961 9.75906 4.82281 9.77853C4.52828 9.83642 4.25977 9.98087 4.05442 10.1919C3.36334 10.87 2.71574 11.5852 2.04882 12.2772C1.77775 12.5718 1.63876 12.9575 1.66217 13.3501C1.66217 14.3208 1.66217 15.2915 1.66217 16.2621V16.5362H1.12091C0.845444 16.5362 0.768129 16.6151 0.768129 16.8891V18.1988C0.764824 18.3369 0.790695 18.4743 0.844172 18.6025C0.897646 18.7307 0.977623 18.8472 1.07926 18.9448C1.1809 19.0425 1.3021 19.1194 1.43552 19.1708C1.56894 19.2222 1.7118 19.247 1.8555 19.2438H4.08822C4.12205 19.3692 4.15108 19.4854 4.18491 19.6015C4.32365 20.06 4.61857 20.4605 5.02238 20.7387C5.4262 21.017 5.91551 21.1568 6.41192 21.136C6.90832 21.1151 7.38301 20.9346 7.75998 20.6236C8.13695 20.3125 8.39433 19.8888 8.49085 19.4203C8.51984 19.2949 8.55853 19.2438 8.69868 19.2438H18.0694H18.1129ZM2.1648 16.5129H2.96705C3.17486 16.5129 3.27152 16.42 3.27152 16.2203C3.27152 15.8395 3.27152 15.4586 3.27152 15.0778C3.27152 14.8502 3.16516 14.7573 2.93319 14.762C2.70122 14.7666 2.41611 14.762 2.16964 14.762V13.638H7.51946C7.85292 13.638 7.92062 13.573 7.92062 13.2572V11.0279C7.92062 10.661 7.86261 10.6006 7.48566 10.6006H4.58601H4.28638C4.38896 10.4611 4.52755 10.3496 4.68854 10.2771C4.84953 10.2046 5.0274 10.1737 5.20462 10.1872H9.52023H9.74741V17.6647C9.20131 17.6647 8.67451 17.6647 8.1429 17.6647C8.06455 17.6556 7.9924 17.6193 7.93997 17.5626C7.73396 17.334 7.4796 17.1503 7.19388 17.0236C6.90815 16.897 6.5976 16.8303 6.28296 16.8281C5.96831 16.8259 5.65676 16.8882 5.36915 17.0109C5.08154 17.1335 4.82447 17.3137 4.61503 17.5394C4.55704 17.5951 4.48453 17.6647 4.41688 17.6647C3.66297 17.6647 2.90425 17.6647 2.14067 17.6647L2.1648 16.5129ZM10.3418 17.674V16.2807H24.2698V16.787H23.4965C23.1969 16.787 23.1293 16.8613 23.1293 17.1492C23.1293 17.3164 23.1293 17.4836 23.1293 17.6694C22.8248 17.6694 22.5445 17.6694 22.269 17.6694C22.1588 17.6626 22.0553 17.6162 21.9791 17.5394C21.7716 17.3206 21.519 17.1459 21.2373 17.0264C20.9557 16.9068 20.6511 16.8451 20.3432 16.8451C20.0352 16.8451 19.7307 16.9068 19.449 17.0264C19.1673 17.1459 18.9147 17.3206 18.7073 17.5394C18.6588 17.5926 18.5984 17.6345 18.5306 17.6618C18.4628 17.6892 18.3893 17.7013 18.3159 17.6973H10.3467L10.3418 17.674ZM12.0188 7.71177C12.0188 8.00901 12.0188 8.28304 12.0188 8.55706C12.0188 8.83108 12.2073 8.98434 12.5021 8.82643C12.6096 8.75367 12.7379 8.71462 12.8693 8.71462C13.0008 8.71462 13.1291 8.75367 13.2366 8.82643C13.5073 8.98434 13.6861 8.86359 13.6909 8.5617C13.6957 8.25981 13.6909 7.99972 13.6909 7.71641H14.5222V12.0497H11.2214V7.71177H12.0188ZM2.18899 13.1318L2.11648 13.0761C2.21625 12.8799 2.33262 12.6919 2.46443 12.5141C2.84138 12.0915 3.24735 11.692 3.63397 11.2787C3.68146 11.2238 3.74147 11.1801 3.80936 11.1511C3.87725 11.1221 3.95116 11.1086 4.02539 11.1115H7.15701H7.39864V13.1179L2.18899 13.1318ZM19.7367 12.5838V13.4058C19.7367 13.7495 19.8961 13.8703 20.2199 13.6891C20.3176 13.6232 20.4341 13.5878 20.5534 13.5878C20.6728 13.5878 20.7892 13.6232 20.8869 13.6891C21.2106 13.8749 21.3701 13.7634 21.3701 13.4058V12.6023H22.2013V15.7652H18.8909V12.5931L19.7367 12.5838ZM15.0538 15.7652V12.5884H15.8801C15.8801 12.8903 15.8801 13.1736 15.8801 13.4523C15.8801 13.7309 16.059 13.847 16.3103 13.7031C16.4215 13.6283 16.5539 13.5883 16.6896 13.5883C16.8254 13.5883 16.9577 13.6283 17.069 13.7031C17.3444 13.861 17.5088 13.7402 17.5088 13.4244C17.5088 13.1086 17.5088 12.8671 17.5088 12.5884H18.3497V15.7698L15.0538 15.7652ZM14.4931 12.5791V15.7559H11.2068V12.5931H12.0188C12.0188 12.8857 12.0188 13.1597 12.0188 13.4337C12.0188 13.7077 12.2073 13.8517 12.5021 13.6938C12.6113 13.6231 12.74 13.5853 12.8718 13.5853C13.0035 13.5853 13.1322 13.6231 13.2415 13.6938C13.5169 13.847 13.6861 13.7309 13.6909 13.4244C13.6957 13.1179 13.6909 12.8624 13.6909 12.5745L14.4931 12.5791ZM18.3593 12.0497H15.0489V8.88681H15.8753C15.8753 9.17012 15.8753 9.43485 15.8753 9.69958C15.8753 10.0433 16.0493 10.164 16.3586 9.98753C16.4604 9.92084 16.5808 9.88518 16.7041 9.88518C16.8274 9.88518 16.9478 9.92084 17.0497 9.98753C17.3445 10.1547 17.533 10.0433 17.533 9.71816C17.533 9.39305 17.533 9.16083 17.533 8.88681H18.3835L18.3593 12.0497ZM8.37487 18.1756H18.2385L18.0935 18.7283H8.78086C8.7314 18.7377 8.68048 18.7377 8.63102 18.7283C8.56843 18.7053 8.51571 18.6628 8.48123 18.6076C8.43877 18.4656 8.40484 18.3214 8.3797 18.1756H8.37487ZM6.25328 20.614C5.91661 20.6066 5.58976 20.5036 5.31387 20.318C5.03798 20.1324 4.82539 19.8725 4.70293 19.571C4.58048 19.2696 4.55366 18.94 4.62577 18.6239C4.69788 18.3077 4.86571 18.0192 5.10816 17.7945C5.35061 17.5699 5.65679 17.4193 5.98817 17.3617C6.31954 17.304 6.66128 17.3419 6.97029 17.4705C7.2793 17.5992 7.54177 17.8129 7.72464 18.0846C7.90751 18.3564 8.00264 18.6741 7.99796 18.9977C7.98906 19.4334 7.80105 19.8479 7.47504 20.1508C7.14903 20.4537 6.7115 20.6202 6.25812 20.614H6.25328ZM22.0467 18.9745C22.0458 19.2972 21.9454 19.6125 21.7584 19.8805C21.5713 20.1485 21.3058 20.3574 20.9955 20.4806C20.6851 20.6039 20.3437 20.6362 20.0143 20.5733C19.6849 20.5105 19.3822 20.3553 19.1444 20.1274C18.9066 19.8995 18.7444 19.6091 18.678 19.2927C18.6117 18.9763 18.6442 18.6482 18.7716 18.3495C18.8991 18.0509 19.1156 17.7952 19.394 17.6147C19.6723 17.4342 20.0001 17.3368 20.3359 17.335C20.5609 17.3325 20.7842 17.3732 20.9926 17.4546C21.201 17.5361 21.3904 17.6567 21.5497 17.8094C21.709 17.962 21.835 18.1437 21.9204 18.3438C22.0057 18.5438 22.0487 18.7583 22.0467 18.9745ZM1.62354 17.0331C1.62354 17.0703 1.65256 17.0842 1.65256 17.0981C1.65256 17.3257 1.65256 17.5626 1.65256 17.7762C1.65256 18.1106 1.70569 18.1617 2.04398 18.1617H4.23807L4.07855 18.7237C3.31497 18.7237 2.56594 18.7237 1.82169 18.7237C1.68528 18.7313 1.55124 18.6867 1.44891 18.5997C1.34659 18.5127 1.2843 18.3903 1.27559 18.2592C1.27559 17.8598 1.27559 17.4604 1.27559 17.047L1.62354 17.0331ZM9.8054 9.65778H6.05518C6.12941 9.53703 6.23557 9.43733 6.36289 9.3688C6.49022 9.30028 6.63418 9.26538 6.7801 9.26765C7.69349 9.29087 8.61168 9.26765 9.5299 9.26765H9.8054V9.65778ZM22.4285 18.1803H24.3036V18.7097H22.5638L22.4285 18.1803ZM2.76889 15.2682V16.0113H2.19382V15.2682H2.76889ZM12.56 7.71177H13.1352V8.17621H12.56V7.71177ZM12.56 12.5791H13.1352V13.0436H12.56V12.5791ZM20.2635 13.0436V12.5791H20.8385V13.0436H20.2635ZM16.3973 12.5791H16.982V13.0436H16.3973V12.5791ZM16.9869 8.86358V9.32803H16.4021V8.86358H16.9869ZM24.2698 17.6462H23.6512V17.2793H24.2698V17.6462Z" fill="#124F2E"/>
<path d="M23.7816 11.2646C24.2359 11.2646 24.6902 11.2646 25.1445 11.2646C25.3281 11.2646 25.4731 11.2089 25.4827 11.0231C25.4924 10.8374 25.3378 10.7723 25.1541 10.7723H22.4236C22.2448 10.7723 22.0901 10.8188 22.0901 11.0139C22.0901 11.2089 22.2496 11.2693 22.4429 11.2646C22.8875 11.26 23.3321 11.2646 23.7816 11.2646Z" fill="#124F2E"/>
<path d="M24.6662 6.85254H23.6561C23.4676 6.85254 23.3323 6.91756 23.3323 7.10798C23.3323 7.2984 23.4773 7.34485 23.6512 7.3402H25.6955C25.8647 7.3402 26 7.28911 26 7.09869C26 6.90827 25.8744 6.85254 25.7004 6.85254H24.6662Z" fill="#124F2E"/>
<path d="M24.4631 9.95495H25.4682C25.6519 9.95495 25.7679 9.88064 25.763 9.69951C25.7582 9.51837 25.6471 9.46729 25.4779 9.46729H23.4965C23.3129 9.46729 23.192 9.54624 23.1969 9.71809C23.2017 9.88993 23.3177 9.95495 23.4868 9.95495H24.4631Z" fill="#124F2E"/>
<path d="M23.9557 8.45019H24.7339C24.9175 8.45019 25.0335 8.37124 25.0287 8.1994C25.0238 8.02755 24.9126 7.96253 24.7387 7.96718H23.1294C23.092 7.95691 23.0526 7.95512 23.0144 7.96196C22.9762 7.9688 22.9401 7.98408 22.909 8.00659C22.878 8.02911 22.8528 8.05824 22.8354 8.09169C22.8181 8.12515 22.809 8.16202 22.809 8.1994C22.809 8.23678 22.8181 8.27365 22.8354 8.3071C22.8528 8.34056 22.878 8.36969 22.909 8.3922C22.9401 8.41471 22.9762 8.42999 23.0144 8.43683C23.0526 8.44367 23.092 8.44189 23.1294 8.43162L23.9557 8.45019Z" fill="#124F2E"/>
<path d="M2.16963 16.5361V17.6972C2.9332 17.6972 3.69193 17.6972 4.44583 17.6972C4.51349 17.6972 4.586 17.6276 4.64399 17.5718C4.85343 17.3462 5.11055 17.166 5.39817 17.0434C5.68578 16.9207 5.99727 16.8584 6.31192 16.8606C6.62656 16.8628 6.93711 16.9295 7.22283 17.0561C7.50856 17.1828 7.76292 17.3665 7.96892 17.5951C8.02136 17.6518 8.09357 17.6881 8.17192 17.6972C8.70352 17.6972 9.23027 17.6972 9.77637 17.6972V10.2197H9.54924H5.23357C5.05636 10.2061 4.87855 10.2371 4.71756 10.3096C4.55657 10.3821 4.41798 10.4935 4.3154 10.6331H4.61503H7.51468C7.89163 10.6331 7.94958 10.6935 7.94958 11.0604V13.285C7.94958 13.6009 7.88194 13.6659 7.54848 13.6659H2.19865V14.7898C2.44512 14.7898 2.68191 14.7898 2.96221 14.7898C3.24251 14.7898 3.30531 14.8781 3.30048 15.1057C3.30048 15.4865 3.30048 15.8673 3.30048 16.2482C3.30048 16.4479 3.20382 16.5454 2.99601 16.5408L2.16963 16.5361ZM7.36967 15.584C7.19476 15.6051 7.01782 15.6051 6.84292 15.584C6.7366 15.5608 6.66408 15.4354 6.57225 15.3518C6.65924 15.2682 6.74142 15.1196 6.83324 15.1103C7.19189 15.0824 7.55229 15.0824 7.91093 15.1103C8.00276 15.1103 8.12841 15.2496 8.15741 15.3472C8.18641 15.4447 8.07042 15.584 7.92061 15.5933C7.77079 15.6026 7.54848 15.5562 7.36967 15.5608V15.584Z" fill="#43B02A"/>
<path d="M10.3467 17.6739H18.3159C18.3893 17.678 18.4628 17.6659 18.5306 17.6385C18.5984 17.6111 18.6588 17.5692 18.7073 17.516C18.9147 17.2973 19.1673 17.1226 19.449 17.003C19.7307 16.8835 20.0352 16.8218 20.3432 16.8218C20.6511 16.8218 20.9557 16.8835 21.2373 17.003C21.519 17.1226 21.7716 17.2973 21.9791 17.516C22.0553 17.5928 22.1588 17.6393 22.269 17.6461C22.5445 17.6461 22.8248 17.6461 23.1293 17.6461C23.1293 17.4603 23.1293 17.2931 23.1293 17.1259C23.1293 16.8379 23.1969 16.7683 23.4965 16.7636H24.2698V16.2574H10.3467V17.6739Z" fill="#43B02A"/>
<path d="M12.0189 7.71167H11.2022V12.0495H14.5029V7.71167H13.6717C13.6717 7.99498 13.6717 8.27365 13.6717 8.55696C13.6717 8.84027 13.488 8.97959 13.2174 8.82168C13.1099 8.74893 12.9816 8.70988 12.8501 8.70988C12.7186 8.70988 12.5903 8.74893 12.4828 8.82168C12.2122 8.97959 12.0285 8.85884 11.9995 8.55231C11.9705 8.24578 12.0189 8.00891 12.0189 7.71167Z" fill="#43B02A"/>
<path d="M2.18902 13.1317H7.39868V11.1253H7.15704H4.02543C3.9512 11.1224 3.87729 11.136 3.8094 11.165C3.74151 11.194 3.6815 11.2376 3.63401 11.2925C3.24739 11.7059 2.84142 12.1053 2.46447 12.5279C2.33265 12.7058 2.21629 12.8937 2.11652 13.0899L2.18902 13.1317Z" fill="white"/>
<path d="M19.7367 12.5837H18.891V15.7558H22.2014V12.593H21.3702V13.3965C21.3702 13.7541 21.2011 13.8609 20.8869 13.6798C20.7893 13.6138 20.6728 13.5784 20.5535 13.5784C20.4341 13.5784 20.3177 13.6138 20.22 13.6798C19.9059 13.847 19.7367 13.7401 19.7367 13.3965V12.5837Z" fill="#43B02A"/>
<path d="M15.0537 15.7651H18.3545V12.5837H17.5136C17.5136 12.8623 17.5136 13.141 17.5136 13.4197C17.5136 13.6983 17.3493 13.8563 17.0738 13.6983C16.9626 13.6236 16.8302 13.5835 16.6945 13.5835C16.5588 13.5835 16.4263 13.6236 16.3151 13.6983C16.0638 13.8423 15.8898 13.7309 15.885 13.4475C15.8801 13.1642 15.885 12.8856 15.885 12.5837H15.0586L15.0537 15.7651Z" fill="#43B02A"/>
<path d="M14.4932 12.579H13.6716C13.6716 12.867 13.6716 13.1457 13.6716 13.429C13.6716 13.7123 13.4976 13.8516 13.2221 13.6983C13.1129 13.6277 12.9842 13.5899 12.8524 13.5899C12.7207 13.5899 12.592 13.6277 12.4827 13.6983C12.2121 13.8563 12.0284 13.7401 11.9995 13.4382C11.9705 13.1364 11.9995 12.8902 11.9995 12.5976H11.1876V15.7605H14.4738L14.4932 12.579Z" fill="#43B02A"/>
<path d="M18.3643 12.0496V8.88672H17.5137C17.5137 9.16074 17.5137 9.43941 17.5137 9.71807C17.5137 9.99674 17.3445 10.1546 17.0304 9.98744C16.9285 9.92075 16.8082 9.88509 16.6849 9.88509C16.5616 9.88509 16.4412 9.92075 16.3393 9.98744C16.0348 10.1546 15.856 10.0432 15.856 9.69949C15.856 9.43476 15.856 9.17003 15.856 8.88672H15.0297V12.0496H18.3643Z" fill="#43B02A"/>
<path d="M8.37976 18.1755C8.40666 18.3198 8.44215 18.4625 8.48606 18.6028C8.52055 18.6581 8.57332 18.7006 8.63591 18.7236C8.68537 18.733 8.73629 18.733 8.78575 18.7236H18.0984L18.2434 18.1709L8.37976 18.1755Z" fill="white"/>
<path d="M6.25803 20.6139C6.59344 20.62 6.92331 20.5309 7.2063 20.3577C7.48928 20.1846 7.71286 19.9351 7.84909 19.6405C7.98532 19.3459 8.02815 19.0192 7.97221 18.7014C7.91627 18.3835 7.76406 18.0885 7.53459 17.8533C7.30513 17.6182 7.00857 17.4532 6.68208 17.3791C6.35559 17.3051 6.01363 17.3251 5.69895 17.4368C5.38427 17.5486 5.11084 17.747 4.91287 18.0072C4.7149 18.2675 4.60119 18.5781 4.58592 18.9001C4.57622 19.1188 4.61202 19.337 4.69123 19.5422C4.77043 19.7473 4.89146 19.9352 5.04719 20.0948C5.20293 20.2544 5.39021 20.3825 5.59813 20.4717C5.80606 20.5608 6.03041 20.6092 6.25803 20.6139ZM7.5146 18.9837C7.51174 19.2153 7.43767 19.441 7.30181 19.6322C7.16594 19.8235 6.9743 19.972 6.75093 20.0589C6.52755 20.1459 6.28245 20.1674 6.04637 20.1209C5.81028 20.0744 5.59379 19.9618 5.42404 19.7974C5.2543 19.633 5.13888 19.4241 5.09232 19.1968C5.04576 18.9696 5.07013 18.7342 5.16235 18.5202C5.25456 18.3062 5.41053 18.1232 5.61064 17.9941C5.81075 17.8651 6.04606 17.7957 6.28706 17.7948C6.44926 17.7941 6.60998 17.8245 6.75983 17.8842C6.90969 17.9438 7.04569 18.0315 7.15993 18.1422C7.27417 18.2529 7.36433 18.3842 7.42522 18.5287C7.48611 18.6732 7.51652 18.8279 7.5146 18.9837Z" fill="white"/>
<path d="M22.0466 18.9744C22.0456 18.6509 21.9448 18.3349 21.7569 18.0665C21.569 17.798 21.3023 17.5892 20.9909 17.4665C20.6794 17.3437 20.337 17.3125 20.0071 17.3769C19.6772 17.4413 19.3745 17.5983 19.1375 17.828C18.9004 18.0578 18.7397 18.3499 18.6755 18.6675C18.6114 18.9852 18.6467 19.3139 18.7771 19.6122C18.9075 19.9105 19.127 20.1649 19.4079 20.3432C19.6889 20.5215 20.0185 20.6157 20.3551 20.6139C20.5783 20.6133 20.7991 20.5704 21.005 20.4876C21.2109 20.4048 21.3978 20.2838 21.5549 20.1315C21.712 19.9792 21.8363 19.7986 21.9207 19.6C22.0051 19.4015 22.0479 19.1889 22.0466 18.9744ZM20.3455 20.1494C20.1019 20.1494 19.8638 20.0797 19.6616 19.9493C19.4593 19.8188 19.302 19.6334 19.2097 19.4168C19.1174 19.2002 19.0942 18.962 19.1432 18.7327C19.1921 18.5034 19.311 18.2932 19.4846 18.129C19.6582 17.9648 19.8787 17.8539 20.118 17.8105C20.3574 17.7671 20.6049 17.7932 20.8288 17.8853C21.0527 17.9774 21.2431 18.1315 21.3756 18.328C21.5081 18.5244 21.5768 18.7543 21.573 18.9883C21.5654 19.3004 21.4304 19.5971 21.1971 19.8144C20.9638 20.0316 20.6509 20.152 20.3261 20.1494H20.3455Z" fill="white"/>
<path d="M1.60422 17.0331H1.25628C1.25628 17.4464 1.25628 17.8458 1.25628 18.2453C1.26498 18.3763 1.32733 18.4987 1.42966 18.5857C1.53198 18.6728 1.66597 18.7173 1.80238 18.7097C2.54662 18.7097 3.29572 18.7097 4.05929 18.7097L4.21875 18.1477H2.02467C1.68637 18.1477 1.63808 18.0967 1.63324 17.7623C1.63324 17.5347 1.63324 17.2978 1.63324 17.0842C1.63324 17.0842 1.61872 17.0702 1.60422 17.0331Z" fill="white"/>
<path d="M22.4093 18.1802L22.5446 18.7096H24.2844V18.1802H22.4093Z" fill="white"/>
<path d="M2.74951 15.2682H2.17444V16.0113H2.74951V15.2682Z" fill="white"/>
<path d="M12.5599 7.71167V8.17611H13.135V7.71167H12.5599Z" fill="white"/>
<path d="M12.5599 12.5837V13.0481H13.135V12.5837H12.5599Z" fill="white"/>
<path d="M20.2636 13.0481H20.8386V12.5837H20.2636V13.0481Z" fill="white"/>
<path d="M16.4118 12.5837V13.0481H16.9966V12.5837H16.4118Z" fill="white"/>
<path d="M17.0015 8.88208H16.4167V9.34652H17.0015V8.88208Z" fill="white"/>
<path d="M24.2844 17.6647V17.2978H23.6658V17.6647H24.2844Z" fill="white"/>
<path d="M7.36965 15.5562C7.5533 15.5562 7.73695 15.5562 7.92059 15.5562C8.10424 15.5562 8.20089 15.4586 8.15739 15.31C8.1139 15.1614 8.00274 15.0778 7.91092 15.0731C7.55227 15.0453 7.19187 15.0453 6.83322 15.0731C6.7414 15.0731 6.65923 15.231 6.57224 15.3146C6.66406 15.3982 6.73658 15.5236 6.8429 15.5469C7.01723 15.573 7.19444 15.5762 7.36965 15.5562Z" fill="#124F2E"/>
<path d="M7.51485 18.9837C7.51677 18.7509 7.44669 18.5228 7.31351 18.3284C7.18033 18.1339 6.99 17.9819 6.76676 17.8915C6.54352 17.8011 6.29741 17.7766 6.0596 17.8208C5.82179 17.8651 5.60299 17.9763 5.43103 18.1403C5.25906 18.3042 5.14167 18.5136 5.0937 18.7417C5.04574 18.9699 5.06941 19.2067 5.16166 19.4219C5.25391 19.6372 5.41057 19.8212 5.61184 19.9508C5.81312 20.0803 6.04992 20.1494 6.29216 20.1495C6.61476 20.1495 6.92432 20.0269 7.15334 19.8086C7.38236 19.5902 7.5123 19.2937 7.51485 18.9837ZM6.29699 18.301C6.48419 18.3022 6.66343 18.3739 6.79625 18.5006C6.92907 18.6274 7.00487 18.7992 7.00739 18.9791C7.00009 19.1583 6.92207 19.3281 6.78923 19.454C6.65639 19.5799 6.47869 19.6526 6.29216 19.6571C6.10542 19.6547 5.92716 19.5817 5.79602 19.4539C5.66487 19.3261 5.59135 19.1539 5.59137 18.9744C5.59005 18.8852 5.60747 18.7967 5.64252 18.7141C5.67757 18.6315 5.72958 18.5566 5.79543 18.4937C5.86128 18.4309 5.93963 18.3814 6.0258 18.3483C6.11197 18.3152 6.20421 18.2991 6.29699 18.301Z" fill="#124F2E"/>
<path d="M20.3263 20.1494C20.4937 20.1595 20.6615 20.1366 20.8192 20.082C20.977 20.0274 21.1215 19.9423 21.2437 19.832C21.3659 19.7216 21.4633 19.5884 21.5299 19.4405C21.5965 19.2926 21.6309 19.1332 21.6309 18.972C21.6309 18.8109 21.5965 18.6515 21.5299 18.5036C21.4633 18.3557 21.3659 18.2224 21.2437 18.1121C21.1215 18.0018 20.977 17.9167 20.8192 17.8621C20.6615 17.8075 20.4937 17.7846 20.3263 17.7947C20.159 17.7846 19.9913 17.8075 19.8335 17.8621C19.6757 17.9167 19.5313 18.0018 19.409 18.1121C19.2868 18.2224 19.1894 18.3557 19.1228 18.5036C19.0562 18.6515 19.0219 18.8109 19.0219 18.972C19.0219 19.1332 19.0562 19.2926 19.1228 19.4405C19.1894 19.5884 19.2868 19.7216 19.409 19.832C19.5313 19.9423 19.6757 20.0274 19.8335 20.082C19.9913 20.1366 20.159 20.1595 20.3263 20.1494ZM19.6256 18.9744C19.6243 18.8856 19.6415 18.7974 19.6763 18.7152C19.711 18.6329 19.7626 18.5582 19.828 18.4954C19.8933 18.4326 19.9711 18.383 20.0567 18.3496C20.1423 18.3162 20.234 18.2997 20.3263 18.3009C20.4192 18.3003 20.5112 18.3174 20.5971 18.3513C20.683 18.3851 20.7611 18.4351 20.8267 18.4982C20.8924 18.5612 20.9443 18.6362 20.9796 18.7188C21.0148 18.8013 21.0326 18.8898 21.032 18.979C21.0271 19.1574 20.9512 19.3271 20.8199 19.4533C20.6886 19.5795 20.5119 19.6524 20.3263 19.6571C20.14 19.6546 19.9623 19.5815 19.832 19.4536C19.7016 19.3257 19.6292 19.1534 19.6304 18.9744H19.6256Z" fill="#124F2E"/>
</svg>
