<svg width="26" height="26" viewBox="0 0 26 26" fill="none" xmlns="http://www.w3.org/2000/svg">
<path d="M4.32782 4.07129C4.17749 4.10885 4.03689 4.17587 3.91478 4.26814C3.79268 4.3604 3.69168 4.47593 3.61823 4.60746C3.54478 4.73899 3.50043 4.88369 3.48792 5.03248C3.47541 5.18128 3.49505 5.33095 3.54557 5.47211C3.74422 6.37437 4.14915 7.22289 4.73108 7.95622C4.92749 8.21665 5.1487 8.45895 5.39186 8.67998C5.9409 9.20295 6.50941 9.70724 7.07789 10.2162C7.1203 10.2478 7.15117 10.2915 7.16602 10.341C7.18087 10.3905 7.17889 10.4433 7.16045 10.4917C7.05841 10.8979 6.97585 11.3135 6.88839 11.7244L6.83009 11.7711C6.73777 11.6637 6.65514 11.547 6.5531 11.4489C6.47544 11.3738 6.38307 11.3142 6.28134 11.2735C6.17961 11.2329 6.07054 11.2119 5.96035 11.2119C5.85017 11.2119 5.74109 11.2329 5.63936 11.2735C5.53763 11.3142 5.44527 11.3738 5.3676 11.4489C5.28986 11.5143 5.2218 11.589 5.14892 11.6591C5.06628 11.7341 5.0005 11.8246 4.95551 11.925C4.91052 12.0253 4.8873 12.1334 4.8873 12.2427C4.8873 12.352 4.91052 12.4601 4.95551 12.5605C5.0005 12.6608 5.06628 12.7513 5.14892 12.8264C5.51333 13.1859 5.88747 13.5408 6.26159 13.8957C6.301 13.9253 6.33036 13.9656 6.34593 14.0113C6.3615 14.057 6.36261 14.1062 6.34908 14.1525C6.24704 14.5541 6.1644 14.9603 6.06237 15.4039L5.74173 15.1004C5.66237 15.0124 5.56425 14.9418 5.45402 14.8934C5.34378 14.845 5.22397 14.82 5.10278 14.82C4.98159 14.82 4.86184 14.845 4.7516 14.8934C4.64136 14.9418 4.54324 15.0124 4.46388 15.1004C4.34268 15.1848 4.24145 15.293 4.16691 15.4177C4.09237 15.5425 4.04622 15.681 4.03145 15.8241C4.02819 15.9446 4.0516 16.0644 4.10019 16.1755C4.14877 16.2866 4.22141 16.3865 4.31323 16.4685C4.68736 16.8281 5.06152 17.1923 5.44536 17.5472C5.48596 17.5811 5.51538 17.6257 5.53005 17.6754C5.54472 17.7252 5.54396 17.778 5.52792 17.8273C5.42588 18.2616 5.33358 18.6958 5.2364 19.1301C5.15779 19.458 5.20255 19.8021 5.36274 20.1013C5.53279 20.4188 5.70285 20.7363 5.84861 21.0352C5.91944 21.1863 6.03518 21.3139 6.18128 21.402C6.32738 21.4901 6.49731 21.5347 6.66971 21.5302C6.84211 21.5257 7.00927 21.4723 7.15019 21.3768C7.29111 21.2812 7.39948 21.1477 7.46169 20.9932C8.55328 18.6024 9.64975 16.2117 10.7511 13.821L10.8434 13.6295L12.5877 15.2078L14.9442 17.3417C15.003 17.3885 15.0495 17.4481 15.0799 17.5154C15.1103 17.5827 15.1237 17.656 15.1191 17.7293C15.0899 18.2196 15.0705 18.7098 15.0414 19.2001C15.0118 19.7545 15.1612 20.304 15.4689 20.7737C15.6439 21.0632 15.8333 21.3434 16.018 21.6235C16.077 21.7104 16.1597 21.78 16.2572 21.8247C16.3546 21.8694 16.463 21.8874 16.5704 21.8768C16.6778 21.8662 16.7801 21.8273 16.8661 21.7646C16.952 21.7018 17.0183 21.6174 17.0577 21.5208L18.1801 18.8172C18.1801 18.7705 18.2238 18.7238 18.253 18.6491L18.9721 19.3402C19.0255 19.3916 19.0741 19.4429 19.1324 19.4896C19.1888 19.5392 19.2625 19.5666 19.3389 19.5666C19.4153 19.5666 19.489 19.5392 19.5454 19.4896C19.572 19.4652 19.5932 19.4359 19.6076 19.4034C19.6221 19.3708 19.6296 19.3359 19.6296 19.3005C19.6296 19.2652 19.6221 19.2302 19.6076 19.1977C19.5932 19.1652 19.572 19.1358 19.5454 19.1114C19.3219 18.8873 19.0936 18.6678 18.8652 18.4483C18.8069 18.397 18.7437 18.3503 18.6514 18.2802C18.7486 18.2382 18.8069 18.2102 18.8652 18.1915C19.7738 17.8413 20.6824 17.4865 21.5958 17.1456C21.7133 17.1156 21.8187 17.0523 21.8984 16.9641C21.9781 16.8758 22.0284 16.7667 22.0428 16.6506C22.0567 16.5326 22.0314 16.4134 21.9702 16.3101C21.9091 16.2069 21.8154 16.125 21.7027 16.0763C21.314 15.8615 20.935 15.6094 20.5366 15.4226C20.1667 15.2386 19.7523 15.1531 19.3365 15.1751C18.7826 15.1751 18.2287 15.2265 17.6748 15.2405C17.5622 15.2371 17.4549 15.1938 17.3735 15.1191C16.086 13.821 14.8082 12.5136 13.5254 11.2061C13.5049 11.1848 13.4869 11.1613 13.4719 11.1361L14.7595 10.5898L21.139 7.88618C21.3393 7.80604 21.5007 7.65613 21.5908 7.4665C21.6809 7.27686 21.6931 7.0615 21.6249 6.86358C21.5957 6.76351 21.5452 6.67035 21.4766 6.58998C21.4081 6.50961 21.3229 6.44378 21.2265 6.39664C20.833 6.2052 20.4443 6.01375 20.0507 5.83165C19.7284 5.69733 19.3674 5.67585 19.0304 5.77095L17.7816 6.0371C17.7282 6.05261 17.6712 6.05197 17.6182 6.03527C17.5652 6.01856 17.5187 5.9866 17.4853 5.94371C17.1646 5.62152 16.8148 5.32735 16.5135 5.00983C16.4288 4.88752 16.314 4.78721 16.1792 4.71783C16.0444 4.64845 15.8939 4.61214 15.741 4.61214C15.5881 4.61214 15.4376 4.64845 15.3028 4.71783C15.168 4.78721 15.0532 4.88752 14.9685 5.00983C14.7967 5.17067 14.6929 5.38688 14.677 5.61686C14.671 5.73095 14.6905 5.84495 14.7341 5.95124C14.7776 6.05752 14.8443 6.15365 14.9296 6.23321L15.2892 6.56941C14.8033 6.67214 14.3514 6.77019 13.8995 6.85424C13.8509 6.85424 13.7781 6.81689 13.7343 6.77486C13.3651 6.42933 13.0007 6.07446 12.6314 5.71958C12.5516 5.63379 12.4539 5.56516 12.3447 5.51816C12.2354 5.47117 12.1171 5.44687 11.9974 5.44687C11.8777 5.44687 11.7593 5.47117 11.65 5.51816C11.5408 5.56516 11.443 5.63379 11.3633 5.71958C11.3139 5.76238 11.2669 5.80757 11.2223 5.85499C11.1237 5.93296 11.0442 6.03098 10.9896 6.14199C10.935 6.25301 10.9068 6.37426 10.9068 6.49704C10.9068 6.61981 10.935 6.74106 10.9896 6.85208C11.0442 6.96309 11.1237 7.06111 11.2223 7.13908C11.2904 7.20445 11.3681 7.26515 11.4799 7.35854L10.6636 7.53598C10.4507 7.61792 10.2223 7.65609 9.99313 7.64804C9.80364 7.59201 9.66759 7.35854 9.50726 7.20445C9.06997 6.73751 8.64722 6.27057 8.1905 5.85966C7.28512 4.99572 6.13675 4.40495 4.88659 4.16C4.85834 4.15275 4.8307 4.14339 4.80397 4.13199L4.32782 4.07129ZM16.5281 21.348C16.2997 20.9838 16.086 20.6616 15.8868 20.3254C15.6968 20.017 15.6086 19.6604 15.6341 19.3028C15.6681 18.8359 15.673 18.3269 15.7119 17.8413C15.7315 17.6674 15.7067 17.4915 15.6399 17.3288C15.573 17.1662 15.466 17.0215 15.328 16.9074C12.233 14.1058 9.14284 11.3042 6.03811 8.50254C5.43188 7.96125 4.93736 7.31491 4.58049 6.59743C4.34219 6.18475 4.17794 5.73644 4.09461 5.27132C4.03145 4.68298 4.24039 4.49153 4.83315 4.63161C5.97898 4.86545 7.02812 5.41748 7.85041 6.21921C10.879 9.301 13.9044 12.3859 16.9266 15.4739C17.0182 15.5756 17.1328 15.6559 17.2617 15.7085C17.3905 15.7611 17.5301 15.7847 17.6699 15.7775C18.1558 15.7541 18.6077 15.7308 19.0789 15.7168C19.3148 15.6933 19.5525 15.6933 19.7883 15.7168C20.3855 15.8941 20.9449 16.1723 21.4403 16.5386L21.382 16.5759C20.3617 16.9682 19.3413 17.365 18.3162 17.7526C18.2811 17.7593 18.2448 17.7581 18.2103 17.7492C18.1757 17.7403 18.1438 17.7239 18.1169 17.7012C17.7817 17.3884 17.4513 17.0662 17.1452 16.7674C17.1032 16.7111 17.0398 16.6731 16.9687 16.6617C16.8977 16.6504 16.8249 16.6665 16.7662 16.7067C16.7261 16.7322 16.6932 16.7669 16.6705 16.8077C16.6477 16.8484 16.6358 16.8939 16.6358 16.9401C16.6358 16.9864 16.6477 17.0319 16.6705 17.0726C16.6932 17.1134 16.7261 17.148 16.7662 17.1736C17.082 17.4771 17.393 17.7806 17.7379 18.0795C17.7879 18.115 17.8229 18.1667 17.8363 18.2251C17.8497 18.2835 17.8406 18.3445 17.8108 18.397C17.6262 18.8079 17.461 19.2281 17.2861 19.6484C17.014 20.1947 16.7856 20.7457 16.5427 21.3434L16.5281 21.348ZM9.82789 12.705C9.99309 12.8544 10.134 12.9945 10.3138 13.1206C10.3349 13.1329 10.3531 13.1492 10.3673 13.1686C10.3816 13.1879 10.3915 13.2099 10.3965 13.2331C10.4015 13.2563 10.4015 13.2803 10.3965 13.3035C10.3915 13.3267 10.3815 13.3487 10.3673 13.3681L7.66091 19.2608C7.42769 19.7745 7.19934 20.2881 6.94669 20.7971C6.9184 20.8446 6.87994 20.8858 6.83388 20.918C6.78782 20.9501 6.73518 20.9726 6.67944 20.9838C6.62974 20.9805 6.58168 20.9656 6.53934 20.9404C6.49701 20.9152 6.46168 20.8804 6.4365 20.8391C6.25187 20.5169 6.08184 20.19 5.91664 19.8585C5.80278 19.6422 5.77179 19.3942 5.82916 19.1581C6.41221 16.565 6.99205 13.972 7.56862 11.3789C7.61235 11.1828 7.6609 10.9913 7.71435 10.7672C8.24881 11.2341 8.74929 11.7011 9.25946 12.168C9.28372 12.1839 9.30448 12.2043 9.32055 12.228C9.33661 12.2516 9.34769 12.2781 9.35311 12.3058C9.35852 12.3336 9.35816 12.3621 9.3521 12.3897C9.34604 12.4173 9.33437 12.4436 9.31776 12.4668C8.70232 13.821 8.08685 15.1751 7.47141 16.5292L6.94669 17.6872C6.92948 17.7202 6.91931 17.7562 6.91686 17.7931C6.9144 17.8299 6.91971 17.8669 6.9324 17.9017C6.94509 17.9365 6.96493 17.9686 6.99076 17.9959C7.01659 18.0232 7.04788 18.0453 7.08275 18.0608C7.11817 18.0775 7.15683 18.0869 7.19627 18.0883C7.23571 18.0898 7.27505 18.0833 7.31169 18.0692C7.34833 18.0551 7.38144 18.0338 7.40896 18.0066C7.43648 17.9794 7.45777 17.947 7.47141 17.9114C7.49122 17.8749 7.50905 17.8375 7.52485 17.7993C8.26338 16.1744 9.00031 14.551 9.7356 12.9291C9.7599 12.8544 9.79875 12.789 9.84248 12.7003L9.82789 12.705ZM12.4905 10.1415L13.0492 9.90803L17.8643 7.88618C18.0732 7.79746 18.1461 7.66205 18.0781 7.50329C18.0101 7.34453 17.84 7.29316 17.6311 7.37721L17.563 7.40524L12.2184 9.65121C12.1771 9.67825 12.1264 9.68851 12.0773 9.67977C12.0281 9.67102 11.9845 9.64398 11.956 9.60452C11.6839 9.31501 11.4021 9.03952 11.1252 8.75936L10.4839 8.10097C10.5407 8.08071 10.5992 8.06509 10.6588 8.05428L19.2345 6.27991C19.4716 6.2237 19.7218 6.25189 19.939 6.35929C20.2499 6.51338 20.556 6.66747 20.867 6.82623C21.003 6.8916 21.1051 6.96164 21.1051 7.12507C21.1051 7.2885 20.9787 7.3492 20.8475 7.40524L13.5594 10.4917C13.3797 10.5664 13.1853 10.7065 13.025 10.6785C12.8646 10.6505 12.7577 10.4403 12.6265 10.3096L12.4905 10.1415ZM16.9654 6.18185L16.0422 6.36863C15.9974 6.37292 15.9525 6.36129 15.9159 6.33594C15.7151 6.15539 15.5208 5.96862 15.3329 5.77561C15.2866 5.73098 15.2606 5.67053 15.2606 5.60752C15.2606 5.5445 15.2866 5.48405 15.3329 5.43942C15.4101 5.35045 15.4964 5.26911 15.5904 5.19661C15.6141 5.17154 15.6429 5.15151 15.6752 5.13781C15.7074 5.1241 15.7422 5.11701 15.7774 5.11701C15.8126 5.11701 15.8475 5.1241 15.8797 5.13781C15.9119 5.15151 15.9408 5.17154 15.9645 5.19661C16.2997 5.5188 16.6253 5.83632 16.9605 6.17718L16.9654 6.18185ZM5.70769 16.9962C5.353 16.66 5.01776 16.3425 4.69223 16.0249C4.66652 16.001 4.64605 15.9723 4.63209 15.9406C4.61812 15.909 4.61097 15.8749 4.61097 15.8405C4.61097 15.8061 4.61812 15.772 4.63209 15.7403C4.64605 15.7087 4.66652 15.68 4.69223 15.6561C4.76317 15.5763 4.843 15.5043 4.9303 15.4413C4.9549 15.4152 4.98491 15.3944 5.01838 15.3801C5.05185 15.3659 5.08805 15.3585 5.12466 15.3585C5.16127 15.3585 5.19748 15.3659 5.23095 15.3801C5.26442 15.3944 5.29443 15.4152 5.31903 15.4413C5.49394 15.614 5.67855 15.7774 5.84375 15.9549C5.86641 15.9823 5.88321 16.0137 5.89321 16.0474C5.90322 16.081 5.90623 16.1162 5.90205 16.151C5.85346 16.4125 5.78544 16.6973 5.72228 16.9915L5.70769 16.9962ZM13.1416 6.97098L12.2135 7.16709C12.1955 7.16761 12.1777 7.16456 12.1609 7.15813C12.1442 7.1517 12.1291 7.14204 12.1164 7.12974C11.9366 6.96164 11.7617 6.79354 11.5868 6.62077C11.5622 6.59812 11.5427 6.57093 11.5294 6.54084C11.5161 6.51075 11.5092 6.47838 11.5092 6.44567C11.5092 6.41297 11.5161 6.38059 11.5294 6.3505C11.5427 6.32041 11.5622 6.29323 11.5868 6.27057C11.7277 6.13049 11.8346 5.9157 12.1018 5.97173C12.1318 5.97993 12.1588 5.99612 12.1796 6.01843C12.5051 6.32194 12.8209 6.63945 13.1562 6.96631L13.1416 6.97098ZM6.51912 13.3587C6.23731 13.0879 5.97978 12.8264 5.71255 12.5836C5.34815 12.2567 5.42591 12.1493 5.74173 11.8692L5.78544 11.8365C5.80916 11.8099 5.83861 11.7885 5.87174 11.7738C5.90487 11.7592 5.9409 11.7516 5.97738 11.7516C6.01384 11.7516 6.04988 11.7592 6.08301 11.7738C6.11614 11.7885 6.14559 11.8099 6.1693 11.8365C6.3345 11.9952 6.4997 12.1447 6.65518 12.3034C6.67541 12.3265 6.69054 12.3533 6.69972 12.3822C6.70891 12.4111 6.71195 12.4415 6.70862 12.4715C6.66975 12.7657 6.60659 13.0412 6.53371 13.354L6.51912 13.3587Z" fill="#124F2E"/>
<path d="M22.2809 11.4582L20.3812 9.64184C20.342 9.5896 20.2863 9.55093 20.2223 9.53157C20.1584 9.51222 20.0898 9.51323 20.0265 9.53444C19.9808 9.55263 19.9408 9.58186 19.9103 9.6193C19.8799 9.65674 19.86 9.70111 19.8527 9.74811C19.8453 9.7951 19.8508 9.84313 19.8684 9.88751C19.8861 9.93189 19.9155 9.97112 19.9536 10.0014L20.9254 10.9353L21.7271 11.7057C21.9554 11.9205 22.0914 11.9112 22.2858 11.6637L22.2809 11.4582Z" fill="#124F2E"/>
<path d="M9.18667 19.9986C9.22676 20.0811 9.27563 20.1593 9.33245 20.2321L11.1545 21.9831C11.1804 22.0143 11.2133 22.0394 11.2507 22.0567C11.2882 22.074 11.3291 22.0829 11.3707 22.0829C11.4122 22.0829 11.4532 22.074 11.4906 22.0567C11.528 22.0394 11.5609 22.0143 11.5869 21.9831C11.6158 21.9566 11.6383 21.9242 11.6528 21.8884C11.6672 21.8525 11.6733 21.8141 11.6705 21.7757C11.6677 21.7374 11.6562 21.7001 11.6367 21.6665C11.6172 21.633 11.5902 21.604 11.5577 21.5815L9.73571 19.8305C9.64339 19.7418 9.53162 19.6764 9.41015 19.7558C9.32542 19.8275 9.25036 19.9091 9.18667 19.9986Z" fill="#124F2E"/>
<path d="M18.9041 13.3307C18.9936 13.2701 19.0737 13.1978 19.1422 13.1159C19.2248 12.9991 19.1422 12.8964 19.0596 12.8077L17.5097 11.3135C17.4173 11.2201 17.325 11.1267 17.223 11.038C17.1979 11.0103 17.1669 10.988 17.1321 10.9728C17.0974 10.9576 17.0596 10.9497 17.0213 10.9497C16.9831 10.9497 16.9453 10.9576 16.9106 10.9728C16.8758 10.988 16.8448 11.0103 16.8197 11.038C16.7901 11.0617 16.7663 11.0913 16.75 11.1248C16.7337 11.1583 16.7252 11.1948 16.7252 11.2318C16.7252 11.2688 16.7337 11.3053 16.75 11.3388C16.7663 11.3723 16.7901 11.4019 16.8197 11.4256C17.4368 12.0279 18.0587 12.6209 18.6806 13.2139C18.7503 13.2608 18.8252 13.3 18.9041 13.3307Z" fill="#124F2E"/>
<path d="M10.6443 16.9961C10.688 17.0831 10.7401 17.1659 10.7997 17.2436C11.3974 17.8226 11.9999 18.4063 12.6024 18.9806C12.6288 19.0119 12.6621 19.037 12.6999 19.0543C12.7378 19.0716 12.7791 19.0806 12.821 19.0806C12.8629 19.0806 12.9042 19.0716 12.9421 19.0543C12.9799 19.037 13.0133 19.0119 13.0397 18.9806C13.0666 18.9526 13.0872 18.9196 13.1004 18.8836C13.1135 18.8477 13.1189 18.8095 13.1161 18.7715C13.1134 18.7335 13.1026 18.6964 13.0845 18.6625C13.0663 18.6286 13.0411 18.5986 13.0105 18.5744L11.1885 16.8234C11.153 16.7749 11.1004 16.7406 11.0404 16.7268C10.9805 16.713 10.9173 16.7208 10.8629 16.7487C10.7806 16.823 10.7073 16.9061 10.6443 16.9961Z" fill="#124F2E"/>
<path d="M9.84258 12.7003C9.79885 12.789 9.75999 12.8544 9.73084 12.9244C8.99231 14.5463 8.25538 16.1697 7.52009 17.7946C7.50429 17.8328 7.48646 17.8702 7.46665 17.9067C7.453 17.9423 7.43178 17.9747 7.40426 18.0019C7.37673 18.0291 7.34357 18.0504 7.30693 18.0645C7.27028 18.0786 7.23095 18.0851 7.19151 18.0837C7.15207 18.0822 7.11341 18.0728 7.07799 18.0561C7.04311 18.0406 7.01182 18.0186 6.986 17.9912C6.96017 17.9639 6.94032 17.9319 6.92763 17.897C6.91494 17.8622 6.90964 17.8252 6.91209 17.7884C6.91455 17.7515 6.92471 17.7156 6.94193 17.6826L7.46665 16.5245C8.07885 15.1704 8.69432 13.8163 9.31299 12.4622C9.32961 12.4389 9.34127 12.4127 9.34734 12.385C9.3534 12.3574 9.35376 12.3289 9.34834 12.3011C9.34293 12.2734 9.33185 12.2469 9.31578 12.2233C9.29971 12.1996 9.27896 12.1793 9.25469 12.1633C8.74452 11.6964 8.24405 11.2295 7.70959 10.7625C7.65614 10.9866 7.60759 11.1781 7.56386 11.3742C6.98405 13.9704 6.4042 16.5635 5.82439 19.1534C5.76703 19.3895 5.79802 19.6375 5.91188 19.8538C6.07708 20.1853 6.2471 20.5122 6.43174 20.8344C6.45692 20.8757 6.49225 20.9105 6.53458 20.9357C6.57692 20.9609 6.62498 20.9758 6.67467 20.9791C6.73041 20.9679 6.78306 20.9455 6.82912 20.9133C6.87518 20.8811 6.91363 20.8399 6.94193 20.7924C7.19458 20.2834 7.42779 19.7698 7.65615 19.2561L10.3625 13.3634C10.3767 13.344 10.3867 13.3221 10.3917 13.2988C10.3968 13.2756 10.3968 13.2517 10.3917 13.2285C10.3867 13.2053 10.3768 13.1833 10.3626 13.1639C10.3483 13.1445 10.3301 13.1282 10.3091 13.1159C10.1584 12.9898 10.0078 12.8497 9.84258 12.7003Z" fill="#43B02A"/>
<path d="M12.5052 10.1368L12.6558 10.2909C12.787 10.4216 12.9036 10.6317 13.0542 10.6598C13.2048 10.6878 13.4089 10.5477 13.5887 10.473L20.8768 7.38651C21.008 7.33048 21.1343 7.27445 21.1343 7.10635C21.1343 6.93825 21.0322 6.87287 20.8962 6.8075C20.5852 6.66275 20.2791 6.50866 19.9682 6.34056C19.751 6.23317 19.5008 6.20497 19.2637 6.26118L10.688 8.03555C10.6284 8.04637 10.5699 8.06199 10.5131 8.08225L11.1301 8.75464C11.4071 9.03481 11.6889 9.3103 11.961 9.5998C11.9895 9.63926 12.0331 9.66631 12.0822 9.67506C12.1313 9.6838 12.1821 9.67353 12.2234 9.64649L17.568 7.40052L17.636 7.3725C17.8449 7.28845 18.015 7.33515 18.083 7.49858C18.1511 7.66201 18.083 7.79274 17.8692 7.88146L13.0542 9.90331L12.5052 10.1368Z" fill="#43B02A"/>
<path d="M16.9606 6.1772C16.6059 5.83634 16.2804 5.51881 15.95 5.21064C15.9263 5.18557 15.8974 5.16554 15.8652 5.15183C15.8329 5.13813 15.7981 5.13104 15.7629 5.13104C15.7277 5.13104 15.6928 5.13813 15.6606 5.15183C15.6284 5.16554 15.5995 5.18557 15.5758 5.21064C15.4818 5.28314 15.3955 5.36448 15.3183 5.45345C15.272 5.49808 15.246 5.55853 15.246 5.62154C15.246 5.68456 15.272 5.74501 15.3183 5.78964C15.5062 5.97953 15.7005 6.16631 15.9013 6.34997C15.9379 6.37532 15.9828 6.38694 16.0277 6.38266L16.9606 6.1772Z" fill="white"/>
<path d="M5.72235 16.9915C5.78552 16.6973 5.85354 16.4312 5.90699 16.1604C5.91116 16.1256 5.90816 16.0904 5.89815 16.0567C5.88815 16.0231 5.87134 15.9917 5.84869 15.9643C5.68349 15.7868 5.49888 15.6234 5.32396 15.4506C5.29937 15.4246 5.26936 15.4037 5.23589 15.3895C5.20242 15.3752 5.16621 15.3679 5.1296 15.3679C5.09299 15.3679 5.05679 15.3752 5.02332 15.3895C4.98985 15.4037 4.95983 15.4246 4.93524 15.4506C4.84794 15.5136 4.76811 15.5857 4.69717 15.6654C4.67145 15.6894 4.65099 15.718 4.63703 15.7497C4.62306 15.7814 4.61591 15.8155 4.61591 15.8499C4.61591 15.8843 4.62306 15.9183 4.63703 15.95C4.65099 15.9817 4.67145 16.0104 4.69717 16.0343C5.03242 16.3378 5.36767 16.6553 5.72235 16.9915Z" fill="white"/>
<path d="M13.1562 6.96632C12.821 6.63946 12.5052 6.32194 12.1845 6.03244C12.1637 6.01014 12.1367 5.99395 12.1067 5.98574C11.8395 5.92971 11.7326 6.1445 11.5917 6.28459C11.5671 6.30724 11.5476 6.33444 11.5343 6.36453C11.5209 6.39462 11.5141 6.42698 11.5141 6.45969C11.5141 6.49239 11.5209 6.52477 11.5343 6.55486C11.5476 6.58495 11.5671 6.61213 11.5917 6.63479C11.7666 6.80756 11.9416 6.97565 12.1213 7.14375C12.134 7.15605 12.1492 7.16573 12.1659 7.17215C12.1826 7.17858 12.2005 7.18162 12.2185 7.18111L13.1562 6.96632Z" fill="white"/>
<path d="M6.5338 13.354C6.60668 13.0412 6.66985 12.7657 6.7233 12.4855C6.72663 12.4555 6.72358 12.4251 6.7144 12.3962C6.70522 12.3673 6.69003 12.3405 6.6698 12.3174C6.51432 12.154 6.34912 12.0045 6.18392 11.8505C6.16021 11.8238 6.13082 11.8025 6.09769 11.7878C6.06456 11.7732 6.02852 11.7656 5.99205 11.7656C5.95558 11.7656 5.91955 11.7732 5.88642 11.7878C5.85329 11.8025 5.82384 11.8238 5.80012 11.8505L5.75635 11.8831C5.44053 12.1633 5.36283 12.2707 5.72723 12.5976C5.99446 12.8217 6.27143 13.0832 6.5338 13.354Z" fill="white"/>
<path d="M7.00012 6.19592C6.68322 6.22665 6.38628 6.35896 6.15713 6.57156C5.92799 6.78415 5.77997 7.06467 5.73686 7.36795C5.73074 7.41005 5.73348 7.45289 5.74492 7.49396C5.75637 7.53502 5.77628 7.57346 5.80346 7.60699C5.83065 7.64052 5.86453 7.66847 5.90316 7.68917C5.9418 7.70986 5.9844 7.72289 6.02837 7.72748C6.19357 7.72748 6.29559 7.62943 6.31988 7.42398C6.33339 7.25883 6.40622 7.10332 6.52587 6.98407C6.64552 6.86482 6.80456 6.78924 6.9758 6.77026C7.0584 6.77026 7.1702 6.77026 7.20907 6.70022C7.27601 6.60887 7.3101 6.49903 7.30622 6.38737C7.28679 6.23328 7.14102 6.20526 7.00012 6.19592Z" fill="#124F2E"/>
</svg>
