<svg width="30" height="36" viewBox="0 0 30 36" fill="none" xmlns="http://www.w3.org/2000/svg">
<g clip-path="url(#clip0_495_2876)">
<path d="M14.2338 35.3C14.3338 35.3 14.414 35.2727 14.4557 35.2565C14.5038 35.2378 14.5469 35.2152 14.582 35.1949C14.6524 35.1543 14.7261 35.1023 14.7985 35.0468C14.945 34.9346 15.1263 34.7772 15.3332 34.5851C15.7493 34.1988 16.2978 33.6454 16.9306 32.9649C18.1972 31.6028 19.8177 29.7143 21.4164 27.5991C23.0141 25.4854 24.598 23.1349 25.7847 20.8501C26.9646 18.5786 27.7826 16.3147 27.7826 14.3903C27.7826 6.90754 21.7166 0.841553 14.2338 0.841553C6.75104 0.841553 0.685059 6.90754 0.685059 14.3903C0.685059 16.3147 1.50312 18.5786 2.68296 20.8501C3.86968 23.1349 5.45357 25.4854 7.05123 27.5991C8.64994 29.7143 10.2704 31.6028 11.537 32.9649C12.1699 33.6454 12.7183 34.1988 13.1344 34.5851C13.3414 34.7772 13.5227 34.9346 13.6692 35.0468C13.7416 35.1023 13.8152 35.1543 13.8856 35.1949C13.9207 35.2152 13.9639 35.2378 14.0119 35.2565C14.0536 35.2727 14.1339 35.3 14.2338 35.3ZM20.3496 14.3011C20.3496 17.6787 17.6115 20.4169 14.2338 20.4169C10.8562 20.4169 8.11812 17.6787 8.11812 14.3011C8.11812 10.9235 10.8562 8.18536 14.2338 8.18536C17.6115 8.18536 20.3496 10.9235 20.3496 14.3011Z" stroke="white"/>
<path fill-rule="evenodd" clip-rule="evenodd" d="M14.2338 34.8C14.9254 34.8 27.2826 21.5969 27.2826 14.3903C27.2826 7.18368 21.4404 1.34155 14.2338 1.34155C7.02718 1.34155 1.18506 7.18368 1.18506 14.3903C1.18506 21.5969 13.5423 34.8 14.2338 34.8ZM14.2338 20.9169C17.8876 20.9169 20.8496 17.9549 20.8496 14.3011C20.8496 10.6473 17.8876 7.68536 14.2338 7.68536C10.5801 7.68536 7.61812 10.6473 7.61812 14.3011C7.61812 17.9549 10.5801 20.9169 14.2338 20.9169Z" fill="#43B02A"/>
<path fill-rule="evenodd" clip-rule="evenodd" d="M1.18506 14.3903C1.18506 21.5969 13.5423 34.8 14.2338 34.8V20.9169C10.5801 20.9167 7.61812 17.9548 7.61812 14.3011C7.61812 10.6473 10.5801 7.68537 14.2338 7.68536V1.34155C7.02718 1.34155 1.18506 7.18368 1.18506 14.3903Z" fill="#124F2E"/>
</g>
<defs>
<clipPath id="clip0_495_2876">
<rect width="29" height="36" fill="white"/>
</clipPath>
</defs>
</svg>
