<svg width="18" height="19" viewBox="0 0 18 19" fill="none" xmlns="http://www.w3.org/2000/svg">
<path d="M4.05398 18.989H0.270848V6.33024H4.05398V18.989ZM2.15979 4.57602C1.73066 4.57348 1.31186 4.43708 0.95625 4.18404C0.600638 3.93101 0.32415 3.57267 0.161681 3.15427C-0.000788399 2.73586 -0.0419578 2.27613 0.0433681 1.8331C0.128694 1.39007 0.336691 0.983589 0.64111 0.664964C0.945529 0.346338 1.33272 0.129847 1.75383 0.0428097C2.17494 -0.0442272 2.61109 0.00209241 3.00723 0.175922C3.40337 0.349752 3.74176 0.6433 3.97967 1.01952C4.21759 1.39574 4.34438 1.83778 4.34404 2.28984C4.34809 2.59249 4.29426 2.8929 4.18574 3.17317C4.07723 3.45344 3.91626 3.70782 3.71243 3.92117C3.5086 4.13451 3.26609 4.30244 2.99934 4.41494C2.73259 4.52745 2.44707 4.58223 2.15979 4.57602ZM17.9983 19H14.2169V12.0844C14.2169 10.0448 13.3938 9.41531 12.3314 9.41531C11.2096 9.41531 10.1087 10.3062 10.1087 12.1359V19H6.3256V6.33945H9.96369V8.09366H10.0126C10.3778 7.31503 11.6569 5.98419 13.6088 5.98419C15.7196 5.98419 18 7.30399 18 11.1695L17.9983 19Z" fill="#1C64D9"/>
</svg>
