<svg width="19" height="19" viewBox="0 0 19 19" fill="none" xmlns="http://www.w3.org/2000/svg">
<path d="M5.20833 0C2.33229 0 0 2.33229 0 5.20833V13.5417C0 16.4177 2.33229 18.75 5.20833 18.75H13.5417C16.4177 18.75 18.75 16.4177 18.75 13.5417V5.20833C18.75 2.33229 16.4177 0 13.5417 0H5.20833ZM15.625 2.08333C16.2 2.08333 16.6667 2.55 16.6667 3.125C16.6667 3.7 16.2 4.16667 15.625 4.16667C15.05 4.16667 14.5833 3.7 14.5833 3.125C14.5833 2.55 15.05 2.08333 15.625 2.08333ZM9.375 4.16667C12.251 4.16667 14.5833 6.49896 14.5833 9.375C14.5833 12.251 12.251 14.5833 9.375 14.5833C6.49896 14.5833 4.16667 12.251 4.16667 9.375C4.16667 6.49896 6.49896 4.16667 9.375 4.16667ZM9.375 6.25C8.5462 6.25 7.75134 6.57924 7.16529 7.16529C6.57924 7.75134 6.25 8.5462 6.25 9.375C6.25 10.2038 6.57924 10.9987 7.16529 11.5847C7.75134 12.1708 8.5462 12.5 9.375 12.5C10.2038 12.5 10.9987 12.1708 11.5847 11.5847C12.1708 10.9987 12.5 10.2038 12.5 9.375C12.5 8.5462 12.1708 7.75134 11.5847 7.16529C10.9987 6.57924 10.2038 6.25 9.375 6.25Z" fill="#D23B94"/>
</svg>
