<svg width="22" height="22" viewBox="0 0 22 22" fill="none" xmlns="http://www.w3.org/2000/svg">
<path fill-rule="evenodd" clip-rule="evenodd" d="M11 22C17.0751 22 22 17.0751 22 11C22 4.92487 17.0751 0 11 0C4.92487 0 0 4.92487 0 11C0 13.3456 0.73418 15.5198 1.98528 17.3052L1 21L4.75993 20.06C6.53298 21.2835 8.68282 22 11 22ZM6.59599 4.3977C7.03735 4.39387 7.46424 4.39018 7.75002 4.96418C7.99729 5.46084 8.30136 6.31351 8.66027 7.3321L8.66493 7.34532C8.74874 7.5829 8.87958 7.95382 8.70761 8.19967C8.53242 8.45013 8.14176 8.95414 7.85884 9.28059C7.78637 9.36421 7.64113 9.55556 7.83905 9.86743C7.88826 9.94497 7.93072 10.0244 7.97752 10.1119C8.166 10.4645 8.42468 10.9484 9.47665 11.9682C10.5384 12.9974 11.8705 13.5899 12.3618 13.7871C12.4953 13.8628 12.8161 13.9641 13.0313 13.7639C13.1302 13.6717 13.3166 13.4336 13.5199 13.1739C13.7587 12.869 14.0207 12.5342 14.192 12.371C14.1971 12.3663 14.2024 12.3615 14.2079 12.3564C14.3224 12.2515 14.5039 12.0851 14.8376 12.2187C15.1298 12.3356 16.2508 12.8751 17.0976 13.2826C17.2641 13.3627 17.42 13.4377 17.5569 13.5034C17.6915 13.5461 17.8869 13.7033 17.8869 14.0182C17.8869 14.7286 17.3839 16.8324 14.9392 16.8759C12.4944 16.9195 9.54961 15.6409 7.30839 13.1693C4.98606 10.6082 4.29688 8.89612 4.29688 7.3321C4.29688 5.42372 5.63171 4.39832 6.48777 4.39832C6.52389 4.39832 6.55999 4.39801 6.59599 4.3977Z" fill="url(#paint0_linear_1735_153335)"/>
<defs>
<linearGradient id="paint0_linear_1735_153335" x1="20.625" y1="2.75" x2="-5.32716e-07" y2="22" gradientUnits="userSpaceOnUse">
<stop stop-color="#5BD066"/>
<stop offset="1" stop-color="#27B43E"/>
</linearGradient>
</defs>
</svg>
