<svg width="25" height="18" viewBox="0 0 25 18" fill="none" xmlns="http://www.w3.org/2000/svg">
<path d="M24.568 2.74197C24.2619 1.44139 23.1744 0.481865 21.8653 0.338731C18.7652 0.000208486 15.6274 -0.00155851 12.504 0.000208578C9.38013 -0.00155851 6.24181 0.000208486 3.14168 0.338731C1.83329 0.481865 0.746581 1.44139 0.440516 2.74197C0.00490324 4.59412 0 6.61592 0 8.52285C0 10.4298 0 12.4513 0.435613 14.3032C0.741161 15.6036 1.82813 16.5631 3.13729 16.7065C6.23716 17.0452 9.37523 17.047 12.4991 17.0452C15.6235 17.047 18.7608 17.0452 21.8604 16.7065C23.1688 16.5633 24.2565 15.6038 24.5626 14.3032C24.9985 12.4511 25 10.4295 25 8.52285C25 6.61592 25.0036 4.59412 24.568 2.74197ZM9.27381 12.3185C9.27381 9.6134 9.27381 6.93652 9.27381 4.23111C11.9234 5.58344 14.5554 6.92667 17.2217 8.28733C14.5636 9.63586 11.9303 10.971 9.27381 12.3185Z" fill="#F50021"/>
</svg>
