<svg width="55" height="55" viewBox="0 0 55 55" fill="none" xmlns="http://www.w3.org/2000/svg">
<path d="M8.39248 42.4331C10.6097 40.2171 13.093 39.9623 15.9199 40.9706C15.8201 40.749 15.7535 40.5828 15.6648 40.4166L10.8979 31.1204C10.5764 30.4888 10.6096 30.378 11.1418 29.9348L26.4071 17.6359C27.0501 17.1152 27.1499 17.1152 27.7818 17.6359L43.036 29.9459C43.6014 30.4002 43.6236 30.511 43.291 31.1647L38.5684 40.3723L38.2579 41.0038C41.0848 39.9844 43.5903 40.2615 45.7742 42.411C46.5588 41.5179 47.607 40.8971 48.7675 40.6382C49.2585 40.5438 49.7545 40.4773 50.253 40.4387C50.6188 40.4387 50.9292 40.5274 50.9514 40.9373C50.9736 41.3473 50.6964 41.4692 50.3194 41.5246C49.6211 41.6206 48.9315 41.7725 48.2575 41.9789C47.4327 42.2703 46.7402 42.8484 46.3063 43.6076C45.9848 44.1395 45.5414 44.1616 45.1977 43.6076C43.6125 40.7933 38.4686 40.8709 36.9277 43.6076C36.6283 44.1506 36.1738 44.1506 35.8191 43.6076C34.2338 40.8376 29.09 40.8598 27.5601 43.6076C27.283 44.1062 26.8062 44.1062 26.518 43.6076C24.9438 40.8376 19.8664 40.8265 18.2368 43.6076C17.9264 44.1395 17.5051 44.1173 17.1282 43.6076C16.656 42.9598 16.0373 42.4327 15.3225 42.0692C14.6078 41.7058 13.8173 41.5164 13.0154 41.5164C12.2134 41.5164 11.4228 41.7058 10.708 42.0692C9.99329 42.4327 9.37456 42.9598 8.90239 43.6076C8.58089 44.0841 8.14862 44.1506 7.87147 43.7073C7.47753 43.0486 6.92338 42.5 6.26054 42.1126C5.5977 41.7252 4.84762 41.5115 4.08003 41.4913H3.71424C3.37058 41.4913 3.13776 41.2919 3.14885 40.9373C3.15993 40.5828 3.41486 40.4055 3.79178 40.4166C4.57991 40.4038 5.3628 40.547 6.09531 40.838C6.82782 41.1289 7.49546 41.5618 8.05984 42.1118C8.18443 42.2038 8.29632 42.3118 8.39248 42.4331ZM42.271 30.7215L27.6931 18.9656V41.7905C28.954 40.8249 30.5188 40.3422 32.1048 40.4296C33.6908 40.5169 35.1931 41.1687 36.3401 42.267L42.271 30.7215ZM17.882 42.3002C19.0005 41.1424 20.5293 40.4699 22.1391 40.4277C23.7357 40.3272 25.3136 40.8161 26.5734 41.8016V18.9766L11.9843 30.7437L17.882 42.3002Z" fill="#124F2E"/>
<path d="M36.9832 20.5164C37.0397 20.9281 37.0397 21.3456 36.9832 21.7573C36.8463 22.1299 36.6219 22.4643 36.329 22.7324C36.2403 22.821 35.8524 22.7324 35.7083 22.5994C35.6501 22.5165 35.6136 22.4204 35.602 22.3198C35.5904 22.2192 35.604 22.1172 35.6417 22.0232C36.0851 21.6022 35.8967 21.0925 35.9299 20.5718H34.8213C34.522 20.8044 34.3003 21.1036 34.0565 21.1258C33.8126 21.1479 33.6019 20.8377 33.3802 20.6826L33.4578 20.5496H33.2028C33.1284 20.5456 33.0556 20.5264 32.9889 20.493C32.9222 20.4597 32.8631 20.413 32.8152 20.3558C32.7674 20.2986 32.7318 20.2322 32.7108 20.1607C32.6897 20.0892 32.6837 20.0142 32.6929 19.9402C32.697 19.8668 32.7158 19.7951 32.7485 19.7292C32.7812 19.6634 32.8269 19.6049 32.8829 19.5572C32.9389 19.5096 33.004 19.4738 33.0743 19.452C33.1445 19.4302 33.2183 19.4229 33.2915 19.4305H34.2337C34.5552 19.4305 34.6994 19.3086 34.6994 18.9762V12.86C34.6994 12.5498 34.5664 12.4058 34.2781 12.3947H32.9701C32.8259 13.1371 33.2138 14.0456 32.4489 14.4888C31.9397 14.7243 31.3791 14.8272 30.8193 14.788C29.7883 14.788 29.5998 14.4556 29.3781 12.4057C28.9242 12.3725 28.4685 12.3725 28.0145 12.4057C27.8815 12.4057 27.6931 12.7049 27.682 12.8711C27.682 13.4694 27.682 14.0788 27.682 14.6882C27.682 15.076 27.6821 15.5303 27.1499 15.5636C26.7508 15.5636 26.6066 15.3531 26.6066 14.7104C26.6066 14.0678 26.6066 13.5359 26.6066 12.9487C26.6066 12.5277 26.4293 12.3503 26.0081 12.3725H24.8995C24.7886 13.137 25.1101 14.0234 24.3563 14.4777C23.8545 14.687 23.3144 14.789 22.7709 14.7769C22.5027 14.8341 22.2227 14.7899 21.9852 14.6527C21.7477 14.5156 21.5694 14.2953 21.4849 14.0345C21.3673 13.4918 21.3042 12.9388 21.2965 12.3836C20.8463 12.3506 20.3943 12.3506 19.9441 12.3836C19.811 12.3836 19.6003 12.6717 19.6003 12.8268C19.6003 14.8545 19.6003 16.871 19.6003 18.8987C19.6003 19.2422 19.7333 19.4084 20.0881 19.3862H21.0194C21.363 19.3862 21.6402 19.5746 21.5959 19.907C21.5515 20.2394 21.3076 20.3169 21.1302 20.4942C20.9528 20.6715 20.8419 20.5828 20.8087 20.6715C20.7089 20.9817 20.5205 21.2366 20.1879 21.1258C19.8554 21.015 19.7888 20.7934 19.4895 20.5275H18.3809C18.3809 21.0371 18.2035 21.5357 18.647 21.99C18.6985 22.0793 18.7257 22.1806 18.7257 22.2836C18.7257 22.3867 18.6985 22.488 18.647 22.5772C18.5629 22.6499 18.4629 22.7018 18.3551 22.7287C18.2472 22.7557 18.1345 22.7569 18.0261 22.7324C17.8284 22.66 17.6577 22.5288 17.5368 22.3564C17.4159 22.1841 17.3506 21.9789 17.3499 21.7684C17.3499 21.3695 17.3499 20.9817 17.3499 20.5164H15.9088C15.5429 20.5164 15.5761 20.8045 15.5761 21.0371V24.5163C15.5761 24.6714 15.5761 24.8708 15.5761 24.9705C15.5761 25.0703 15.1992 25.3805 15.0219 25.3584C14.8445 25.3362 14.5341 25.0703 14.5341 24.9041C14.5341 23.4637 14.5341 22.0343 14.5341 20.5939C14.576 20.2441 14.7517 19.9241 15.0246 19.701C15.2974 19.4778 15.646 19.369 15.9974 19.3973C16.8399 19.3973 17.6825 19.3973 18.5583 19.3973C18.5583 17.281 18.5583 15.1869 18.5583 13.1038C18.5524 12.8473 18.5746 12.5909 18.6248 12.3393C18.6853 12.0478 18.8436 11.7857 19.0734 11.5963C19.3032 11.407 19.5908 11.3016 19.8886 11.2977C20.6092 11.2977 21.3409 11.2977 22.1058 11.2977H22.6601V4.97103C22.6601 3.64142 23.17 3.14282 24.5224 3.14282H30.1764C31.3737 3.14282 31.9279 3.68572 31.9279 4.88237C31.9279 6.07902 31.9279 7.02085 31.9279 8.09562V11.2977H34.3225C34.5522 11.2633 34.7869 11.2836 35.0073 11.3569C35.2277 11.4303 35.4276 11.5546 35.5908 11.7199C35.754 11.8852 35.8758 12.0866 35.9463 12.3079C36.0168 12.5291 36.034 12.7639 35.9965 12.993C35.9965 15.1093 35.9965 17.2145 35.9965 19.3197C35.9965 19.3197 35.9964 19.3197 36.0629 19.4195H38.391C38.6158 19.3901 38.8445 19.4129 39.0591 19.4862C39.2736 19.5595 39.4684 19.6813 39.6283 19.8421C39.7881 20.0029 39.9086 20.1984 39.9805 20.4133C40.0524 20.6283 40.0737 20.8569 40.0428 21.0815V24.7046C40.0428 25.0924 39.9652 25.4138 39.4996 25.4138C39.0339 25.4138 38.9342 25.0925 38.9342 24.7157C38.9342 23.5412 38.9342 22.3667 38.9342 21.1922C38.9342 20.6493 38.7568 20.4721 38.2468 20.5275C37.748 20.5496 37.4155 20.5164 36.9832 20.5164ZM25.3096 4.23974C24.8662 4.23974 24.4671 4.23974 24.068 4.23974C23.6689 4.23974 23.5691 4.38378 23.5691 4.72726V10.7437C23.5691 11.0872 23.7022 11.2756 24.0458 11.2756C26.0856 11.2756 28.1366 11.2756 30.1764 11.2756C30.2793 11.25 30.3735 11.1975 30.4495 11.1235C30.5254 11.0496 30.5805 10.9567 30.6087 10.8545C30.6087 8.80473 30.6087 6.74384 30.6087 4.69403C30.5867 4.59898 30.5403 4.51125 30.4742 4.43941C30.4082 4.36757 30.3246 4.31407 30.2317 4.28407C29.7961 4.25657 29.3593 4.25657 28.9237 4.28407C28.9117 4.81643 28.8523 5.34667 28.7462 5.86851C28.6542 6.12542 28.4755 6.34228 28.2408 6.48179C28.0061 6.62131 27.7301 6.67478 27.4602 6.63304C26.9059 6.63304 26.3517 6.75492 25.8195 6.3228C25.2874 5.89068 25.4205 4.9821 25.3096 4.23974ZM30.4757 12.3836C30.4573 12.8039 30.5291 13.2232 30.6863 13.6135C30.836 13.6949 31.0036 13.7376 31.174 13.7376C31.3444 13.7376 31.5122 13.6949 31.6619 13.6135C31.814 13.2221 31.882 12.803 31.8615 12.3836H30.4757ZM23.7354 12.3836H22.3274C22.3365 12.8082 22.4191 13.2281 22.5714 13.6246C22.7147 13.7012 22.8745 13.7413 23.037 13.7413C23.1994 13.7413 23.3594 13.7012 23.5026 13.6246C23.6624 13.2345 23.7416 12.8162 23.7354 12.3947V12.3836ZM26.4958 5.46964H27.7042V4.25083H26.5291L26.4958 5.46964Z" fill="#124F2E"/>
<path d="M27.0831 49.4242C27.688 48.7976 28.413 48.2992 29.2149 47.9587C30.0168 47.6183 30.879 47.4429 31.7502 47.4429C32.6214 47.4429 33.4838 47.6183 34.2857 47.9587C35.0876 48.2992 35.8126 48.7976 36.4175 49.4242C36.4951 49.3577 36.5949 49.2912 36.6725 49.2137C37.8 48.1359 39.2816 47.5054 40.8404 47.4402C42.3992 47.3749 43.9284 47.8793 45.1421 48.8591C45.5259 49.2307 45.8678 49.6432 46.162 50.089C46.2225 50.1475 46.2684 50.2194 46.2957 50.299C46.323 50.3786 46.331 50.4634 46.3191 50.5467C46.3072 50.63 46.2757 50.7093 46.2272 50.778C46.1787 50.8467 46.1145 50.903 46.04 50.9422C45.6742 51.1638 45.4081 50.9422 45.2308 50.6541C43.8894 48.2276 39.7764 47.873 37.6923 49.7566C37.4312 50.0056 37.2005 50.2845 37.005 50.5876C36.6391 51.1084 36.1957 51.1527 35.8964 50.5876C34.3443 47.8841 29.2449 47.8176 27.6707 50.5876C27.3492 51.1416 26.9058 51.1416 26.5621 50.5876C24.999 47.7954 19.9104 47.8287 18.2919 50.5876C17.9815 51.1305 17.538 51.1305 17.1833 50.5876C15.598 47.8287 10.4542 47.8176 8.92432 50.5876C8.74695 50.9089 8.48091 51.0973 8.11507 50.8757C7.74924 50.6541 7.7825 50.3439 7.98205 50.0225C8.40413 49.313 8.98731 48.7125 9.68445 48.2698C10.3816 47.8271 11.1731 47.5545 11.9952 47.4741C14.3454 47.1528 15.6091 47.596 17.7376 49.3577C18.3234 48.7132 19.0419 48.2031 19.8438 47.8626C20.6457 47.5221 21.5118 47.3594 22.3827 47.3855C23.2686 47.3541 24.1504 47.5208 24.9636 47.8735C25.7768 48.2263 26.5009 48.756 27.0831 49.4242Z" fill="#124F2E"/>
<path d="M42.2712 30.743L36.3403 42.2885C35.1933 41.1902 33.691 40.5385 32.105 40.4511C30.519 40.3637 28.9541 40.8464 27.6933 41.812V18.9871L42.2712 30.743ZM32.6043 37.1473C32.901 37.1562 33.1965 37.1055 33.4733 36.9981C33.75 36.8907 34.0023 36.7289 34.2153 36.5222C34.4282 36.3156 34.5976 36.0683 34.7131 35.795C34.8287 35.5217 34.8882 35.228 34.8881 34.9313C34.9099 34.6189 34.8671 34.3054 34.7625 34.0103C34.6579 33.7151 34.4936 33.4446 34.2799 33.2156C34.0663 32.9866 33.8078 32.804 33.5205 32.6791C33.2332 32.5543 32.9232 32.4899 32.6099 32.4899C32.2966 32.4899 31.9867 32.5543 31.6994 32.6791C31.4121 32.804 31.1535 32.9866 30.9398 33.2156C30.7261 33.4446 30.5618 33.7151 30.4572 34.0103C30.3526 34.3054 30.31 34.6189 30.3318 34.9313C30.3317 35.227 30.3908 35.5198 30.5057 35.7923C30.6206 36.0648 30.7888 36.3117 31.0006 36.5182C31.2124 36.7247 31.4633 36.8867 31.7388 36.9948C32.0142 37.1028 32.3085 37.1547 32.6043 37.1473Z" fill="#43B02A"/>
<path d="M25.31 4.23913C25.4208 4.98149 25.1436 5.75711 25.7977 6.32219C26.4518 6.88727 26.9063 6.59919 27.4384 6.63243C27.7117 6.67976 27.993 6.62897 28.2324 6.48906C28.4718 6.34915 28.6539 6.12912 28.7466 5.8679C28.8627 5.33221 28.9296 4.787 28.9462 4.23913C29.3818 4.21163 29.8187 4.21163 30.2543 4.23913C30.3472 4.26913 30.4307 4.32266 30.4968 4.3945C30.5628 4.46635 30.6091 4.55404 30.6312 4.64909C30.6312 6.6989 30.6312 8.75979 30.6312 10.8096C30.6029 10.9118 30.548 11.0046 30.472 11.0786C30.396 11.1526 30.3019 11.205 30.1989 11.2307C28.1591 11.2307 26.1082 11.2307 24.0684 11.2307C23.7247 11.2307 23.5916 11.0423 23.5916 10.6988V4.75989C23.5916 4.41641 23.7358 4.25021 24.0906 4.27237C24.4453 4.29453 24.8666 4.23913 25.31 4.23913Z" fill="#43B02A"/>
<path d="M30.4757 12.3831H31.8614C31.882 12.8025 31.8139 13.2215 31.6618 13.6129C31.5121 13.6944 31.3444 13.7371 31.174 13.7371C31.0035 13.7371 30.8359 13.6944 30.6862 13.6129C30.529 13.2227 30.4572 12.8033 30.4757 12.3831Z" fill="white"/>
<path d="M23.7357 12.3941C23.7419 12.8156 23.6627 13.2339 23.5029 13.624C23.3597 13.7006 23.1997 13.7407 23.0372 13.7407C22.8748 13.7407 22.7149 13.7006 22.5717 13.624C22.4194 13.2275 22.3367 12.8077 22.3277 12.3831L23.7357 12.3941Z" fill="white"/>
<path d="M26.5292 5.48078V4.26196H27.7376V5.48078H26.5292Z" fill="white"/>
<path d="M32.6046 37.1472C32.0166 37.1472 31.4526 36.9137 31.0368 36.4982C30.621 36.0826 30.3874 35.5189 30.3874 34.9312C30.3656 34.6188 30.4084 34.3053 30.513 34.0101C30.6176 33.715 30.7817 33.4445 30.9954 33.2155C31.2091 32.9865 31.4677 32.8039 31.755 32.679C32.0423 32.5542 32.3523 32.4897 32.6656 32.4897C32.9789 32.4897 33.2888 32.5542 33.5761 32.679C33.8634 32.8039 34.122 32.9865 34.3357 33.2155C34.5494 33.4445 34.7137 33.715 34.8183 34.0101C34.9229 34.3053 34.9655 34.6188 34.9437 34.9312C34.9442 35.2328 34.8831 35.5312 34.7641 35.8084C34.6452 36.0855 34.4708 36.3354 34.2518 36.5429C34.0328 36.7503 33.7738 36.9109 33.4906 37.0148C33.2073 37.1187 32.9059 37.1638 32.6046 37.1472ZM31.496 34.9312C31.5132 35.1457 31.5926 35.3506 31.7244 35.5208C31.8562 35.691 32.0348 35.8191 32.2383 35.8895C32.4417 35.9599 32.6614 35.9697 32.8702 35.9174C33.0791 35.8652 33.2682 35.7532 33.4145 35.5953C33.5608 35.4374 33.6579 35.2403 33.694 35.0282C33.73 34.816 33.7035 34.5979 33.6176 34.4006C33.5318 34.2032 33.3902 34.0351 33.2103 33.9169C33.0304 33.7986 32.8199 33.7352 32.6046 33.7345C32.4496 33.728 32.2949 33.7542 32.1506 33.8112C32.0063 33.8682 31.8756 33.9549 31.7669 34.0656C31.6582 34.1763 31.574 34.3086 31.5197 34.4538C31.4654 34.5991 31.4422 34.7542 31.4516 34.909L31.496 34.9312Z" fill="#124F2E"/>
<path d="M21.5625 37.1475C21.2657 37.1477 20.9717 37.0882 20.6983 36.9727C20.4249 36.8572 20.1774 36.688 19.9707 36.4751C19.7639 36.2623 19.602 36.0101 19.4946 35.7335C19.3872 35.4569 19.3364 35.1616 19.3453 34.865C19.3235 34.5527 19.3662 34.2391 19.4708 33.944C19.5754 33.6488 19.7397 33.3783 19.9533 33.1493C20.167 32.9203 20.4256 32.7377 20.7129 32.6129C21.0002 32.488 21.3101 32.4236 21.6234 32.4236C21.9367 32.4236 22.2467 32.488 22.534 32.6129C22.8213 32.7377 23.0799 32.9203 23.2936 33.1493C23.5073 33.3783 23.6714 33.6488 23.776 33.944C23.8806 34.2391 23.9234 34.5527 23.9016 34.865C23.9113 35.1721 23.8571 35.4779 23.7422 35.7629C23.6273 36.0479 23.4544 36.3059 23.2345 36.5206C23.0145 36.7352 22.7523 36.9018 22.4645 37.0097C22.1766 37.1176 21.8694 37.1646 21.5625 37.1475ZM22.7486 34.9315C22.7486 34.6244 22.6266 34.3299 22.4094 34.1127C22.1921 33.8956 21.8975 33.7736 21.5902 33.7736C21.283 33.7736 20.9882 33.8956 20.771 34.1127C20.5537 34.3299 20.4317 34.6244 20.4317 34.9315C20.4317 35.2386 20.5537 35.5331 20.771 35.7502C20.9882 35.9674 21.283 36.0894 21.5902 36.0894C21.8975 36.0894 22.1921 35.9674 22.4094 35.7502C22.6266 35.5331 22.7486 35.2386 22.7486 34.9315Z" fill="#124F2E"/>
</svg>
