<svg width="55" height="55" viewBox="0 0 55 55" fill="none" xmlns="http://www.w3.org/2000/svg">
<path d="M13.8353 27.3547L10.378 27.562L10.2743 23.8531C10.2743 23.8531 10.0783 18.8541 13.5357 18.5777C16.993 18.3012 41.7593 18.6698 41.7593 18.6698C42.3992 18.8277 42.973 19.1831 43.3992 19.6856C43.8254 20.188 44.0822 20.812 44.1333 21.4688C44.6058 23.9913 44.4675 27.2279 43.9028 27.4007C42.9449 27.4983 41.9796 27.4983 41.0217 27.4007L40.0766 25.362L38.9242 24.6824L36.6193 24.5672L34.7523 26.4102C34.7523 26.4102 34.0724 27.3201 33.911 27.3431C33.7497 27.3662 21.8795 27.4353 21.8103 27.4583C21.7412 27.4814 20.8308 27.3892 20.8308 27.3892L20.5427 25.8918L19.6322 24.8897L18.2147 24.1641L15.4142 24.9819L14.8726 26.4562L14.5498 27.6081L13.8353 27.3547Z" fill="#43B02A"/>
<path d="M48.7548 4.29466H5.49187C5.33905 4.29466 5.19253 4.23401 5.08447 4.126C4.9764 4.018 4.91565 3.87148 4.91565 3.71874C4.91565 3.566 4.9764 3.41952 5.08447 3.31151C5.19253 3.20351 5.33905 3.14282 5.49187 3.14282H48.7548C48.9067 3.14577 49.0516 3.20741 49.159 3.31478C49.2664 3.42216 49.3281 3.56692 49.3311 3.71874C49.3311 3.87148 49.2703 4.018 49.1623 4.126C49.0542 4.23401 48.9077 4.29466 48.7548 4.29466Z" fill="#124F2E"/>
<path d="M14.6543 8.59116H9.81396V3.75342H14.6543V8.59116ZM10.9664 7.43932H13.5019V4.90526H10.9664V7.43932Z" fill="#124F2E"/>
<path d="M14.6543 8.59116H9.81396V3.75342H14.6543V8.59116ZM10.9664 7.43932H13.5019V4.90526H10.9664V7.43932Z" fill="#124F2E"/>
<path d="M44.7794 8.59116H39.9391V3.75342H44.7794V8.59116ZM41.0915 7.43932H43.627V4.90526H41.0915V7.43932Z" fill="#124F2E"/>
<path d="M12.153 19.0494L8.64954 13.5206L11.5653 7.78442L12.591 8.30273L9.97488 13.4515L13.121 18.4274L12.153 19.0494Z" fill="#124F2E"/>
<path d="M42.0821 19.13L41.1141 18.508L44.341 13.4515L41.7249 8.30273L42.7506 7.78442L45.6662 13.5206L42.0821 19.13Z" fill="#124F2E"/>
<path d="M43.0504 50.4714H10.2517C10.0988 50.4714 9.9523 50.4107 9.84424 50.3027C9.73618 50.1947 9.67543 50.0482 9.67543 49.8954V38.4577L5.06563 33.7121C4.98646 33.6318 4.93325 33.5296 4.91271 33.4188C4.89217 33.3079 4.90527 33.1934 4.95041 33.0901C4.9921 32.9871 5.06386 32.8991 5.15637 32.8374C5.24888 32.7758 5.35778 32.7434 5.46896 32.7446L24.473 32.5142C24.6257 32.528 24.7705 32.5883 24.8878 32.687L29.4284 37.1331L34.5914 32.5257C34.7013 32.4344 34.8404 32.3854 34.9833 32.3875H48.8127C48.9264 32.3881 49.0374 32.4223 49.1317 32.4858C49.2261 32.5494 49.2995 32.6394 49.3428 32.7446C49.3877 32.8516 49.3985 32.9698 49.3737 33.0832C49.349 33.1965 49.2899 33.2995 49.2045 33.3781L43.6382 38.6881V49.8494C43.6447 49.9298 43.6342 50.0107 43.6074 50.0867C43.5806 50.1628 43.5382 50.2324 43.4827 50.2911C43.4273 50.3497 43.3601 50.396 43.2856 50.4271C43.2112 50.4582 43.1311 50.4732 43.0504 50.4714ZM10.7819 49.3195H42.4281V38.5383C42.4262 38.461 42.4406 38.3841 42.4704 38.3127C42.5002 38.2412 42.5447 38.1769 42.601 38.1237L47.3144 33.6315H35.1791L29.7742 38.4001C29.6677 38.4989 29.5276 38.5538 29.3823 38.5538C29.2369 38.5538 29.097 38.4989 28.9905 38.4001L24.2424 33.7928L6.80584 33.9886L10.6205 37.9394C10.7228 38.0489 10.7804 38.1927 10.7819 38.3425V49.3195Z" fill="#124F2E"/>
<path d="M14.0779 38.6765H10.4707C10.3179 38.6765 10.1712 38.6158 10.0631 38.5078C9.95508 38.3998 9.89447 38.2533 9.89447 38.1006C9.89447 37.9478 9.95508 37.8014 10.0631 37.6933C10.1712 37.5853 10.3179 37.5247 10.4707 37.5247H14.0779C14.2307 37.5247 14.3772 37.5853 14.4853 37.6933C14.5933 37.8014 14.6541 37.9478 14.6541 38.1006C14.6511 38.2524 14.5895 38.3972 14.482 38.5046C14.3746 38.6119 14.2298 38.6735 14.0779 38.6765Z" fill="#124F2E"/>
<path d="M43.4881 38.677L20.923 38.4927C20.8479 38.4927 20.7735 38.4777 20.7043 38.4486C20.635 38.4195 20.5721 38.3769 20.5196 38.3233C20.467 38.2697 20.4257 38.2061 20.398 38.1363C20.3703 38.0664 20.3568 37.9918 20.3583 37.9167C20.3583 37.764 20.4191 37.6175 20.5271 37.5095C20.6352 37.4015 20.7817 37.3408 20.9346 37.3408L43.4995 37.5251C43.6523 37.5251 43.7989 37.5858 43.907 37.6938C44.0151 37.8018 44.0757 37.9483 44.0757 38.101C44.0727 38.2548 44.0094 38.4013 43.8995 38.509C43.7896 38.6167 43.642 38.677 43.4881 38.677Z" fill="#124F2E"/>
<path d="M39.6163 50.1147C39.4635 50.1147 39.317 50.054 39.2089 49.946C39.1009 49.838 39.0401 49.6915 39.0401 49.5387V44.989C39.0401 44.8363 39.1009 44.6898 39.2089 44.5818C39.317 44.4738 39.4635 44.4131 39.6163 44.4131C39.7691 44.4131 39.9158 44.4738 40.0239 44.5818C40.1319 44.6898 40.1926 44.8363 40.1926 44.989V49.5387C40.1926 49.6915 40.1319 49.838 40.0239 49.946C39.9158 50.054 39.7691 50.1147 39.6163 50.1147Z" fill="#124F2E"/>
<path d="M29.4401 50.0569C29.2873 50.0569 29.1408 49.9963 29.0327 49.8883C28.9246 49.7802 28.8639 49.6338 28.8639 49.481V37.9626C28.8639 37.8099 28.9246 37.6634 29.0327 37.5554C29.1408 37.4474 29.2873 37.3867 29.4401 37.3867C29.592 37.3897 29.7369 37.4513 29.8443 37.5587C29.9517 37.6661 30.0134 37.8108 30.0163 37.9626V49.481C30.0163 49.6338 29.9556 49.7802 29.8475 49.8883C29.7395 49.9963 29.5929 50.0569 29.4401 50.0569Z" fill="#124F2E"/>
<path d="M43.638 27.9189H40.4456V27.3545C40.4024 26.7164 40.1183 26.1186 39.6508 25.6819C39.1833 25.2452 38.5673 25.0023 37.9275 25.0023C37.2876 25.0023 36.6716 25.2452 36.2042 25.6819C35.7367 26.1186 35.4527 26.7164 35.4095 27.3545V27.9189H20.5198V27.3545C20.4766 26.7164 20.1924 26.1186 19.7249 25.6819C19.2574 25.2452 18.6415 25.0023 18.0016 25.0023C17.3617 25.0023 16.7459 25.2452 16.2784 25.6819C15.8109 26.1186 15.5268 26.7164 15.4836 27.3545V27.9189H10.724C10.4183 27.9189 10.1251 27.7975 9.90899 27.5815C9.69287 27.3655 9.5715 27.0725 9.5715 26.767V22.966C9.57412 21.6946 10.058 20.4713 10.926 19.5419C11.7939 18.6124 12.9817 18.0457 14.2505 17.9555L14.3311 17.8748L18.4568 12.5994C18.8958 12.0344 19.4586 11.5775 20.1019 11.264C20.7453 10.9505 21.4521 10.7887 22.1678 10.791H32.367C33.0827 10.7887 33.7894 10.9505 34.4327 11.264C35.076 11.5775 35.6389 12.0344 36.0778 12.5994L40.2843 17.9555C41.5531 18.0457 42.7407 18.6124 43.6087 19.5419C44.4766 20.4713 44.9605 21.6946 44.9632 22.966V26.767C44.965 26.934 44.9307 27.0994 44.8623 27.2517C44.7939 27.404 44.6931 27.5397 44.567 27.6493C44.4409 27.7588 44.2926 27.8397 44.1322 27.8863C43.9717 27.9328 43.8031 27.9439 43.638 27.9189ZM41.5404 26.767H43.638V22.9084C43.6375 21.9301 43.2664 20.9882 42.5993 20.2723C41.9322 19.5564 41.0185 19.1196 40.0422 19.0497C39.8732 19.0353 39.7092 18.9858 39.5603 18.9045C39.4115 18.8232 39.2812 18.7119 39.1778 18.5775L34.9946 13.2445C34.6618 12.8201 34.2367 12.4771 33.7514 12.2416C33.2661 12.0061 32.7335 11.8842 32.1941 11.8853H21.9949C21.4555 11.8842 20.9229 12.0061 20.4376 12.2416C19.9524 12.4771 19.5272 12.8201 19.1944 13.2445L15.0226 18.5775C14.9169 18.7122 14.7846 18.8236 14.6339 18.9049C14.4832 18.9861 14.3173 19.0354 14.1467 19.0497C13.1704 19.1196 12.2568 19.5564 11.5897 20.2723C10.9226 20.9882 10.5515 21.9301 10.5511 22.9084V26.7095H14.308C14.4534 25.8538 14.8971 25.0772 15.5605 24.5172C16.2239 23.9573 17.0642 23.6501 17.9325 23.6501C18.8009 23.6501 19.6411 23.9573 20.3045 24.5172C20.9679 25.0772 21.4117 25.8538 21.557 26.7095H34.2339C34.3717 25.8494 34.8117 25.0665 35.4749 24.5013C36.1381 23.9362 36.9811 23.6257 37.8526 23.6257C38.7242 23.6257 39.5671 23.9362 40.2303 24.5013C40.8935 25.0665 41.3335 25.8494 41.4713 26.7095L41.5404 26.767Z" fill="#124F2E"/>
<path d="M17.9851 31.0404C17.259 31.0403 16.549 30.8254 15.9449 30.4227C15.3409 30.0199 14.8697 29.4474 14.5908 28.7774C14.3118 28.1073 14.2378 27.3697 14.3778 26.6576C14.5178 25.9455 14.8656 25.2907 15.3774 24.776C15.8893 24.2612 16.5422 23.9095 17.2538 23.7651C17.9654 23.6207 18.7038 23.6902 19.376 23.9648C20.0481 24.2394 20.6239 24.7067 21.0307 25.3079C21.4374 25.9091 21.6568 26.6172 21.6613 27.343C21.6644 27.8274 21.5715 28.3077 21.3881 28.7562C21.2047 29.2046 20.9344 29.6124 20.5927 29.956C20.251 30.2997 19.8448 30.5724 19.3972 30.7585C18.9497 30.9446 18.4698 31.0404 17.9851 31.0404ZM17.9851 24.855C17.4854 24.855 16.997 25.0032 16.5817 25.2809C16.1664 25.5586 15.8429 25.9533 15.6522 26.4149C15.4615 26.8765 15.4122 27.3843 15.5105 27.8739C15.6088 28.3635 15.8504 28.813 16.2045 29.1653C16.5586 29.5176 17.0094 29.757 17.4997 29.853C17.9901 29.949 18.4979 29.8974 18.9589 29.7047C19.4198 29.512 19.8132 29.1869 20.0891 28.7706C20.365 28.3542 20.5112 27.8654 20.5089 27.366C20.5058 26.699 20.2386 26.0603 19.7657 25.5898C19.2927 25.1192 18.6525 24.855 17.9851 24.855Z" fill="#124F2E"/>
<path d="M37.9224 31.0403C37.1958 31.0426 36.4849 30.8296 35.8793 30.4283C35.2737 30.0269 34.8007 29.4552 34.52 28.7854C34.2394 28.1155 34.1636 27.3775 34.3023 26.6647C34.441 25.9518 34.7879 25.296 35.2993 24.7801C35.8106 24.2641 36.4635 23.9113 37.1754 23.766C37.8873 23.6206 38.6264 23.6894 39.2992 23.9637C39.972 24.2379 40.5483 24.7053 40.9556 25.3067C41.3628 25.9082 41.5827 26.6167 41.5872 27.343C41.5903 27.8264 41.4978 28.3058 41.3152 28.7535C41.1325 29.2012 40.8632 29.6085 40.5227 29.952C40.1822 30.2954 39.7772 30.5684 39.331 30.7552C38.8848 30.9419 38.4061 31.0388 37.9224 31.0403ZM37.9224 24.855C37.4222 24.8527 36.9327 24.999 36.5159 25.2753C36.0991 25.5516 35.7738 25.9454 35.5813 26.4068C35.3889 26.8682 35.338 27.3764 35.435 27.8668C35.532 28.3572 35.7727 28.8077 36.1263 29.1612C36.48 29.5147 36.9306 29.7551 37.4213 29.8521C37.9119 29.9491 38.4205 29.8981 38.8821 29.7058C39.3437 29.5134 39.7377 29.1883 40.0141 28.7717C40.2906 28.3552 40.4371 27.8659 40.4348 27.366C40.4318 26.7009 40.166 26.064 39.6955 25.5938C39.225 25.1235 38.5878 24.858 37.9224 24.855Z" fill="#124F2E"/>
<path d="M27.7344 11.5972H26.582V27.1355H27.7344V11.5972Z" fill="#124F2E"/>
<path d="M40.1461 17.8979H14.1814V19.0498H40.1461V17.8979Z" fill="#124F2E"/>
<path d="M24.3226 23.3458C24.679 23.3458 24.9679 23.0569 24.9679 22.7007C24.9679 22.3445 24.679 22.0557 24.3226 22.0557C23.9662 22.0557 23.6772 22.3445 23.6772 22.7007C23.6772 23.0569 23.9662 23.3458 24.3226 23.3458Z" fill="#124F2E"/>
</svg>
