<svg width="55" height="55" viewBox="0 0 55 55" fill="none" xmlns="http://www.w3.org/2000/svg">
<path d="M40.2678 39.1558C39.8861 38.5679 39.5145 37.9698 39.1637 37.4232C39.4176 37.2434 39.6621 37.0506 39.8963 36.8457C40.536 36.2166 41.1139 35.5256 41.8053 34.9687C42.2063 34.6452 42.52 34.2267 42.7182 33.7513C42.9164 33.2758 42.9928 32.7585 42.9403 32.2461C42.9403 24.9238 42.9403 17.6016 42.9403 10.269C42.9639 9.75478 42.8848 9.24097 42.7076 8.75759C42.5305 8.2742 42.2588 7.83091 41.9084 7.45357C41.5638 7.07915 41.1439 6.78176 40.6762 6.58093C40.2085 6.38009 39.7036 6.28034 39.1947 6.28821H17.5259C17.014 6.26915 16.5038 6.35638 16.0274 6.5444C15.551 6.73242 15.1188 7.01714 14.7581 7.38057C14.3974 7.74401 14.116 8.17826 13.9317 8.6559C13.7474 9.13354 13.6643 9.64419 13.6874 10.1556C13.6874 17.8697 13.6874 25.6251 13.6874 33.3186C13.6814 33.483 13.7116 33.6467 13.7757 33.7982C13.8399 33.9496 13.9366 34.0852 14.0589 34.1952C14.9463 35.0615 15.813 35.9484 16.7004 36.8147C16.917 37.0313 17.1854 37.2066 17.4434 37.4232L17.2369 37.7532L11.242 47.169C11.1594 47.3031 11.0045 47.4474 11.0045 47.5918C10.9814 47.8305 11.0476 48.0694 11.1903 48.2622C11.2415 48.3077 11.3024 48.3411 11.3683 48.3598C11.4343 48.3785 11.5036 48.3821 11.5711 48.3701C11.6386 48.3582 11.7026 48.3312 11.7581 48.2911C11.8137 48.2509 11.8595 48.1988 11.892 48.1384C11.9771 48.0315 12.053 47.9177 12.119 47.7981C14.2721 44.4154 16.4253 41.0362 18.5784 37.6604C18.6609 37.516 18.8157 37.3304 18.9498 37.3201C19.4554 37.3201 19.9816 37.3201 20.5491 37.3201L20.3222 37.8357L16.4527 46.478C16.2979 46.839 16.1329 47.1896 15.9678 47.5093C15.9273 47.5736 15.9013 47.6459 15.8915 47.7212C15.8816 47.7965 15.8882 47.873 15.9107 47.9455C15.9333 48.018 15.9712 48.0848 16.0221 48.1412C16.0729 48.1977 16.1353 48.2425 16.2051 48.2725C16.2725 48.3116 16.348 48.3346 16.4258 48.3397C16.5035 48.3447 16.5813 48.3318 16.6532 48.3019C16.7252 48.2719 16.7893 48.2258 16.8404 48.167C16.8915 48.1082 16.9283 48.0384 16.948 47.9631C17.0203 47.8305 17.0825 47.6926 17.1338 47.5506C17.237 47.1896 17.4639 47.1071 17.8354 47.1071C24.7143 47.1071 31.5933 47.1071 38.4723 47.1071C39.0295 47.1071 39.401 47.1999 39.5042 47.7775C39.514 47.8834 39.5616 47.9822 39.6383 48.0559C39.8381 48.1875 40.07 48.2624 40.309 48.2725C40.5979 48.2725 40.6702 47.9425 40.6083 47.664C40.571 47.533 40.5226 47.4054 40.4638 47.2824C39.0399 44.1198 37.6194 40.9503 36.2023 37.7738C36.1404 37.6295 36.0888 37.4851 35.996 37.2788C36.4603 37.2788 36.8524 37.2788 37.2445 37.2788C37.3976 37.2596 37.553 37.2878 37.6896 37.3598C37.8262 37.4317 37.9373 37.5439 38.008 37.681C40.1336 41.0637 42.273 44.4326 44.4261 47.7878C44.4983 47.9218 44.5706 48.0972 44.6841 48.1487C44.7976 48.2003 45.1897 48.3344 45.3238 48.2416C45.4815 48.0657 45.5696 47.8383 45.5714 47.6021C45.5714 47.4681 45.4167 47.3134 45.3238 47.1793L40.2678 39.1558ZM14.8018 9.85651C14.8039 9.50938 14.8769 9.16634 15.0164 8.84845C15.156 8.53056 15.3591 8.24452 15.6132 8.0079C15.8673 7.77129 16.1672 7.58909 16.4943 7.47249C16.8214 7.35588 17.169 7.30733 17.5156 7.32982H39.0812C39.4345 7.30998 39.7881 7.36301 40.1201 7.48563C40.452 7.60824 40.7552 7.79782 41.0107 8.04255C41.2663 8.28729 41.4686 8.58194 41.6053 8.9082C41.742 9.23446 41.8101 9.58534 41.8053 9.93901C41.8053 14.4974 41.8053 19.0557 41.8053 23.6038C41.8053 23.6656 41.8053 23.7172 41.8053 23.81H14.8018C14.8018 19.1176 14.8018 14.4871 14.8018 9.85651ZM38.0493 44.4154C38.2454 44.9414 38.5033 45.4467 38.7613 46.0139H17.8973C18.1863 45.3539 18.4545 44.7145 18.7641 44.0957C18.7641 44.0029 19.0324 43.941 19.1768 43.941H37.3889C37.5391 43.9267 37.6893 43.9667 37.8124 44.0538C37.9355 44.1408 38.0233 44.2692 38.0597 44.4154H38.0493ZM37.2651 42.8272H19.2593C19.4038 42.5075 19.5173 42.2084 19.6721 41.9403C19.7713 41.8413 19.9036 41.7826 20.0435 41.7753C20.4666 41.7753 20.8898 41.7753 21.3128 41.7753H36.0578C36.9762 41.7753 37.0691 41.8578 37.2755 42.8272H37.2651ZM36.3571 40.6718H20.2396C20.3659 40.3175 20.5176 39.9729 20.6936 39.6405C20.8275 39.5335 20.9975 39.4818 21.1683 39.4961H30.2485C31.9614 39.4961 33.6639 39.4961 35.4078 39.4961C35.7792 39.4961 35.965 39.5992 36.0682 39.9396C36.1504 40.1904 36.2504 40.4351 36.3674 40.6718H36.3571ZM21.2508 38.4029C21.4159 38.0214 21.5604 37.681 21.7358 37.3716C21.7358 37.2994 21.9422 37.2788 22.0557 37.2788H34.5307C34.7065 37.3169 34.8614 37.4201 34.9641 37.5676C35.1126 37.8394 35.2403 38.1221 35.3459 38.4132L21.2508 38.4029ZM17.949 36.1856C17.7477 36.1761 17.5553 36.0999 17.4021 35.9691C16.5869 35.175 15.7923 34.3706 14.9978 33.5558C14.8712 33.4328 14.7942 33.2677 14.7811 33.0917C14.7811 30.4516 14.7811 27.8046 14.7811 25.1507C14.7811 25.1507 14.7811 25.0373 14.7811 24.9548H41.7743C41.7743 25.1198 41.7743 25.2641 41.7743 25.4188C41.7743 27.9249 41.7743 30.4413 41.7743 32.9473C41.7662 33.1922 41.671 33.4262 41.506 33.6074C40.7528 34.4118 39.9685 35.1956 39.1637 35.9587C39.0151 36.0919 38.8262 36.1717 38.6271 36.1856H17.949Z" fill="#124F2E"/>
<path d="M41.5475 33.6075C41.7125 33.4263 41.8076 33.1923 41.8158 32.9474C41.8158 30.4414 41.8158 27.925 41.8158 25.4189C41.8158 25.2642 41.8158 25.1198 41.8158 24.9548H14.802C14.802 25.0373 14.802 25.0992 14.802 25.1508C14.802 27.8047 14.802 30.4517 14.802 33.0918C14.815 33.2678 14.8921 33.4329 15.0186 33.5559C15.8131 34.3706 16.6077 35.175 17.4229 35.9691C17.5761 36.1 17.7684 36.1762 17.9697 36.1857H38.6789C38.8781 36.1718 39.0669 36.092 39.2155 35.9588C40.01 35.1957 40.7943 34.4119 41.5475 33.6075ZM21.9424 33.4218C21.2494 33.4198 20.5725 33.2127 19.9971 32.8266C19.4218 32.4405 18.9737 31.8928 18.7094 31.2525C18.4452 30.6122 18.3766 29.908 18.5123 29.2288C18.648 28.5496 18.982 27.9258 19.472 27.436C19.962 26.9462 20.5862 26.6125 21.2658 26.4769C21.9453 26.3413 22.6499 26.4098 23.2905 26.6739C23.9312 26.938 24.4791 27.3859 24.8654 27.9609C25.2517 28.536 25.4589 29.2125 25.4609 29.9051C25.4582 30.8352 25.0881 31.7265 24.4311 32.3852C23.774 33.0438 22.8833 33.4164 21.9527 33.4218H21.9424ZM34.6444 33.4218C34.1824 33.4232 33.7248 33.3331 33.2979 33.1567C32.8709 32.9803 32.4831 32.7212 32.157 32.3942C31.8308 32.0673 31.5726 31.6789 31.3974 31.2517C31.2222 30.8245 31.1333 30.3668 31.1361 29.9051C31.1361 29.2091 31.3427 28.5288 31.7298 27.9502C32.1169 27.3717 32.6671 26.9209 33.3106 26.6551C33.9541 26.3892 34.6621 26.3202 35.345 26.4567C36.0278 26.5932 36.6547 26.9292 37.1464 27.4221C37.6381 27.9149 37.9724 28.5425 38.107 29.2253C38.2416 29.9082 38.1704 30.6156 37.9025 31.258C37.6346 31.9005 37.182 32.449 36.602 32.8342C36.022 33.2193 35.3407 33.4239 34.6444 33.4218Z" fill="#43B02A"/>
<path d="M41.7947 23.81C41.7947 23.7172 41.7947 23.6656 41.7947 23.6038C41.7947 19.0557 41.7947 14.4974 41.7947 9.93901C41.7995 9.58533 41.7314 9.23445 41.5947 8.90819C41.458 8.58193 41.2557 8.28728 41.0002 8.04255C40.7447 7.79782 40.4415 7.60824 40.1095 7.48562C39.7776 7.36301 39.424 7.30998 39.0706 7.32982H17.505C17.1584 7.30732 16.8109 7.35588 16.4837 7.47248C16.1566 7.58909 15.8568 7.77128 15.6027 8.0079C15.3485 8.24451 15.1454 8.53055 15.0059 8.84844C14.8663 9.16633 14.7933 9.50937 14.7912 9.8565C14.7912 14.487 14.7912 19.1382 14.7912 23.81H41.7947ZM16.8653 10.1968C16.8653 9.56774 17.0097 9.42336 17.6391 9.41305H38.9365C39.6175 9.41305 39.7517 9.54712 39.7517 10.2381C39.7517 13.0948 39.7517 15.9618 39.7517 18.8185C39.7626 18.9981 39.7205 19.1769 39.6306 19.3327C39.5407 19.4886 39.4069 19.6146 39.246 19.6951C35.9361 21.6432 32.165 22.6705 28.3239 22.6705C24.4828 22.6705 20.7117 21.6432 17.4018 19.6951C17.2152 19.6001 17.0619 19.4505 16.9624 19.2663C16.8628 19.0821 16.8218 18.8719 16.8446 18.6638C16.8652 15.8896 16.8653 13.0432 16.8653 10.1968Z" fill="#43B02A"/>
<path d="M21.3225 41.7756C20.8995 41.7756 20.4765 41.7756 20.0534 41.7756C19.9134 41.7829 19.7811 41.8417 19.6819 41.9406C19.5272 42.2088 19.4136 42.5079 19.2692 42.8276H37.275C37.0686 41.8581 36.9757 41.7963 36.0677 41.7963L21.3225 41.7756Z" fill="white"/>
<path d="M34.9743 37.5571C34.8715 37.4096 34.7166 37.3064 34.5408 37.2683H22.0245C21.911 37.2683 21.7459 37.2683 21.7046 37.3611C21.5292 37.6808 21.3847 38.0212 21.2197 38.3924H35.3147C35.2219 38.106 35.1082 37.8268 34.9743 37.5571Z" fill="white"/>
<path d="M21.9212 26.4089C20.9907 26.4089 20.0984 26.7784 19.4404 27.4359C18.7825 28.0935 18.4129 28.9854 18.4129 29.9154C18.4129 30.8453 18.7825 31.7372 19.4404 32.3948C20.0984 33.0524 20.9907 33.4218 21.9212 33.4218C22.3836 33.4231 22.8418 33.3331 23.2693 33.1569C23.6968 32.9806 24.0852 32.7216 24.4123 32.3948C24.7393 32.068 24.9983 31.6797 25.1747 31.2525C25.351 30.8252 25.4412 30.3673 25.4398 29.905C25.4264 28.9784 25.0507 28.0939 24.3931 27.4405C23.7356 26.7872 22.8483 26.4169 21.9212 26.4089ZM21.9212 32.3389C21.4421 32.3348 20.9749 32.189 20.5786 31.9197C20.1823 31.6505 19.8748 31.27 19.6947 30.8262C19.5147 30.3824 19.4702 29.8953 19.5669 29.4262C19.6636 28.9572 19.8972 28.5273 20.2381 28.1908C20.5791 27.8544 21.0121 27.6264 21.4826 27.5357C21.9531 27.4451 22.4399 27.4957 22.8816 27.6813C23.3233 27.8669 23.7 28.1791 23.9643 28.5786C24.2286 28.978 24.3687 29.4468 24.3667 29.9257C24.3613 30.564 24.1051 31.1747 23.6535 31.6261C23.2018 32.0775 22.5909 32.3335 21.9522 32.3389H21.9212Z" fill="#124F2E"/>
<path d="M34.6958 26.4089C33.7633 26.4088 32.8682 26.7755 32.204 27.4297C31.5398 28.0839 31.1598 28.9731 31.1462 29.905C31.1462 30.8377 31.5169 31.7322 32.1768 32.3918C32.8367 33.0513 33.7317 33.4218 34.6648 33.4218C35.598 33.4218 36.493 33.0513 37.1529 32.3918C37.8128 31.7322 38.1835 30.8377 38.1835 29.905C38.1728 28.9829 37.8022 28.1014 37.1508 27.4483C36.4993 26.7953 35.6184 26.4223 34.6958 26.4089ZM34.6958 32.3389C34.3774 32.3389 34.0621 32.2762 33.7679 32.1544C33.4737 32.0326 33.2063 31.8541 32.9812 31.6291C32.756 31.404 32.5774 31.1368 32.4555 30.8428C32.3337 30.5488 32.271 30.2336 32.271 29.9154C32.271 29.5971 32.3337 29.282 32.4555 28.9879C32.5774 28.6939 32.756 28.4267 32.9812 28.2016C33.2063 27.9766 33.4737 27.7981 33.7679 27.6763C34.0621 27.5545 34.3774 27.4918 34.6958 27.4918C35.3374 27.5025 35.9494 27.7627 36.4022 28.2171C36.8549 28.6715 37.1127 29.2844 37.1206 29.9257C37.1179 30.2453 37.0523 30.5613 36.9274 30.8555C36.8025 31.1498 36.6209 31.4166 36.3929 31.6407C36.1648 31.8648 35.8948 32.0418 35.5983 32.1616C35.3018 32.2814 34.9846 32.3416 34.6648 32.3389H34.6958Z" fill="#124F2E"/>
<path d="M17.4122 19.7159C20.7221 21.664 24.4932 22.6913 28.3343 22.6913C32.1754 22.6913 35.9465 21.664 39.2564 19.7159C39.4173 19.6354 39.5511 19.5094 39.641 19.3535C39.7309 19.1977 39.7729 19.0189 39.7619 18.8393C39.7619 15.9826 39.7619 13.1156 39.7619 10.2589C39.7619 9.56791 39.6279 9.43384 38.9469 9.43384H17.6495C17.0201 9.43384 16.8756 9.58854 16.8756 10.2176C16.8756 13.064 16.8756 15.9104 16.8756 18.7465C16.8635 18.9424 16.9076 19.1376 17.0026 19.3093C17.0976 19.481 17.2398 19.6221 17.4122 19.7159ZM28.876 10.527H38.6683V14.1881C38.6683 15.5907 38.6683 17.0036 38.6683 18.4062C38.6654 18.5032 38.6418 18.5984 38.5991 18.6856C38.5564 18.7728 38.4956 18.8498 38.4206 18.9115C35.6247 20.5376 32.4785 21.4679 29.2475 21.6238H28.9792C28.9792 21.6238 28.9792 21.6238 28.876 21.6238V10.527ZM17.9488 10.7952C17.9488 10.7127 17.9488 10.6198 17.9488 10.5167H27.71V21.6238C26.6782 21.5104 25.7496 21.4382 24.79 21.2732C22.4806 20.89 20.2602 20.0897 18.2376 18.9115C18.1578 18.8573 18.09 18.7871 18.0385 18.7055C17.987 18.6239 17.953 18.5325 17.9385 18.4371C17.8972 15.9104 17.9488 13.3734 17.9488 10.7952Z" fill="#124F2E"/>
<path d="M21.932 27.4915C21.4547 27.4996 20.9905 27.6484 20.5974 27.9191C20.2043 28.1898 19.8999 28.5705 19.7224 29.0134C19.5448 29.4563 19.5021 29.9418 19.5994 30.4088C19.6968 30.8759 19.9298 31.3039 20.2695 31.6392C20.6092 31.9744 21.0404 32.202 21.509 32.2934C21.9775 32.3848 22.4626 32.3359 22.9034 32.1529C23.3443 31.9699 23.7213 31.6609 23.9872 31.2646C24.2531 30.8684 24.3961 30.4025 24.3982 29.9253C24.3927 29.2762 24.1301 28.6556 23.6679 28.1994C23.2057 27.7433 22.5816 27.4887 21.932 27.4915Z" fill="white"/>
<path d="M34.6851 27.4915C34.206 27.4915 33.7376 27.6333 33.339 27.8992C32.9405 28.165 32.6297 28.5429 32.4459 28.9852C32.262 29.4274 32.2134 29.9142 32.3062 30.384C32.3989 30.8539 32.6287 31.2857 32.9668 31.6251C33.3049 31.9644 33.736 32.1961 34.2057 32.2907C34.6754 32.3854 35.1626 32.3389 35.6059 32.157C36.0491 31.9752 36.4286 31.6662 36.6963 31.269C36.964 30.8718 37.1079 30.4042 37.11 29.9253C37.1046 29.2833 36.8477 28.6688 36.3944 28.2139C35.9411 27.7589 35.3275 27.4995 34.6851 27.4915Z" fill="white"/>
</svg>
