<svg width="55" height="55" viewBox="0 0 55 55" fill="none" xmlns="http://www.w3.org/2000/svg">
<path d="M6.28601 16.6009C6.48704 15.6667 7.01941 14.8368 7.78489 14.2643C8.37047 13.8365 9.07328 13.5984 9.79843 13.5823H28.1769C28.6915 13.5823 28.9823 13.8506 28.9823 14.2754C28.9823 14.7003 28.6803 14.9686 28.1769 14.9798H10.1003C9.77029 14.9481 9.43744 14.9902 9.12566 15.103C8.81387 15.2157 8.53101 15.3963 8.29763 15.6317C8.06425 15.8671 7.88611 16.1514 7.77616 16.4641C7.6662 16.7767 7.62719 17.1098 7.66187 17.4394V20.7934H25.8167C25.9816 20.767 26.1507 20.7982 26.2953 20.8817C26.4399 20.9651 26.5513 21.0959 26.6109 21.2518C26.6753 21.3999 26.686 21.5659 26.641 21.721C26.5961 21.8761 26.4984 22.0107 26.3648 22.1015C26.1665 22.2108 25.9424 22.2649 25.7161 22.258H7.66187V22.7164C7.66187 29.771 7.66187 36.8368 7.66187 43.8915C7.64239 44.2068 7.68998 44.5227 7.80155 44.8184C7.91312 45.114 8.08609 45.3826 8.3091 45.6066C8.53211 45.8305 8.80008 46.0047 9.09534 46.1176C9.3906 46.2305 9.70647 46.2796 10.0221 46.2616C20.6637 46.2616 31.3053 46.2616 41.9469 46.2616C42.2664 46.2833 42.5867 46.2361 42.8864 46.1234C43.186 46.0106 43.458 45.8349 43.6838 45.6081C43.9097 45.3813 44.0842 45.1087 44.1956 44.8087C44.307 44.5087 44.3527 44.1882 44.3296 43.8691C44.3296 39.4753 44.3296 35.0704 44.3296 30.6766C44.3296 29.9723 44.5421 29.6369 45.0007 29.6257C45.4593 29.6145 45.7166 30.0058 45.7166 30.7437C45.7166 35.2157 45.7166 39.6877 45.7166 44.1598C45.7276 45.0004 45.444 45.8183 44.9148 46.4718C44.3856 47.1252 43.6442 47.573 42.8193 47.7374C42.4496 47.7963 42.0749 47.8188 41.7007 47.8045H10.38C9.98198 47.8436 9.58115 47.8436 9.18314 47.8045C8.50474 47.6945 7.87512 47.3829 7.37634 46.9103C6.87757 46.4377 6.53275 45.826 6.38665 45.1548C6.38665 45.0766 6.31958 45.0095 6.29721 44.9312L6.28601 16.6009Z" fill="#124F2E"/>
<path d="M48.2556 12.8889C48.1065 13.2897 47.9346 13.6816 47.7409 14.0628C47.5045 14.4548 47.239 14.8285 46.9467 15.1808C46.8706 15.2711 46.8226 15.3817 46.8087 15.4989C46.7948 15.6162 46.8156 15.7349 46.8685 15.8405C46.9288 16.1183 47.0853 16.3659 47.3104 16.5398C47.5355 16.7136 47.8147 16.8025 48.0989 16.7908C48.5005 16.8132 48.8981 16.8808 49.2846 16.992C49.6227 17.0688 49.9219 17.2648 50.1274 17.544C50.3328 17.8232 50.4306 18.167 50.4032 18.5125V20.1112C50.426 20.4998 50.2999 20.8825 50.0506 21.1816C49.8013 21.4806 49.4475 21.6735 49.0609 21.7212C48.5352 21.8106 48.0094 21.8889 47.4949 21.9895C47.3837 21.9975 47.2779 22.0405 47.1928 22.1125C46.9986 22.3258 46.8811 22.5977 46.8588 22.8852C46.8365 23.1727 46.9108 23.4594 47.0698 23.7001C47.3382 24.0466 47.6067 24.382 47.8527 24.7398C48.1303 25.1454 48.2389 25.6431 48.1553 26.1273C48.0718 26.6116 47.8028 27.0443 47.4054 27.3336L46.5441 27.982C46.2275 28.238 45.8327 28.3776 45.4255 28.3776C45.0183 28.3776 44.6234 28.238 44.3069 27.982C43.9042 27.6802 43.5238 27.3447 43.1099 27.0652C42.9443 26.9941 42.7611 26.9746 42.5842 27.0094C42.4835 27.0094 42.3828 27.11 42.2709 27.1435C42.0896 27.183 41.9282 27.2856 41.8156 27.4331C41.7029 27.5805 41.6462 27.7632 41.6558 27.9485C41.6149 28.3933 41.54 28.8343 41.432 29.2677C41.3815 29.6696 41.1936 30.0416 40.9 30.3208C40.6064 30.5999 40.2254 30.769 39.8213 30.7994C39.3637 30.844 38.903 30.844 38.4454 30.7994C38.0007 30.775 37.5793 30.5926 37.2573 30.2851C36.9353 29.9776 36.7338 29.5652 36.6892 29.1224C36.622 28.6416 36.555 28.1609 36.4655 27.6802C36.3434 27.4163 36.1232 27.2104 35.8517 27.106C35.5802 27.0017 35.2788 27.0071 35.0113 27.1212L33.8927 27.9261C33.5198 28.24 33.0397 28.3967 32.5534 28.3634C32.0671 28.33 31.6128 28.1091 31.2864 27.7472C31.0403 27.5236 30.8054 27.2889 30.5816 27.0541C30.2442 26.7316 30.0399 26.2945 30.0088 25.8289C29.9778 25.3633 30.1222 24.903 30.4138 24.5386C30.6823 24.1808 30.9395 23.8119 31.2192 23.4764C31.3119 23.3859 31.3695 23.2655 31.3818 23.1366C31.3941 23.0076 31.3603 22.8785 31.2864 22.7721C31.2124 22.6462 31.156 22.5108 31.1186 22.3696C31.0807 22.2476 31.0051 22.1407 30.9025 22.0643C30.8 21.988 30.6759 21.9461 30.5481 21.9448C30.0447 21.8889 29.5526 21.7883 29.0604 21.6988C28.6465 21.6276 28.2713 21.4122 28.001 21.091C27.7308 20.7697 27.5829 20.3633 27.5837 19.9435C27.5837 19.5075 27.5837 19.0827 27.5837 18.6467C27.5843 18.2565 27.7174 17.878 27.9613 17.5733C28.2052 17.2687 28.5454 17.0558 28.9261 16.9696C29.4295 16.8467 29.9441 16.7796 30.4474 16.7013C30.6167 16.6594 30.7738 16.5785 30.9062 16.4651C31.0386 16.3517 31.1427 16.2089 31.21 16.0481C31.2774 15.8874 31.3063 15.7131 31.2943 15.5392C31.2823 15.3653 31.2298 15.1967 31.1409 15.0467C30.8837 14.7113 30.6487 14.3647 30.3914 14.0405C30.1444 13.7828 29.9923 13.4489 29.9598 13.0935C29.9273 12.7381 30.0164 12.3822 30.2126 12.084C30.6255 11.4684 31.1444 10.931 31.745 10.4964C32.0233 10.3071 32.3565 10.2153 32.6925 10.2356C33.0286 10.2558 33.3483 10.3868 33.6018 10.6082C34.0269 10.91 34.4185 11.2343 34.8212 11.5697C34.8939 11.6489 34.9926 11.6992 35.0995 11.7115C35.2063 11.7238 35.314 11.6973 35.4029 11.6368C35.5394 11.5518 35.6858 11.4842 35.839 11.4355C36.0053 11.3921 36.1517 11.2929 36.2536 11.1545C36.3554 11.0161 36.4064 10.8469 36.3983 10.6753C36.4365 10.2995 36.4963 9.92619 36.5773 9.55725C36.6458 9.07639 36.8888 8.6375 37.2601 8.32413C37.6313 8.01076 38.1051 7.84482 38.5909 7.8579H39.5752C40.004 7.85321 40.4207 7.99971 40.7521 8.27165C41.0835 8.5436 41.3085 8.92357 41.3873 9.34483C41.4768 9.87029 41.5551 10.3846 41.6446 10.9101C41.6988 11.048 41.7799 11.1739 41.8832 11.2802C41.9864 11.3866 42.1099 11.4714 42.2462 11.5296C42.3826 11.5879 42.5292 11.6184 42.6774 11.6196C42.8257 11.6207 42.9727 11.5923 43.1099 11.5361L44.3181 10.6306C44.6249 10.3866 45.0054 10.2538 45.3975 10.2538C45.7896 10.2538 46.1701 10.3866 46.4769 10.6306C46.9318 11.0052 47.3478 11.4247 47.7185 11.8827C47.9379 12.195 48.1184 12.5329 48.2556 12.8889ZM46.6447 12.8889C46.4769 12.6877 46.3316 12.4753 46.1638 12.3076C45.3584 11.4802 45.4925 11.5697 44.6536 12.207C44.2629 12.5418 43.835 12.8307 43.3783 13.0678C42.6624 13.392 42.0137 12.9896 41.365 12.7212C41.0907 12.6191 40.8456 12.4516 40.6507 12.2334C40.4558 12.0153 40.317 11.7529 40.2464 11.4691C40.1681 11.1672 40.1345 10.8541 40.0673 10.5411C39.7989 9.0877 40.0674 9.3113 38.5685 9.28894C38.3112 9.28894 38.1769 9.3784 38.1434 9.6579C38.1434 10.1722 38.0091 10.6753 37.9308 11.1896C37.8947 11.5028 37.7705 11.7993 37.5725 12.0447C37.3745 12.2901 37.1108 12.4743 36.8122 12.5759L36.2977 12.7883C35.9788 12.9747 35.6103 13.0586 35.2422 13.0286C34.874 12.9986 34.5239 12.8562 34.2395 12.6206C33.8032 12.3076 33.3781 11.9945 32.9643 11.6591C32.9328 11.6195 32.8929 11.5876 32.8474 11.5656C32.8019 11.5436 32.752 11.5322 32.7014 11.5322C32.6509 11.5322 32.601 11.5436 32.5554 11.5656C32.5099 11.5876 32.47 11.6195 32.4386 11.6591C32.2148 11.8939 31.9799 12.1398 31.7338 12.3523C31.6802 12.3952 31.6369 12.4497 31.6071 12.5116C31.5774 12.5735 31.5619 12.6413 31.5619 12.71C31.5619 12.7787 31.5774 12.8465 31.6071 12.9085C31.6369 12.9704 31.6802 13.0249 31.7338 13.0678C32.0135 13.4144 32.2707 13.7722 32.5392 14.1299C32.8842 14.7295 32.9895 15.4374 32.8339 16.1114C32.6782 16.7854 32.2733 17.3756 31.7002 17.7635C31.4651 17.8679 31.2166 17.9393 30.9619 17.9758C30.5033 18.0653 30.0559 18.1436 29.5973 18.2106C29.5477 18.2102 29.4986 18.2204 29.4534 18.2406C29.4081 18.2607 29.3677 18.2903 29.3348 18.3274C29.302 18.3645 29.2774 18.4082 29.2629 18.4556C29.2483 18.5029 29.2442 18.5528 29.2506 18.602C29.2262 18.9742 29.2262 19.3477 29.2506 19.72C29.2749 19.8042 29.3175 19.8819 29.3755 19.9477C29.4336 20.0134 29.5055 20.0655 29.5861 20.1001C30.0156 20.2144 30.4531 20.2967 30.8949 20.346C31.286 20.3652 31.661 20.5074 31.9664 20.7524C32.2717 20.9973 32.4919 21.3325 32.5952 21.71C32.6369 21.8319 32.6854 21.9513 32.7406 22.0677C32.9126 22.3777 32.9904 22.731 32.9645 23.0845C32.9387 23.4379 32.8104 23.7761 32.5952 24.0578L31.745 25.1758C31.3871 25.6565 31.387 25.7125 31.8233 26.1373C32.7405 27.0541 32.5392 27.0764 33.5236 26.2603C33.9302 25.8297 34.4742 25.554 35.062 25.4805C35.6499 25.4071 36.245 25.5405 36.7451 25.8578C37.0617 26.0086 37.337 26.2339 37.5474 26.5143C37.7577 26.7946 37.8969 27.1218 37.9532 27.4677C38.0315 27.9597 38.0874 28.4628 38.2104 28.9435C38.2104 29.0889 38.4678 29.3013 38.5909 29.2901C39.0383 29.2901 39.5304 29.5025 39.9331 29.1336C40.0002 29.0665 40.0003 28.91 40.0115 28.7982C40.0898 28.3622 40.1456 27.9261 40.2128 27.4789C40.2442 27.1341 40.3752 26.8059 40.5896 26.534C40.8041 26.2622 41.0927 26.0583 41.4208 25.9472C41.5744 25.8993 41.724 25.8395 41.8683 25.7683C42.2017 25.5668 42.5906 25.4765 42.9788 25.5107C43.367 25.5449 43.7342 25.7017 44.0272 25.9584C44.4187 26.2603 44.8214 26.5398 45.1458 26.8417C45.1826 26.8862 45.2287 26.922 45.2809 26.9466C45.3331 26.9712 45.3901 26.984 45.4479 26.984C45.5056 26.984 45.5625 26.9712 45.6147 26.9466C45.6669 26.922 45.7132 26.8862 45.7499 26.8417C45.9848 26.6069 46.2084 26.3721 46.4545 26.1485C46.5014 26.1097 46.5392 26.061 46.5651 26.0059C46.591 25.9508 46.6046 25.8907 46.6046 25.8299C46.6046 25.769 46.591 25.7089 46.5651 25.6538C46.5392 25.5987 46.5014 25.55 46.4545 25.5112C46.1189 25.0752 45.7835 24.6392 45.4703 24.192C45.3131 23.8881 45.2172 23.5562 45.1883 23.2153C45.1594 22.8744 45.1982 22.5311 45.302 22.2051C45.4059 21.8791 45.5729 21.5768 45.7937 21.3154C46.0145 21.0539 46.2848 20.8385 46.5889 20.6814H46.8013C47.3047 20.592 47.8192 20.4914 48.3226 20.4243C48.6582 20.4243 48.8596 20.2678 48.8261 19.8877C48.8039 19.6011 48.8039 19.3133 48.8261 19.0268C48.8261 18.7137 48.7366 18.546 48.401 18.5125C48.0654 18.479 47.4613 18.3336 46.9915 18.2777C46.6607 18.242 46.3469 18.1126 46.0873 17.9046C45.8277 17.6966 45.633 17.4187 45.5261 17.1038C45.459 16.9361 45.3919 16.7572 45.3136 16.5895C45.13 16.2535 45.0491 15.871 45.081 15.4894C45.1128 15.1078 45.2558 14.744 45.4925 14.443L46.3092 13.325C46.4882 13.202 46.544 13.1349 46.6447 12.9337V12.8889Z" fill="#124F2E"/>
<path d="M18.1887 34.7903H13.3226C13.0263 34.7996 12.7313 34.7481 12.4557 34.639C12.1801 34.53 11.9296 34.3656 11.72 34.1561C11.5103 33.9465 11.346 33.6963 11.2369 33.4208C11.1277 33.1453 11.0761 32.8504 11.0854 32.5542V26.7853C11.0728 26.4883 11.1221 26.1919 11.23 25.9149C11.338 25.6379 11.5023 25.3863 11.7126 25.1761C11.9229 24.9659 12.1746 24.8016 12.4517 24.6937C12.7289 24.5858 13.0255 24.5367 13.3226 24.5493C16.6486 24.5493 19.9709 24.5493 23.2894 24.5493C23.5906 24.5395 23.8907 24.5925 24.1703 24.705C24.4499 24.8174 24.7029 24.9869 24.9134 25.2025C25.1238 25.4181 25.2871 25.6752 25.3926 25.9573C25.4982 26.2395 25.5438 26.5405 25.5266 26.8412V32.5654C25.5344 32.8704 25.4798 33.1738 25.3659 33.4569C25.252 33.74 25.0812 33.9968 24.8643 34.2115C24.6474 34.4262 24.3889 34.5942 24.1046 34.7053C23.8203 34.8164 23.5162 34.8681 23.2111 34.8573L18.1887 34.7903ZM18.1887 25.9021H13.278C12.7075 25.9021 12.4502 26.1369 12.4502 26.7071V32.476C12.4308 32.5919 12.4394 32.7109 12.4752 32.8228C12.5111 32.9348 12.5731 33.0366 12.6563 33.1197C12.7395 33.2028 12.8412 33.2649 12.9533 33.3007C13.0653 33.3366 13.1844 33.3451 13.3004 33.3257H23.0433C23.6362 33.3257 23.9047 33.0685 23.9047 32.4872C23.9047 30.5754 23.9047 28.6636 23.9047 26.763C23.9047 26.1593 23.6138 25.9021 23.0209 25.9021H18.1887Z" fill="#124F2E"/>
<path d="M25.9965 44.1813H11.7231C11.052 44.1813 10.6828 43.9354 10.694 43.477C10.7052 43.0186 11.0743 42.7615 11.7231 42.7615H40.3256C41.008 42.7615 41.3548 42.9963 41.3548 43.4658C41.3548 43.9354 40.9744 44.1813 40.3256 44.1813H25.9965Z" fill="#124F2E"/>
<path d="M26.108 38.2229H40.3366C41.0413 38.2229 41.3769 38.4465 41.3769 38.9049C41.3769 39.3632 41.0078 39.6204 40.3478 39.6204H11.6781C11.0405 39.6204 10.6937 39.3745 10.6937 38.9272C10.6937 38.48 11.0517 38.2229 11.6781 38.2229H26.108Z" fill="#124F2E"/>
<path d="M35.18 35.048H29.9226C29.3633 35.048 29.0613 34.8132 29.0613 34.3772C29.0613 33.9412 29.3857 33.6729 29.9114 33.6729H40.5045C41.0414 33.6729 41.3659 33.9412 41.3547 34.366C41.3435 34.7909 40.9967 35.048 40.4821 35.048H35.18Z" fill="#124F2E"/>
<path d="M15.1115 18.6466C14.8654 18.6466 14.6193 18.6466 14.3844 18.6466C14.2005 18.6555 14.0205 18.591 13.8841 18.4673C13.7478 18.3436 13.6662 18.1708 13.6573 17.987C13.6484 17.8031 13.713 17.6233 13.8367 17.487C13.9605 17.3507 14.1333 17.2692 14.3172 17.2603C14.8574 17.2267 15.3992 17.2267 15.9393 17.2603C16.0265 17.2631 16.1122 17.2834 16.1914 17.3201C16.2705 17.3568 16.3414 17.409 16.3999 17.4737C16.4583 17.5385 16.5032 17.6143 16.5316 17.6967C16.5601 17.7791 16.5717 17.8664 16.5656 17.9534C16.5688 18.1276 16.504 18.2962 16.385 18.4234C16.266 18.5507 16.1022 18.6267 15.9281 18.6354C15.6562 18.6522 15.3835 18.6522 15.1115 18.6354V18.6466Z" fill="#124F2E"/>
<path d="M18.5007 18.6466C18.2546 18.6466 18.0086 18.6466 17.7625 18.6466C17.6729 18.6496 17.5835 18.6349 17.4996 18.6033C17.4156 18.5718 17.3387 18.524 17.2733 18.4628C17.2078 18.4015 17.1552 18.3279 17.1182 18.2463C17.0812 18.1647 17.0607 18.0765 17.0578 17.987C17.0502 17.897 17.0608 17.8065 17.089 17.7208C17.1172 17.6351 17.1624 17.5559 17.222 17.4881C17.2815 17.4202 17.354 17.3651 17.4354 17.3259C17.5167 17.2868 17.6052 17.2645 17.6954 17.2603C18.2392 17.2267 18.7846 17.2267 19.3285 17.2603C19.5025 17.2718 19.6653 17.3506 19.7822 17.48C19.8992 17.6094 19.9611 17.7792 19.955 17.9534C19.9553 18.1268 19.8896 18.2938 19.7712 18.4205C19.6527 18.5472 19.4905 18.6241 19.3174 18.6354C19.0455 18.6522 18.7727 18.6522 18.5007 18.6354V18.6466Z" fill="#124F2E"/>
<path d="M30.1127 30.4979C29.9897 30.4979 29.8779 30.4979 29.766 30.4979C29.6764 30.5009 29.5871 30.4862 29.5031 30.4546C29.4192 30.4231 29.3423 30.3753 29.2769 30.3141C29.2114 30.2528 29.1586 30.1792 29.1216 30.0976C29.0846 30.016 29.0642 29.9278 29.0613 29.8383C29.0612 29.6493 29.1347 29.4678 29.2662 29.3322C29.3978 29.1965 29.5771 29.1174 29.766 29.1116C30.0121 29.1116 30.2582 29.1116 30.5043 29.1116C30.6847 29.114 30.8576 29.1845 30.9882 29.3089C31.1189 29.4333 31.1978 29.6024 31.209 29.7824C31.2034 29.9704 31.1261 30.1491 30.993 30.2821C30.86 30.4151 30.6812 30.4923 30.4931 30.4979C30.3701 30.5091 30.2357 30.4979 30.1127 30.4979Z" fill="#124F2E"/>
<path d="M46.6448 12.9336C46.5441 13.0901 46.4882 13.2019 46.4099 13.3025L45.5934 14.4205C45.3567 14.7216 45.2135 15.0854 45.1817 15.467C45.1499 15.8486 45.2308 16.2311 45.4144 16.5671C45.4927 16.7348 45.5597 16.9137 45.6268 17.0814C45.7337 17.3963 45.9284 17.6742 46.188 17.8822C46.4477 18.0902 46.7614 18.2196 47.0923 18.2553C47.5621 18.3112 48.0319 18.4342 48.5017 18.4901C48.9715 18.546 48.938 18.6913 48.9268 19.0044C48.9046 19.2909 48.9046 19.5787 48.9268 19.8652C48.9268 20.2453 48.7589 20.3572 48.4233 20.4019C47.92 20.469 47.4054 20.5696 46.9021 20.659H46.6896C46.3855 20.8161 46.1153 21.0315 45.8945 21.2929C45.6737 21.5544 45.5066 21.8567 45.4028 22.1827C45.2989 22.5087 45.2603 22.852 45.2891 23.1929C45.318 23.5338 45.4138 23.8657 45.571 24.1696C45.8842 24.6168 46.2198 25.0528 46.5554 25.4888C46.6023 25.5276 46.64 25.5763 46.666 25.6314C46.6919 25.6865 46.7053 25.7466 46.7053 25.8074C46.7053 25.8683 46.6919 25.9284 46.666 25.9835C46.64 26.0386 46.6023 26.0873 46.5554 26.1261C46.3093 26.3497 46.0855 26.5844 45.8506 26.8192C45.8139 26.8637 45.7678 26.8996 45.7156 26.9242C45.6634 26.9488 45.6063 26.9615 45.5486 26.9615C45.4909 26.9615 45.4338 26.9488 45.3816 26.9242C45.3294 26.8996 45.2833 26.8637 45.2465 26.8192C44.8662 26.5174 44.4635 26.2379 44.1279 25.936C43.8349 25.6793 43.4677 25.5225 43.0795 25.4883C42.6914 25.4541 42.3025 25.5444 41.9691 25.746C41.8248 25.8171 41.6752 25.8769 41.5217 25.9248C41.1936 26.0359 40.9048 26.2398 40.6904 26.5117C40.4759 26.7835 40.345 27.1117 40.3135 27.4565C40.2464 27.9037 40.1905 28.3397 40.1122 28.7757C40.1122 28.8875 40.1121 29.0441 40.0338 29.1112C39.6311 29.4801 39.139 29.2453 38.6916 29.2677C38.5685 29.2677 38.3448 29.0664 38.3113 28.9211C38.1882 28.4403 38.1323 27.9372 38.054 27.4453C37.9978 27.0994 37.8585 26.7722 37.6481 26.4919C37.4377 26.2115 37.1624 25.9862 36.8459 25.8354C36.3457 25.5181 35.7506 25.3847 35.1628 25.4581C34.5749 25.5316 34.0309 25.8073 33.6243 26.2379C32.6399 27.054 32.8413 27.0316 31.924 26.1149C31.4877 25.69 31.4878 25.6342 31.8458 25.1534L32.6959 24.0354C32.9111 23.7538 33.0394 23.4155 33.0653 23.062C33.0911 22.7086 33.0133 22.3553 32.8413 22.0454C32.7861 21.9289 32.7376 21.8095 32.6959 21.6876C32.5926 21.3101 32.3725 20.9749 32.0671 20.7299C31.7617 20.485 31.3867 20.3428 30.9956 20.3236C30.5539 20.2742 30.1163 20.192 29.6868 20.0777C29.6062 20.043 29.5344 19.991 29.4764 19.9253C29.4184 19.8595 29.3756 19.7818 29.3513 19.6975C29.3269 19.3253 29.3269 18.9518 29.3513 18.5795C29.3449 18.5304 29.3491 18.4805 29.3636 18.4331C29.3781 18.3858 29.4027 18.3421 29.4356 18.305C29.4684 18.2679 29.5088 18.2383 29.5541 18.2182C29.5994 18.198 29.6484 18.1878 29.698 18.1882C30.1566 18.1211 30.6042 18.0429 31.0628 17.9534C31.3175 17.9169 31.5658 17.8454 31.801 17.741C32.374 17.3532 32.779 16.763 32.9346 16.089C33.0902 15.415 32.9849 14.7071 32.6399 14.1075C32.3715 13.7497 32.1142 13.392 31.8346 13.0454C31.7809 13.0025 31.7376 12.948 31.7078 12.8861C31.6781 12.8242 31.6626 12.7563 31.6626 12.6876C31.6626 12.6189 31.6781 12.5511 31.7078 12.4892C31.7376 12.4273 31.7809 12.3728 31.8346 12.3299C32.0807 12.1175 32.3156 11.8715 32.5393 11.6367C32.5707 11.5971 32.6107 11.5652 32.6562 11.5432C32.7017 11.5212 32.7516 11.5098 32.8021 11.5098C32.8527 11.5098 32.9026 11.5212 32.9481 11.5432C32.9936 11.5652 33.0336 11.5971 33.065 11.6367C33.4789 11.9721 33.904 12.2851 34.3402 12.5982C34.6247 12.8337 34.9747 12.9762 35.3429 13.0062C35.7111 13.0362 36.0795 12.9523 36.3984 12.7659L36.913 12.5535C37.2116 12.4519 37.4752 12.2677 37.6732 12.0223C37.8712 11.7769 37.9955 11.4803 38.0316 11.1671C38.1099 10.6529 38.1882 10.1498 38.2441 9.63547C38.2441 9.35597 38.4119 9.26655 38.6692 9.26655C40.224 9.26655 39.8996 9.0653 40.1681 10.5187C40.2352 10.8317 40.2688 11.1448 40.3471 11.4466C40.4177 11.7305 40.5565 11.9929 40.7514 12.211C40.9463 12.4292 41.1915 12.5966 41.4657 12.6988C42.1145 12.9671 42.7633 13.3696 43.4792 13.0454C43.9359 12.8083 44.3638 12.5194 44.7544 12.1845C45.5934 11.5473 45.4591 11.4578 46.2645 12.2851C46.3316 12.5199 46.477 12.7324 46.6448 12.9336ZM43.7813 19.2615C43.7835 18.3439 43.5134 17.4462 43.0051 16.6819C42.4969 15.9177 41.7733 15.3213 40.9259 14.9681C40.0785 14.6149 39.1453 14.5208 38.2444 14.6976C37.3435 14.8745 36.5153 15.3143 35.8645 15.9617C35.2137 16.609 34.7695 17.4346 34.5882 18.3342C34.4069 19.2338 34.4967 20.1669 34.846 21.0155C35.1953 21.8642 35.7885 22.5903 36.5506 23.1019C37.3128 23.6136 38.2097 23.8878 39.1278 23.8901C40.3572 23.8871 41.5358 23.3993 42.4072 22.5325C43.2786 21.6657 43.7724 20.4902 43.7813 19.2615Z" fill="#43B02A"/>
<path d="M18.2776 25.9026H23.1099C23.7028 25.9026 23.9825 26.1597 23.9936 26.7634C23.9936 28.6641 23.9936 30.5758 23.9936 32.4876C23.9936 33.069 23.7252 33.3261 23.1323 33.3261H13.3893C13.2733 33.3456 13.1544 33.337 13.0424 33.3012C12.9303 33.2654 12.8284 33.2033 12.7452 33.1202C12.6621 33.037 12.6 32.9353 12.5642 32.8233C12.5283 32.7113 12.5198 32.5924 12.5392 32.4764V26.7076C12.5392 26.1374 12.7965 25.9026 13.367 25.9026H18.2776Z" fill="#43B02A"/>
<path d="M43.7821 19.2613C43.7821 20.179 43.5098 21.076 42.9997 21.839C42.4896 22.602 41.7646 23.1967 40.9164 23.5479C40.0681 23.899 39.1347 23.9909 38.2342 23.8119C37.3337 23.6329 36.5065 23.191 35.8573 22.5421C35.2081 21.8932 34.766 21.0665 34.5869 20.1665C34.4077 19.2665 34.4997 18.3336 34.8511 17.4858C35.2024 16.638 35.7974 15.9133 36.5608 15.4035C37.3242 14.8937 38.2218 14.6216 39.1399 14.6216C40.3684 14.6304 41.544 15.122 42.4127 15.9903C43.2814 16.8585 43.7733 18.0335 43.7821 19.2613ZM42.2943 19.2613C42.2943 18.4222 41.9608 17.6174 41.3671 17.0241C40.7735 16.4307 39.9683 16.0974 39.1287 16.0974C38.2891 16.0974 37.484 16.4307 36.8903 17.0241C36.2966 17.6174 35.9631 18.4222 35.9631 19.2613C35.9631 20.1005 36.2966 20.9052 36.8903 21.4986C37.484 22.0919 38.2891 22.4253 39.1287 22.4253C39.9683 22.4253 40.7735 22.0919 41.3671 21.4986C41.9608 20.9052 42.2943 20.1005 42.2943 19.2613Z" fill="#124F2E"/>
</svg>
