<svg width="55" height="55" viewBox="0 0 55 55" fill="none" xmlns="http://www.w3.org/2000/svg">
<path d="M45.8449 7.85669C46.1629 7.93933 46.4603 8.08677 46.7186 8.28975C46.9769 8.49274 47.1906 8.7469 47.3459 9.03627C47.5013 9.32564 47.5951 9.64398 47.6216 9.97132C47.648 10.2987 47.6065 10.6279 47.4996 10.9385C47.0794 12.9235 46.2228 14.7902 44.9918 16.4035C44.5763 16.9765 44.1084 17.5095 43.594 17.9958C42.4326 19.1463 41.23 20.2558 40.0274 21.3755C39.9377 21.4449 39.8724 21.5411 39.841 21.65C39.8096 21.759 39.8138 21.8751 39.8528 21.9816C40.0686 22.8753 40.2433 23.7896 40.4283 24.6936L40.5516 24.7963C40.7469 24.56 40.9217 24.3032 41.1375 24.0875C41.3018 23.9222 41.4972 23.7911 41.7124 23.7016C41.9276 23.6122 42.1584 23.5661 42.3914 23.5661C42.6245 23.5661 42.8553 23.6122 43.0705 23.7016C43.2857 23.7911 43.481 23.9222 43.6453 24.0875C43.8098 24.2313 43.9538 24.3957 44.1079 24.5498C44.2827 24.7149 44.4219 24.914 44.5171 25.1348C44.6122 25.3555 44.6614 25.5934 44.6614 25.8339C44.6614 26.0743 44.6122 26.3121 44.5171 26.5329C44.4219 26.7537 44.2827 26.9528 44.1079 27.1179C43.3371 27.9089 42.5456 28.6896 41.7542 29.4704C41.6708 29.5356 41.6087 29.6242 41.5758 29.7248C41.5429 29.8253 41.5405 29.9335 41.5691 30.0354C41.785 30.9188 41.9598 31.8125 42.1756 32.7884L42.8539 32.1207C43.0218 31.9271 43.2293 31.7718 43.4625 31.6653C43.6957 31.5589 43.9492 31.5038 44.2055 31.5038C44.4619 31.5038 44.7152 31.5589 44.9484 31.6653C45.1816 31.7718 45.3892 31.9271 45.5571 32.1207C45.8134 32.3064 46.0276 32.5444 46.1853 32.8188C46.3429 33.0933 46.4406 33.398 46.4718 33.713C46.4787 33.978 46.4292 34.2415 46.3264 34.4859C46.2236 34.7303 46.07 34.9501 45.8757 35.1306C45.0843 35.9216 44.2928 36.7229 43.4809 37.5036C43.395 37.5782 43.3327 37.6763 43.3017 37.7858C43.2707 37.8952 43.2723 38.0114 43.3062 38.1199C43.5221 39.0753 43.7173 40.0307 43.9229 40.986C44.0892 41.7075 43.9945 42.4644 43.6556 43.1227C43.2959 43.8213 42.9362 44.5198 42.6278 45.1773C42.478 45.5097 42.2331 45.7905 41.9241 45.9842C41.615 46.178 41.2556 46.2761 40.8909 46.2662C40.5262 46.2563 40.1726 46.1389 39.8745 45.9287C39.5764 45.7185 39.3471 45.4249 39.2155 45.0848C36.9064 39.8252 34.587 34.5656 32.2573 29.306L32.0619 28.8848L28.3721 32.357L23.3872 37.0516C23.2629 37.1546 23.1645 37.2856 23.1002 37.4337C23.0359 37.5818 23.0075 37.743 23.0172 37.9042C23.0789 38.9829 23.1199 40.0615 23.1816 41.1401C23.2441 42.3596 22.9282 43.5687 22.2771 44.602C21.9071 45.2389 21.5063 45.8553 21.1157 46.4716C20.9909 46.6628 20.8159 46.8159 20.6097 46.9142C20.4035 47.0125 20.1743 47.0522 19.9471 47.0288C19.7199 47.0055 19.5035 46.92 19.3217 46.7819C19.1398 46.6437 18.9996 46.4582 18.9163 46.2456L16.542 40.2977C16.542 40.195 16.4495 40.0923 16.3878 39.9279L14.8667 41.4483C14.7536 41.5613 14.6509 41.6743 14.5275 41.777C14.4082 41.886 14.2523 41.9465 14.0907 41.9465C13.929 41.9465 13.7732 41.886 13.6539 41.777C13.5976 41.7233 13.5528 41.6587 13.5222 41.5872C13.4916 41.5157 13.4757 41.4388 13.4757 41.361C13.4757 41.2832 13.4916 41.2062 13.5222 41.1347C13.5528 41.0632 13.5976 40.9986 13.6539 40.9449C14.1267 40.4518 14.6097 39.969 15.0927 39.4862C15.2161 39.3732 15.3498 39.2705 15.545 39.1164C15.3395 39.0239 15.2161 38.9623 15.0927 38.9212C13.1707 38.1508 11.2487 37.3701 9.31646 36.6201C9.0679 36.5541 8.84492 36.415 8.67633 36.2208C8.50775 36.0267 8.40141 35.7865 8.37095 35.5312C8.3414 35.2716 8.39508 35.0093 8.52439 34.7822C8.65371 34.5551 8.85193 34.3749 9.09037 34.2677C9.91262 33.7952 10.7143 33.2404 11.5571 32.8295C12.3395 32.4247 13.2161 32.2368 14.0958 32.2851C15.2675 32.2851 16.4393 32.3981 17.611 32.4289C17.849 32.4214 18.076 32.3263 18.2482 32.1618C20.9719 29.306 23.6749 26.4297 26.3884 23.5533C26.4318 23.5064 26.4698 23.4547 26.5015 23.3992L23.7778 22.1973L10.2827 16.2495C9.85904 16.0731 9.51772 15.7433 9.32712 15.3261C9.13652 14.9089 9.11071 14.4352 9.25485 13.9997C9.31665 13.7796 9.42345 13.5746 9.56851 13.3978C9.71358 13.221 9.8937 13.0762 10.0976 12.9725C10.9301 12.5513 11.7524 12.1301 12.5849 11.7295C13.2666 11.434 14.0304 11.3867 14.7433 11.5959L17.3849 12.1815C17.4978 12.2156 17.6185 12.2142 17.7306 12.1774C17.8428 12.1407 17.941 12.0704 18.0118 11.976C18.6902 11.2672 19.4302 10.62 20.0674 9.92149C20.2466 9.65239 20.4896 9.43171 20.7747 9.27907C21.0598 9.12643 21.3782 9.04657 21.7016 9.04657C22.0251 9.04657 22.3435 9.12643 22.6286 9.27907C22.9137 9.43171 23.1566 9.65239 23.3358 9.92149C23.6992 10.2753 23.9188 10.751 23.9525 11.2569C23.965 11.5079 23.9238 11.7587 23.8316 11.9926C23.7395 12.2264 23.5986 12.4379 23.4181 12.6129L22.6574 13.3526C23.6852 13.5786 24.6412 13.7943 25.5971 13.9792C25.6998 13.9792 25.854 13.897 25.9465 13.8046C26.7276 13.0444 27.4985 12.2637 28.2796 11.4829C28.4483 11.2942 28.655 11.1432 28.8861 11.0398C29.1173 10.9364 29.3676 10.883 29.6209 10.883C29.8741 10.883 30.1244 10.9364 30.3556 11.0398C30.5867 11.1432 30.7935 11.2942 30.9622 11.4829C31.0666 11.5771 31.1661 11.6765 31.2603 11.7808C31.4691 11.9524 31.6372 12.168 31.7526 12.4122C31.8681 12.6565 31.9279 12.9232 31.9279 13.1933C31.9279 13.4634 31.8681 13.7302 31.7526 13.9744C31.6372 14.2187 31.4691 14.4343 31.2603 14.6058C31.1164 14.7496 30.9519 14.8832 30.7155 15.0886L32.4422 15.479C32.8926 15.6593 33.3757 15.7432 33.8606 15.7255C34.2614 15.6023 34.5492 15.0886 34.8884 14.7496C35.8134 13.7224 36.7077 12.6951 37.6738 11.7911C39.5891 9.89044 42.0183 8.59073 44.6629 8.05186C44.7226 8.03591 44.7811 8.01531 44.8376 7.99022L45.8449 7.85669ZM20.0366 45.8655C20.5196 45.0643 20.9718 44.3555 21.3932 43.6158C21.7952 42.9373 21.9816 42.1528 21.9277 41.3661C21.8558 40.3388 21.8454 39.2191 21.7632 38.1508C21.7217 37.7682 21.7741 37.3812 21.9155 37.0233C22.057 36.6654 22.2834 36.3472 22.5752 36.0962C29.1224 29.9326 35.6593 23.769 42.227 17.6054C43.5094 16.4146 44.5555 14.9927 45.3104 13.4142C45.8145 12.5063 46.1619 11.52 46.3382 10.4968C46.4718 9.2024 46.0298 8.78123 44.7759 9.08941C42.3521 9.60384 40.1327 10.8183 38.3932 12.5821C31.9866 19.3621 25.5867 26.1489 19.1937 32.9425C18.9998 33.1663 18.7574 33.3427 18.4848 33.4585C18.2123 33.5742 17.9169 33.6261 17.6212 33.6103C16.5934 33.5589 15.6375 33.5075 14.6406 33.4767C14.1417 33.4252 13.6389 33.4252 13.14 33.4767C11.8768 33.8668 10.6934 34.479 9.64542 35.2847L9.76876 35.3669C11.9272 36.2298 14.0855 37.103 16.2542 37.9556C16.3284 37.9703 16.4051 37.9678 16.4781 37.9482C16.5512 37.9286 16.6187 37.8925 16.6756 37.8426C17.3848 37.1543 18.0837 36.4455 18.7312 35.7881C18.82 35.6643 18.9542 35.5807 19.1045 35.5557C19.2548 35.5307 19.4088 35.5662 19.533 35.6545C19.6178 35.7107 19.6873 35.7871 19.7355 35.8767C19.7836 35.9663 19.8087 36.0664 19.8087 36.1681C19.8087 36.2699 19.7836 36.37 19.7355 36.4596C19.6873 36.5492 19.6178 36.6256 19.533 36.6818C18.8649 37.3495 18.2071 38.0172 17.4773 38.6747C17.3716 38.7529 17.2977 38.8667 17.2693 38.9951C17.241 39.1235 17.2601 39.2578 17.3231 39.3732C17.7137 40.2772 18.0631 41.2017 18.4331 42.1263C19.0087 43.3282 19.4918 44.5404 20.0057 45.8553L20.0366 45.8655ZM34.2101 26.8508C33.8607 27.1796 33.5626 27.4878 33.1823 27.7651C33.1377 27.7922 33.0991 27.8281 33.069 27.8707C33.0389 27.9133 33.0179 27.9617 33.0073 28.0127C32.9967 28.0638 32.9966 28.1165 33.0073 28.1676C33.0179 28.2186 33.039 28.267 33.0691 28.3096L38.7941 41.2737C39.2875 42.4037 39.7705 43.5337 40.305 44.6534C40.3648 44.7579 40.4462 44.8485 40.5436 44.9193C40.641 44.9902 40.7524 45.0396 40.8703 45.0643C40.9754 45.057 41.0771 45.0242 41.1667 44.9687C41.2562 44.9132 41.3309 44.8367 41.3842 44.7458C41.7748 44.037 42.1345 43.3179 42.4839 42.5886C42.7248 42.1126 42.7903 41.5671 42.669 41.0477C41.4356 35.3429 40.209 29.6382 38.9893 23.9334C38.8968 23.502 38.7941 23.0808 38.6811 22.5877C37.5505 23.615 36.4918 24.6422 35.4126 25.6695C35.3612 25.7045 35.3173 25.7493 35.2833 25.8013C35.2494 25.8534 35.2259 25.9116 35.2145 25.9726C35.203 26.0337 35.2038 26.0964 35.2166 26.1572C35.2294 26.218 35.2541 26.2757 35.2892 26.3269C36.5911 29.306 37.8931 32.2851 39.195 35.2641L40.305 37.8118C40.3414 37.8844 40.3629 37.9636 40.3681 38.0446C40.3733 38.1257 40.362 38.2069 40.3352 38.2836C40.3084 38.3603 40.2664 38.4308 40.2117 38.4909C40.1571 38.551 40.0909 38.5995 40.0171 38.6336C39.9422 38.6704 39.8604 38.691 39.777 38.6942C39.6936 38.6974 39.6104 38.683 39.5328 38.652C39.4553 38.6211 39.3853 38.5741 39.3271 38.5143C39.2689 38.4545 39.2238 38.3831 39.195 38.3048C39.1531 38.2247 39.1153 38.1424 39.0819 38.0583C37.5197 34.4834 35.9608 30.912 34.4053 27.3439C34.3539 27.1796 34.2718 27.0357 34.1793 26.8406L34.2101 26.8508ZM28.5776 21.2112L27.3957 20.6975L17.2101 16.2495C16.7681 16.0543 16.6139 15.7564 16.7578 15.4071C16.9017 15.0578 17.2615 14.9448 17.7034 15.1297L17.8473 15.1914L29.1532 20.1325C29.2406 20.192 29.3479 20.2146 29.4519 20.1953C29.5558 20.1761 29.648 20.1166 29.7083 20.0298C30.2839 19.3929 30.88 18.7868 31.4658 18.1704L32.8225 16.722C32.7022 16.6774 32.5785 16.6431 32.4525 16.6193L14.3116 12.7157C13.81 12.592 13.2807 12.654 12.8213 12.8903C12.1635 13.2293 11.516 13.5683 10.8582 13.9176C10.5704 14.0614 10.3546 14.2155 10.3546 14.575C10.3546 14.9345 10.6218 15.0681 10.8993 15.1914L26.3165 21.9816C26.6968 22.146 27.1079 22.4541 27.447 22.3925C27.7862 22.3309 28.0124 21.8686 28.2899 21.581L28.5776 21.2112ZM19.1115 12.4999L21.0644 12.9108C21.1593 12.9203 21.2543 12.8947 21.3316 12.8389C21.7565 12.4417 22.1675 12.0308 22.5649 11.6062C22.6629 11.508 22.7179 11.375 22.7179 11.2364C22.7179 11.0978 22.6629 10.9648 22.5649 10.8666C22.4016 10.6708 22.2191 10.4919 22.0202 10.3324C21.9701 10.2772 21.909 10.2332 21.8409 10.203C21.7727 10.1729 21.6991 10.1573 21.6246 10.1573C21.5501 10.1573 21.4763 10.1729 21.4082 10.203C21.34 10.2332 21.279 10.2772 21.2289 10.3324C20.5197 11.0412 19.831 11.7398 19.1218 12.4897L19.1115 12.4999ZM42.9259 36.2914C43.6762 35.5518 44.3854 34.8533 45.074 34.1547C45.1284 34.102 45.1717 34.039 45.2012 33.9692C45.2308 33.8995 45.2459 33.8246 45.2459 33.7489C45.2459 33.6732 45.2308 33.5983 45.2012 33.5286C45.1717 33.4589 45.1284 33.3958 45.074 33.3432C44.924 33.1677 44.7551 33.0093 44.5704 32.8706C44.5184 32.8133 44.4549 32.7675 44.3841 32.7361C44.3133 32.7048 44.2367 32.6886 44.1592 32.6886C44.0818 32.6886 44.0052 32.7048 43.9344 32.7361C43.8636 32.7675 43.8001 32.8133 43.7481 32.8706C43.3781 33.2507 42.9876 33.6102 42.6381 34.0006C42.5902 34.0609 42.5546 34.13 42.5335 34.2041C42.5123 34.2781 42.5059 34.3556 42.5148 34.4321C42.6176 35.0073 42.7614 35.634 42.8951 36.2811L42.9259 36.2914ZM27.2004 14.236L29.1635 14.6675C29.2016 14.6686 29.2395 14.6619 29.2748 14.6477C29.3102 14.6336 29.3423 14.6123 29.369 14.5853C29.7493 14.2155 30.1194 13.8456 30.4894 13.4656C30.5414 13.4157 30.5826 13.3559 30.6108 13.2897C30.639 13.2235 30.6536 13.1523 30.6536 13.0803C30.6536 13.0084 30.639 12.9372 30.6108 12.871C30.5826 12.8048 30.5414 12.745 30.4894 12.6951C30.1914 12.3869 29.9652 11.9144 29.3999 12.0377C29.3365 12.0557 29.2794 12.0913 29.2354 12.1404C28.5468 12.8081 27.8787 13.5067 27.1695 14.2257L27.2004 14.236ZM41.2094 28.289C41.8056 27.6932 42.3503 27.1179 42.9156 26.5837C43.6865 25.8646 43.522 25.6284 42.8539 25.012L42.7614 24.9401C42.7113 24.8815 42.649 24.8345 42.5789 24.8023C42.5088 24.7701 42.4326 24.7534 42.3554 24.7534C42.2783 24.7534 42.2021 24.7701 42.132 24.8023C42.0619 24.8345 41.9996 24.8815 41.9494 24.9401C41.6 25.2894 41.2505 25.6181 40.9216 25.9674C40.8788 26.0182 40.8468 26.0772 40.8274 26.1408C40.808 26.2043 40.8015 26.2711 40.8086 26.3372C40.8908 26.9844 41.0244 27.5905 41.1786 28.2787L41.2094 28.289Z" fill="#124F2E"/>
<path d="M7.8673 24.1079L11.8859 20.1118C11.9688 19.9969 12.0867 19.9118 12.2219 19.8693C12.3571 19.8267 12.5024 19.8289 12.6362 19.8756C12.7329 19.9156 12.8176 19.9799 12.882 20.0622C12.9464 20.1446 12.9884 20.2422 13.004 20.3456C13.0195 20.449 13.008 20.5547 12.9706 20.6523C12.9332 20.7499 12.8711 20.8363 12.7904 20.9028L10.7348 22.9574L9.03889 24.6524C8.55582 25.1249 8.26813 25.1044 7.85701 24.5599L7.8673 24.1079Z" fill="#124F2E"/>
<path d="M35.5667 42.8967C35.4819 43.0781 35.3786 43.2502 35.2584 43.4103L31.4041 47.2626C31.3492 47.3311 31.2796 47.3864 31.2004 47.4245C31.1213 47.4625 31.0346 47.4822 30.9467 47.4822C30.8589 47.4822 30.7722 47.4625 30.6931 47.4245C30.6139 47.3864 30.5443 47.3311 30.4894 47.2626C30.4282 47.2042 30.3806 47.133 30.35 47.0542C30.3195 46.9753 30.3066 46.8907 30.3125 46.8064C30.3184 46.722 30.3428 46.64 30.384 46.5661C30.4253 46.4923 30.4823 46.4285 30.551 46.3791L34.4053 42.5269C34.6006 42.3317 34.837 42.1879 35.094 42.3625C35.2732 42.5202 35.432 42.6996 35.5667 42.8967Z" fill="#124F2E"/>
<path d="M15.0105 28.2274C14.8213 28.0942 14.6518 27.9352 14.5069 27.7548C14.3322 27.498 14.507 27.272 14.6817 27.0768L17.9603 23.7896C18.1556 23.5841 18.3509 23.3787 18.5667 23.1835C18.6198 23.1225 18.6854 23.0736 18.7589 23.0401C18.8325 23.0066 18.9124 22.9893 18.9933 22.9893C19.0742 22.9893 19.1541 23.0066 19.2277 23.0401C19.3013 23.0736 19.3668 23.1225 19.4199 23.1835C19.4824 23.2355 19.5328 23.3007 19.5673 23.3744C19.6019 23.4481 19.6198 23.5284 19.6198 23.6098C19.6198 23.6912 19.6019 23.7715 19.5673 23.8452C19.5328 23.9189 19.4824 23.9841 19.4199 24.0361C18.1146 25.3613 16.7989 26.6659 15.4833 27.9705C15.3359 28.0738 15.1774 28.1599 15.0105 28.2274Z" fill="#124F2E"/>
<path d="M32.4833 36.2913C32.3908 36.4825 32.2807 36.6648 32.1545 36.8357C30.8902 38.1095 29.6157 39.3936 28.3412 40.6571C28.2853 40.7259 28.2148 40.7812 28.1348 40.8193C28.0548 40.8573 27.9673 40.8771 27.8787 40.8771C27.7901 40.8771 27.7027 40.8573 27.6226 40.8193C27.5426 40.7812 27.472 40.7259 27.4161 40.6571C27.3593 40.5955 27.3156 40.5229 27.2878 40.4438C27.26 40.3646 27.2486 40.2807 27.2544 40.197C27.2602 40.1133 27.283 40.0318 27.3214 39.9572C27.3598 39.8827 27.4131 39.8167 27.4779 39.7634L31.3322 35.9112C31.4071 35.8045 31.5185 35.729 31.6453 35.6987C31.7721 35.6684 31.9057 35.6855 32.0208 35.7468C32.1949 35.9105 32.35 36.0931 32.4833 36.2913Z" fill="#124F2E"/>
<path d="M34.1792 26.8405C34.2717 27.0357 34.3539 27.1796 34.4156 27.3336C35.9779 30.9017 37.5368 34.4731 39.0922 38.048C39.1256 38.1321 39.1633 38.2144 39.2052 38.2946C39.2341 38.3729 39.279 38.4442 39.3372 38.504C39.3955 38.5638 39.4656 38.6108 39.5431 38.6418C39.6206 38.6727 39.7038 38.6871 39.7873 38.6839C39.8707 38.6807 39.9525 38.6601 40.0274 38.6233C40.1012 38.5892 40.1674 38.5407 40.222 38.4806C40.2766 38.4205 40.3186 38.35 40.3455 38.2733C40.3723 38.1966 40.3835 38.1154 40.3783 38.0343C40.3731 37.9533 40.3516 37.8741 40.3152 37.8015L39.2052 35.2539C37.9102 32.2748 36.6083 29.2957 35.2995 26.3167C35.2644 26.2654 35.2397 26.2077 35.2269 26.1469C35.214 26.0861 35.2133 26.0234 35.2247 25.9623C35.2362 25.9013 35.2596 25.8431 35.2936 25.791C35.3276 25.739 35.3715 25.6942 35.4228 25.6592C36.502 24.6319 37.5607 23.6047 38.6913 22.5774C38.8044 23.0705 38.9071 23.4917 38.9996 23.9231C40.2261 29.6347 41.4527 35.3395 42.6792 41.0374C42.8006 41.5568 42.735 42.1023 42.4942 42.5783C42.1447 43.3076 41.7851 44.0267 41.3945 44.7355C41.3412 44.8264 41.2665 44.9029 41.1769 44.9584C41.0874 45.0139 40.9857 45.0467 40.8806 45.054C40.7627 45.0293 40.6513 44.9799 40.5539 44.9091C40.4564 44.8382 40.3751 44.7476 40.3152 44.6431C39.7808 43.5234 39.2875 42.3934 38.8044 41.2634L33.0794 28.2993C33.0493 28.2567 33.0282 28.2084 33.0176 28.1573C33.0069 28.1063 33.0069 28.0536 33.0176 28.0025C33.0282 27.9514 33.0492 27.903 33.0793 27.8604C33.1094 27.8178 33.1478 27.7819 33.1925 27.7548C33.5111 27.4775 33.8298 27.1693 34.1792 26.8405Z" fill="#43B02A"/>
<path d="M28.5469 21.2008L28.2282 21.5398C27.9507 21.8275 27.704 22.2897 27.3854 22.3514C27.0668 22.413 26.635 22.1048 26.2547 21.9405L10.8376 15.1502C10.5601 15.0269 10.2929 14.9037 10.2929 14.5339C10.2929 14.1641 10.5088 14.0202 10.7966 13.8764C11.4544 13.558 12.1019 13.219 12.7597 12.8491C13.2191 12.6129 13.7484 12.5508 14.25 12.6745L32.3909 16.5781C32.5169 16.6019 32.6406 16.6363 32.7609 16.6809L31.4555 18.1601C30.8697 18.7765 30.2736 19.3826 29.698 20.0195C29.6377 20.1063 29.5455 20.1658 29.4415 20.185C29.3376 20.2043 29.2303 20.1817 29.1429 20.1222L17.837 15.181L17.6931 15.1194C17.2512 14.9345 16.8914 15.0372 16.7475 15.3968C16.6036 15.7563 16.7476 16.0439 17.1998 16.2391L27.3854 20.6872L28.5469 21.2008Z" fill="#43B02A"/>
<path d="M19.1218 12.4898C19.8721 11.7399 20.5607 11.0413 21.2596 10.3633C21.3097 10.3082 21.3708 10.2641 21.439 10.234C21.5071 10.2038 21.5808 10.1882 21.6553 10.1882C21.7298 10.1882 21.8036 10.2038 21.8717 10.234C21.9399 10.2641 22.0009 10.3082 22.051 10.3633C22.2499 10.5228 22.4324 10.7018 22.5958 10.8975C22.6937 10.9957 22.7487 11.1287 22.7487 11.2673C22.7487 11.406 22.6937 11.539 22.5958 11.6372C22.1983 12.0549 21.7873 12.4658 21.3624 12.8699C21.2851 12.9256 21.1901 12.9512 21.0952 12.9418L19.1218 12.4898Z" fill="white"/>
<path d="M42.8949 36.2813C42.7613 35.6341 42.6174 35.0486 42.5044 34.4527C42.4955 34.3763 42.5019 34.2988 42.5231 34.2247C42.5442 34.1507 42.5798 34.0816 42.6277 34.0213C42.9772 33.6309 43.3677 33.2714 43.7377 32.8913C43.7897 32.834 43.8532 32.7881 43.924 32.7568C43.9948 32.7254 44.0714 32.7092 44.1488 32.7092C44.2263 32.7092 44.3029 32.7254 44.3737 32.7568C44.4445 32.7881 44.508 32.834 44.56 32.8913C44.7447 33.0299 44.9135 33.1884 45.0636 33.3638C45.118 33.4165 45.1613 33.4796 45.1908 33.5493C45.2204 33.619 45.2355 33.6939 45.2355 33.7696C45.2355 33.8453 45.2204 33.9203 45.1908 33.99C45.1613 34.0597 45.118 34.1227 45.0636 34.1754C44.3544 34.8431 43.6452 35.5416 42.8949 36.2813Z" fill="white"/>
<path d="M27.1695 14.2257C27.8787 13.5066 28.5468 12.808 29.2251 12.1711C29.2692 12.1221 29.3262 12.0865 29.3896 12.0684C29.9549 11.9451 30.1811 12.4177 30.4792 12.7259C30.5311 12.7757 30.5724 12.8355 30.6006 12.9017C30.6288 12.9679 30.6433 13.0391 30.6433 13.1111C30.6433 13.183 30.6288 13.2543 30.6006 13.3204C30.5724 13.3866 30.5311 13.4465 30.4792 13.4963C30.1092 13.8764 29.7391 14.2462 29.3588 14.616C29.332 14.6431 29.2999 14.6644 29.2645 14.6785C29.2292 14.6926 29.1913 14.6993 29.1533 14.6982L27.1695 14.2257Z" fill="white"/>
<path d="M41.1784 28.2788C41.0242 27.5905 40.8906 26.9844 40.7775 26.368C40.7705 26.302 40.7769 26.2351 40.7964 26.1716C40.8158 26.108 40.8479 26.0491 40.8907 25.9982C41.2196 25.6387 41.5691 25.3099 41.9185 24.9709C41.9687 24.9124 42.0309 24.8654 42.1009 24.8331C42.171 24.8009 42.2473 24.7842 42.3244 24.7842C42.4015 24.7842 42.4778 24.8009 42.5479 24.8331C42.6179 24.8654 42.6802 24.9124 42.7304 24.9709L42.823 25.0429C43.4911 25.6592 43.6555 25.8955 42.8846 26.6146C42.3193 27.1076 41.7334 27.6829 41.1784 28.2788Z" fill="white"/>
<path d="M40.1919 12.5308C40.8623 12.5984 41.4904 12.8894 41.9752 13.3572C42.4599 13.8249 42.773 14.442 42.8642 15.1092C42.8771 15.2018 42.8714 15.2961 42.8472 15.3864C42.8229 15.4768 42.7808 15.5613 42.7233 15.6351C42.6658 15.7089 42.5941 15.7704 42.5124 15.8159C42.4307 15.8614 42.3406 15.8901 42.2476 15.9002C41.8981 15.9002 41.6823 15.6845 41.6309 15.2325C41.6023 14.8691 41.4483 14.527 41.1952 14.2647C40.942 14.0023 40.6056 13.8361 40.2434 13.7943C40.0686 13.7943 39.8321 13.7943 39.7499 13.6402C39.6083 13.4392 39.5362 13.1976 39.5444 12.9519C39.5855 12.6129 39.8939 12.5513 40.1919 12.5308Z" fill="#124F2E"/>
</svg>
