<svg width="55" height="55" viewBox="0 0 55 55" fill="none" xmlns="http://www.w3.org/2000/svg">
<path d="M21.0011 25.2841V24.676C21.0011 20.1104 21.0011 15.5555 21.0011 11.0006C20.9963 10.839 21.0262 10.6783 21.0888 10.5292C21.1514 10.3802 21.2452 10.2463 21.364 10.1366C22.5273 8.96315 23.6694 7.75772 24.8541 6.60565C25.0646 6.41199 25.3367 6.29869 25.6225 6.28564C32.3037 6.28564 38.9957 6.28564 45.677 6.28564C46.296 6.28564 46.4133 6.39232 46.4133 7.02169V25.2734H46.883H49.9781C50.4477 25.2734 50.6292 25.4548 50.6292 25.9135C50.6292 32.1787 50.6292 38.4404 50.6292 44.6986C50.6193 44.9253 50.5283 45.141 50.373 45.3066C49.1989 46.5084 48.0072 47.7032 46.7976 48.8908C46.6126 49.0491 46.3792 49.1394 46.1358 49.1468H5.37595C4.86365 49.1468 4.71423 48.9975 4.71423 48.4641C4.71423 42.2415 4.71423 36.0154 4.71423 29.7857C4.72595 29.5259 4.83213 29.2793 5.01298 29.0923C6.15498 27.9082 7.32904 26.7348 8.51373 25.5828C8.72906 25.3915 9.00485 25.2819 9.29284 25.2734C12.9963 25.2734 16.6892 25.2734 20.3927 25.2734L21.0011 25.2841ZM5.8455 30.2764V48.0161H12.2493C12.2493 46.5227 12.2493 45.0719 12.2493 43.6212C12.2578 43.4997 12.294 43.3818 12.3551 43.2764C12.4161 43.1711 12.5004 43.081 12.6016 43.0131C12.846 42.9809 13.0936 43.0419 13.2952 43.1838C13.4446 43.2585 13.53 43.4612 13.6047 43.5572C13.989 43.3011 14.2985 42.9384 14.5974 42.9491C14.8962 42.9598 15.2271 43.3011 15.5152 43.4825C15.8034 43.3011 16.1129 42.9384 16.4117 42.9491C16.7106 42.9598 17.0415 43.3118 17.4044 43.5465C17.4603 43.4682 17.5208 43.3935 17.5857 43.3225C17.8099 43.0878 18.0233 42.8211 18.4182 42.9705C18.8131 43.1198 18.7918 43.4931 18.7918 43.8452V48.0268H25.2169V37.6262C25.2169 37.4875 25.2169 37.3061 25.2169 37.2101C25.3391 36.9999 25.5264 36.8352 25.7506 36.7407C26.0601 36.6661 26.2736 36.8901 26.3162 37.2101C26.3269 37.3379 26.3269 37.4664 26.3162 37.5941V48.0268H32.784V47.6641C32.784 46.3307 32.784 44.9866 32.784 43.6425C32.784 43.3331 32.784 43.0238 33.1575 42.9811C33.4069 42.9903 33.6466 43.0802 33.8406 43.2372C33.9687 43.3225 34.022 43.5252 34.0967 43.6638C35.0893 42.7571 35.0894 42.7571 36.0072 43.5358C36.9144 42.7998 36.9144 42.7998 37.8857 43.5998C37.9497 43.4954 38.021 43.3955 38.0991 43.3012C38.3125 43.0771 38.5154 42.8211 38.889 42.9705C39.2626 43.1198 39.2625 43.4185 39.2625 43.7492C39.2625 45.0079 39.2625 46.2773 39.2625 47.5361V48.0268H45.6022V30.255H39.4439V32.9965C39.4439 33.6153 39.2731 33.7752 38.6755 33.7752H33.339C32.7093 33.7752 32.5599 33.6259 32.5599 33.0072V30.255H26.2949C26.2949 30.3724 26.2949 30.4684 26.2949 30.5537V33.4552C26.3065 33.5336 26.3002 33.6136 26.2764 33.6892C26.2526 33.7647 26.2119 33.8339 26.1574 33.8914C26.1029 33.949 26.0361 33.9934 25.9619 34.0213C25.8877 34.0492 25.8081 34.0599 25.7292 34.0526C25.3556 34.0526 25.1742 33.8286 25.1635 33.4552V30.255H18.8878V32.9645C18.8878 33.5939 18.7064 33.7752 18.0873 33.7752H12.7509C12.1318 33.7752 11.9504 33.5939 11.9504 32.9645V30.255L5.8455 30.2764ZM22.1431 29.103H28.5469V28.7616C28.5469 27.3536 28.5469 25.9455 28.5469 24.4947C28.5513 24.3777 28.5836 24.2634 28.6412 24.1613C28.6987 24.0593 28.7799 23.9724 28.8778 23.908C29.0485 23.8333 29.3367 23.908 29.5288 24.0787C29.7209 24.2494 29.7742 24.388 29.881 24.548C30.8309 23.6733 30.8308 23.6733 31.7167 24.4307C32.0369 24.2174 32.3464 23.8653 32.6559 23.876C32.9654 23.8867 33.2857 24.228 33.6272 24.4414L33.8513 24.1854C34.0754 23.9507 34.2995 23.7267 34.6624 23.876C35.0253 24.0253 35.004 24.324 35.004 24.6334C35.004 25.9455 35.004 27.2576 35.004 28.5696V29.0496H41.4078V11.2673H35.1535V13.9234C35.1535 14.5848 35.0361 14.7022 34.353 14.7022H29.1019C28.4188 14.7022 28.3121 14.5955 28.3121 13.9234V11.2673H22.0471L22.1431 29.103ZM49.4978 27.3855L49.327 27.2469C48.5799 28.0362 47.8435 28.8363 47.0751 29.615C46.9756 29.7075 46.8966 29.8199 46.8433 29.9449C46.79 30.0698 46.7634 30.2045 46.7655 30.3404C46.7655 35.8091 46.7655 41.2744 46.7655 46.736V47.1307L46.9149 47.2267C47.63 46.4693 48.3451 45.7119 49.0495 44.9759C49.1869 44.8553 49.2955 44.7056 49.3676 44.5376C49.4396 44.3697 49.4731 44.1878 49.4658 44.0052C49.4658 39.5249 49.4658 35.0447 49.4658 30.5644L49.4978 27.3855ZM45.2287 8.2911V8.39778L42.87 10.5312C42.7583 10.6261 42.6709 10.7462 42.6151 10.8817C42.5594 11.0172 42.537 11.164 42.5497 11.3099C42.5497 16.7502 42.5497 22.1941 42.5497 27.6415V28.1216L42.4858 28.0043L44.8658 25.8708C44.9742 25.7738 45.0586 25.653 45.1123 25.5179C45.166 25.3827 45.1875 25.237 45.1752 25.0921C45.1752 19.6518 45.1752 14.2114 45.1752 8.76046L45.2287 8.2911ZM33.1575 10.0619H33.339H41.4825C41.6646 10.0484 41.8354 9.96866 41.9627 9.83784C42.7098 9.11246 43.4463 8.36577 44.1827 7.61906C44.2524 7.53437 44.3165 7.44529 44.3748 7.35237H36.1139C35.9671 7.35234 35.8244 7.40113 35.7084 7.49105C34.9186 8.36577 34.0968 9.18716 33.2109 10.0619H33.1575ZM17.8099 26.5322L17.7352 26.4148H9.49569C9.39051 26.4054 9.2852 26.4317 9.19682 26.4895C8.33231 27.3429 7.48911 28.1963 6.6246 29.071L6.74199 29.1243H14.9389C15.0626 29.1244 15.1828 29.083 15.2803 29.007L17.8099 26.5322ZM34.2462 7.39505H33.7553C31.6207 7.39505 29.4221 7.45906 27.2555 7.39505C26.7532 7.32715 26.242 7.39641 25.776 7.59549C25.3099 7.79457 24.9066 8.11604 24.6086 8.52578C24.1515 9.07592 23.6596 9.59612 23.1357 10.0832H23.2745H31.3752C31.5259 10.0742 31.669 10.014 31.7808 9.91252C32.5492 9.1338 33.371 8.31244 34.2996 7.39505H34.2462ZM32.688 25.3161C31.8128 26.0095 31.8128 26.0095 30.8309 25.3161C30.4893 25.5934 30.2758 26.1055 29.6995 25.9135V29.1136H33.862V25.9135C33.307 26.1268 33.1043 25.5614 32.7414 25.3161H32.688ZM17.5537 44.9119C16.9026 45.1786 16.6892 44.5706 16.3797 44.3999C16.0168 44.6132 15.6967 44.9439 15.3872 44.9439C15.0777 44.9439 14.7894 44.5919 14.5333 44.4319L13.2952 45.1359V48.0161H17.5644L17.5537 44.9119ZM36.8825 44.4532C36.573 44.6239 36.2528 44.9546 35.9433 44.9439C35.6337 44.9332 35.3455 44.5919 35.1001 44.4319L33.9154 45.1466V48.0161H38.0885V45.1893L36.8825 44.4532ZM13.0925 32.6659H17.7458V30.255H13.1031L13.0925 32.6659ZM38.2699 30.287H33.7553V32.6659H38.2913L38.2699 30.287ZM29.4968 13.5501H34.0328V11.2566H29.4968V13.5501ZM20.9584 26.4148H20.0726C19.8698 26.4148 19.5816 26.4148 19.4642 26.5108C18.589 27.3322 17.7459 28.1963 16.8173 29.135H20.9477L20.9584 26.4148ZM43.4676 29.1883H43.9159C44.6059 29.2793 45.3063 29.2504 45.9864 29.103C46.5734 28.8576 46.9897 28.1962 47.47 27.7055C47.9502 27.2149 48.2384 26.9269 48.708 26.4682H46.1999C46.0791 26.4793 45.9659 26.5321 45.8797 26.6175C45.0686 27.4175 44.2574 28.2816 43.4676 29.1883Z" fill="#124F2E"/>
<path d="M49.4981 27.3854V30.5856C49.4981 35.0658 49.4981 39.5461 49.4981 44.0264C49.5055 44.2089 49.4719 44.3908 49.3999 44.5588C49.3279 44.7267 49.2192 44.8765 49.0819 44.9971C48.3454 45.7331 47.6303 46.4905 46.9473 47.2479L46.7978 47.1519V46.7572C46.7978 41.2955 46.7978 35.8303 46.7978 30.3616C46.7958 30.2258 46.8223 30.091 46.8756 29.966C46.9289 29.8411 47.0079 29.7287 47.1074 29.6362C47.8759 28.8575 48.6123 28.0574 49.3594 27.2681L49.4981 27.3854Z" fill="#43B02A"/>
<path d="M45.2819 8.29102V8.73902C45.2819 14.19 45.2819 19.6304 45.2819 25.0707C45.2942 25.2156 45.2725 25.3613 45.2188 25.4965C45.1651 25.6316 45.0807 25.7524 44.9723 25.8494L42.5923 27.9828L42.6563 28.1002V27.6521C42.6563 22.2047 42.6563 16.7608 42.6563 11.3205C42.6436 11.1746 42.6661 11.0278 42.7218 10.8923C42.7775 10.7568 42.8648 10.6366 42.9765 10.5418L45.3352 8.40834L45.2819 8.29102Z" fill="#43B02A"/>
<path d="M33.2104 10.0624C34.0963 9.18771 34.9181 8.36631 35.7613 7.54493C35.8773 7.45501 36.02 7.40622 36.1669 7.40625H44.4277C44.3695 7.49916 44.3052 7.58824 44.2355 7.67293C43.4991 8.41964 42.7627 9.16637 42.0156 9.89175C41.8883 10.0226 41.7175 10.1023 41.5354 10.1158H33.3919L33.2104 10.0624Z" fill="#43B02A"/>
<path d="M17.8632 26.5326L15.3337 29.0073C15.2361 29.0834 15.116 29.1247 14.9922 29.1247H6.79537L6.67798 29.0714C7.54249 28.1967 8.38568 27.3433 9.25019 26.4899C9.33857 26.4321 9.44376 26.4058 9.54894 26.4152H17.7458L17.8632 26.5326Z" fill="#43B02A"/>
<path d="M34.2993 7.39536C33.3708 8.31275 32.5489 9.13413 31.7271 9.93418C31.6153 10.0357 31.4722 10.0958 31.3215 10.1048H23.2208H23.082C23.6059 9.61775 24.0978 9.09755 24.5549 8.54741C24.8529 8.13767 25.2562 7.8162 25.7223 7.61712C26.1883 7.41804 26.6995 7.34878 27.2018 7.41668C29.3364 7.50202 31.5349 7.41668 33.7016 7.41668L34.2993 7.39536Z" fill="#43B02A"/>
<path d="M32.741 25.3159C33.1039 25.5612 33.3067 26.1266 33.915 25.9026V29.1028H29.7526V25.9026C30.3289 26.0946 30.5424 25.5825 30.884 25.3052C31.8659 25.9879 31.8659 25.9879 32.741 25.3159Z" fill="white"/>
<path d="M17.6071 44.9118V48.016H13.3379V45.1892L14.576 44.4851C14.8321 44.6451 15.1309 44.9865 15.4297 44.9972C15.7286 45.0078 16.0595 44.6665 16.4224 44.4531C16.7426 44.5705 16.956 45.1892 17.6071 44.9118Z" fill="white"/>
<path d="M36.957 44.4531L38.163 45.1465V48.016H33.9899V45.1892L35.1745 44.4744C35.42 44.6345 35.7082 44.9758 36.0178 44.9865C36.3273 44.9972 36.6261 44.6238 36.957 44.4531Z" fill="white"/>
<path d="M13.1456 32.6657V30.2549H17.7457V32.6337L13.1456 32.6657Z" fill="white"/>
<path d="M38.3232 30.2549V32.6337H33.7551V30.2549H38.3232Z" fill="white"/>
<path d="M29.5497 13.5501V11.2566H34.0857V13.5501H29.5497Z" fill="white"/>
<path d="M20.9475 26.415V29.1885H16.8064C17.7349 28.2498 18.5781 27.3858 19.4533 26.5644C19.5707 26.4471 19.8589 26.4791 20.0617 26.4684L20.9475 26.415Z" fill="#43B02A"/>
<path d="M43.4674 29.1884C44.2572 28.335 45.0684 27.471 45.8795 26.6176C45.9657 26.5322 46.0789 26.4794 46.1997 26.4683H48.6972C48.2276 26.927 47.8433 27.3216 47.4591 27.7056C47.0749 28.0897 46.5625 28.8577 45.9755 29.1031C45.2954 29.2505 44.595 29.2794 43.905 29.1884H43.4674Z" fill="#43B02A"/>
</svg>
