<svg width="108" height="60" viewBox="0 0 108 60" fill="none" xmlns="http://www.w3.org/2000/svg">
<path d="M104.42 44.8599H104.96C105.22 44.8599 105.4 44.8199 105.49 44.7399C105.58 44.6599 105.63 44.5599 105.63 44.4299C105.63 44.3499 105.61 44.2699 105.56 44.2099C105.51 44.1499 105.45 44.0999 105.37 44.0699C105.29 44.0399 105.14 44.0199 104.92 44.0199H104.41V44.8599H104.42ZM103.97 46.4199V43.6499H104.92C105.25 43.6499 105.48 43.6699 105.63 43.7299C105.77 43.7799 105.89 43.8699 105.98 43.9999C106.07 44.1299 106.11 44.2599 106.11 44.4099C106.11 44.6099 106.04 44.7899 105.89 44.9399C105.75 45.0899 105.55 45.1699 105.31 45.1899C105.41 45.2299 105.49 45.2799 105.55 45.3399C105.66 45.4499 105.8 45.6299 105.96 45.8899L106.3 46.4299H105.76L105.51 45.9899C105.32 45.6499 105.16 45.4299 105.04 45.3499C104.96 45.2899 104.84 45.2499 104.68 45.2499H104.42V46.4299H103.97V46.4199ZM105.1 42.8399C104.74 42.8399 104.38 42.9299 104.04 43.1199C103.7 43.2999 103.43 43.5699 103.24 43.9099C103.05 44.2499 102.95 44.6099 102.95 44.9899C102.95 45.3599 103.04 45.7199 103.24 46.0599C103.43 46.3999 103.7 46.6699 104.04 46.8599C104.38 47.0499 104.74 47.1499 105.11 47.1499C105.48 47.1499 105.84 47.0499 106.18 46.8599C106.52 46.6699 106.79 46.3999 106.98 46.0599C107.17 45.7199 107.26 45.3599 107.26 44.9899C107.26 44.6099 107.16 44.2499 106.97 43.9099C106.78 43.5699 106.51 43.2999 106.17 43.1199C105.81 42.9399 105.46 42.8399 105.1 42.8399ZM105.1 42.4199C105.53 42.4199 105.96 42.5299 106.37 42.7499C106.78 42.9699 107.1 43.2899 107.33 43.6999C107.56 44.1099 107.68 44.5399 107.68 44.9899C107.68 45.4299 107.57 45.8599 107.34 46.2699C107.11 46.6799 106.8 46.9999 106.39 47.2299C105.98 47.4599 105.55 47.5699 105.11 47.5699C104.66 47.5699 104.24 47.4599 103.83 47.2299C103.42 46.9999 103.1 46.6899 102.87 46.2699C102.64 45.8599 102.53 45.4299 102.53 44.9899C102.53 44.5399 102.65 44.1099 102.88 43.6999C103.11 43.2899 103.43 42.9699 103.85 42.7499C104.24 42.5299 104.67 42.4199 105.1 42.4199Z" fill="white"/>
<path d="M28.0498 15.96C28.0498 15.96 28.7798 21.2 34.9998 21.2H48.5598V15.96H28.0498Z" fill="white"/>
<path d="M71.9699 8.07996H51.1899V13.33H72.5899C72.6399 11.57 72.5399 9.73996 71.9699 8.07996Z" fill="white"/>
<path d="M14.6001 0.199951C14.6001 0.199951 15.3301 5.44995 21.6001 5.44995H48.5601V0.199951H14.6001Z" fill="white"/>
<path d="M21.2402 8.07996C21.2402 8.07996 21.9702 13.33 28.2402 13.33H48.5602V8.07996H21.2402Z" fill="white"/>
<path d="M70.6699 5.44995C69.0299 2.58995 65.6399 0.199951 60.4699 0.199951H51.1899V5.44995H70.6699Z" fill="white"/>
<path d="M48.5599 40.1499L34.6499 23.83H48.5599V40.1499Z" fill="white"/>
<path d="M75.7399 40.01C75.7399 40.01 65.1199 23.84 65.1299 23.84H51.1899V40.01H75.7399Z" fill="white"/>
<path d="M72.1999 15.96H51.1899V21.2H68.8899C70.9799 19.44 71.8299 17.29 72.1999 15.96Z" fill="white"/>
<path d="M33.3698 57.2899H31.0598V49.7799C31.0598 47.2599 28.2998 47.5699 28.2998 47.5699V59.4699H36.1198C36.1198 59.4799 35.7698 57.2899 33.3698 57.2899Z" fill="white"/>
<path d="M64.1099 49.7799C64.1099 47.2599 61.3599 47.5699 61.3599 47.5699V59.4699H64.1099V49.7799Z" fill="white"/>
<path d="M89.1299 49.7799C89.1299 47.2599 86.3799 47.5699 86.3799 47.5699V59.4699H89.1299V49.7799Z" fill="white"/>
<path d="M72.89 51.0099C72.82 50.7199 72.67 50.3599 72.25 50.0199C71.4 49.3199 68.85 49.1199 68.87 50.6999C68.89 52.3699 72.16 51.5999 74.39 53.2499C75.01 53.7099 75.62 54.5299 75.62 55.8199C75.62 57.2099 74.88 58.1099 74.22 58.6299C73.35 59.3099 72.14 59.6499 70.72 59.6499C67.44 59.6499 65.97 57.8799 65.5 56.1599L68.07 55.7099C68.29 56.3299 69.03 57.6199 70.81 57.5699C72.54 57.5199 72.76 56.6499 72.75 56.2699C72.69 53.6699 66.39 55.7799 66.11 51.0499C66 49.1599 67.48 47.4099 70.71 47.4099C71.73 47.4099 72.67 47.5799 73.5 48.0899C74.64 48.7799 75.08 49.7399 75.27 50.3299L72.89 51.0099Z" fill="white"/>
<path d="M84.7399 49.7599H81.9198V59.4699H79.1599V49.7599H76.3398V47.5699C76.3398 47.5699 81.3298 47.5699 83.0098 47.5699C84.6998 47.5699 84.7399 49.7599 84.7399 49.7599Z" fill="white"/>
<path d="M11.82 47.57V56.07L4.78004 47.57H0.790039L11.12 59.47H14.61V49.78C14.6 47.27 11.82 47.57 11.82 47.57Z" fill="white"/>
<path d="M22.1002 47.5699C23.4902 47.5699 26.3002 47.9999 26.3002 51.0399C26.3002 52.5799 25.4702 53.7599 24.2002 54.2699L26.5202 59.4799H23.4502L21.5402 54.7899H19.5002V59.4799H16.7402V47.5799H22.1002V47.5699ZM19.5002 52.7099H21.5502C22.0702 52.7099 23.5302 52.6499 23.5302 51.2499C23.5302 49.7599 21.9502 49.7599 21.6002 49.7599H19.5002V52.7099Z" fill="white"/>
<path d="M41.2099 47.1699C37.7099 47.1699 34.8599 50.0099 34.8599 53.5199C34.8599 57.0299 37.6999 59.8699 41.2099 59.8699C44.7199 59.8699 47.5599 57.0299 47.5599 53.5199C47.5499 50.0199 44.7099 47.1699 41.2099 47.1699ZM41.2099 57.3199C39.1099 57.3199 37.4099 55.6199 37.4099 53.5199C37.4099 51.4199 39.1099 49.7199 41.2099 49.7199C43.3099 49.7199 45.0099 51.4199 45.0099 53.5199C45.0099 55.6199 43.3099 57.3199 41.2099 57.3199Z" fill="white"/>
<path d="M97.13 57.3199C95.03 57.3199 93.33 55.6199 93.33 53.5199C93.33 51.4199 95.03 49.7199 97.13 49.7199C98.26 49.7199 99.27 50.2099 99.96 50.9899V50.9799L101.76 49.2299C100.6 47.9599 98.94 47.1599 97.08 47.1599C93.58 47.1599 90.73 49.9999 90.73 53.5099C90.73 57.0099 93.57 59.8599 97.08 59.8599C98.92 59.8599 100.58 59.0699 101.74 57.8099L99.95 56.0499C99.25 56.8299 98.25 57.3199 97.13 57.3199Z" fill="white"/>
<path d="M57.1801 53.52V56.43C56.5201 56.98 55.6701 57.32 54.7401 57.32C52.6401 57.32 50.9401 55.62 50.9401 53.52C50.9401 51.42 52.6401 49.72 54.7401 49.72C55.8901 49.72 56.9101 50.23 57.6101 51.04L59.4201 49.25L59.4301 49.24C59.3801 49.18 57.6901 47.24 54.7401 47.19C51.2301 47.12 48.3901 50.03 48.3901 53.54C48.3901 57.05 51.2301 59.89 54.7401 59.89C54.7401 59.89 57.4401 60.07 59.4701 57.79V55.41C59.4701 54.76 59.2701 53.52 57.1801 53.52Z" fill="white"/>
</svg>
