<svg width="209" height="33" viewBox="0 0 209 33" fill="none" xmlns="http://www.w3.org/2000/svg">
<path d="M9.31006 12.3301C9.31006 12.3301 9.90006 16.5801 14.9501 16.5801H25.6401V12.3301H9.31006Z" fill="#00AF2F"/>
<path d="M44.65 6.18005H27.79V10.4401H45.16C45.2 9.01005 45.12 7.52005 44.65 6.18005Z" fill="#004D42"/>
<path d="M0.0898438 0.0300293C0.0898438 0.0300293 0.679844 4.28003 5.76984 4.28003H25.6498V0.0300293H0.0898438Z" fill="#00AF2F"/>
<path d="M4.58984 6.18005C4.58984 6.18005 5.17984 10.4301 10.2698 10.4301H25.6398V6.18005H4.58984Z" fill="#00AF2F"/>
<path d="M43.82 4.29003C42.49 1.97003 39.74 0.0300293 35.54 0.0300293H27.79V4.29003H43.82Z" fill="#004D42"/>
<path d="M25.6497 31.61L13.9697 18.48H25.6497V31.61Z" fill="#00AF2F"/>
<path d="M45.89 31.61L38.41 18.49C38.42 18.49 38.43 18.48 38.44 18.48H27.79V31.61H45.89Z" fill="#004D42"/>
<path d="M44.84 12.3301H27.79V16.5801H42.16C43.85 15.1501 44.54 13.4101 44.84 12.3301Z" fill="#004D42"/>
<path d="M103.87 31.4401C103.84 31.2801 103.31 27.9001 99.3999 27.9001H95.6499V15.7C95.6499 11.61 91.1499 12.1201 91.1499 12.1201V31.4401H103.87C103.88 31.4401 103.88 31.4401 103.87 31.4401Z" fill="#00AF2F"/>
<path d="M148.04 31.44H143.53V12.12C143.53 12.12 148.04 11.8 148.04 15.7V31.44Z" fill="#00AF2F"/>
<path d="M188.6 31.44H184.1V12.12C184.1 12.12 188.6 11.8 188.6 15.7V31.44Z" fill="#00AF2F"/>
<path d="M162.46 17.6901C162.35 17.2101 162.09 16.6501 161.42 16.0801C160.57 15.3801 159.67 15.2101 158.66 15.2101C156.41 15.2101 155.93 16.3901 155.93 17.1801C155.93 18.6501 157.79 19.0101 158.47 19.1501L160.86 19.6901C162.3 20.0001 163.7 20.3901 164.89 21.3201C165.87 22.0801 166.88 23.4001 166.88 25.4901C166.88 27.7401 165.67 29.2101 164.6 30.0501C163.19 31.1501 161.22 31.7101 158.91 31.7101C153.59 31.7101 151.19 28.8401 150.43 26.0501L154.6 25.3201C154.96 26.3401 155.67 27.2601 156.48 27.7501C157.35 28.2801 158.31 28.3401 159.04 28.3401C161.86 28.3401 162.19 26.8401 162.19 26.2301C162.19 24.5101 160.14 24.0301 159.54 23.8901L156.98 23.3301C155.91 23.1001 154.3 22.4601 153.43 21.8101C152.47 21.0801 151.4 19.8401 151.4 17.7501C151.4 14.6801 153.63 11.8401 158.86 11.8401C160.52 11.8401 162.04 12.1201 163.4 12.9401C165.26 14.0701 165.96 15.6201 166.27 16.5701L162.46 17.6901Z" fill="#00AF2F"/>
<path d="M181.69 15.66H177.13V31.43H172.63V15.66H168.07V12.11C168.07 12.11 176.17 12.11 178.9 12.11C181.63 12.11 181.69 15.66 181.69 15.66Z" fill="#00AF2F"/>
<path d="M66.1001 12.1201L66.1301 25.9201L54.6701 12.1201H49.3301L66.1001 31.4301H70.6101C70.6101 31.4301 70.5701 19.7901 70.5701 15.7001C70.5801 11.6201 66.1001 12.1201 66.1001 12.1201Z" fill="#004D42"/>
<path d="M81.01 12.12C83.26 12.12 85.04 12.71 86.08 13.64C87.01 14.45 87.83 15.92 87.83 17.75C87.83 20.26 86.48 22.17 84.42 22.99L88.19 31.44H83.21L80.11 23.84H76.79V31.44H72.29V12.12H81.01ZM76.78 20.45H80.1C80.95 20.45 81.85 20.42 82.58 19.72C83.03 19.3 83.31 18.65 83.31 17.92C83.31 17.13 82.97 16.49 82.55 16.12C81.87 15.55 80.75 15.5 80.19 15.5H76.78V20.45Z" fill="#004D42"/>
<path fill-rule="evenodd" clip-rule="evenodd" d="M111.94 15.5701C115.35 15.5701 118.11 18.3301 118.11 21.7401C118.11 25.1501 115.35 27.9101 111.94 27.9101C108.53 27.9101 105.77 25.1501 105.77 21.7401C105.78 18.3301 108.54 15.5701 111.94 15.5701ZM111.94 11.4401C117.63 11.4401 122.24 16.0501 122.24 21.7401C122.24 27.4301 117.63 32.0401 111.94 32.0401C106.25 32.0401 101.64 27.4301 101.64 21.7401C101.65 16.0501 106.26 11.4401 111.94 11.4401Z" fill="#00AF2F"/>
<path fill-rule="evenodd" clip-rule="evenodd" d="M200.92 11.76C203.85 11.76 206.49 13.02 208.32 15.04L205.53 17.64C204.4 16.37 202.75 15.57 200.92 15.57C197.51 15.57 194.74 18.34 194.74 21.75C194.74 25.16 197.51 27.93 200.92 27.93C202.74 27.93 204.37 27.15 205.5 25.9L208.28 28.51C206.45 30.5 203.83 31.74 200.92 31.74C195.4 31.74 190.93 27.27 190.93 21.75C190.93 16.23 195.4 11.76 200.92 11.76Z" fill="#00AF2F"/>
<path fill-rule="evenodd" clip-rule="evenodd" d="M133.84 12.13C136.66 12.13 139.19 13.34 140.95 15.27L138.53 17.63L138.49 17.68C137.36 16.38 135.69 15.56 133.84 15.56C130.43 15.56 127.67 18.32 127.67 21.73C127.67 25.14 130.43 27.9 133.84 27.9C135.22 27.9 136.5 27.44 137.53 26.67V21.77C139.59 21.81 141 22.44 140.99 24.89V28.14C139.23 30.1 136.68 31.33 133.84 31.33C128.53 31.33 124.23 27.03 124.23 21.72C124.23 16.43 128.53 12.13 133.84 12.13Z" fill="#00AF2F"/>
</svg>
