<svg width="140" height="135" viewBox="0 0 140 135" fill="none" xmlns="http://www.w3.org/2000/svg">
<path d="M75.4998 67.5C75.4998 70.5376 73.0374 73 69.9998 73C66.9622 73 64.4998 70.5376 64.4998 67.5C64.4998 64.4624 66.9622 62 69.9998 62C73.0374 62 75.4998 64.4624 75.4998 67.5Z" fill="#43B02A"/>
<path d="M75.4998 108.5C75.4998 111.538 73.0374 114 69.9998 114C66.9622 114 64.4998 111.538 64.4998 108.5C64.4998 105.462 66.9622 103 69.9998 103C73.0374 103 75.4998 105.462 75.4998 108.5Z" fill="#43B02A"/>
<path d="M75.4998 26.5C75.4998 29.5376 73.0374 32 69.9998 32C66.9622 32 64.4998 29.5376 64.4998 26.5C64.4998 23.4624 66.9622 21 69.9998 21C73.0374 21 75.4998 23.4624 75.4998 26.5Z" fill="#43B02A"/>
<path d="M39.9998 47.5C39.9998 50.5376 37.5374 53 34.4998 53C31.4622 53 28.9998 50.5376 28.9998 47.5C28.9998 44.4624 31.4622 42 34.4998 42C37.5374 42 39.9998 44.4624 39.9998 47.5Z" fill="#43B02A"/>
<path d="M39.9998 87.5C39.9998 90.5376 37.5374 93 34.4998 93C31.4622 93 28.9998 90.5376 28.9998 87.5C28.9998 84.4624 31.4622 82 34.4998 82C37.5374 82 39.9998 84.4624 39.9998 87.5Z" fill="#43B02A"/>
<path d="M111 47.5C111 50.5376 108.537 53 105.5 53C102.462 53 99.9998 50.5376 99.9998 47.5C99.9998 44.4624 102.462 42 105.5 42C108.537 42 111 44.4624 111 47.5Z" fill="#43B02A"/>
<path d="M111 87.5C111 90.5376 108.537 93 105.5 93C102.462 93 99.9998 90.5376 99.9998 87.5C99.9998 84.4624 102.462 82 105.5 82C108.537 82 111 84.4624 111 87.5Z" fill="#43B02A"/>
<path d="M107.52 78.9079V56.0252C109.589 55.5559 111.442 54.4097 112.784 52.7687C114.126 51.1277 114.88 49.086 114.926 46.9682C114.919 45.12 114.36 43.3158 113.32 41.787C112.279 40.2583 110.805 39.0745 109.087 38.3875C107.368 37.7004 105.483 37.5412 103.674 37.9306C101.864 38.3199 100.212 39.2399 98.929 40.5727L79.2287 29.15C79.5121 28.2801 79.6253 27.364 79.5621 26.4514C79.3551 24.143 78.2901 21.9954 76.5769 20.4314C74.8636 18.8673 72.6261 18 70.3045 18C67.9829 18 65.7454 18.8673 64.0322 20.4314C62.3189 21.9954 61.254 24.143 61.047 26.4514C61.0691 27.3619 61.1932 28.267 61.4172 29.15L41.6802 40.5727C40.8308 39.6488 39.7931 38.917 38.6372 38.426C37.4812 37.9351 36.2336 37.6966 34.9778 37.7264C32.7146 37.7601 30.5414 38.6171 28.8661 40.1365C27.1909 41.656 26.1286 43.7337 25.8787 45.9795C25.6287 48.2252 26.2084 50.4848 27.5087 52.3343C28.8089 54.1839 30.7404 55.4963 32.9409 56.0252V78.7229C31.7252 78.8442 30.5453 79.2036 29.4687 79.7802C28.392 80.3567 27.4398 81.1394 26.6661 82.0834C25.8924 83.0274 25.3126 84.1142 24.9597 85.2819C24.6068 86.4496 24.4876 87.6752 24.6091 88.8888C24.7307 90.1025 25.0907 91.2804 25.6682 92.3552C26.2458 93.43 27.0298 94.3809 27.9754 95.1532C28.921 95.9256 30.0097 96.5044 31.1794 96.8567C32.3491 97.2091 33.5767 97.3278 34.7924 97.2065C37.3267 97.1801 39.7483 96.1575 41.532 94.3602L61.2321 105.783C60.9487 106.653 60.8357 107.569 60.8989 108.482C60.8989 110.933 61.8743 113.283 63.6104 115.017C65.3466 116.75 67.7012 117.723 70.1565 117.723C72.6117 117.723 74.9664 116.75 76.7025 115.017C78.4387 113.283 79.414 110.933 79.414 108.482C79.4037 107.573 79.2918 106.667 79.0807 105.783L98.7808 94.3602C99.6388 95.2831 100.683 96.0139 101.845 96.5045C103.006 96.9952 104.259 97.2344 105.52 97.2065C107.969 97.1871 110.313 96.2074 112.045 94.4784C113.777 92.7494 114.758 90.4098 114.778 87.9647C114.828 85.844 114.128 83.7736 112.8 82.1172C111.473 80.4608 109.603 79.3246 107.52 78.9079ZM105.335 41.9407C106.342 41.9334 107.328 42.225 108.168 42.7787C109.008 43.3323 109.663 44.123 110.052 45.0499C110.44 45.9768 110.544 46.9981 110.35 47.984C110.155 48.9698 109.671 49.8756 108.959 50.5861C108.247 51.2966 107.34 51.7798 106.353 51.974C105.365 52.1682 104.342 52.0647 103.414 51.6768C102.485 51.2889 101.693 50.634 101.139 49.7955C100.584 48.957 100.292 47.9729 100.299 46.9682C100.309 46.3176 100.447 45.6754 100.705 45.0781C100.963 44.4808 101.337 43.9401 101.804 43.4869C102.272 43.0338 102.825 42.677 103.43 42.4371C104.036 42.1971 104.684 42.0787 105.335 42.0885V41.9407ZM69.9712 21.4237C70.9776 21.4164 71.9636 21.7083 72.8036 22.2619C73.6435 22.8156 74.2995 23.6062 74.6881 24.5331C75.0766 25.46 75.1801 26.4814 74.9855 27.4672C74.7909 28.4531 74.307 29.3589 73.5953 30.0694C72.8836 30.7799 71.9764 31.263 70.9889 31.4572C70.0014 31.6515 68.9783 31.548 68.0498 31.1601C67.1213 30.7722 66.3294 30.1173 65.7747 29.2788C65.2201 28.4403 64.9278 27.4562 64.9351 26.4514C64.9828 25.1469 65.5332 23.9109 66.4715 23.0018C67.4099 22.0926 68.6636 21.5804 69.9712 21.5717V21.4237ZM63.2319 32.8467C64.5072 34.1976 66.1576 35.1372 67.9716 35.5452V46.3028C67.9811 46.8783 68.2144 47.4274 68.6221 47.8344C69.0298 48.2413 69.58 48.4742 70.1565 48.4837C70.733 48.4742 71.283 48.2413 71.6907 47.8344C72.0984 47.4274 72.3316 46.8783 72.3411 46.3028V35.6932C74.1272 35.2417 75.7543 34.3079 77.0441 32.9945L96.7441 44.4544C96.262 46.2088 96.262 48.0602 96.7441 49.8145L77.0441 61.2375C76.165 60.3433 75.1161 59.633 73.959 59.1481C72.8018 58.6632 71.5595 58.4135 70.3045 58.4135C69.0495 58.4135 67.8071 58.6632 66.6499 59.1481C65.4927 59.633 64.444 60.3433 63.565 61.2375L43.8649 49.2971C44.2748 47.7589 44.2748 46.1404 43.8649 44.6022L63.2319 32.8467ZM69.9712 72.3646C68.9662 72.3646 67.984 72.0665 67.1489 71.5084C66.3139 70.9502 65.6638 70.1571 65.2809 69.2295C64.898 68.3019 64.7996 67.2817 64.9984 66.2983C65.1972 65.3149 65.684 64.4126 66.3972 63.7058C67.1104 62.9991 68.018 62.5196 69.0045 62.3284C69.991 62.1372 71.0121 62.2429 71.9384 62.6318C72.8647 63.0208 73.6546 63.6757 74.2076 64.5134C74.7605 65.3511 75.0516 66.3339 75.0443 67.3371C75.0749 68.0155 74.9655 68.6928 74.7229 69.3272C74.4802 69.9616 74.1097 70.5395 73.6339 71.0248C73.1582 71.5102 72.5874 71.8925 71.9574 72.1485C71.3273 72.4044 70.6512 72.5283 69.9712 72.5124V72.3646ZM29.5713 47.153C29.5786 46.1602 29.8803 45.1919 30.4381 44.37C30.9959 43.5481 31.7848 42.9094 32.7057 42.5345C33.6265 42.1597 34.638 42.0654 35.6124 42.2636C36.5869 42.4617 37.4807 42.9435 38.1813 43.648C38.8819 44.3526 39.358 45.2485 39.5494 46.2227C39.7407 47.1969 39.6387 48.2057 39.2565 49.1223C38.8742 50.0388 38.2287 50.8219 37.4013 51.3727C36.574 51.9235 35.6018 52.2174 34.6073 52.2174C33.2683 52.2077 31.9874 51.6698 31.044 50.7211C30.1006 49.7723 29.5713 48.4898 29.5713 47.153ZM34.6073 92.8814C33.6113 92.8814 32.6377 92.5866 31.8095 92.0341C30.9813 91.4817 30.3358 90.6965 29.9546 89.7778C29.5734 88.8592 29.4737 87.8483 29.668 86.8731C29.8623 85.8978 30.3419 85.002 31.0463 84.2989C31.7506 83.5957 32.6479 83.117 33.6249 82.923C34.6018 82.729 35.6143 82.8285 36.5346 83.2091C37.4548 83.5896 38.2413 84.2338 38.7947 85.0606C39.3481 85.8874 39.6434 86.8595 39.6434 87.8539C39.6484 88.5138 39.5214 89.1679 39.2696 89.7781C39.0178 90.3882 38.6464 90.9422 38.1772 91.4071C37.7081 91.872 37.1508 92.2385 36.5377 92.4854C35.9247 92.7322 35.2683 92.8542 34.6073 92.8444V92.8814ZM43.5318 90.5524C44.0502 88.7906 44.0502 86.9172 43.5318 85.1553L58.3438 76.5789C58.8198 76.2997 59.1722 75.8509 59.3302 75.3229C59.4882 74.7948 59.44 74.2265 59.1955 73.7324C58.9089 73.2545 58.4527 72.9019 57.9176 72.7444C57.3825 72.5868 56.8074 72.636 56.307 72.8822L41.3098 81.4586C40.0806 80.1621 38.5177 79.2283 36.7922 78.7599V56.0252C38.776 55.5485 40.5464 54.4307 41.8283 52.8458L61.195 64.6014C60.8143 65.8269 60.6881 67.1172 60.8243 68.3931C60.9606 69.669 61.3565 70.9038 61.9874 72.0217C62.6184 73.1395 63.4713 74.1169 64.4939 74.8942C65.5166 75.6714 66.6872 76.2322 67.9345 76.5419V99.2398C66.1541 99.7052 64.5307 100.637 63.2319 101.938L43.5318 90.5524ZM69.9712 113.398C68.7053 113.29 67.5262 112.711 66.667 111.777C65.8079 110.843 65.3311 109.62 65.3311 108.352C65.3311 107.084 65.8079 105.862 66.667 104.927C67.5262 103.993 68.7053 103.414 69.9712 103.306C70.6401 103.296 71.3044 103.42 71.9244 103.671C72.5444 103.922 73.1077 104.295 73.5808 104.767C74.0539 105.24 74.4272 105.802 74.6786 106.421C74.93 107.04 75.0543 107.703 75.0443 108.371C75.0248 109.701 74.4818 110.97 73.5325 111.904C72.5832 112.838 71.3039 113.361 69.9712 113.361V113.398ZM76.7107 101.975C75.4345 100.644 73.8023 99.7076 72.008 99.2766V76.7267C73.2371 76.4463 74.3952 75.9163 75.4102 75.1697C76.4252 74.423 77.2752 73.4757 77.9074 72.3867C78.5397 71.2978 78.9404 70.0904 79.085 68.8401C79.2295 67.5897 79.1145 66.323 78.7473 65.119L98.4476 53.6962C99.6808 55.0063 101.26 55.9417 103.002 56.3948V79.0927C101.01 79.5747 99.2298 80.6905 97.9291 82.2718L84.7832 74.3978C84.559 74.2331 84.3019 74.119 84.0293 74.0632C83.7566 74.0073 83.4751 74.0112 83.2041 74.0744C82.9331 74.1377 82.679 74.2589 82.4594 74.4296C82.2398 74.6003 82.0599 74.8164 81.9321 75.0632C81.7732 75.289 81.6637 75.5458 81.6111 75.8168C81.5585 76.0877 81.564 76.3666 81.6269 76.6353C81.6899 76.9041 81.8089 77.1565 81.9764 77.3761C82.1438 77.5957 82.3559 77.7776 82.5986 77.9097L96.0776 85.9685C95.7088 87.5334 95.7727 89.169 96.2627 90.7004L76.7107 101.975ZM105.335 92.8814C104.341 92.8741 103.371 92.5729 102.548 92.0161C101.724 91.4592 101.084 90.6716 100.709 89.7523C100.333 88.8331 100.239 87.8233 100.437 86.8505C100.636 85.8777 101.119 84.9854 101.824 84.286C102.53 83.5866 103.427 83.1115 104.403 82.9205C105.379 82.7295 106.39 82.8311 107.308 83.2127C108.226 83.5943 109.01 84.2387 109.562 85.0647C110.114 85.8906 110.408 86.8611 110.408 87.8539C110.413 88.5169 110.285 89.1742 110.031 89.7869C109.777 90.3995 109.402 90.955 108.929 91.4204C108.456 91.8858 107.894 92.2516 107.277 92.4962C106.659 92.7408 105.999 92.8592 105.335 92.8444V92.8814Z" fill="#124F2E"/>
<path d="M36.274 103.269C34.575 103.269 32.9456 103.942 31.7442 105.142C30.5428 106.341 29.8678 107.968 29.8678 109.664C29.8678 111.36 30.5428 112.987 31.7442 114.186C32.9456 115.386 34.575 116.059 36.274 116.059C37.1084 116.06 37.9346 115.893 38.7037 115.57C39.4727 115.247 40.1691 114.773 40.7522 114.178C41.3353 113.582 41.7932 112.875 42.0988 112.1C42.4045 111.325 42.5519 110.497 42.5321 109.664C42.5623 108.828 42.4222 107.996 42.1203 107.216C41.8184 106.436 41.3609 105.726 40.7758 105.128C40.1906 104.53 39.4897 104.057 38.7159 103.737C37.942 103.417 37.1113 103.258 36.274 103.269ZM36.274 111.697C35.8435 111.69 35.4248 111.556 35.0705 111.312C34.7161 111.068 34.4418 110.725 34.2821 110.325C34.1224 109.926 34.0843 109.489 34.1727 109.068C34.2612 108.648 34.4722 108.263 34.7791 107.961C35.0861 107.66 35.4754 107.456 35.8981 107.375C36.3209 107.293 36.7584 107.339 37.1555 107.505C37.5525 107.671 37.8916 107.95 38.13 108.308C38.3685 108.666 38.4957 109.086 38.4957 109.516C38.452 110.086 38.2029 110.621 37.7944 111.022C37.3859 111.423 36.8458 111.663 36.274 111.697Z" fill="#124F2E"/>
<path d="M102.632 33.8447C104.097 33.8447 105.528 33.411 106.746 32.5985C107.964 31.7861 108.913 30.6314 109.474 29.2804C110.034 27.9295 110.181 26.443 109.896 25.0088C109.61 23.5746 108.904 22.2572 107.869 21.2232C106.833 20.1892 105.513 19.485 104.077 19.1997C102.64 18.9145 101.151 19.061 99.7977 19.6205C98.4445 20.1801 97.2878 21.1278 96.474 22.3437C95.6602 23.5595 95.2257 24.989 95.2257 26.4513C95.2257 28.4121 96.0061 30.2926 97.395 31.6791C98.7839 33.0656 100.668 33.8447 102.632 33.8447ZM102.632 23.4199C103.082 23.3716 103.536 23.4182 103.966 23.5569C104.397 23.6956 104.793 23.9231 105.129 24.2247C105.466 24.5264 105.735 24.8953 105.919 25.3075C106.103 25.7198 106.198 26.1662 106.198 26.6176C106.198 27.0689 106.103 27.5153 105.919 27.9276C105.735 28.3398 105.466 28.7087 105.129 29.0104C104.793 29.312 104.397 29.5396 103.966 29.6782C103.536 29.8169 103.082 29.8635 102.632 29.8152C102.199 29.8107 101.772 29.7192 101.375 29.5462C100.979 29.3732 100.621 29.1222 100.324 28.8082C100.027 28.4942 99.796 28.1238 99.6454 27.7189C99.4948 27.3139 99.4275 26.8828 99.4474 26.4513C99.4469 26.0404 99.5297 25.6336 99.6915 25.2559C99.8533 24.8781 100.09 24.5371 100.388 24.2536C100.686 23.9701 101.038 23.7501 101.424 23.6067C101.81 23.4634 102.221 23.3999 102.632 23.4199Z" fill="#124F2E"/>
<path d="M69.9711 50.8502C70.4032 50.8502 70.8257 50.9781 71.185 51.2178C71.5443 51.4574 71.8243 51.798 71.9896 52.1965C72.155 52.5951 72.1982 53.0336 72.1139 53.4567C72.0296 53.8798 71.8217 54.2685 71.5161 54.5736C71.2106 54.8786 70.8212 55.0862 70.3974 55.1703C69.9736 55.2545 69.5343 55.2113 69.1351 55.0463C68.7359 54.8812 68.3947 54.6017 68.1546 54.243C67.9146 53.8843 67.7864 53.4628 67.7864 53.0314C67.7814 52.7436 67.8344 52.4576 67.9424 52.1907C68.0504 51.9238 68.2113 51.6815 68.4152 51.4779C68.6191 51.2744 68.8619 51.114 69.1292 51.0061C69.3965 50.8983 69.6828 50.8452 69.9711 50.8502Z" fill="#124F2E"/>
<path d="M34.0885 27.4493C34.668 27.4493 35.2238 27.6793 35.6335 28.0883C36.0433 28.4973 36.2734 29.052 36.2734 29.6305C36.2784 29.9183 36.2252 30.2041 36.1172 30.471C36.0092 30.7378 35.8485 30.9804 35.6446 31.1839C35.4407 31.3875 35.198 31.5479 34.9306 31.6557C34.6633 31.7636 34.3768 31.8164 34.0885 31.8114C33.5091 31.8114 32.9534 31.5817 32.5437 31.1727C32.134 30.7636 31.9039 30.2089 31.9039 29.6305C31.9134 29.055 32.1466 28.5057 32.5543 28.0987C32.962 27.6917 33.512 27.4588 34.0885 27.4493Z" fill="#124F2E"/>
<path d="M44.7171 21.2761C45.1492 21.2761 45.5715 21.404 45.9308 21.6437C46.2901 21.8833 46.57 22.2239 46.7354 22.6224C46.9008 23.021 46.944 23.4595 46.8597 23.8826C46.7754 24.3057 46.5674 24.6944 46.2619 24.9994C45.9563 25.3045 45.5669 25.5121 45.1431 25.5962C44.7193 25.6804 44.28 25.6372 43.8808 25.4721C43.4816 25.3071 43.1404 25.0276 42.9004 24.6689C42.6603 24.3102 42.5322 23.8886 42.5322 23.4573C42.5272 23.1695 42.5804 22.8834 42.6884 22.6166C42.7964 22.3497 42.9571 22.1073 43.161 21.9038C43.3649 21.7003 43.6076 21.5398 43.875 21.432C44.1423 21.3242 44.4288 21.2711 44.7171 21.2761Z" fill="#124F2E"/>
<path d="M93.2269 105.302C92.7948 105.302 92.3723 105.43 92.013 105.67C91.6537 105.91 91.3737 106.25 91.2084 106.649C91.043 107.048 90.9998 107.486 91.0841 107.909C91.1684 108.332 91.3766 108.721 91.6821 109.026C91.9877 109.331 92.3769 109.539 92.8007 109.623C93.2245 109.707 93.6637 109.664 94.063 109.499C94.4622 109.334 94.8033 109.054 95.0434 108.695C95.2835 108.337 95.4116 107.915 95.4116 107.484C95.3419 106.929 95.0894 106.414 94.6938 106.019C94.2981 105.624 93.7821 105.372 93.2269 105.302Z" fill="#124F2E"/>
<path d="M105.706 105.302C105.274 105.302 104.852 105.43 104.493 105.67C104.133 105.91 103.853 106.25 103.688 106.649C103.523 107.048 103.48 107.486 103.564 107.909C103.648 108.332 103.856 108.721 104.161 109.026C104.467 109.331 104.856 109.539 105.28 109.623C105.704 109.707 106.143 109.664 106.543 109.499C106.942 109.334 107.283 109.054 107.523 108.695C107.763 108.337 107.891 107.915 107.891 107.484C107.821 106.929 107.569 106.414 107.173 106.019C106.778 105.624 106.262 105.372 105.706 105.302Z" fill="#124F2E"/>
<path d="M48.9385 107.483C48.5064 107.483 48.0841 107.611 47.7248 107.851C47.3656 108.09 47.0856 108.431 46.9202 108.829C46.7549 109.228 46.7114 109.666 46.7957 110.09C46.88 110.513 47.0882 110.901 47.3937 111.206C47.6993 111.511 48.0885 111.719 48.5123 111.803C48.9361 111.887 49.3756 111.844 49.7748 111.679C50.174 111.514 50.5152 111.235 50.7552 110.876C50.9953 110.517 51.1234 110.095 51.1234 109.664C51.1049 109.091 50.8688 108.547 50.463 108.142C50.0572 107.737 49.5121 107.502 48.9385 107.483Z" fill="#124F2E"/>
</svg>
