<svg width="140" height="135" viewBox="0 0 140 135" fill="none" xmlns="http://www.w3.org/2000/svg">
<path d="M31.5 36.5L34.5 34H37.5V61L42 72.5L51.5 77L64 71.5L67.5 61L74.5 58L71.5 75L54.5 84.5L38 79L31.5 65.5V36.5Z" fill="#43B02A"/>
<path d="M100.5 40H106.5L111 118L103.5 106L96 118L100.5 40Z" fill="#43B02A"/>
<path d="M36.4173 30.9697V23.7931C36.4173 22.6326 36.6521 21.4836 37.1084 20.4122C37.5647 19.3409 38.2334 18.3686 39.0759 17.5513C39.9185 16.734 40.9181 16.0879 42.0172 15.6504C43.1163 15.2128 44.2931 14.9924 45.4798 15.0019H52.8179C55.1732 15.0112 57.4299 15.928 59.0988 17.5535C60.7677 19.1789 61.7144 21.3821 61.7337 23.6855V37.9669H65.4027C65.7991 36.2863 66.6748 34.7501 67.9283 33.537C69.1818 32.3238 70.7615 31.4833 72.484 31.1133V23.9367C72.459 22.7566 72.6784 21.5839 73.1287 20.4888C73.579 19.3937 74.2509 18.399 75.1043 17.5644C75.9577 16.7298 76.9749 16.0726 78.0946 15.6322C79.2143 15.1918 80.4135 14.9774 81.6201 15.0019H88.9582C91.2944 15.0393 93.5231 15.9683 95.1683 17.5908C96.8136 19.2133 97.745 21.4005 97.7638 23.6855V38.0386H106.57C107.927 38.0386 108.551 38.6128 108.588 39.9404C108.979 48.1935 109.358 56.4227 109.725 64.6279C110.165 73.6465 110.593 82.6531 111.009 91.6477L112 114.11C112 115.582 112 117.053 112 118.524C112 119.995 111.523 121 109.542 121H31.2438C29.556 121 28.9324 120.426 29.0057 118.739C29.2626 112.711 29.5195 106.683 29.8131 100.798L30.5834 84.1482L31.0237 73.1321C31.1161 72.7426 31.1161 72.3376 31.0237 71.948C29.6403 68.6384 28.9902 65.0795 29.1159 61.5061C29.1159 54.5089 29.1159 47.4759 29.1159 40.4428C29.0063 38.2776 29.6769 36.1434 31.0111 34.4122C32.3454 32.6811 34.2587 31.4628 36.4173 30.9697ZM94.2417 117.304C95.3668 91.9946 96.5165 66.733 97.6906 41.5193H90.5726C90.5726 43.2417 90.5726 44.8924 90.5726 46.543C90.6153 46.8085 90.5938 47.08 90.5099 47.336C90.426 47.592 90.2819 47.8252 90.0893 48.017C89.8968 48.2088 89.6611 48.3539 89.401 48.4406C89.1408 48.5273 88.8634 48.5534 88.5912 48.5165C86.6099 48.5165 84.5919 48.5165 82.6106 48.5165C82.3055 48.4972 82.0017 48.5692 81.7395 48.723C81.4773 48.8769 81.2693 49.1052 81.1431 49.3777C79.7856 51.4947 78.2446 53.5401 76.8137 55.6572C76.4615 56.1343 76.2345 56.6889 76.153 57.2719C76.2086 60.3255 76.0985 63.3798 75.8229 66.422C75.216 70.0592 73.7203 73.4992 71.4628 76.4499C69.2053 79.4006 66.2527 81.7747 62.8561 83.3705C59.4594 84.9662 55.7192 85.7365 51.953 85.6158C48.1869 85.495 44.5062 84.4868 41.2238 82.677C38.9564 81.2504 36.787 79.6802 34.7295 77.9763L32.9317 117.448L94.2417 117.304ZM107.964 110.127H108.184L105.065 41.4116H101.396L98.2775 110.127C99.4353 108.296 100.489 106.403 101.433 104.458C101.547 104.068 101.788 103.725 102.119 103.481C102.45 103.237 102.853 103.105 103.267 103.105C103.682 103.105 104.085 103.237 104.416 103.481C104.747 103.725 104.988 104.068 105.102 104.458L107.964 110.127ZM81.5099 18.4107H81.0697C79.7308 18.5714 78.5023 19.2169 77.6261 20.2199C76.75 21.2229 76.2899 22.5107 76.3367 23.829C76.3367 28.6732 76.3367 33.4815 76.3367 38.1822C76.3742 39.4658 76.3006 40.7502 76.1165 42.0217C75.5053 45.9669 73.3959 49.5417 70.2092 52.0334C67.0224 54.5251 62.9925 55.7506 58.923 55.4653C54.8534 55.18 51.0432 53.4051 48.2524 50.4944C45.4616 47.5837 43.8951 43.7511 43.8654 39.7611C43.8654 35.1322 43.8654 30.5033 43.8654 25.8744C43.4951 23.2415 44.1074 20.5663 45.5899 18.339C44.8724 18.3384 44.1619 18.4797 43.5017 18.7545C42.8414 19.0294 42.245 19.432 41.748 19.9382C41.251 20.4444 40.8637 21.0437 40.6097 21.7C40.3557 22.3563 40.2401 23.0561 40.2698 23.7573C40.2698 28.7092 40.2698 33.6969 40.2698 38.6487C40.2873 40.2246 40.4345 41.7966 40.71 43.3493C41.7397 48.0743 44.5338 52.254 48.5464 55.0717C52.559 57.8894 57.5017 59.1427 62.4086 58.5866C67.3156 58.0304 71.8342 55.7048 75.0815 52.0643C78.3288 48.4238 80.0715 43.7299 79.969 38.8999C79.969 34.4863 79.969 30.0727 79.969 25.6591C79.6256 23.1878 80.1702 20.6764 81.5099 18.5542V18.4107ZM65.2193 62.0085C60.5302 63.0263 55.6363 62.6356 51.178 60.8877C46.7197 59.1398 42.9048 56.1161 40.233 52.2124C40.0129 56.1806 40.0129 60.1575 40.233 64.1256C40.6295 67.2708 42.2583 70.1428 44.7764 72.1373C47.2945 74.1317 50.5054 75.0929 53.7336 74.8186C56.9617 74.5443 59.9553 73.0558 62.0839 70.6665C64.2125 68.2772 65.31 65.1734 65.1459 62.0085H65.2193ZM36.4173 34.7016C35.3056 35.03 34.3391 35.7146 33.6736 36.6454C33.008 37.5762 32.6822 38.6989 32.7483 39.8328V62.6544C32.7533 63.6538 32.8514 64.6506 33.0416 65.6326C33.8575 70.5444 36.5778 74.9598 40.6368 77.9604C44.6959 80.9611 49.7814 82.3163 54.8358 81.7441C57.534 81.4392 60.141 80.6019 62.4986 79.2828C64.8563 77.9638 66.9155 76.1904 68.5518 74.0701C70.1881 71.9499 71.3673 69.5268 72.0179 66.9478C72.6686 64.3687 72.7773 61.6874 72.3373 59.0661C71.3833 59.5326 70.4293 59.9272 69.5488 60.4655C69.1974 60.714 68.9602 61.0879 68.8884 61.5061C68.7997 63.1536 68.6161 64.7948 68.3381 66.422C67.3627 70.1419 65.0433 73.3907 61.8087 75.5679C58.5741 77.745 54.6428 78.7034 50.7417 78.2659C46.8406 77.8283 43.2333 76.0245 40.5866 73.1877C37.94 70.3509 36.4329 66.673 36.3439 62.8337V34.8451L36.4173 34.7016ZM51.0935 48.3729C52.8447 50.0523 55.0669 51.1844 57.4777 51.6253C59.8885 52.0661 62.379 51.7959 64.6324 50.8489C64.7766 50.7288 64.8935 50.5806 64.9757 50.4138C65.0578 50.2469 65.1033 50.0652 65.1094 49.8801C65.1094 48.3371 65.1094 46.7941 65.1094 45.2511V41.5552H54.1022V46.2559C54.1022 47.9782 53.5517 48.5165 51.8639 48.5524L51.0935 48.3729ZM54.2856 37.6081H57.9547C57.9547 32.6921 57.9547 27.812 57.9547 22.932C57.8996 21.7283 57.381 20.5896 56.5031 19.7444C55.6252 18.8991 54.4528 18.4099 53.2214 18.3749C53.7116 20.0501 54.1036 21.7513 54.3955 23.4702C54.5057 25.0472 54.5057 26.6298 54.3955 28.2068L54.2856 37.6081ZM90.389 37.6081H94.058C94.058 32.728 94.058 27.8838 94.058 23.0396C94.0008 21.7514 93.4246 20.5377 92.4553 19.6637C91.4859 18.7896 90.2023 18.3263 88.8848 18.3749C90.2424 20.4393 90.838 22.8954 90.5726 25.3362C90.5726 27.4533 90.5726 29.6062 90.5726 31.7233L90.389 37.6081ZM47.0942 30.4315L50.7632 31.9744C50.7632 28.9961 50.7632 26.0897 50.7632 23.2191C50.7559 22.5314 50.5946 21.8536 50.2903 21.2336C49.986 20.6136 49.5462 20.0665 49.0021 19.6308C48.4475 20.0596 47.9981 20.6045 47.6869 21.2254C47.3758 21.8464 47.2109 22.5276 47.2043 23.2191C47.2043 26.0538 47.2776 28.4579 47.2776 30.7903L47.0942 30.4315ZM83.1978 30.4315L86.8668 31.9744C86.8668 28.8885 86.8668 25.8026 86.8668 22.7526C86.8486 22.1217 86.6837 21.5031 86.3849 20.9436C86.0862 20.3841 85.6613 19.8982 85.1423 19.523C84.6056 19.9651 84.1712 20.5135 83.8676 21.1321C83.564 21.7507 83.3981 22.4254 83.3812 23.1113C83.3078 26.0179 83.3812 28.4579 83.3812 30.7903L83.1978 30.4315ZM107.267 116.873L103.084 109.015L98.828 117.304L107.267 116.873ZM68.7784 47.7271C72.7043 43.8158 72.4473 39.151 72.2638 34.3427C71.2978 34.6698 70.4536 35.2714 69.8392 36.0705C69.2248 36.8695 68.8682 37.8297 68.8149 38.8281C68.8516 42.1293 68.9618 45.1435 68.9618 48.1576L68.7784 47.7271ZM83.1978 44.4617H86.8668V39.797C86.8851 39.4982 86.8851 39.1987 86.8668 38.8999C86.8149 37.8782 86.4309 36.8993 85.7711 36.1055C85.1112 35.3118 84.2099 34.7446 83.1978 34.4863V44.4617ZM50.6533 44.4617C50.6533 42.5599 50.6533 40.8735 50.6533 38.8999C50.6376 37.8681 50.267 36.8714 49.6014 36.0707C48.9358 35.27 48.0138 34.7119 46.9842 34.4863C46.9842 36.3163 46.9842 38.0746 46.9842 40.0123C46.9897 40.8176 47.1259 41.617 47.3878 42.3805C48.5618 45.4306 48.0482 45.1435 50.8367 44.8923L50.6533 44.4617Z" fill="#124F2E"/>
</svg>
