<svg width="140" height="135" viewBox="0 0 140 135" fill="none" xmlns="http://www.w3.org/2000/svg">
<path d="M104 95H121V105H104V95Z" fill="#43B02A"/>
<path d="M96.9998 66L114 62.5L115.5 71.5L98.4998 73L96.9998 66Z" fill="#43B02A"/>
<path d="M117 44.5L128 45V50L117 52V44.5Z" fill="#43B02A"/>
<path d="M84.9998 48L91.4998 47L97.9998 48V52H84.9998V48Z" fill="#43B02A"/>
<path d="M47.9998 80C47.9998 85.5228 43.5226 90 37.9998 90C32.4769 90 27.9998 85.5228 27.9998 80C27.9998 74.4772 32.4769 70 37.9998 70C43.5226 70 47.9998 74.4772 47.9998 80Z" fill="#43B02A"/>
<path d="M116.377 53.1C120.91 56.8176 123.817 62.1385 124.487 67.9439C125.491 73.8898 126.285 79.9189 126.996 85.9479C127.321 87.4252 127.27 88.96 126.847 90.4124C126.423 91.8649 125.641 93.1889 124.571 94.2638C124.356 94.612 124.268 95.0227 124.32 95.4279C124.32 97.299 124.32 99.1702 124.32 101.041C124.414 101.944 124.308 102.855 124.01 103.713C123.713 104.57 123.23 105.353 122.598 106.006C121.965 106.659 121.197 107.167 120.346 107.495C119.495 107.822 118.584 107.961 117.673 107.902H107.682C106.808 107.96 105.931 107.836 105.107 107.539C104.284 107.241 103.532 106.777 102.898 106.174C102.265 105.572 101.765 104.845 101.43 104.04C101.094 103.235 100.932 102.37 100.951 101.499C100.951 99.6691 100.951 97.8813 100.951 95.8855H99.3206L70.3908 96.509H68.9695C68.522 96.478 68.1021 96.2817 67.7927 95.9586C67.4833 95.6354 67.3065 95.2089 67.2972 94.7628C67.2619 94.5276 67.274 94.2879 67.3329 94.0575C67.3919 93.8271 67.4966 93.6107 67.6406 93.421C67.7847 93.2313 67.9652 93.072 68.1719 92.9525C68.3785 92.8331 68.607 92.756 68.844 92.7254C69.2757 92.7032 69.708 92.7032 70.1397 92.7254L108.936 91.9354H110.524V88.8585H109.019L71.3941 89.6486C70.9224 89.7109 70.4446 89.7109 69.9728 89.6486C69.5147 89.5966 69.0929 89.3753 68.7909 89.0288C68.489 88.6823 68.3289 88.2358 68.3423 87.7774C68.3194 87.5414 68.3452 87.3031 68.4179 87.0772C68.4905 86.8514 68.6084 86.6426 68.7649 86.4636C68.9214 86.2846 69.113 86.1392 69.3278 86.0362C69.5426 85.9333 69.7764 85.8749 70.0147 85.8647C70.5294 85.8219 71.0468 85.8219 71.5615 85.8647L111.235 85.033C114.078 85.033 114.496 85.4073 114.579 88.2347C114.579 89.4405 114.579 90.6048 114.579 91.8938C116.711 91.8938 118.76 91.8938 120.85 91.8938C122.94 91.8938 123.108 90.6881 123.024 88.9002C123.024 85.9896 122.648 83.0789 122.314 80.1683C121.812 76.2598 121.227 72.3514 120.558 68.4845C120.067 65.197 118.791 62.0744 116.837 59.3785C115.727 57.8101 114.237 56.5457 112.505 55.7025C110.773 54.8594 108.855 54.4649 106.929 54.5554L60.5665 55.5117H59.3958C59.1288 55.5285 58.861 55.4921 58.6084 55.4046C58.3558 55.317 58.1237 55.18 57.9251 55.0018C57.7264 54.8236 57.5655 54.6078 57.452 54.3669C57.3385 54.1259 57.2743 53.8648 57.2637 53.5989C57.2573 53.3334 57.3068 53.0696 57.4086 52.8241C57.5104 52.5786 57.6625 52.3568 57.8552 52.1729C58.0479 51.9891 58.2769 51.8472 58.5278 51.7562C58.7786 51.6653 59.0457 51.6274 59.3121 51.6448H70.0984L79.0444 51.437C79.3727 51.4732 79.7041 51.4039 79.99 51.2393C80.2759 51.0747 80.5011 50.8233 80.633 50.5221C81.7457 48.7858 83.2734 47.3504 85.0795 46.3441C86.8855 45.3377 88.9141 44.7917 90.9839 44.7546C93.0538 44.7176 95.1002 45.1909 96.9415 46.1319C98.7827 47.073 100.361 48.4527 101.536 50.148C101.536 50.4806 102.122 50.8964 102.414 50.8964C104.714 50.8964 107.054 50.8964 109.563 50.8964C108.643 47.9858 107.723 45.3248 106.929 42.5805C106.387 40.3883 105.257 38.3835 103.659 36.7798C102.062 35.1762 100.056 34.0338 97.857 33.4746C92.844 31.8803 87.6102 31.0805 82.3472 31.1045C75.5328 31.1045 68.7184 31.3955 61.9041 31.8113C57.3522 32.1118 52.8853 33.1805 48.6938 34.9714C47.0537 35.6098 45.5723 36.5949 44.3525 37.8584C43.1326 39.1219 42.2032 40.6337 41.6284 42.2894C41.0849 43.7447 40.5831 45.2 39.9979 46.6968C39.4126 48.1937 38.5347 48.6511 37.4059 48.2353C37.1339 48.1381 36.8862 47.9837 36.6797 47.7825C36.4733 47.5813 36.3129 47.3381 36.2097 47.0696C36.1065 46.8012 36.0633 46.5137 36.0821 46.2268C36.101 45.94 36.1815 45.6607 36.3189 45.4079C36.9042 43.7863 37.5316 42.1231 38.1587 40.5015C39.2712 37.827 41.0269 35.4651 43.2721 33.6235C45.5173 31.782 48.1829 30.5171 51.0347 29.9402C55.7883 28.5793 60.6842 27.7703 65.6249 27.5287C75.5697 26.5287 85.6072 26.9487 95.4324 28.7761C97.255 29.1984 99.0437 29.7544 100.784 30.4394C103.071 31.2476 105.132 32.5852 106.796 34.342C108.461 36.0988 109.682 38.2245 110.357 40.5431C111.486 44.0774 112.698 47.6116 113.785 51.1459C113.88 51.6225 114.112 52.0613 114.454 52.4084C114.795 52.7556 115.231 52.9958 115.708 53.1H116.377ZM104.839 96.0101C104.839 98.0891 104.839 100.168 104.839 101.998C104.832 102.279 104.885 102.559 104.993 102.82C105.102 103.081 105.263 103.316 105.467 103.512C105.671 103.707 105.914 103.858 106.18 103.955C106.446 104.053 106.73 104.094 107.013 104.077L118.384 103.827C118.869 103.839 119.34 103.664 119.698 103.338C120.057 103.013 120.274 102.562 120.307 102.081C120.307 99.9602 120.307 97.9229 120.307 95.6776L104.839 96.0101ZM97.0211 50.5637C96.2274 49.8004 95.2896 49.2011 94.2617 48.8002C93.2339 48.3993 92.1363 48.2047 91.0324 48.2279C89.9286 48.2511 88.8401 48.4914 87.8301 48.9352C86.8202 49.3789 85.909 50.0172 85.1484 50.8132L97.0211 50.5637Z" fill="#124F2E"/>
<path d="M58.8103 69.8581C60.1899 69.8581 61.6113 69.5669 62.9909 69.5254C63.7458 69.4384 64.5059 69.6387 65.1185 70.086C65.7311 70.5333 66.151 71.1946 66.2937 71.937C66.7118 73.6002 67.0462 75.2635 67.297 76.9266C67.3916 77.692 67.2016 78.4651 66.7627 79.1008C66.3238 79.7364 65.666 80.1905 64.9138 80.3776C63.4506 80.8765 61.9874 81.3339 60.7332 81.7081C60.0225 81.916 59.6048 82.1655 59.5212 82.9555C59.4376 83.7455 59.1864 84.5356 60.2316 85.1177C61.5089 85.8723 62.7376 86.7057 63.9105 87.6126C64.2922 87.8342 64.6248 88.1306 64.8878 88.4838C65.1508 88.8371 65.3388 89.2397 65.4405 89.6675C65.5421 90.0952 65.5554 90.5392 65.4793 90.9722C65.4031 91.4052 65.2391 91.8182 64.9975 92.1863C64.2868 93.4752 63.6179 94.7225 62.8654 95.9699C62.4811 96.6912 61.8344 97.2394 61.0573 97.5022C60.2802 97.765 59.4315 97.7225 58.6848 97.3837C57.138 96.8016 55.6331 96.0531 54.0863 95.5126C53.6004 95.44 53.1054 95.5595 52.7068 95.8453C52.1634 96.2195 51.4109 96.552 51.7035 97.5083C51.9962 98.4646 52.5393 100.377 52.9156 101.666C53.1124 102.119 53.2082 102.609 53.1962 103.102C53.1843 103.595 53.0648 104.08 52.8462 104.522C52.6276 104.965 52.3151 105.355 51.9301 105.666C51.5452 105.977 51.0971 106.201 50.6166 106.323C49.446 106.781 48.2337 107.28 47.0213 107.695C46.6157 107.891 46.1731 108 45.7225 108.015C45.272 108.03 44.8232 107.95 44.4054 107.782C43.9876 107.613 43.6103 107.359 43.2975 107.037C42.9847 106.714 42.7435 106.329 42.5897 105.907C41.8371 104.577 41.1264 103.246 40.4994 101.749C40.1649 101.001 39.5797 101.001 38.9526 101.043C38.3255 101.084 37.6146 101.043 37.2384 101.791C36.8621 102.54 36.0262 104.577 35.3573 105.949C35.2115 106.388 34.974 106.791 34.6607 107.133C34.3474 107.474 33.9652 107.746 33.539 107.931C33.1129 108.115 32.6524 108.208 32.1877 108.203C31.723 108.198 31.2648 108.096 30.8425 107.903C29.5465 107.487 28.2503 107.072 26.9962 106.573C26.5622 106.464 26.1557 106.267 25.8015 105.995C25.4473 105.723 25.1527 105.381 24.937 104.991C24.7213 104.601 24.589 104.171 24.5476 103.728C24.5063 103.285 24.5568 102.838 24.6966 102.415C24.9893 101.001 25.3242 99.5875 25.7004 98.257C26.0767 96.9264 25.7004 96.8848 25.1151 96.3858C24.5298 95.8869 23.9445 95.471 23.0248 96.0115C22.1051 96.552 20.3492 97.3006 18.8442 97.9242C18.4583 98.1338 18.034 98.2646 17.5965 98.309C17.159 98.3533 16.7167 98.3104 16.2962 98.1826C15.8756 98.0548 15.4853 97.8446 15.1474 97.5646C14.8096 97.2847 14.5312 96.9404 14.3289 96.5521C13.5764 95.3878 12.8242 94.1821 12.1135 92.9763C11.6313 92.2578 11.4527 91.3794 11.617 90.5311C11.7813 89.6828 12.2752 88.9328 12.9913 88.444C14.2873 87.4461 15.6247 86.5315 16.8371 85.492C17.0044 85.3417 17.1338 85.154 17.2137 84.9444C17.2937 84.7347 17.3224 84.5089 17.2974 84.286C17.2974 83.6208 17.2975 82.706 16.2941 82.4565C15.2908 82.2071 13.2419 81.7082 11.6951 81.2924C11.2708 81.2277 10.8644 81.078 10.4999 80.8526C10.1354 80.6273 9.82031 80.3309 9.57417 79.9812C9.32803 79.6314 9.15607 79.2356 9.06793 78.8178C8.97978 78.4 8.97726 77.9688 9.0613 77.5502C9.0613 75.9702 9.47954 74.3487 9.77218 72.7687C9.91574 72.0789 10.293 71.4588 10.8408 71.0123C11.3886 70.5658 12.0738 70.3198 12.7821 70.3154C14.5379 70.3154 16.2938 70.3154 18.0497 70.3154C19.1366 70.3154 19.2202 69.6085 19.6383 69.0264C19.8476 68.8162 19.9649 68.5323 19.9649 68.2364C19.9649 67.9405 19.8476 67.6566 19.6383 67.4464C18.7186 66.2406 17.7988 64.9933 16.9627 63.7044C16.6757 63.3696 16.4616 62.9794 16.3329 62.5586C16.2042 62.1377 16.164 61.6951 16.215 61.2582C16.266 60.8212 16.4067 60.3993 16.6289 60.019C16.8511 59.6386 17.1498 59.3077 17.5062 59.0472L20.7671 56.2199C21.3603 55.6458 22.1554 55.3248 22.983 55.3248C23.8106 55.3248 24.6051 55.6458 25.1983 56.2199C26.4525 57.3425 27.7071 58.4236 28.8359 59.6294C29.9646 60.8352 30.2991 59.6294 30.9262 59.6294C31.142 59.5072 31.3284 59.3399 31.4727 59.1389C31.6171 58.9378 31.7159 58.708 31.7621 58.4653C32.0129 56.8853 32.0547 55.2636 32.2219 53.6836C32.243 52.8852 32.5711 52.1254 33.1389 51.5607C33.7068 50.996 34.4709 50.6694 35.2736 50.6484C36.9041 50.6484 38.5346 50.6484 40.1233 50.6484C40.88 50.6517 41.6103 50.9269 42.1788 51.4237C42.7474 51.9204 43.1159 52.6049 43.2168 53.3509C43.5095 54.8477 43.6768 56.3863 43.844 57.8831C43.844 58.7147 43.8442 59.2967 45.0147 59.5878C46.1853 59.8789 46.5193 60.0453 47.23 59.1721C48.194 58.0955 49.2125 57.0685 50.2818 56.0953C50.5556 55.7654 50.8936 55.4933 51.2749 55.2953C51.6562 55.0974 52.073 54.9775 52.5017 54.9426C52.9304 54.9077 53.3618 54.9586 53.7704 55.0923C54.1789 55.226 54.5567 55.4397 54.8808 55.7209C56.0514 56.6357 57.2218 57.5506 58.3505 58.5069C59.0024 59.0102 59.4383 59.7404 59.5702 60.5506C59.7021 61.3608 59.5204 62.1906 59.0614 62.8727C58.3089 64.1617 57.4725 65.3674 56.6363 66.6147C56.2183 67.2384 55.8838 67.7375 56.6363 68.5275C57.3889 69.3175 57.556 69.9413 58.6429 69.6502H59.1451L58.8103 69.8581ZM35.9008 55.0558C35.9008 55.8042 35.9008 56.6358 35.9008 57.4258C35.65 62.3322 35.5243 62.4983 30.9675 64.2447C30.2629 64.5514 29.4788 64.6283 28.7277 64.464C27.9765 64.2996 27.297 63.9026 26.7869 63.3301C25.6582 62.1658 24.5297 60.9184 23.4009 59.671L20.5161 62.2489C21.5612 63.7042 22.4813 65.0764 23.4846 66.4069C23.9579 66.987 24.2362 67.7 24.2812 68.4458C24.3262 69.1915 24.1353 69.9326 23.7352 70.5649C23.4425 71.0638 23.1919 71.5629 22.8993 72.0203C21.5615 74.4735 20.7669 74.8477 17.966 74.5982C16.5864 74.5982 15.165 74.598 13.7854 74.3901L13.2837 77.758L15.7506 78.3818C20.1402 79.6708 20.6834 78.9639 21.6449 84.5355C21.8147 85.2394 21.7658 85.978 21.5046 86.6536C21.2433 87.3292 20.7821 87.9101 20.1818 88.3194L16.0012 91.4795L17.13 93.392L17.7991 94.3898L20.3492 93.2257C24.5298 91.1052 24.5298 91.0219 28.7103 94.182C29.3656 94.6298 29.8554 95.2788 30.1045 96.0298C30.3537 96.7807 30.3483 97.5922 30.0898 98.3399C29.6717 99.9615 29.3372 101.625 28.9609 103.33L32.2219 104.411C32.9326 102.831 33.6851 101.417 34.2703 99.92C34.5452 99.1291 35.0759 98.4512 35.7794 97.9923C36.4828 97.5333 37.3197 97.3194 38.1585 97.3837C38.7142 97.4458 39.2747 97.4458 39.8303 97.3837C40.7139 97.2657 41.6117 97.4531 42.3728 97.9149C43.1339 98.3766 43.7121 99.0846 44.0109 99.92C44.6798 101.375 45.4742 102.747 46.1849 104.078L49.3622 102.789C49.1857 101.815 48.9344 100.856 48.61 99.92C48.2465 99.2729 48.0172 98.56 47.9363 97.8232C47.8554 97.0865 47.9244 96.3409 48.1389 95.6311C48.3534 94.9213 48.7092 94.2615 49.1851 93.6912C49.661 93.1208 50.2471 92.6514 50.909 92.3109C51.5119 91.7849 52.2541 91.4426 53.0472 91.3247C53.8404 91.2067 54.6513 91.3182 55.3825 91.6457C56.8875 92.3526 58.4342 92.9348 59.981 93.6001L61.6534 90.5646C60.8782 89.964 60.0682 89.4088 59.2283 88.9016C58.4967 88.6304 57.83 88.2111 57.2697 87.6705C56.7093 87.1298 56.2676 86.4793 55.9729 85.7603C55.6782 85.0412 55.5369 84.2692 55.5575 83.493C55.5782 82.7168 55.7603 81.9534 56.0929 81.2508C56.2317 80.5413 56.5679 79.8847 57.063 79.3556C57.5581 78.8264 58.1925 78.446 58.894 78.2572L63.7855 76.7602L63.1583 73.5587C62.1171 73.4308 61.0641 73.4308 60.0229 73.5587C59.3155 73.8014 58.5658 73.8971 57.8198 73.8404C57.0737 73.7837 56.3471 73.5756 55.6851 73.2288C55.0231 72.882 54.4395 72.4041 53.9704 71.8244C53.5013 71.2446 53.1564 70.5754 52.9574 69.8581C52.564 69.2352 52.3557 68.5146 52.3557 67.7791C52.3557 67.0436 52.564 66.323 52.9574 65.7001C53.9189 64.328 54.7971 62.8727 55.7586 61.5422L52.7068 59.1305C51.4945 60.5442 50.4494 61.9995 49.1535 63.2884C48.4316 63.7207 47.6273 63.9996 46.7917 64.1076C45.9561 64.2157 45.1072 64.1504 44.2982 63.916C43.4892 63.6817 42.7376 63.2835 42.0911 62.7461C41.4445 62.2087 40.9168 61.544 40.5412 60.7938C40.2904 59.7543 40.2486 58.7147 40.0814 57.6337C39.5797 54.6815 39.5799 54.6815 36.5699 55.0142L35.9008 55.0558Z" fill="#124F2E"/>
<path d="M105.926 74.1809C103.835 74.1809 101.745 74.1809 99.6966 74.1809C98.339 74.2518 97.0026 73.8256 95.9396 72.9828C94.8765 72.14 94.1606 70.9393 93.9273 69.6073C93.6543 68.2193 93.9393 66.7801 94.7209 65.5985C95.5024 64.417 96.7183 63.5872 98.1079 63.2871L110.65 59.8359C111.506 59.5568 112.418 59.486 113.307 59.6291C114.197 59.7722 115.04 60.1251 115.764 60.6584C116.489 61.1917 117.074 61.8899 117.472 62.6945C117.869 63.4991 118.067 64.3865 118.049 65.2828C118.049 66.2392 118.049 67.2371 118.049 68.1934C118.083 69.6752 117.526 71.1102 116.5 72.1852C115.474 73.2601 114.062 73.8879 112.573 73.9314C110.315 74.1393 108.016 74.1393 105.926 74.1809ZM105.926 70.0229H112.196C113.618 70.0229 114.119 69.4825 114.119 68.0688C114.119 66.6551 114.119 66.2808 114.119 65.3661C114.119 64.4513 113.158 63.2456 111.695 63.6198L99.4036 67.0293C98.4003 67.2788 97.7315 67.8194 97.8987 68.9005C98.0659 69.9815 98.8188 70.314 99.8221 70.2724L105.926 70.0229Z" fill="#124F2E"/>
<path d="M116.376 53.0992L115.665 52.6419C114.957 51.6292 114.508 50.4603 114.355 49.2362C114.202 48.0121 114.35 46.7693 114.788 45.615C115.144 44.4448 115.86 43.4149 116.834 42.6693C117.809 41.9238 118.994 41.4998 120.223 41.457C122.776 41.1628 125.359 41.6564 127.622 42.8708C128.528 43.2868 129.296 43.9523 129.834 44.7887C130.372 45.625 130.658 46.5972 130.658 47.5902C130.658 48.5831 130.372 49.5551 129.834 50.3914C129.296 51.2277 128.528 51.8932 127.622 52.3092C125.93 53.2806 124.039 53.8567 122.091 53.9936C120.143 54.1304 118.188 53.8245 116.376 53.0992ZM121.1 49.9808V50.3135C122.629 49.8995 124.124 49.3713 125.573 48.7334C127.078 47.985 127.037 46.8208 125.573 46.1555C124.033 45.5738 122.411 45.237 120.766 45.1577C118.885 45.1577 118.132 46.2388 118.215 48.5672C118.215 49.9809 118.216 49.9808 120.641 49.9808H121.1Z" fill="#124F2E"/>
<path d="M85.4824 81.8759L72.9407 82.1253C72.4808 82.1253 71.8957 82.1253 71.5613 82.1253C71.2268 82.1253 70.1818 81.2104 70.0982 80.6699C70.1621 79.9185 70.4872 79.2129 71.0178 78.6742C71.2268 78.3831 71.8536 78.383 72.3135 78.3415L98.6932 77.8009C99.1113 77.8009 99.6967 77.8009 99.9057 77.8009C100.491 78.2879 100.914 78.9405 101.118 79.672C101.141 79.8876 101.119 80.1058 101.052 80.3121C100.985 80.5184 100.874 80.7082 100.728 80.8691C100.582 81.0301 100.404 81.1585 100.204 81.246C100.005 81.3335 99.789 81.3782 99.571 81.3769C98.4422 81.3769 97.2719 81.3769 96.1431 81.3769L85.4824 81.8759Z" fill="#124F2E"/>
<path d="M38.4085 93.473C36.6128 93.523 34.8253 93.2149 33.1511 92.567C31.477 91.9192 29.9503 90.9446 28.6608 89.7008C27.3712 88.457 26.3451 86.969 25.6427 85.3246C24.9403 83.6802 24.5759 81.9126 24.571 80.1259C24.6743 76.6522 26.1148 73.3507 28.5955 70.9032C31.0761 68.4558 34.4074 67.0494 37.9007 66.9747C41.3941 66.9 44.7826 68.1626 47.3668 70.5018C49.9509 72.8409 51.5334 76.0779 51.7867 79.544C51.8837 81.3459 51.6086 83.1486 50.9788 84.8409C50.349 86.5332 49.3778 88.0792 48.1246 89.3841C46.8714 90.689 45.3628 91.725 43.6919 92.4282C42.021 93.1314 40.2228 93.4869 38.4085 93.473ZM47.8148 79.8764C47.7874 78.6151 47.5105 77.3715 46.9998 76.2167C46.4892 75.0618 45.7548 74.0182 44.8386 73.1456C43.9224 72.2731 42.8425 71.5886 41.6603 71.1311C40.4781 70.6737 39.2169 70.4521 37.9487 70.4794C36.6805 70.5067 35.4304 70.7823 34.2693 71.2903C33.1081 71.7982 32.0586 72.5286 31.1813 73.4398C30.3039 74.351 29.6158 75.4251 29.1558 76.6009C28.6958 77.7766 28.4731 79.0311 28.5005 80.2924C28.556 82.8398 29.6265 85.2609 31.4768 87.0232C33.327 88.7854 35.8054 89.7445 38.3667 89.6894C40.9279 89.6343 43.3622 88.5693 45.1341 86.729C46.9059 84.8888 47.8703 82.4238 47.8148 79.8764Z" fill="#124F2E"/>
<path d="M104 95H121V105H104V95Z" stroke="#124F2E" stroke-width="0.25" stroke-miterlimit="10"/>
<path d="M96.9998 66L114 62.5L115.5 71.5L98.4998 73L96.9998 66Z" stroke="#124F2E" stroke-width="0.25" stroke-miterlimit="10"/>
<path d="M117 44.5L128 45V50L117 52V44.5Z" stroke="#124F2E" stroke-width="0.25" stroke-miterlimit="10"/>
<path d="M84.9998 48L91.4998 47L97.9998 48V52H84.9998V48Z" stroke="#124F2E" stroke-width="0.25" stroke-miterlimit="10"/>
<path d="M47.9998 80C47.9998 85.5228 43.5226 90 37.9998 90C32.4769 90 27.9998 85.5228 27.9998 80C27.9998 74.4772 32.4769 70 37.9998 70C43.5226 70 47.9998 74.4772 47.9998 80Z" stroke="#124F2E" stroke-width="0.25" stroke-miterlimit="10"/>
<path d="M116.377 53.1C120.91 56.8176 123.817 62.1385 124.487 67.9439C125.491 73.8898 126.285 79.9189 126.996 85.9479C127.321 87.4252 127.27 88.96 126.847 90.4124C126.423 91.8649 125.641 93.1889 124.571 94.2638C124.356 94.612 124.268 95.0227 124.32 95.4279C124.32 97.299 124.32 99.1702 124.32 101.041C124.414 101.944 124.308 102.855 124.01 103.713C123.713 104.57 123.23 105.353 122.598 106.006C121.965 106.659 121.197 107.167 120.346 107.495C119.495 107.822 118.584 107.961 117.673 107.902H107.682C106.808 107.96 105.931 107.836 105.107 107.539C104.284 107.241 103.532 106.777 102.898 106.174C102.265 105.572 101.765 104.845 101.43 104.04C101.094 103.235 100.932 102.37 100.951 101.499C100.951 99.6691 100.951 97.8813 100.951 95.8855H99.3206L70.3908 96.509H68.9695C68.522 96.478 68.1021 96.2817 67.7927 95.9586C67.4833 95.6354 67.3065 95.2089 67.2972 94.7628C67.2619 94.5276 67.274 94.2879 67.3329 94.0575C67.3919 93.8271 67.4966 93.6107 67.6406 93.421C67.7847 93.2313 67.9652 93.072 68.1719 92.9525C68.3785 92.8331 68.607 92.756 68.844 92.7254C69.2757 92.7032 69.708 92.7032 70.1397 92.7254L108.936 91.9354H110.524V88.8585H109.019L71.3941 89.6486C70.9224 89.7109 70.4446 89.7109 69.9728 89.6486C69.5147 89.5966 69.0929 89.3753 68.7909 89.0288C68.489 88.6823 68.3289 88.2358 68.3423 87.7774C68.3194 87.5414 68.3452 87.3031 68.4179 87.0772C68.4905 86.8514 68.6084 86.6426 68.7649 86.4636C68.9214 86.2846 69.113 86.1392 69.3278 86.0362C69.5426 85.9333 69.7764 85.8749 70.0147 85.8647C70.5294 85.8219 71.0468 85.8219 71.5615 85.8647L111.235 85.033C114.078 85.033 114.496 85.4073 114.579 88.2347C114.579 89.4405 114.579 90.6048 114.579 91.8938C116.711 91.8938 118.76 91.8938 120.85 91.8938C122.94 91.8938 123.108 90.6881 123.024 88.9002C123.024 85.9896 122.648 83.0789 122.314 80.1683C121.812 76.2598 121.227 72.3514 120.558 68.4845C120.067 65.197 118.791 62.0744 116.837 59.3785C115.727 57.8101 114.237 56.5457 112.505 55.7025C110.773 54.8594 108.855 54.4649 106.929 54.5554L60.5665 55.5117H59.3958C59.1288 55.5285 58.861 55.4921 58.6084 55.4046C58.3558 55.317 58.1237 55.18 57.9251 55.0018C57.7264 54.8236 57.5655 54.6078 57.452 54.3669C57.3385 54.1259 57.2743 53.8648 57.2637 53.5989C57.2573 53.3334 57.3068 53.0696 57.4086 52.8241C57.5104 52.5786 57.6625 52.3568 57.8552 52.1729C58.0479 51.9891 58.2769 51.8472 58.5278 51.7562C58.7786 51.6653 59.0457 51.6274 59.3121 51.6448H70.0984L79.0444 51.437C79.3727 51.4732 79.7041 51.4039 79.99 51.2393C80.2759 51.0747 80.5011 50.8233 80.633 50.5221C81.7457 48.7858 83.2734 47.3504 85.0795 46.3441C86.8855 45.3377 88.9141 44.7917 90.9839 44.7546C93.0538 44.7176 95.1002 45.1909 96.9415 46.1319C98.7827 47.073 100.361 48.4527 101.536 50.148C101.536 50.4806 102.122 50.8964 102.414 50.8964C104.714 50.8964 107.054 50.8964 109.563 50.8964C108.643 47.9858 107.723 45.3248 106.929 42.5805C106.387 40.3883 105.257 38.3835 103.659 36.7798C102.062 35.1762 100.056 34.0338 97.857 33.4746C92.844 31.8803 87.6102 31.0805 82.3472 31.1045C75.5328 31.1045 68.7184 31.3955 61.9041 31.8113C57.3522 32.1118 52.8853 33.1805 48.6938 34.9714C47.0537 35.6098 45.5723 36.5949 44.3525 37.8584C43.1326 39.1219 42.2032 40.6337 41.6284 42.2894C41.0849 43.7447 40.5831 45.2 39.9979 46.6968C39.4126 48.1937 38.5347 48.6511 37.4059 48.2353C37.1339 48.1381 36.8862 47.9837 36.6797 47.7825C36.4733 47.5813 36.3129 47.3381 36.2097 47.0696C36.1065 46.8012 36.0633 46.5137 36.0821 46.2268C36.101 45.94 36.1815 45.6607 36.3189 45.4079C36.9042 43.7863 37.5316 42.1231 38.1587 40.5015C39.2712 37.827 41.0269 35.4651 43.2721 33.6235C45.5173 31.782 48.1829 30.5171 51.0347 29.9402C55.7883 28.5793 60.6842 27.7703 65.6249 27.5287C75.5697 26.5287 85.6072 26.9487 95.4324 28.7761C97.255 29.1984 99.0437 29.7544 100.784 30.4394C103.071 31.2476 105.132 32.5852 106.796 34.342C108.461 36.0988 109.682 38.2245 110.357 40.5431C111.486 44.0774 112.698 47.6116 113.785 51.1459C113.88 51.6225 114.112 52.0613 114.454 52.4084C114.795 52.7556 115.231 52.9958 115.708 53.1H116.377ZM104.839 96.0101C104.839 98.0891 104.839 100.168 104.839 101.998C104.832 102.279 104.885 102.559 104.993 102.82C105.102 103.081 105.263 103.316 105.467 103.512C105.671 103.707 105.914 103.858 106.18 103.955C106.446 104.053 106.73 104.094 107.013 104.077L118.384 103.827C118.869 103.839 119.34 103.664 119.698 103.338C120.057 103.013 120.274 102.562 120.307 102.081C120.307 99.9602 120.307 97.9229 120.307 95.6776L104.839 96.0101ZM97.0211 50.5637C96.2274 49.8004 95.2896 49.2011 94.2617 48.8002C93.2339 48.3993 92.1363 48.2047 91.0324 48.2279C89.9286 48.2511 88.8401 48.4914 87.8301 48.9352C86.8202 49.3789 85.909 50.0172 85.1484 50.8132L97.0211 50.5637Z" stroke="#124F2E" stroke-width="0.25" stroke-miterlimit="10"/>
<path d="M58.8103 69.8581C60.1899 69.8581 61.6113 69.5669 62.9909 69.5254C63.7458 69.4384 64.5059 69.6387 65.1185 70.086C65.7311 70.5333 66.151 71.1946 66.2937 71.937C66.7118 73.6002 67.0462 75.2635 67.297 76.9266C67.3916 77.692 67.2016 78.4651 66.7627 79.1008C66.3238 79.7364 65.666 80.1905 64.9138 80.3776C63.4506 80.8765 61.9874 81.3339 60.7332 81.7081C60.0225 81.916 59.6048 82.1655 59.5212 82.9555C59.4376 83.7455 59.1864 84.5356 60.2316 85.1177C61.5089 85.8723 62.7376 86.7057 63.9105 87.6126C64.2922 87.8342 64.6248 88.1306 64.8878 88.4838C65.1508 88.8371 65.3388 89.2397 65.4405 89.6675C65.5421 90.0952 65.5554 90.5392 65.4793 90.9722C65.4031 91.4052 65.2391 91.8182 64.9975 92.1863C64.2868 93.4752 63.6179 94.7225 62.8654 95.9699C62.4811 96.6912 61.8344 97.2394 61.0573 97.5022C60.2802 97.765 59.4315 97.7225 58.6848 97.3837C57.138 96.8016 55.6331 96.0531 54.0863 95.5126C53.6004 95.44 53.1054 95.5595 52.7068 95.8453C52.1634 96.2195 51.4109 96.552 51.7035 97.5083C51.9962 98.4646 52.5393 100.377 52.9156 101.666C53.1124 102.119 53.2082 102.609 53.1962 103.102C53.1843 103.595 53.0648 104.08 52.8462 104.522C52.6276 104.965 52.3151 105.355 51.9301 105.666C51.5452 105.977 51.0971 106.201 50.6166 106.323C49.446 106.781 48.2337 107.28 47.0213 107.695C46.6157 107.891 46.1731 108 45.7225 108.015C45.272 108.03 44.8232 107.95 44.4054 107.782C43.9876 107.613 43.6103 107.359 43.2975 107.037C42.9847 106.714 42.7435 106.329 42.5897 105.907C41.8371 104.577 41.1264 103.246 40.4994 101.749C40.1649 101.001 39.5797 101.001 38.9526 101.043C38.3255 101.084 37.6146 101.043 37.2384 101.791C36.8621 102.54 36.0262 104.577 35.3573 105.949C35.2115 106.388 34.974 106.791 34.6607 107.133C34.3474 107.474 33.9652 107.746 33.539 107.931C33.1129 108.115 32.6524 108.208 32.1877 108.203C31.723 108.198 31.2648 108.096 30.8425 107.903C29.5465 107.487 28.2503 107.072 26.9962 106.573C26.5622 106.464 26.1557 106.267 25.8015 105.995C25.4473 105.723 25.1527 105.381 24.937 104.991C24.7213 104.601 24.589 104.171 24.5476 103.728C24.5063 103.285 24.5568 102.838 24.6966 102.415C24.9893 101.001 25.3242 99.5875 25.7004 98.257C26.0767 96.9264 25.7004 96.8848 25.1151 96.3858C24.5298 95.8869 23.9445 95.471 23.0248 96.0115C22.1051 96.552 20.3492 97.3006 18.8442 97.9242C18.4583 98.1338 18.034 98.2646 17.5965 98.309C17.159 98.3533 16.7167 98.3104 16.2962 98.1826C15.8756 98.0548 15.4853 97.8446 15.1474 97.5646C14.8096 97.2847 14.5312 96.9404 14.3289 96.5521C13.5764 95.3878 12.8242 94.1821 12.1135 92.9763C11.6313 92.2578 11.4527 91.3794 11.617 90.5311C11.7813 89.6828 12.2752 88.9328 12.9913 88.444C14.2873 87.4461 15.6247 86.5315 16.8371 85.492C17.0044 85.3417 17.1338 85.154 17.2137 84.9444C17.2937 84.7347 17.3224 84.5089 17.2974 84.286C17.2974 83.6208 17.2975 82.706 16.2941 82.4565C15.2908 82.2071 13.2419 81.7082 11.6951 81.2924C11.2708 81.2277 10.8644 81.078 10.4999 80.8526C10.1354 80.6273 9.82031 80.3309 9.57417 79.9812C9.32803 79.6314 9.15607 79.2356 9.06793 78.8178C8.97978 78.4 8.97726 77.9688 9.0613 77.5502C9.0613 75.9702 9.47954 74.3487 9.77218 72.7687C9.91574 72.0789 10.293 71.4588 10.8408 71.0123C11.3886 70.5658 12.0738 70.3198 12.7821 70.3154C14.5379 70.3154 16.2938 70.3154 18.0497 70.3154C19.1366 70.3154 19.2202 69.6085 19.6383 69.0264C19.8476 68.8162 19.9649 68.5323 19.9649 68.2364C19.9649 67.9405 19.8476 67.6566 19.6383 67.4464C18.7186 66.2406 17.7988 64.9933 16.9627 63.7044C16.6757 63.3696 16.4616 62.9794 16.3329 62.5586C16.2042 62.1377 16.164 61.6951 16.215 61.2582C16.266 60.8212 16.4067 60.3993 16.6289 60.019C16.8511 59.6386 17.1498 59.3077 17.5062 59.0472L20.7671 56.2199C21.3603 55.6458 22.1554 55.3248 22.983 55.3248C23.8106 55.3248 24.6051 55.6458 25.1983 56.2199C26.4525 57.3425 27.7071 58.4236 28.8359 59.6294C29.9646 60.8352 30.2991 59.6294 30.9262 59.6294C31.142 59.5072 31.3284 59.3399 31.4727 59.1389C31.6171 58.9378 31.7159 58.708 31.7621 58.4653C32.0129 56.8853 32.0547 55.2636 32.2219 53.6836C32.243 52.8852 32.5711 52.1254 33.1389 51.5607C33.7068 50.996 34.4709 50.6694 35.2736 50.6484C36.9041 50.6484 38.5346 50.6484 40.1233 50.6484C40.88 50.6517 41.6103 50.9269 42.1788 51.4237C42.7474 51.9204 43.1159 52.6049 43.2168 53.3509C43.5095 54.8477 43.6768 56.3863 43.844 57.8831C43.844 58.7147 43.8442 59.2967 45.0147 59.5878C46.1853 59.8789 46.5193 60.0453 47.23 59.1721C48.194 58.0955 49.2125 57.0685 50.2818 56.0953C50.5556 55.7654 50.8936 55.4933 51.2749 55.2953C51.6562 55.0974 52.073 54.9775 52.5017 54.9426C52.9304 54.9077 53.3618 54.9586 53.7704 55.0923C54.1789 55.226 54.5567 55.4397 54.8808 55.7209C56.0514 56.6357 57.2218 57.5506 58.3505 58.5069C59.0024 59.0102 59.4383 59.7404 59.5702 60.5506C59.7021 61.3608 59.5204 62.1906 59.0614 62.8727C58.3089 64.1617 57.4725 65.3674 56.6363 66.6147C56.2183 67.2384 55.8838 67.7375 56.6363 68.5275C57.3889 69.3175 57.556 69.9413 58.6429 69.6502H59.1451L58.8103 69.8581ZM35.9008 55.0558C35.9008 55.8042 35.9008 56.6358 35.9008 57.4258C35.65 62.3322 35.5243 62.4983 30.9675 64.2447C30.2629 64.5514 29.4788 64.6283 28.7277 64.464C27.9765 64.2996 27.297 63.9026 26.7869 63.3301C25.6582 62.1658 24.5297 60.9184 23.4009 59.671L20.5161 62.2489C21.5612 63.7042 22.4813 65.0764 23.4846 66.4069C23.9579 66.987 24.2362 67.7 24.2812 68.4458C24.3262 69.1915 24.1353 69.9326 23.7352 70.5649C23.4425 71.0638 23.1919 71.5629 22.8993 72.0203C21.5615 74.4735 20.7669 74.8477 17.966 74.5982C16.5864 74.5982 15.165 74.598 13.7854 74.3901L13.2837 77.758L15.7506 78.3818C20.1402 79.6708 20.6834 78.9639 21.6449 84.5355C21.8147 85.2394 21.7658 85.978 21.5046 86.6536C21.2433 87.3292 20.7821 87.9101 20.1818 88.3194L16.0012 91.4795L17.13 93.392L17.7991 94.3898L20.3492 93.2257C24.5298 91.1052 24.5298 91.0219 28.7103 94.182C29.3656 94.6298 29.8554 95.2788 30.1045 96.0298C30.3537 96.7807 30.3483 97.5922 30.0898 98.3399C29.6717 99.9615 29.3372 101.625 28.9609 103.33L32.2219 104.411C32.9326 102.831 33.6851 101.417 34.2703 99.92C34.5452 99.1291 35.0759 98.4512 35.7794 97.9923C36.4828 97.5333 37.3197 97.3194 38.1585 97.3837C38.7142 97.4458 39.2747 97.4458 39.8303 97.3837C40.7139 97.2657 41.6117 97.4531 42.3728 97.9149C43.1339 98.3766 43.7121 99.0846 44.0109 99.92C44.6798 101.375 45.4742 102.747 46.1849 104.078L49.3622 102.789C49.1857 101.815 48.9344 100.856 48.61 99.92C48.2465 99.2729 48.0172 98.56 47.9363 97.8232C47.8554 97.0865 47.9244 96.3409 48.1389 95.6311C48.3534 94.9213 48.7092 94.2615 49.1851 93.6912C49.661 93.1208 50.2471 92.6514 50.909 92.3109C51.5119 91.7849 52.2541 91.4426 53.0472 91.3247C53.8404 91.2067 54.6513 91.3182 55.3825 91.6457C56.8875 92.3526 58.4342 92.9348 59.981 93.6001L61.6534 90.5646C60.8782 89.964 60.0682 89.4088 59.2283 88.9016C58.4967 88.6304 57.83 88.2111 57.2697 87.6705C56.7093 87.1298 56.2676 86.4793 55.9729 85.7603C55.6782 85.0412 55.5369 84.2692 55.5575 83.493C55.5782 82.7168 55.7603 81.9534 56.0929 81.2508C56.2317 80.5413 56.5679 79.8847 57.063 79.3556C57.5581 78.8264 58.1925 78.446 58.894 78.2572L63.7855 76.7602L63.1583 73.5587C62.1171 73.4308 61.0641 73.4308 60.0229 73.5587C59.3155 73.8014 58.5658 73.8971 57.8198 73.8404C57.0737 73.7837 56.3471 73.5756 55.6851 73.2288C55.0231 72.882 54.4395 72.4041 53.9704 71.8244C53.5013 71.2446 53.1564 70.5754 52.9574 69.8581C52.564 69.2352 52.3557 68.5146 52.3557 67.7791C52.3557 67.0436 52.564 66.323 52.9574 65.7001C53.9189 64.328 54.7971 62.8727 55.7586 61.5422L52.7068 59.1305C51.4945 60.5442 50.4494 61.9995 49.1535 63.2884C48.4316 63.7207 47.6273 63.9996 46.7917 64.1076C45.9561 64.2157 45.1072 64.1504 44.2982 63.916C43.4892 63.6817 42.7376 63.2835 42.0911 62.7461C41.4445 62.2087 40.9168 61.544 40.5412 60.7938C40.2904 59.7543 40.2486 58.7147 40.0814 57.6337C39.5797 54.6815 39.5799 54.6815 36.5699 55.0142L35.9008 55.0558Z" stroke="#124F2E" stroke-width="0.25" stroke-miterlimit="10"/>
<path d="M105.926 74.1809C103.835 74.1809 101.745 74.1809 99.6966 74.1809C98.339 74.2518 97.0026 73.8256 95.9396 72.9828C94.8765 72.14 94.1606 70.9393 93.9273 69.6073C93.6543 68.2193 93.9393 66.7801 94.7209 65.5985C95.5024 64.417 96.7183 63.5872 98.1079 63.2871L110.65 59.8359C111.506 59.5568 112.418 59.486 113.307 59.6291C114.197 59.7722 115.04 60.1251 115.764 60.6584C116.489 61.1917 117.074 61.8899 117.472 62.6945C117.869 63.4991 118.067 64.3865 118.049 65.2828C118.049 66.2392 118.049 67.2371 118.049 68.1934C118.083 69.6752 117.526 71.1102 116.5 72.1852C115.474 73.2601 114.062 73.8879 112.573 73.9314C110.315 74.1393 108.016 74.1393 105.926 74.1809ZM105.926 70.0229H112.196C113.618 70.0229 114.119 69.4825 114.119 68.0688C114.119 66.6551 114.119 66.2808 114.119 65.3661C114.119 64.4513 113.158 63.2456 111.695 63.6198L99.4036 67.0293C98.4003 67.2788 97.7315 67.8194 97.8987 68.9005C98.0659 69.9815 98.8188 70.314 99.8221 70.2724L105.926 70.0229Z" stroke="#124F2E" stroke-width="0.25" stroke-miterlimit="10"/>
<path d="M116.376 53.0992L115.665 52.6419C114.957 51.6292 114.508 50.4603 114.355 49.2362C114.202 48.0121 114.35 46.7693 114.788 45.615C115.144 44.4448 115.86 43.4149 116.834 42.6693C117.809 41.9238 118.994 41.4998 120.223 41.457C122.776 41.1628 125.359 41.6564 127.622 42.8708C128.528 43.2868 129.296 43.9523 129.834 44.7887C130.372 45.625 130.658 46.5972 130.658 47.5902C130.658 48.5831 130.372 49.5551 129.834 50.3914C129.296 51.2277 128.528 51.8932 127.622 52.3092C125.93 53.2806 124.039 53.8567 122.091 53.9936C120.143 54.1304 118.188 53.8245 116.376 53.0992ZM121.1 49.9808V50.3135C122.629 49.8995 124.124 49.3713 125.573 48.7334C127.078 47.985 127.037 46.8208 125.573 46.1555C124.033 45.5738 122.411 45.237 120.766 45.1577C118.885 45.1577 118.132 46.2388 118.215 48.5672C118.215 49.9809 118.216 49.9808 120.641 49.9808H121.1Z" stroke="#124F2E" stroke-width="0.25" stroke-miterlimit="10"/>
<path d="M85.4824 81.8759L72.9407 82.1253C72.4808 82.1253 71.8957 82.1253 71.5613 82.1253C71.2268 82.1253 70.1818 81.2104 70.0982 80.6699C70.1621 79.9185 70.4872 79.2129 71.0178 78.6742C71.2268 78.3831 71.8536 78.383 72.3135 78.3415L98.6932 77.8009C99.1113 77.8009 99.6967 77.8009 99.9057 77.8009C100.491 78.2879 100.914 78.9405 101.118 79.672C101.141 79.8876 101.119 80.1058 101.052 80.3121C100.985 80.5184 100.874 80.7082 100.728 80.8691C100.582 81.0301 100.404 81.1585 100.204 81.246C100.005 81.3335 99.789 81.3782 99.571 81.3769C98.4422 81.3769 97.2719 81.3769 96.1431 81.3769L85.4824 81.8759Z" stroke="#124F2E" stroke-width="0.25" stroke-miterlimit="10"/>
<path d="M38.4085 93.473C36.6128 93.523 34.8253 93.2149 33.1511 92.567C31.477 91.9192 29.9503 90.9446 28.6608 89.7008C27.3712 88.457 26.3451 86.969 25.6427 85.3246C24.9403 83.6802 24.5759 81.9126 24.571 80.1259C24.6743 76.6522 26.1148 73.3507 28.5955 70.9032C31.0761 68.4558 34.4074 67.0494 37.9007 66.9747C41.3941 66.9 44.7826 68.1626 47.3668 70.5018C49.9509 72.8409 51.5334 76.0779 51.7867 79.544C51.8837 81.3459 51.6086 83.1486 50.9788 84.8409C50.349 86.5332 49.3778 88.0792 48.1246 89.3841C46.8714 90.689 45.3628 91.725 43.6919 92.4282C42.021 93.1314 40.2228 93.4869 38.4085 93.473ZM47.8148 79.8764C47.7874 78.6151 47.5105 77.3715 46.9998 76.2167C46.4892 75.0618 45.7548 74.0182 44.8386 73.1456C43.9224 72.2731 42.8425 71.5886 41.6603 71.1311C40.4781 70.6737 39.2169 70.4521 37.9487 70.4794C36.6805 70.5067 35.4304 70.7823 34.2693 71.2903C33.1081 71.7982 32.0586 72.5286 31.1813 73.4398C30.3039 74.351 29.6158 75.4251 29.1558 76.6009C28.6958 77.7766 28.4731 79.0311 28.5005 80.2924C28.556 82.8398 29.6265 85.2609 31.4768 87.0232C33.327 88.7854 35.8054 89.7445 38.3667 89.6894C40.9279 89.6343 43.3622 88.5693 45.1341 86.729C46.9059 84.8888 47.8703 82.4238 47.8148 79.8764Z" stroke="#124F2E" stroke-width="0.25" stroke-miterlimit="10"/>
</svg>
