<svg width="140" height="135" viewBox="0 0 140 135" fill="none" xmlns="http://www.w3.org/2000/svg">
<path d="M27 40.5C27 42.433 25.433 44 23.5 44C21.567 44 20 42.433 20 40.5C20 38.567 21.567 37 23.5 37C25.433 37 27 38.567 27 40.5Z" fill="#43B02A"/>
<path d="M118 25.5C118 27.433 116.433 29 114.5 29C112.567 29 111 27.433 111 25.5C111 23.567 112.567 22 114.5 22C116.433 22 118 23.567 118 25.5Z" fill="#43B02A"/>
<path d="M51 109H107V115H51V109Z" fill="#43B02A"/>
<path d="M57 25L70.5 21L84 25L71.5 29.5L57 25Z" fill="#43B02A"/>
<path d="M32 66H49L42.5 83H25.5L32 66Z" fill="#43B02A"/>
<path d="M51 66H104L112.5 83H60L51 66Z" fill="#43B02A"/>
<path d="M107.548 64.8065C107.378 64.4366 107.106 64.1239 106.764 63.9054C106.423 63.6869 106.026 63.5718 105.622 63.5739H33.0787C32.6761 63.5806 32.2835 63.6992 31.9435 63.9166C31.6035 64.1341 31.3294 64.4421 31.152 64.8065L22.3713 82.5099C22.219 82.8441 22.1508 83.211 22.1723 83.5781C22.1939 83.9453 22.3049 84.3014 22.4952 84.6151C22.6856 84.9289 22.9497 85.1905 23.2641 85.377C23.5785 85.5635 23.9335 85.6692 24.298 85.6846H31.0041V116.684C31.0134 117.289 31.2531 117.867 31.6739 118.299C32.0948 118.73 32.6643 118.981 33.2641 119H105.918C106.518 118.981 107.087 118.73 107.508 118.299C107.929 117.867 108.169 117.289 108.178 116.684V85.6846H114.847C115.215 85.6751 115.574 85.5738 115.894 85.3897C116.213 85.2057 116.482 84.9447 116.677 84.6301C116.871 84.3154 116.985 83.9571 117.009 83.587C117.032 83.217 116.964 82.8469 116.81 82.5099L107.548 64.8065ZM34.4866 67.9812H47.1577L40.6369 81.2775H28.1142L34.4866 67.9812ZM41.8594 85.6846C42.2674 85.6806 42.6668 85.5635 43.0131 85.3461C43.3595 85.1287 43.6395 84.8193 43.8231 84.452L48.3801 75.0775V114.369H35.1908V85.6846H41.8594ZM52.9372 114.555V110.186H103.51V114.593L52.9372 114.555ZM103.51 105.704H94.8033V98.9809C94.8446 98.6547 94.8165 98.3233 94.7209 98.0089C94.6254 97.6944 94.4644 97.4042 94.2488 97.1573C94.0332 96.9105 93.7682 96.7127 93.4709 96.5773C93.1736 96.4418 92.851 96.3717 92.5248 96.3717C92.1985 96.3717 91.8759 96.4418 91.5786 96.5773C91.2813 96.7127 91.0163 96.9105 90.8007 97.1573C90.5852 97.4042 90.4242 97.6944 90.3286 98.0089C90.233 98.3233 90.2049 98.6547 90.2462 98.9809V105.704H87.9492V98.9809C87.9905 98.6547 87.9625 98.3233 87.8669 98.0089C87.7713 97.6944 87.6103 97.4042 87.3947 97.1573C87.1791 96.9105 86.9137 96.7127 86.6164 96.5773C86.3191 96.4418 85.9969 96.3717 85.6707 96.3717C85.3445 96.3717 85.0218 96.4418 84.7246 96.5773C84.4273 96.7127 84.1618 96.9105 83.9462 97.1573C83.7306 97.4042 83.5701 97.6944 83.4745 98.0089C83.3789 98.3233 83.3508 98.6547 83.3922 98.9809V105.704H53.0113V75.0775L57.5683 84.452C57.7457 84.8164 58.0198 85.1244 58.3598 85.3419C58.6998 85.5594 59.0924 85.678 59.495 85.6846H103.399V105.704H103.51ZM60.8287 81.2775L54.1601 67.9812H104.214L110.883 81.2775H60.8287Z" fill="#124F2E"/>
<path d="M49.4181 53.1166C71.3884 59.5033 69.9806 58.9804 70.314 59.1672H70.8328C71.2033 59.1672 69.7955 59.5033 91.7288 53.1166C92.1855 52.9806 92.5866 52.7003 92.8734 52.317C93.1603 51.9338 93.3173 51.4678 93.3216 50.9877V25.1422C93.2842 24.6759 93.114 24.2304 92.8314 23.8593C92.5488 23.4883 92.166 23.2075 91.7288 23.0506C69.7955 16.664 71.203 17.1867 71.0178 17H70.1286C70.1286 17 49.6033 22.8639 49.4181 23.0506C49.0137 23.189 48.6615 23.4496 48.4095 23.7972C48.1576 24.1448 48.018 24.5623 48.0102 24.9928V50.8383C47.9088 51.3277 47.9985 51.8377 48.2607 52.2621C48.523 52.6865 48.9376 52.9926 49.4181 53.1166ZM70.499 21.6314L82.9851 25.1422L70.499 28.6903L58.0134 25.1422L70.499 21.6314ZM52.2339 28.1675L68.3874 32.7613V54.1624L52.2339 49.5684V28.1675ZM88.7646 49.4191L72.574 54.1624V32.9107L88.7275 28.3168L88.7646 49.4191Z" fill="#124F2E"/>
<path d="M99.1389 50.4273C99.7386 50.4082 100.308 50.157 100.729 49.7258C101.149 49.2946 101.39 48.7165 101.399 48.1117V23.8722C101.44 23.546 101.412 23.2146 101.317 22.9002C101.221 22.5857 101.06 22.2953 100.844 22.0485C100.629 21.8016 100.363 21.6039 100.066 21.4685C99.7687 21.333 99.4466 21.2629 99.1203 21.2629C98.7941 21.2629 98.4715 21.333 98.1742 21.4685C97.8769 21.6039 97.6114 21.8016 97.3958 22.0485C97.1803 22.2953 97.0197 22.5857 96.9241 22.9002C96.8285 23.2146 96.8005 23.546 96.8418 23.8722V48.2984C96.8885 48.8796 97.1509 49.4217 97.5768 49.8164C98.0026 50.2111 98.5604 50.4292 99.1389 50.4273Z" fill="#124F2E"/>
<path d="M105.621 59.1668C106.225 59.1481 106.798 58.8982 107.225 58.4679C107.652 58.0376 107.9 57.4594 107.918 56.8512V43.5549C107.918 42.9408 107.676 42.3518 107.245 41.9175C106.814 41.4832 106.23 41.2393 105.621 41.2393C105.012 41.2393 104.427 41.4832 103.997 41.9175C103.566 42.3518 103.324 42.9408 103.324 43.5549V56.8512C103.367 57.451 103.623 58.0152 104.045 58.4404C104.466 58.8657 105.026 59.1235 105.621 59.1668Z" fill="#124F2E"/>
<path d="M42.0443 50.4272C42.6476 50.4084 43.2212 50.1585 43.648 49.7282C44.0748 49.298 44.3227 48.7197 44.3413 48.1115V23.872C44.3318 23.2609 44.0867 22.6774 43.6579 22.2452C43.2292 21.813 42.6505 21.5659 42.0443 21.5563C41.4415 21.5661 40.8665 21.8144 40.4437 22.2476C40.0209 22.6808 39.7842 23.2643 39.7843 23.872V48.2982C39.8304 48.8731 40.0877 49.4099 40.5057 49.8037C40.9237 50.1974 41.4722 50.4197 42.0443 50.4272Z" fill="#124F2E"/>
<path d="M35.5242 59.1668C36.1276 59.1481 36.7011 58.8982 37.128 58.4679C37.5548 58.0376 37.8027 57.4594 37.8213 56.8512V43.5549C37.8213 42.9408 37.5791 42.3518 37.1483 41.9175C36.7175 41.4832 36.1334 41.2393 35.5242 41.2393C34.915 41.2393 34.3309 41.4832 33.9001 41.9175C33.4694 42.3518 33.2272 42.9408 33.2272 43.5549V56.8512C33.2701 57.451 33.5258 58.0152 33.9476 58.4404C34.3695 58.8657 34.9292 59.1235 35.5242 59.1668Z" fill="#124F2E"/>
<path d="M28.8924 40.3809C28.8924 39.295 28.5732 38.2336 27.9748 37.3307C27.3763 36.4278 26.5255 35.7241 25.5303 35.3086C24.5351 34.893 23.4404 34.7843 22.3839 34.9961C21.3274 35.208 20.3569 35.7308 19.5952 36.4986C18.8336 37.2665 18.3147 38.2448 18.1046 39.3098C17.8944 40.3749 18.0026 41.4788 18.4148 42.482C18.827 43.4853 19.525 44.3427 20.4206 44.9459C21.3162 45.5492 22.3691 45.8712 23.4463 45.8712C24.8847 45.8519 26.2588 45.2672 27.276 44.2418C28.2933 43.2163 28.8732 41.831 28.8924 40.3809ZM22.2238 40.3809C22.2238 40.2436 22.2504 40.1076 22.3025 39.9807C22.3546 39.8539 22.4314 39.7385 22.5277 39.6414C22.624 39.5443 22.7383 39.4673 22.8642 39.4147C22.9901 39.3622 23.1246 39.3351 23.2608 39.3351C23.3971 39.3351 23.5321 39.3622 23.6579 39.4147C23.7838 39.4673 23.8981 39.5443 23.9944 39.6414C24.0907 39.7385 24.1675 39.8539 24.2196 39.9807C24.2718 40.1076 24.2983 40.2436 24.2983 40.3809C24.2983 40.5182 24.2718 40.6542 24.2196 40.7811C24.1675 40.908 24.0907 41.0233 23.9944 41.1204C23.8981 41.2175 23.7838 41.2946 23.6579 41.3471C23.5321 41.3997 23.3971 41.4267 23.2608 41.4267C23.1246 41.4267 22.9901 41.3997 22.8642 41.3471C22.7383 41.2946 22.624 41.2175 22.5277 41.1204C22.4314 41.0233 22.3546 40.908 22.3025 40.7811C22.2504 40.6542 22.2238 40.5182 22.2238 40.3809Z" fill="#124F2E"/>
<path d="M114.404 19.3156C113.085 19.3156 111.795 19.7099 110.699 20.4486C109.602 21.1873 108.748 22.2372 108.243 23.4657C107.738 24.6941 107.606 26.0459 107.863 27.35C108.12 28.6541 108.756 29.852 109.688 30.7922C110.621 31.7324 111.809 32.3727 113.103 32.6321C114.397 32.8915 115.738 32.7584 116.956 32.2496C118.175 31.7407 119.216 30.879 119.949 29.7734C120.682 28.6679 121.073 27.3681 121.073 26.0384C121.073 24.2554 120.37 22.5454 119.119 21.2846C117.869 20.0239 116.173 19.3156 114.404 19.3156ZM114.404 28.1673C113.95 28.1673 113.506 28.0315 113.128 27.7771C112.75 27.5226 112.455 27.1609 112.282 26.7378C112.108 26.3147 112.062 25.8491 112.151 25.3999C112.24 24.9507 112.458 24.5381 112.78 24.2143C113.101 23.8904 113.51 23.6699 113.956 23.5806C114.402 23.4912 114.863 23.537 115.283 23.7123C115.703 23.8876 116.062 24.1844 116.314 24.5652C116.566 24.946 116.701 25.3937 116.701 25.8517C116.655 26.4365 116.394 26.9827 115.969 27.3834C115.544 27.7841 114.986 28.0105 114.404 28.0179V28.1673Z" fill="#124F2E"/>
<path d="M26.5945 32.6121C27.0488 32.6121 27.493 32.4763 27.8708 32.2218C28.2485 31.9674 28.5431 31.6057 28.717 31.1826C28.8908 30.7594 28.9363 30.2938 28.8477 29.8447C28.7591 29.3955 28.5403 28.9829 28.219 28.659C27.8978 28.3352 27.4883 28.1147 27.0427 28.0253C26.5971 27.936 26.1355 27.9818 25.7158 28.1571C25.296 28.3323 24.937 28.6291 24.6846 29.0099C24.4322 29.3907 24.2975 29.8384 24.2975 30.2964C24.3404 30.8962 24.5965 31.4604 25.0184 31.8856C25.4402 32.3108 25.9995 32.5688 26.5945 32.6121Z" fill="#124F2E"/>
<path d="M114.403 56.8514C113.949 56.8514 113.504 56.9872 113.127 57.2416C112.749 57.4961 112.454 57.8577 112.28 58.2808C112.107 58.7039 112.061 59.1696 112.15 59.6188C112.238 60.068 112.457 60.4806 112.778 60.8044C113.1 61.1283 113.509 61.3488 113.955 61.4382C114.4 61.5275 114.862 61.4817 115.282 61.3064C115.701 61.1311 116.06 60.8343 116.313 60.4535C116.565 60.0727 116.7 59.625 116.7 59.167C116.69 58.5559 116.445 57.9725 116.017 57.5403C115.588 57.1081 115.009 56.861 114.403 56.8514Z" fill="#124F2E"/>
</svg>
