<svg width="140" height="135" viewBox="0 0 140 135" fill="none" xmlns="http://www.w3.org/2000/svg">
<path d="M33 111C33 113.209 31.2091 115 29 115C26.7909 115 25 113.209 25 111C25 108.791 26.7909 107 29 107C31.2091 107 33 108.791 33 111Z" fill="#43B02A"/>
<path d="M114 111C114 113.209 112.209 115 110 115C107.791 115 106 113.209 106 111C106 108.791 107.791 107 110 107C112.209 107 114 108.791 114 111Z" fill="#43B02A"/>
<path d="M20 88H120V98H20V88Z" fill="#43B02A"/>
<path d="M69 58H84V75H69V58Z" fill="#43B02A"/>
<path d="M96 58H111V75H96V58Z" fill="#43B02A"/>
<path d="M82 36H97V53H82V36Z" fill="#43B02A"/>
<path d="M114.348 24.0592H26.011C23.625 24.0717 21.3406 25.0206 19.6534 26.6995C17.9662 28.3784 17.0126 30.6519 17 33.0263V92.1705C17.0124 94.5493 17.9643 96.8279 19.6502 98.5144C21.336 100.201 23.6207 101.16 26.011 101.185H60.9528C60.5818 102.445 59.8123 103.552 58.759 104.343C57.7056 105.133 56.4243 105.565 55.1051 105.573H54.7695C53.8374 105.495 52.8991 105.61 52.014 105.911C51.1289 106.213 50.3165 106.693 49.6277 107.323C48.939 107.953 48.389 108.718 48.0129 109.571C47.6368 110.423 47.4427 111.344 47.4427 112.275C47.4427 113.206 47.6368 114.126 48.0129 114.979C48.389 115.831 48.939 116.596 49.6277 117.226C50.3165 117.856 51.1289 118.337 52.014 118.638C52.8991 118.939 53.8374 119.054 54.7695 118.976H85.637C87.325 118.834 88.8979 118.067 90.0442 116.826C91.1906 115.585 91.8267 113.96 91.8267 112.275C91.8267 110.589 91.1906 108.965 90.0442 107.724C88.8979 106.483 87.325 105.715 85.637 105.573H85.2535C83.9342 105.565 82.6529 105.133 81.5996 104.343C80.5462 103.552 79.7771 102.445 79.4061 101.185H114.348C116.742 101.16 119.032 100.203 120.726 98.5175C122.419 96.8322 123.382 94.5536 123.407 92.1705V33.0263C123.381 30.6476 122.418 28.3741 120.723 26.6964C119.028 25.0188 116.738 24.0716 114.348 24.0592ZM26.011 28.4474H114.348C115.619 28.4474 116.838 28.9498 117.737 29.8443C118.636 30.7388 119.141 31.9521 119.141 33.2171V83.7282H21.4098V33.0263C21.4572 31.8269 21.9571 30.6894 22.81 29.8407C23.6629 28.992 24.8058 28.4945 26.011 28.4474ZM85.2535 110.152H85.781C86.4166 110.152 87.0259 110.403 87.4754 110.851C87.9248 111.298 88.1775 111.905 88.1775 112.537C88.1775 113.17 87.9248 113.776 87.4754 114.223C87.0259 114.671 86.4166 114.922 85.781 114.922H54.9135C54.2779 114.922 53.6682 114.671 53.2187 114.223C52.7693 113.776 52.5169 113.17 52.5169 112.537C52.5169 111.905 52.7693 111.298 53.2187 110.851C53.6682 110.403 54.2779 110.152 54.9135 110.152C57.4207 110.142 59.8436 109.251 61.7553 107.637C63.6669 106.023 64.9445 103.788 65.3624 101.328H74.613C75.0078 103.834 76.3051 106.111 78.2631 107.735C80.221 109.358 82.7057 110.218 85.2535 110.152ZM114.348 96.9402H26.011C24.7398 96.9402 23.5207 96.4377 22.6219 95.5432C21.723 94.6487 21.2179 93.4355 21.2179 92.1705V87.9255H118.757V92.5044C118.68 93.6475 118.192 94.7248 117.382 95.5393C116.573 96.3538 115.495 96.8511 114.348 96.9402Z" fill="#124F2E"/>
<path d="M112.382 90.2152C112.992 90.2152 113.577 90.4565 114.008 90.8858C114.44 91.3152 114.682 91.8975 114.682 92.5047C114.689 92.8072 114.634 93.1079 114.52 93.3886C114.407 93.6693 114.238 93.9241 114.023 94.138C113.808 94.352 113.552 94.5203 113.27 94.6331C112.988 94.7458 112.686 94.8007 112.382 94.7942C111.771 94.7942 111.186 94.553 110.755 94.1236C110.323 93.6943 110.081 93.1119 110.081 92.5047C110.093 91.9013 110.339 91.3261 110.768 90.8993C111.197 90.4726 111.775 90.2274 112.382 90.2152Z" fill="#124F2E"/>
<path d="M105.671 90.2148C106.278 90.227 106.856 90.4722 107.285 90.8989C107.714 91.3256 107.96 91.9009 107.972 92.5043C107.972 93.1368 107.72 93.7433 107.27 94.1906C106.821 94.6378 106.211 94.8891 105.576 94.8891C104.94 94.8891 104.33 94.6378 103.881 94.1906C103.432 93.7433 103.179 93.1368 103.179 92.5043C103.185 92.189 103.255 91.8781 103.385 91.5904C103.514 91.3027 103.701 91.0441 103.934 90.8302C104.167 90.6163 104.441 90.4515 104.74 90.3458C105.038 90.24 105.355 90.1954 105.671 90.2148Z" fill="#124F2E"/>
<path d="M43.6016 103.475C43.9038 103.475 44.2031 103.534 44.4822 103.649C44.7613 103.764 45.0149 103.933 45.2285 104.145C45.4421 104.358 45.6117 104.61 45.7273 104.888C45.8429 105.166 45.9025 105.464 45.9025 105.764C45.8903 106.368 45.6439 106.943 45.215 107.37C44.7862 107.796 44.208 108.042 43.6016 108.054C42.9915 108.054 42.4065 107.812 41.9751 107.383C41.5436 106.954 41.3011 106.371 41.3011 105.764C41.2945 105.462 41.3495 105.161 41.4628 104.88C41.5761 104.6 41.7455 104.345 41.9605 104.131C42.1754 103.917 42.4317 103.749 42.7138 103.636C42.9959 103.523 43.2977 103.468 43.6016 103.475Z" fill="#124F2E"/>
<path d="M94.6497 103.475C94.9536 103.468 95.2558 103.523 95.5379 103.636C95.82 103.749 96.0762 103.917 96.2912 104.131C96.5061 104.345 96.6752 104.6 96.7885 104.88C96.9018 105.161 96.9568 105.462 96.9503 105.764C96.9503 106.371 96.708 106.954 96.2766 107.383C95.8451 107.812 95.2599 108.054 94.6497 108.054C94.0434 108.042 93.4654 107.796 93.0366 107.37C92.6078 106.943 92.3614 106.368 92.3491 105.764C92.3491 105.157 92.5914 104.575 93.0229 104.145C93.4543 103.716 94.0395 103.475 94.6497 103.475Z" fill="#124F2E"/>
<path d="M99.1058 90.2152C99.7121 90.2274 100.29 90.4726 100.719 90.8993C101.148 91.3261 101.394 91.9013 101.407 92.5047C101.407 93.1119 101.164 93.6943 100.733 94.1236C100.301 94.553 99.716 94.7942 99.1058 94.7942C98.8019 94.8007 98.4997 94.7458 98.2176 94.6331C97.9355 94.5203 97.6796 94.352 97.4646 94.138C97.2496 93.9241 97.0803 93.6693 96.967 93.3886C96.8537 93.1079 96.7987 92.8072 96.8052 92.5047C96.8052 91.8975 97.0475 91.3152 97.4789 90.8858C97.9104 90.4565 98.4956 90.2152 99.1058 90.2152Z" fill="#124F2E"/>
<path d="M43.6016 63.8862C44.208 63.8984 44.7862 64.1436 45.215 64.5703C45.6439 64.9971 45.8903 65.5723 45.9025 66.1757C45.9025 66.4764 45.8429 66.774 45.7273 67.0518C45.6117 67.3296 45.4421 67.5819 45.2285 67.7945C45.0149 68.0071 44.7613 68.1758 44.4822 68.2908C44.2031 68.4059 43.9038 68.4651 43.6016 68.4651C43.2977 68.4716 42.9959 68.4168 42.7138 68.3041C42.4317 68.1913 42.1754 68.0229 41.9605 67.809C41.7455 67.5951 41.5761 67.3401 41.4628 67.0594C41.3495 66.7787 41.2945 66.4781 41.3011 66.1757C41.3011 65.5685 41.5436 64.9861 41.9751 64.5568C42.4065 64.1274 42.9915 63.8862 43.6016 63.8862Z" fill="#124F2E"/>
<path d="M50.1692 50.341C50.622 50.3504 51.0619 50.4926 51.4338 50.7498C51.8058 51.007 52.0932 51.3678 52.26 51.7869C52.4268 52.206 52.4656 52.6647 52.3715 53.1057C52.2773 53.5466 52.0547 53.95 51.7311 54.2655C51.4075 54.5809 50.9976 54.7943 50.5527 54.8789C50.1078 54.9634 49.6477 54.9153 49.2301 54.7407C48.8125 54.5661 48.4558 54.2728 48.205 53.8974C47.9543 53.522 47.8204 53.0813 47.8203 52.6306C47.8202 52.3258 47.8813 52.0241 47.9999 51.7432C48.1185 51.4623 48.2923 51.2077 48.511 50.9945C48.7298 50.7812 48.9893 50.6137 49.274 50.5014C49.5587 50.3892 49.863 50.3347 50.1692 50.341Z" fill="#124F2E"/>
<path d="M56.8787 37.2716C57.3073 37.2621 57.7289 37.3799 58.0899 37.6099C58.4508 37.8399 58.7346 38.1718 58.9052 38.563C59.0758 38.9543 59.1257 39.3872 59.048 39.8067C58.9702 40.2261 58.7687 40.6129 58.469 40.9179C58.1694 41.2229 57.7852 41.4321 57.3655 41.5189C56.9459 41.6057 56.5098 41.566 56.1129 41.4051C55.7159 41.2441 55.3761 40.969 55.1369 40.6151C54.8977 40.2612 54.7699 39.8444 54.7698 39.4179C54.7696 38.8568 54.9902 38.3181 55.3844 37.9169C55.7786 37.5157 56.3151 37.2841 56.8787 37.2716Z" fill="#124F2E"/>
<path d="M63.4449 37.2716C63.8734 37.2621 64.2951 37.3799 64.6561 37.6099C65.017 37.8399 65.301 38.1718 65.4717 38.563C65.6423 38.9543 65.6919 39.3872 65.6141 39.8067C65.5364 40.2261 65.3348 40.6129 65.0352 40.9179C64.7355 41.2229 64.3514 41.4321 63.9317 41.5189C63.5121 41.6057 63.0759 41.566 62.679 41.4051C62.2821 41.2441 61.9423 40.969 61.7031 40.6151C61.4639 40.2612 61.336 39.8444 61.3359 39.4179C61.3358 38.8568 61.5564 38.3181 61.9506 37.9169C62.3448 37.5157 62.8812 37.2841 63.4449 37.2716Z" fill="#124F2E"/>
<path d="M91.6284 61.1201V71.7088C91.627 72.0952 91.7282 72.4751 91.9218 72.8101C92.1154 73.1451 92.3943 73.4234 92.7307 73.6166L101.934 78.9109C102.288 79.0988 102.683 79.1971 103.084 79.1971C103.485 79.1971 103.88 79.0988 104.234 78.9109L113.437 73.6166C113.788 73.4404 114.079 73.1659 114.275 72.8268C114.471 72.4878 114.563 72.0992 114.539 71.7088V61.1201C114.544 60.7265 114.445 60.3385 114.252 59.9952C114.058 59.6519 113.777 59.3654 113.437 59.1645L104.234 53.87C103.874 53.7035 103.481 53.6173 103.084 53.6173C102.687 53.6173 102.294 53.7035 101.934 53.87L92.8746 59.1167C92.4808 59.2768 92.1483 59.5568 91.9244 59.9167C91.7005 60.2766 91.5968 60.6979 91.6284 61.1201ZM96.0859 62.3601L103.18 58.2582L110.274 62.3601V70.4686L103.18 74.5229L96.0859 70.4686V62.3601Z" fill="#124F2E"/>
<path d="M79.4042 51.5797L88.6069 56.874C88.9763 57.0384 89.3765 57.1235 89.7812 57.1235C90.1859 57.1235 90.586 57.0384 90.9555 56.874L100.158 51.5797C100.504 51.3887 100.787 51.1027 100.974 50.7559C101.161 50.4092 101.244 50.0164 101.213 49.6241V39.0353C101.223 38.6463 101.131 38.2615 100.946 37.9186C100.761 37.5757 100.49 37.2866 100.158 37.0797L90.9555 31.7853C90.586 31.6209 90.1859 31.536 89.7812 31.536C89.3765 31.536 88.9763 31.6209 88.6069 31.7853L79.4042 37.0797C79.0624 37.2751 78.7823 37.5617 78.5959 37.9074C78.4096 38.2531 78.3242 38.6439 78.3496 39.0353V49.5763C78.3312 49.9733 78.4191 50.368 78.6044 50.72C78.7897 51.072 79.0658 51.3687 79.4042 51.5797ZM82.7595 40.2754L89.8531 36.2212L96.9468 40.2754V48.3839L89.8531 52.4382L82.7595 48.3839V40.2754Z" fill="#124F2E"/>
<path d="M65.0264 61.1201V71.7088C65.025 72.0952 65.1262 72.4751 65.3198 72.8101C65.5134 73.1451 65.7923 73.4234 66.1287 73.6166L75.3316 78.9109C75.6856 79.0988 76.0807 79.1971 76.4819 79.1971C76.8831 79.1971 77.2782 79.0988 77.6322 78.9109L86.8348 73.6166C87.1857 73.4404 87.4771 73.1659 87.673 72.8268C87.8689 72.4878 87.9606 72.0992 87.9371 71.7088V61.1201C87.9421 60.7265 87.8431 60.3385 87.6496 59.9952C87.4561 59.6519 87.1749 59.3654 86.8348 59.1645L77.6322 53.87C77.2718 53.7035 76.8793 53.6173 76.4819 53.6173C76.0845 53.6173 75.692 53.7035 75.3316 53.87L66.1287 59.1167C65.7617 59.2991 65.4595 59.5887 65.2624 59.9467C65.0654 60.3047 64.9831 60.7141 65.0264 61.1201ZM69.4839 62.3601L76.5776 58.2582L83.6715 62.3601V70.4686L76.5776 74.5229L69.4839 70.4686V62.3601Z" fill="#124F2E"/>
<path d="M27.9753 41.7074H50.1673C50.77 41.6838 51.3414 41.4351 51.7679 41.0107C52.1943 40.5864 52.4443 40.0175 52.4679 39.4179C52.443 38.8316 52.1881 38.2785 51.7579 37.8773C51.3278 37.476 50.7568 37.2586 50.1673 37.2716H27.9753C27.6552 37.2247 27.3288 37.247 27.0181 37.3369C26.7075 37.4269 26.4198 37.5824 26.175 37.7928C25.9301 38.0033 25.7336 38.2638 25.599 38.5566C25.4643 38.8493 25.3948 39.1675 25.3948 39.4895C25.3948 39.8114 25.4643 40.1296 25.599 40.4224C25.7336 40.7151 25.9301 40.9755 26.175 41.186C26.4198 41.3964 26.7075 41.5519 27.0181 41.6419C27.3288 41.7318 27.6552 41.7542 27.9753 41.7074Z" fill="#124F2E"/>
<path d="M27.9764 48.2415H63.4451C64.0807 48.2415 64.6904 47.9902 65.1398 47.5429C65.5892 47.0957 65.8416 46.4891 65.8416 45.8566C65.8416 45.2241 65.5892 44.6175 65.1398 44.1703C64.6904 43.7231 64.0807 43.4718 63.4451 43.4718H27.9764C27.3701 43.484 26.7919 43.729 26.363 44.1557C25.9342 44.5825 25.6878 45.1579 25.6755 45.7613C25.6846 46.3841 25.9244 46.9817 26.349 47.4394C26.7736 47.8972 27.3532 48.1828 27.9764 48.2415Z" fill="#124F2E"/>
<path d="M27.9764 54.9183H43.41C44.0456 54.9183 44.6553 54.667 45.1047 54.2198C45.5542 53.7725 45.8066 53.166 45.8066 52.5335C45.8066 51.901 45.5542 51.2944 45.1047 50.8472C44.6553 50.3999 44.0456 50.1486 43.41 50.1486H27.9764C27.3701 50.1608 26.7919 50.406 26.363 50.8327C25.9342 51.2595 25.6878 51.8347 25.6755 52.4381C25.6737 53.0642 25.91 53.6678 26.3367 54.1278C26.7634 54.5878 27.3492 54.8702 27.9764 54.9183Z" fill="#124F2E"/>
<path d="M27.9764 61.6438H52.2774C52.913 61.6438 53.5224 61.3925 53.9718 60.9452C54.4213 60.498 54.674 59.8914 54.674 59.2589C54.674 58.6264 54.4213 58.0198 53.9718 57.5726C53.5224 57.1254 52.913 56.8741 52.2774 56.8741H27.9764C27.3701 56.8863 26.7919 57.1315 26.363 57.5582C25.9342 57.9849 25.6878 58.5602 25.6755 59.1636C25.6737 59.7896 25.91 60.3932 26.3367 60.8532C26.7634 61.3132 27.3492 61.5956 27.9764 61.6438Z" fill="#124F2E"/>
<path d="M27.9753 68.1788H36.8424C37.4488 68.1666 38.027 67.9215 38.4558 67.4948C38.8846 67.0681 39.1308 66.4928 39.143 65.8894C39.1369 65.5971 39.0721 65.3089 38.9526 65.0418C38.833 64.7748 38.6611 64.5342 38.4467 64.3343C38.2324 64.1343 37.9801 63.979 37.7046 63.8775C37.4291 63.7759 37.1359 63.7302 36.8424 63.743H27.9753C27.6552 63.6962 27.3288 63.7185 27.0181 63.8085C26.7075 63.8985 26.4198 64.0539 26.175 64.2644C25.9301 64.4748 25.7336 64.7352 25.599 65.028C25.4643 65.3208 25.3948 65.6389 25.3948 65.9609C25.3948 66.2828 25.4643 66.601 25.599 66.8938C25.7336 67.1865 25.9301 67.4469 26.175 67.6574C26.4198 67.8678 26.7075 68.0235 27.0181 68.1134C27.3288 68.2034 27.6552 68.2256 27.9753 68.1788Z" fill="#124F2E"/>
<path d="M27.9764 74.856H50.1684C50.804 74.856 51.4134 74.6048 51.8629 74.1576C52.3123 73.7103 52.565 73.1036 52.565 72.4711C52.565 71.8386 52.3123 71.232 51.8629 70.7848C51.4134 70.3376 50.804 70.0863 50.1684 70.0863H27.9764C27.3701 70.0984 26.7919 70.3436 26.363 70.7704C25.9342 71.1971 25.6878 71.7724 25.6755 72.3758C25.6737 73.0018 25.91 73.6054 26.3367 74.0654C26.7634 74.5254 27.3492 74.8078 27.9764 74.856Z" fill="#124F2E"/>
<path d="M29.2206 105.763C28.1284 105.763 27.061 106.086 26.1536 106.691C25.2461 107.296 24.5396 108.156 24.1239 109.161C23.7081 110.166 23.6019 111.271 23.8185 112.336C24.0351 113.402 24.5646 114.379 25.3403 115.144C26.116 115.909 27.1027 116.428 28.1751 116.634C29.2475 116.84 30.3572 116.725 31.3635 116.302C32.3699 115.88 33.2275 115.169 33.8274 114.261C34.4272 113.353 34.7423 112.288 34.7328 111.201C34.7202 109.754 34.1339 108.371 33.1016 107.353C32.0692 106.335 30.6743 105.763 29.2206 105.763ZM29.2206 112.298C28.9442 112.265 28.6878 112.138 28.4954 111.938C28.303 111.738 28.1867 111.477 28.1663 111.201C28.1663 110.923 28.2775 110.656 28.4752 110.459C28.673 110.262 28.941 110.152 29.2206 110.152C29.5003 110.152 29.7686 110.262 29.9663 110.459C30.1641 110.656 30.2753 110.923 30.2753 111.201C30.2549 111.477 30.1386 111.738 29.9462 111.938C29.7537 112.138 29.4971 112.265 29.2206 112.298Z" fill="#124F2E"/>
<path d="M110.083 103.474C108.744 103.474 107.435 103.87 106.323 104.611C105.21 105.352 104.344 106.405 103.834 107.637C103.324 108.869 103.193 110.223 103.458 111.529C103.723 112.835 104.371 114.033 105.321 114.972C106.271 115.911 107.48 116.547 108.794 116.801C110.108 117.055 111.468 116.915 112.702 116.399C113.936 115.883 114.988 115.013 115.725 113.901C116.462 112.789 116.85 111.484 116.841 110.152C116.828 108.377 116.11 106.678 114.844 105.427C113.578 104.176 111.867 103.474 110.083 103.474ZM110.083 112.298C109.476 112.286 108.898 112.041 108.469 111.614C108.04 111.187 107.794 110.612 107.782 110.009C107.788 109.716 107.853 109.428 107.972 109.161C108.092 108.894 108.264 108.654 108.478 108.454C108.693 108.254 108.945 108.098 109.221 107.997C109.496 107.895 109.789 107.85 110.083 107.862C110.689 107.875 111.267 108.12 111.696 108.546C112.125 108.973 112.371 109.549 112.383 110.152C112.377 110.444 112.312 110.732 112.193 110.999C112.073 111.266 111.901 111.507 111.687 111.707C111.472 111.907 111.22 112.062 110.945 112.164C110.669 112.265 110.376 112.311 110.083 112.298Z" fill="#124F2E"/>
<path d="M25.771 21.7697H112.286C112.922 21.7697 113.531 21.5184 113.981 21.0712C114.43 20.6239 114.683 20.0174 114.683 19.3848C114.683 18.7523 114.43 18.1456 113.981 17.6984C113.531 17.2511 112.922 17 112.286 17H25.771C25.1646 17.0122 24.5864 17.2572 24.1576 17.684C23.7288 18.1107 23.4826 18.686 23.4704 19.2894C23.4361 19.6072 23.4705 19.9288 23.5713 20.2323C23.6721 20.5358 23.837 20.8143 24.0549 21.0492C24.2728 21.2841 24.5386 21.4699 24.8345 21.5942C25.1305 21.7184 25.4499 21.7783 25.771 21.7697Z" fill="#124F2E"/>
<path d="M63.4449 110.152C63.4571 110.755 63.7035 111.331 64.1323 111.757C64.5612 112.184 65.1394 112.429 65.7457 112.441H74.6128C75.2484 112.441 75.8581 112.19 76.3075 111.743C76.757 111.296 77.0094 110.689 77.0094 110.057C77.0094 109.424 76.757 108.818 76.3075 108.37C75.8581 107.923 75.2484 107.672 74.6128 107.672H65.7457C65.4289 107.678 65.1163 107.747 64.8271 107.876C64.538 108.006 64.2783 108.192 64.0633 108.423C63.8484 108.655 63.6828 108.928 63.5765 109.225C63.4702 109.522 63.4254 109.837 63.4449 110.152Z" fill="#124F2E"/>
</svg>
