<svg width="140" height="135" viewBox="0 0 140 135" fill="none" xmlns="http://www.w3.org/2000/svg">
<g clip-path="url(#clip0_1215_10280)">
<path d="M54.1951 78.5555C54.1951 82.4829 51.0502 85.6666 47.1707 85.6666C43.2913 85.6666 40.1463 82.4829 40.1463 78.5555C40.1463 74.6282 43.2913 71.4444 47.1707 71.4444C51.0502 71.4444 54.1951 74.6282 54.1951 78.5555Z" fill="#43B02A"/>
<path d="M77.9024 95.4444C77.9024 99.3717 74.7575 102.556 70.878 102.556C66.9986 102.556 63.8537 99.3717 63.8537 95.4444C63.8537 91.517 66.9986 88.3333 70.878 88.3333C74.7575 88.3333 77.9024 91.517 77.9024 95.4444Z" fill="#43B02A"/>
<path d="M38.3902 114.111H104.244V121.222H38.3902V114.111Z" fill="#43B02A"/>
<path d="M43.6586 34.9999L64.2925 55.4444L91.5121 69.2221L81.8535 72.7777L56.8295 62.9999L40.5854 37.6667L43.6586 34.9999Z" fill="#43B02A"/>
<path d="M51.9621 60.2359C47.7499 56.2015 44.3518 51.3258 41.968 45.8962C39.8517 41.4739 39.2846 36.4152 40.3656 31.6006C40.8059 30.0474 41.4443 28.5633 42.2632 27.1883C43.0214 26.0963 44.0921 25.2851 45.3204 24.8726C46.5487 24.4601 47.8707 24.4675 49.0947 24.8939C55.0069 26.1839 60.6399 28.6074 65.7094 32.0418C68.3661 33.6744 70.9382 35.4392 73.637 37.2482L76.3359 33.4096C76.4746 33.1262 76.6702 32.8776 76.9094 32.6807C77.1485 32.4839 77.4255 32.3436 77.7214 32.2694C78.0173 32.1952 78.3251 32.1889 78.6235 32.2509C78.922 32.313 79.2042 32.4418 79.4505 32.6286C79.6968 32.8155 79.9016 33.056 80.0507 33.3335C80.1999 33.611 80.2899 33.9189 80.3145 34.2362C80.3391 34.5536 80.2977 34.8727 80.1933 35.1718C80.0889 35.4708 79.9238 35.7427 79.7094 35.9686L77.0108 39.8514C79.1193 41.6605 81.2277 43.4254 83.294 45.2785C87.4185 48.8508 91.0765 52.9748 94.1738 57.5445C95.8564 59.6309 96.7822 62.2713 96.7882 65.0012C96.7151 66.0784 96.3652 67.1149 95.776 68.0015C94.3107 69.8962 92.4606 71.4257 90.3599 72.4789C88.2592 73.5321 85.9608 74.0827 83.6314 74.0904C76.8349 74.3713 70.0952 72.6923 64.1489 69.2369L62.7575 68.531L56.8115 77.0466L63.5165 82.1206L65.7514 83.8414C67.2361 85.1917 69.102 85.9974 71.0648 86.1357C72.804 86.1675 74.4914 86.7613 75.8955 87.8356C77.2997 88.9098 78.3518 90.412 78.9082 92.1365C79.6046 93.7934 79.8359 95.6237 79.5746 97.413C79.3132 99.2024 78.5701 100.877 77.4324 102.241C77.1588 102.557 76.9954 102.961 76.9686 103.388C76.9686 105.638 76.9686 107.8 76.9686 110.403H100.035C101.366 110.419 102.654 110.895 103.699 111.757C104.744 112.619 105.487 113.818 105.812 115.168C106.154 116.559 106.026 118.03 105.45 119.333C104.873 120.635 103.884 121.689 102.65 122.316C101.775 122.733 100.828 122.958 99.8665 122.978C80.0891 122.978 60.3116 122.978 40.5341 122.978C39.7027 123.051 38.8658 122.942 38.0764 122.66C37.2871 122.377 36.5625 121.926 35.9484 121.335C35.3342 120.744 34.8439 120.026 34.5086 119.226C34.1732 118.427 34 117.564 34 116.691C34 115.818 34.1732 114.954 34.5086 114.155C34.8439 113.355 35.3342 112.637 35.9484 112.046C36.5625 111.455 37.2871 111.004 38.0764 110.721C38.8658 110.438 39.7027 110.33 40.5341 110.403H63.4743V103.079C63.4743 102.814 63.2212 102.549 63.0947 102.285C62.42 100.917 61.7453 99.5048 61.0284 98.137C60.847 97.6724 60.5572 97.2628 60.1852 96.9458C56.8117 94.2984 53.3536 91.7393 49.9378 89.1802C49.508 88.8621 48.9876 88.7065 48.462 88.739C46.0991 89.0774 43.7014 88.4683 41.75 87.0336C39.7987 85.5989 38.4382 83.4449 37.9418 81.0042C37.4454 78.5635 37.8496 76.0166 39.0735 73.8749C40.2974 71.7331 42.2504 70.1551 44.5403 69.4575C45.3846 69.2465 46.1222 68.7111 46.6066 67.9574C48.3355 65.3983 50.1067 63.0157 51.9621 60.2359ZM67.3538 53.7059C72.8012 57.9072 78.7568 61.3345 85.065 63.8982C87.0632 64.6159 89.1262 65.1185 91.2219 65.3983C92.5713 65.3983 92.9507 65.0012 92.4447 63.6775C92.0155 62.5001 91.4639 61.3757 90.8 60.3243C87.3936 55.3132 83.3015 50.8532 78.6552 47.0876C77.3058 45.8963 75.9142 44.749 74.4383 43.5577L67.3538 53.7059ZM71.0648 40.9987L70.601 40.5132C65.4569 36.6243 59.8771 33.4089 53.9862 30.9388C51.7224 30.1523 49.3927 29.591 47.0281 29.2621C45.9317 29.0415 45.5524 29.6151 45.932 30.7622C46.4206 32.0199 47.0132 33.2305 47.703 34.3803C50.9923 39.2334 54.9255 43.5715 59.384 47.264C60.8599 48.5876 62.4201 49.8672 63.9803 51.1467L71.0648 40.9987ZM44.1184 37.0717C44.0973 37.3802 44.0973 37.6898 44.1184 37.9982C44.098 38.3067 44.098 38.6164 44.1184 38.9249C44.8531 42.5035 46.2889 45.8839 48.3354 48.8524C52.4986 55.4519 58.1647 60.8647 64.8238 64.604C69.7951 67.7284 75.434 69.503 81.2277 69.7664C82.9145 69.7664 84.6433 69.7664 86.3301 69.4575C69.8478 62.6098 55.3158 51.4605 44.1184 37.0717ZM70.2213 114.815H41.5884C39.5221 114.815 38.6365 115.433 38.6365 116.757C38.6365 118.08 39.5642 118.61 41.5462 118.61H98.8967C99.4027 118.61 100.035 118.61 100.373 118.61C101.002 118.181 101.477 117.544 101.722 116.801C101.751 116.583 101.739 116.361 101.684 116.148C101.629 115.936 101.534 115.737 101.404 115.564C101.274 115.391 101.112 115.247 100.927 115.141C100.743 115.035 100.54 114.969 100.33 114.948C99.9097 114.904 99.486 114.904 99.0653 114.948L70.2213 114.815ZM70.2213 90.4156C68.8345 90.4156 67.5047 90.9921 66.524 92.0181C65.5434 93.0441 64.9924 94.4358 64.9924 95.8869C65.0035 97.342 65.5637 98.7334 66.5511 99.7582C67.5384 100.783 68.8728 101.358 70.2635 101.358C71.6547 101.335 72.9829 100.747 73.9667 99.7174C74.9506 98.688 75.513 97.2984 75.5347 95.8427C75.5237 95.1184 75.3766 94.4034 75.1015 93.7387C74.8264 93.0739 74.4288 92.4724 73.9315 91.9684C73.4341 91.4644 72.8467 91.068 72.2029 90.8015C71.5591 90.5351 70.8716 90.4039 70.1794 90.4156H70.2213ZM52.4682 79.0763C52.4932 77.9908 52.209 76.9221 51.6517 76.0061C51.0945 75.0902 50.2894 74.3683 49.3389 73.9326C48.3884 73.4969 47.3355 73.367 46.3142 73.5594C45.2929 73.7517 44.3493 74.2577 43.6037 75.0129C42.8581 75.7681 42.344 76.7384 42.1271 77.8002C41.9101 78.862 42.0002 79.9672 42.3855 80.9754C42.7708 81.9836 43.4341 82.8489 44.2909 83.4614C45.1477 84.074 46.1593 84.406 47.197 84.415C48.5622 84.4155 49.8732 83.8573 50.8503 82.8597C51.8273 81.8621 52.3929 80.5043 52.4259 79.0763H52.4682ZM53.6066 86.4888L61.2395 92.2688L64.1911 87.8566L56.4321 81.9442L53.6066 86.4888ZM59.2152 66.2367L54.9982 63.148L50.5705 69.4575L54.7874 72.5903L59.2152 66.2367ZM72.7516 105.55H67.8179V110.315H72.7516V105.55Z" fill="#124F2E"/>
<path d="M81.3962 11.0826C86.1994 11.7245 90.6558 14.0404 94.0471 17.6568C96.7467 20.0586 98.6019 23.3353 99.3182 26.9665C99.5909 28.5782 99.2586 30.2378 98.3906 31.5995C98.2587 31.8496 98.0807 32.07 97.8669 32.2478C97.6531 32.4256 97.4076 32.5572 97.1449 32.6352C96.8822 32.7131 96.6074 32.7359 96.3362 32.702C96.0651 32.6681 95.8029 32.5783 95.5651 32.4378C95.3186 32.3139 95.1 32.1369 94.9235 31.9183C94.7469 31.6998 94.6164 31.4446 94.5407 31.1696C94.4651 30.8947 94.4459 30.606 94.4844 30.3227C94.5228 30.0394 94.618 29.7678 94.7639 29.5257C95.072 28.8167 95.1954 28.035 95.1214 27.2601C95.0473 26.4851 94.7785 25.7445 94.3423 25.1135C92.9701 22.4934 91.0169 20.2563 88.6467 18.5902C86.2765 16.9241 83.5587 15.8776 80.7217 15.5388C80.1648 15.4266 79.5897 15.465 79.051 15.6503C78.5123 15.8356 78.0277 16.1618 77.6431 16.5979C77.4587 16.794 77.2388 16.9496 76.9963 17.056C76.7538 17.1623 76.4936 17.217 76.2306 17.217C75.9676 17.217 75.7072 17.1623 75.4646 17.056C75.2221 16.9496 75.0023 16.794 74.8178 16.5979C74.4138 16.2381 74.161 15.7267 74.1136 15.1738C74.0663 14.6209 74.2283 14.0708 74.5648 13.6416C75.418 12.6648 76.4864 11.9211 77.6771 11.4751C78.8677 11.0291 80.1445 10.8943 81.3962 11.0826Z" fill="#124F2E"/>
<path d="M76.5049 21.2775C78.9205 21.5363 81.2582 22.3169 83.3705 23.57C85.4828 24.8232 87.3236 26.5216 88.7761 28.5576C89.5615 29.4422 90.1652 30.4859 90.5497 31.6243C90.9341 32.7627 91.0912 33.9715 91.0112 35.176C90.8939 36.1197 90.5769 37.0241 90.0833 37.8234C89.9582 38.0403 89.7927 38.2287 89.5968 38.3777C89.401 38.5267 89.1787 38.6332 88.9428 38.6908C88.707 38.7484 88.4624 38.7559 88.2237 38.713C87.985 38.6701 87.7572 38.5776 87.5532 38.441C87.1048 38.2036 86.752 37.8065 86.5587 37.3211C86.3654 36.8357 86.3444 36.294 86.499 35.7936C86.6864 35.0116 86.6864 34.1932 86.499 33.4111C85.5707 31.3613 84.1653 29.5882 82.4118 28.2545C80.6582 26.9209 78.6126 26.0693 76.4627 25.7779C75.7413 25.8278 75.0441 26.0709 74.4384 26.4839C74.04 26.8441 73.5312 27.0423 73.0047 27.0423C72.4782 27.0423 71.9692 26.8441 71.5709 26.4839C71.1872 26.079 70.9719 25.5319 70.9719 24.9617C70.9719 24.3915 71.1872 23.8443 71.5709 23.4394C72.1703 22.6953 72.9306 22.1112 73.7885 21.7353C74.6464 21.3594 75.5775 21.2024 76.5049 21.2775Z" fill="#124F2E"/>
</g>
<defs>
<clipPath id="clip0_1215_10280">
<rect width="72" height="112" fill="white" transform="translate(34 11)"/>
</clipPath>
</defs>
</svg>
