<svg width="26" height="26" viewBox="0 0 26 26" fill="none" xmlns="http://www.w3.org/2000/svg">
<path d="M22.0326 19.7878C20.9845 18.7805 19.8106 18.6647 18.4742 19.123C18.5214 19.0223 18.5529 18.9467 18.5948 18.8712L20.8482 14.6456C21.0002 14.3586 20.9845 14.3082 20.7329 14.1067L13.5166 8.51634C13.2126 8.27963 13.1655 8.27963 12.8668 8.51634L5.65565 14.1118C5.38838 14.3183 5.37791 14.3686 5.53513 14.6658L7.76764 18.851L7.9144 19.1381C6.57804 18.6748 5.39364 18.8007 4.36124 19.7777C3.99037 19.3718 3.49483 19.0896 2.94623 18.9719C2.71411 18.929 2.47967 18.8988 2.244 18.8813C2.07106 18.8813 1.92432 18.9215 1.91384 19.1079C1.90336 19.2942 2.03441 19.3496 2.21259 19.3748C2.54274 19.4185 2.8687 19.4875 3.18734 19.5813C3.57723 19.7138 3.90458 19.9766 4.1097 20.3217C4.26167 20.5634 4.4713 20.5735 4.63376 20.3217C5.38317 19.0424 7.8148 19.0777 8.54325 20.3217C8.68474 20.5684 8.89961 20.5684 9.06731 20.3217C9.81672 19.0626 12.2483 19.0726 12.9715 20.3217C13.1026 20.5483 13.3279 20.5483 13.4642 20.3217C14.2084 19.0626 16.6086 19.0575 17.3789 20.3217C17.5257 20.5634 17.7248 20.5533 17.903 20.3217C18.1262 20.0272 18.4187 19.7876 18.7566 19.6224C19.0945 19.4572 19.4682 19.3711 19.8472 19.3711C20.2263 19.3711 20.6001 19.4572 20.938 19.6224C21.2759 19.7876 21.5684 20.0272 21.7916 20.3217C21.9435 20.5382 22.1479 20.5684 22.2789 20.367C22.4651 20.0675 22.7271 19.8182 23.0404 19.6421C23.3538 19.466 23.7084 19.3689 24.0712 19.3597H24.2441C24.4066 19.3597 24.5167 19.269 24.5114 19.1079C24.5062 18.9467 24.3857 18.8661 24.2075 18.8712C23.8349 18.8654 23.4648 18.9305 23.1185 19.0627C22.7723 19.195 22.4567 19.3918 22.1899 19.6417C22.131 19.6835 22.0781 19.7326 22.0326 19.7878ZM6.01729 14.4643L12.9087 9.12071V19.4957C12.3126 19.0568 11.5729 18.8374 10.8232 18.8771C10.0734 18.9168 9.36323 19.2131 8.82102 19.7123L6.01729 14.4643ZM17.5467 19.7274C17.0179 19.2011 16.2952 18.8954 15.5342 18.8762C14.7795 18.8306 14.0335 19.0528 13.438 19.5007V9.12574L20.3347 14.4744L17.5467 19.7274Z" fill="#124F2E"/>
<path d="M8.517 9.82566C8.49029 10.0128 8.49029 10.2026 8.517 10.3897C8.58171 10.5591 8.68779 10.7111 8.82625 10.8329C8.86817 10.8732 9.05156 10.8329 9.11969 10.7725C9.14716 10.7348 9.16442 10.6911 9.16991 10.6454C9.1754 10.5997 9.16898 10.5533 9.15117 10.5106C8.94154 10.3192 9.03063 10.0875 9.0149 9.85083H9.53897C9.68046 9.9566 9.78524 10.0926 9.90054 10.1027C10.0158 10.1127 10.1154 9.97171 10.2202 9.9012L10.1836 9.84076H10.3041C10.3393 9.83895 10.3737 9.83019 10.4052 9.81503C10.4367 9.79988 10.4647 9.77865 10.4873 9.75266C10.5099 9.72668 10.5267 9.69649 10.5367 9.664C10.5466 9.6315 10.5495 9.59738 10.5451 9.56377C10.5432 9.53042 10.5343 9.49778 10.5188 9.46786C10.5034 9.43794 10.4818 9.41133 10.4553 9.38967C10.4288 9.36801 10.398 9.35174 10.3649 9.34184C10.3317 9.33194 10.2967 9.32862 10.2622 9.33208H9.81673C9.66476 9.33208 9.59661 9.27668 9.59661 9.12559V6.3455C9.59661 6.20448 9.6595 6.13902 9.79575 6.13398H10.4141C10.4822 6.47142 10.2989 6.8844 10.6605 7.08585C10.9012 7.19291 11.1662 7.23969 11.4308 7.22183C11.9182 7.22183 12.0073 7.07074 12.1121 6.13901C12.3267 6.12391 12.5421 6.12391 12.7567 6.13901C12.8196 6.13901 12.9087 6.275 12.9139 6.35054C12.9139 6.62251 12.9139 6.8995 12.9139 7.17651C12.9139 7.35278 12.9139 7.55928 13.1654 7.57439C13.3541 7.57439 13.4223 7.4787 13.4223 7.18659C13.4223 6.89448 13.4223 6.65273 13.4223 6.3858C13.4223 6.19442 13.5061 6.11383 13.7052 6.1239H14.2293C14.2817 6.47141 14.1297 6.87432 14.4861 7.08081C14.7233 7.17596 14.9786 7.22229 15.2355 7.21681C15.3623 7.2428 15.4947 7.22269 15.6069 7.16037C15.7192 7.09804 15.8035 6.99792 15.8435 6.87936C15.8991 6.63269 15.9289 6.38131 15.9325 6.12894C16.1453 6.11392 16.359 6.11392 16.5718 6.12894C16.6347 6.12894 16.7343 6.25989 16.7343 6.33039C16.7343 7.25206 16.7343 8.16869 16.7343 9.09035C16.7343 9.24647 16.6715 9.32202 16.5038 9.31195H16.0635C15.9011 9.31195 15.77 9.39757 15.791 9.54866C15.812 9.69975 15.9273 9.73501 16.0111 9.81559C16.095 9.89617 16.1474 9.85587 16.1631 9.89616C16.2103 10.0372 16.2993 10.153 16.4566 10.1027C16.6138 10.0523 16.6452 9.95157 16.7867 9.8307H17.3108C17.3108 10.0624 17.3946 10.289 17.185 10.4955C17.1606 10.5361 17.1478 10.5821 17.1478 10.629C17.1478 10.6758 17.1606 10.7218 17.185 10.7624C17.2248 10.7954 17.272 10.819 17.323 10.8313C17.374 10.8435 17.4273 10.8441 17.4785 10.8329C17.572 10.8 17.6527 10.7404 17.7099 10.6621C17.767 10.5837 17.7979 10.4904 17.7982 10.3948C17.7982 10.2135 17.7982 10.0372 17.7982 9.82566H18.4794C18.6524 9.82566 18.6367 9.9566 18.6367 10.0624V11.6438C18.6367 11.7143 18.6367 11.805 18.6367 11.8503C18.6367 11.8956 18.8149 12.0366 18.8987 12.0266C18.9826 12.0165 19.1293 11.8956 19.1293 11.8201C19.1293 11.1653 19.1293 10.5156 19.1293 9.86091C19.1095 9.7019 19.0264 9.55642 18.8974 9.45501C18.7685 9.3536 18.6036 9.30412 18.4375 9.31697C18.0393 9.31697 17.6409 9.31697 17.2269 9.31697C17.2269 8.35502 17.2269 7.40315 17.2269 6.45631C17.2297 6.33971 17.2192 6.22317 17.1955 6.10879C17.1669 5.97631 17.0921 5.85718 16.9834 5.7711C16.8748 5.68502 16.7389 5.63713 16.5981 5.63537C16.2574 5.63537 15.9116 5.63537 15.5499 5.63537H15.2879V2.75959C15.2879 2.15522 15.0469 1.92859 14.4075 1.92859H11.7348C11.1688 1.92859 10.9068 2.17536 10.9068 2.71929C10.9068 3.26322 10.9068 3.69133 10.9068 4.17986V5.63537H9.77477C9.66617 5.6197 9.55526 5.62892 9.45107 5.66227C9.34688 5.69561 9.25236 5.75215 9.17522 5.82726C9.09808 5.90238 9.04049 5.99395 9.00716 6.09451C8.97384 6.19508 8.9657 6.30178 8.98343 6.40594C8.98343 7.36789 8.98343 8.32482 8.98343 9.28173C8.98343 9.28173 8.98346 9.28173 8.95202 9.32706H7.8515C7.74521 9.3137 7.6371 9.32409 7.53567 9.35741C7.43423 9.39074 7.34215 9.44609 7.2666 9.51918C7.19105 9.59227 7.13407 9.68112 7.10008 9.77882C7.06608 9.87653 7.05604 9.98046 7.07065 10.0825V11.7294C7.07065 11.9057 7.10733 12.0518 7.32744 12.0518C7.54754 12.0518 7.59471 11.9057 7.59471 11.7345C7.59471 11.2006 7.59471 10.6667 7.59471 10.1329C7.59471 9.88609 7.67856 9.80551 7.91963 9.8307C8.15546 9.84077 8.31262 9.82566 8.517 9.82566ZM14.0354 2.42719C14.245 2.42719 14.4337 2.42719 14.6223 2.42719C14.811 2.42719 14.8582 2.49266 14.8582 2.64879V5.38355C14.8582 5.53968 14.7953 5.6253 14.6328 5.6253C13.6686 5.6253 12.699 5.6253 11.7348 5.6253C11.6861 5.61366 11.6416 5.58981 11.6057 5.55618C11.5697 5.52256 11.5437 5.48036 11.5304 5.43392C11.5304 4.50218 11.5304 3.56541 11.5304 2.63368C11.5408 2.59048 11.5627 2.5506 11.594 2.51795C11.6252 2.48529 11.6647 2.46097 11.7086 2.44734C11.9145 2.43484 12.121 2.43484 12.327 2.44734C12.3326 2.68932 12.3607 2.93034 12.4108 3.16754C12.4544 3.28432 12.5388 3.38289 12.6498 3.4463C12.7607 3.50972 12.8912 3.53402 13.0187 3.51505C13.2808 3.51505 13.5428 3.57045 13.7944 3.37403C14.0459 3.17761 13.983 2.76463 14.0354 2.42719ZM11.5933 6.12894C11.602 6.31998 11.568 6.51059 11.4937 6.68797C11.423 6.725 11.3437 6.74441 11.2632 6.74441C11.1826 6.74441 11.1033 6.725 11.0325 6.68797C10.9606 6.51006 10.9284 6.31959 10.9382 6.12894H11.5933ZM14.7796 6.12894H15.4452C15.4409 6.32195 15.4018 6.5128 15.3298 6.69302C15.2621 6.72784 15.1865 6.74607 15.1098 6.74607C15.033 6.74607 14.9573 6.72784 14.8896 6.69302C14.8141 6.51571 14.7767 6.32556 14.7796 6.13398V6.12894ZM13.4747 2.98624H12.9034V2.43223H13.4589L13.4747 2.98624Z" fill="#124F2E"/>
<path d="M13.1971 22.9656C12.9111 22.6807 12.5684 22.4542 12.1893 22.2994C11.8103 22.1447 11.4027 22.065 10.9908 22.065C10.579 22.065 10.1713 22.1447 9.79223 22.2994C9.41316 22.4542 9.07043 22.6807 8.78447 22.9656C8.74779 22.9353 8.70063 22.9051 8.66395 22.8699C8.13095 22.38 7.43054 22.0934 6.69366 22.0637C5.95678 22.0341 5.23386 22.2633 4.6601 22.7087C4.47869 22.8776 4.31706 23.0651 4.178 23.2677C4.14939 23.2943 4.1277 23.327 4.1148 23.3632C4.10189 23.3994 4.09811 23.4379 4.10373 23.4758C4.10936 23.5136 4.12424 23.5497 4.14717 23.5809C4.1701 23.6122 4.20044 23.6377 4.23564 23.6555C4.40858 23.7563 4.53435 23.6556 4.6182 23.5246C5.25232 22.4216 7.19661 22.2605 8.18185 23.1166C8.30527 23.2298 8.41433 23.3566 8.50677 23.4944C8.67971 23.7311 8.88933 23.7512 9.03083 23.4944C9.76452 22.2655 12.1752 22.2353 12.9193 23.4944C13.0713 23.7462 13.2809 23.7462 13.4434 23.4944C14.1823 22.2252 16.5878 22.2403 17.3529 23.4944C17.4997 23.7412 17.7093 23.7412 17.877 23.4944C18.6264 22.2403 21.058 22.2353 21.7812 23.4944C21.8651 23.6404 21.9909 23.7261 22.1638 23.6253C22.3367 23.5246 22.321 23.3836 22.2267 23.2375C22.0272 22.915 21.7515 22.6421 21.4219 22.4409C21.0924 22.2396 20.7182 22.1157 20.3296 22.0792C19.2186 21.9331 18.6212 22.1346 17.615 22.9353C17.3381 22.6424 16.9984 22.4105 16.6193 22.2558C16.2402 22.101 15.8308 22.027 15.4191 22.0389C15.0003 22.0246 14.5835 22.1004 14.199 22.2607C13.8146 22.421 13.4723 22.6618 13.1971 22.9656Z" fill="#124F2E"/>
<path d="M6.0172 14.4741L8.82092 19.722C9.36313 19.2228 10.0733 18.9266 10.8231 18.8869C11.5728 18.8471 12.3125 19.0666 12.9086 19.5055V9.13049L6.0172 14.4741ZM10.587 17.3852C10.4467 17.3892 10.3071 17.3661 10.1762 17.3173C10.0454 17.2685 9.92616 17.195 9.82548 17.101C9.7248 17.0071 9.64475 16.8947 9.59012 16.7705C9.5355 16.6462 9.50734 16.5127 9.50741 16.3779C9.4971 16.2359 9.51732 16.0934 9.56677 15.9592C9.61623 15.8251 9.69389 15.7021 9.7949 15.598C9.89591 15.4939 10.0181 15.4109 10.1539 15.3542C10.2897 15.2974 10.4363 15.2681 10.5844 15.2681C10.7325 15.2681 10.879 15.2974 11.0148 15.3542C11.1506 15.4109 11.2729 15.4939 11.3739 15.598C11.4749 15.7021 11.5525 15.8251 11.602 15.9592C11.6514 16.0934 11.6716 16.2359 11.6613 16.3779C11.6613 16.5123 11.6334 16.6454 11.5791 16.7692C11.5248 16.8931 11.4453 17.0053 11.3451 17.0992C11.245 17.1931 11.1264 17.2667 10.9962 17.3158C10.866 17.3649 10.7268 17.3885 10.587 17.3852Z" fill="#43B02A"/>
<path d="M14.0352 2.42698C13.9828 2.76442 14.1139 3.11697 13.8047 3.37382C13.4955 3.63068 13.2806 3.49973 13.0291 3.51484C12.8999 3.53636 12.7669 3.51327 12.6537 3.44967C12.5406 3.38608 12.4545 3.28607 12.4106 3.16733C12.3557 2.92383 12.3241 2.67601 12.3163 2.42698C12.1103 2.41448 11.9038 2.41448 11.6979 2.42698C11.654 2.44061 11.6145 2.46495 11.5833 2.4976C11.552 2.53026 11.5302 2.57012 11.5197 2.61332C11.5197 3.54505 11.5197 4.48182 11.5197 5.41356C11.5331 5.46 11.5591 5.5022 11.595 5.53582C11.6309 5.56945 11.6754 5.5933 11.7241 5.60494C12.6884 5.60494 13.6579 5.60494 14.6222 5.60494C14.7846 5.60494 14.8475 5.51932 14.8475 5.36319V2.66369C14.8475 2.50756 14.7794 2.43201 14.6117 2.44209C14.444 2.45216 14.2448 2.42698 14.0352 2.42698Z" fill="#43B02A"/>
<path d="M11.5933 6.12872H10.9382C10.9285 6.31937 10.9606 6.50984 11.0325 6.68776C11.1033 6.72478 11.1826 6.74419 11.2632 6.74419C11.3437 6.74419 11.423 6.72478 11.4937 6.68776C11.5681 6.51037 11.602 6.31976 11.5933 6.12872Z" fill="white"/>
<path d="M14.7795 6.13376C14.7766 6.32534 14.814 6.51549 14.8895 6.6928C14.9572 6.72763 15.0329 6.74585 15.1097 6.74585C15.1865 6.74585 15.262 6.72763 15.3297 6.6928C15.4018 6.51258 15.4408 6.32174 15.4451 6.12872L14.7795 6.13376Z" fill="white"/>
<path d="M13.4589 2.99126V2.43726H12.8877V2.99126H13.4589Z" fill="white"/>
<path d="M10.5868 17.3852C10.8648 17.3852 11.1314 17.279 11.328 17.0901C11.5245 16.9012 11.635 16.645 11.635 16.3779C11.6453 16.2359 11.625 16.0934 11.5756 15.9592C11.5261 15.8251 11.4485 15.7021 11.3475 15.598C11.2465 15.4939 11.1243 15.4109 10.9884 15.3542C10.8526 15.2974 10.7061 15.2681 10.558 15.2681C10.4099 15.2681 10.2634 15.2974 10.1276 15.3542C9.99175 15.4109 9.86951 15.4939 9.76849 15.598C9.66748 15.7021 9.58982 15.8251 9.54037 15.9592C9.49092 16.0934 9.47075 16.2359 9.48107 16.3779C9.48085 16.5149 9.50972 16.6506 9.56596 16.7766C9.6222 16.9026 9.70464 17.0162 9.80816 17.1105C9.91167 17.2047 10.0341 17.2778 10.168 17.325C10.3019 17.3722 10.4444 17.3927 10.5868 17.3852ZM11.1109 16.3779C11.1027 16.4754 11.0652 16.5685 11.0029 16.6459C10.9406 16.7232 10.8562 16.7815 10.76 16.8135C10.6638 16.8455 10.56 16.8499 10.4613 16.8262C10.3625 16.8024 10.2731 16.7515 10.204 16.6798C10.1348 16.608 10.0889 16.5184 10.0719 16.422C10.0548 16.3255 10.0673 16.2264 10.1079 16.1367C10.1485 16.047 10.2154 15.9706 10.3005 15.9168C10.3855 15.8631 10.485 15.8343 10.5868 15.8339C10.6601 15.831 10.7332 15.8429 10.8015 15.8688C10.8697 15.8947 10.9314 15.9341 10.9828 15.9844C11.0342 16.0347 11.074 16.0949 11.0997 16.1609C11.1254 16.2269 11.1363 16.2974 11.1319 16.3678L11.1109 16.3779Z" fill="#124F2E"/>
<path d="M15.8068 17.3852C15.9471 17.3853 16.0861 17.3583 16.2153 17.3058C16.3446 17.2533 16.4616 17.1764 16.5593 17.0796C16.6571 16.9828 16.7336 16.8682 16.7844 16.7425C16.8351 16.6168 16.8591 16.4825 16.8549 16.3477C16.8652 16.2057 16.8451 16.0632 16.7956 15.9291C16.7462 15.7949 16.6685 15.6719 16.5675 15.5679C16.4665 15.4638 16.3442 15.3808 16.2084 15.324C16.0726 15.2673 15.9261 15.238 15.778 15.238C15.6299 15.238 15.4834 15.2673 15.3475 15.324C15.2117 15.3808 15.0895 15.4638 14.9885 15.5679C14.8874 15.6719 14.8098 15.7949 14.7604 15.9291C14.7109 16.0632 14.6907 16.2057 14.701 16.3477C14.6964 16.4873 14.7221 16.6263 14.7764 16.7558C14.8307 16.8854 14.9124 17.0027 15.0164 17.1002C15.1204 17.1978 15.2444 17.2735 15.3804 17.3226C15.5165 17.3716 15.6617 17.393 15.8068 17.3852ZM15.2461 16.3779C15.2461 16.2384 15.3038 16.1045 15.4065 16.0058C15.5092 15.9071 15.6484 15.8516 15.7937 15.8516C15.9389 15.8516 16.0783 15.9071 16.181 16.0058C16.2837 16.1045 16.3413 16.2384 16.3413 16.3779C16.3413 16.5175 16.2837 16.6514 16.181 16.7501C16.0783 16.8488 15.9389 16.9042 15.7937 16.9042C15.6484 16.9042 15.5092 16.8488 15.4065 16.7501C15.3038 16.6514 15.2461 16.5175 15.2461 16.3779Z" fill="#124F2E"/>
</svg>
