<svg width="140" height="135" viewBox="0 0 140 135" fill="none" xmlns="http://www.w3.org/2000/svg">
<path d="M79.5002 76.5C79.5002 80.9183 74.4185 86 70.0002 86C65.5819 86 59.5002 80.9183 59.5002 76.5C59.5002 72.0817 65.5819 58.5 70.0002 58.5C74.4185 58.5 79.5002 72.0817 79.5002 76.5Z" fill="#43B02A"/>
<path d="M44.0002 18H60.0002V25H44.0002V18Z" fill="#43B02A"/>
<path d="M36.0002 110H103V117H36.0002V110Z" fill="#43B02A"/>
<path d="M58.4169 15.5908C59.5418 15.9217 60.5326 16.5948 61.2483 17.5143C61.9639 18.4338 62.3679 19.5529 62.4029 20.7124C62.4029 21.5792 62.4029 22.4066 62.4029 23.2733C62.4029 23.5491 62.4029 23.8643 62.4029 24.2583H63.7583C75.7165 24.2583 87.6748 24.2583 99.3938 24.2583C100.657 24.2439 101.907 24.4993 103.061 25.0068C104.188 25.546 105.105 26.4345 105.674 27.537C106.242 28.6394 106.431 29.8953 106.21 31.1133C106.098 32.2365 105.664 33.3046 104.957 34.1913C104.251 35.0779 103.302 35.7461 102.224 36.1169H101.188C101.188 38.8353 101.188 41.5537 101.188 44.2327C101.221 44.396 101.298 44.5475 101.41 44.672C101.522 44.7966 101.665 44.8896 101.825 44.9418C103.144 45.2924 104.308 46.0677 105.131 47.1452C105.954 48.2227 106.39 49.5409 106.369 50.8909C106.389 52.2431 105.941 53.5613 105.1 54.6284C104.26 55.6954 103.077 56.4477 101.745 56.761C101.108 56.958 101.148 57.3126 101.148 57.7459V86.3878C105.134 88.1213 106.609 89.9336 106.33 93.2824C106.167 94.6088 105.575 95.8474 104.641 96.8133C103.707 97.7791 102.481 98.4202 101.148 98.6403V99.5858C101.148 101.516 101.148 103.525 101.148 105.417C101.077 105.686 101.063 105.967 101.106 106.242C101.148 106.517 101.247 106.78 101.397 107.016C101.546 107.252 101.742 107.455 101.973 107.614C102.205 107.772 102.466 107.883 102.742 107.938C104.05 108.457 105.127 109.422 105.778 110.657C106.429 111.893 106.61 113.318 106.29 114.675C105.992 116.027 105.238 117.239 104.151 118.113C103.065 118.986 101.711 119.468 100.311 119.481H38.6857C37.2485 119.429 35.8756 118.879 34.8065 117.929C33.7373 116.978 33.0396 115.686 32.8356 114.279C32.6315 112.872 32.9338 111.439 33.6897 110.229C34.4457 109.02 35.6072 108.112 36.9717 107.662C37.6892 107.426 37.8887 107.189 37.8488 106.48C37.8488 103.92 37.8488 101.319 37.8488 98.6009C36.3806 98.367 35.0445 97.624 34.0802 96.505C33.1159 95.386 32.5864 93.9642 32.5864 92.4944C32.5864 91.0245 33.1159 89.6027 34.0802 88.4837C35.0445 87.3647 36.3806 86.6217 37.8488 86.3878V57.864C37.8488 57.1155 37.8488 56.8005 36.8922 56.5641C35.6311 56.1917 34.5295 55.4183 33.7584 54.3641C32.9872 53.3098 32.5895 52.0335 32.6271 50.7331C32.6253 49.4391 33.0476 48.1795 33.8309 47.1425C34.6141 46.1056 35.716 45.3473 36.9717 44.9813C37.7291 44.7449 37.8488 44.4691 37.8488 43.7994C37.8488 41.1992 37.8488 38.6384 37.8488 35.9199C33.8627 34.5016 32.2681 32.2952 32.7066 28.8677C32.7716 27.9277 33.0959 27.0233 33.644 26.2524C34.1921 25.4815 34.9431 24.8736 35.8159 24.4946C37.628 23.9557 39.4808 23.5605 41.3566 23.3128C41.1174 20.0034 41.3566 16.4971 45.3426 15L58.4169 15.5908ZM41.476 99.0736V107.977C41.476 110.775 41.4761 110.932 38.5663 111.247H38.367C37.9815 111.302 37.6138 111.443 37.2919 111.66C36.9701 111.876 36.7026 112.163 36.5102 112.498C36.3178 112.833 36.2054 113.206 36.1818 113.591C36.1582 113.975 36.224 114.359 36.374 114.714C36.6248 115.301 37.0676 115.786 37.6315 116.094C38.1955 116.401 38.8476 116.512 39.483 116.409H99.633C100.171 116.421 100.709 116.355 101.227 116.212C101.735 116.031 102.173 115.699 102.48 115.261C102.787 114.823 102.948 114.302 102.941 113.769C102.929 113.255 102.759 112.757 102.452 112.341C102.146 111.926 101.719 111.613 101.227 111.444C100.62 111.343 100.001 111.343 99.3938 111.444H58.2974C57.8199 111.484 57.3397 111.484 56.8622 111.444C56.4987 111.398 56.1636 111.227 55.9156 110.96C55.6676 110.693 55.5229 110.349 55.5071 109.987C55.4274 109.612 55.4886 109.221 55.6793 108.887C55.8701 108.554 56.1774 108.3 56.5435 108.174C57.0049 108.093 57.4771 108.093 57.9385 108.174H97.5602V99.5858H56.2246C55.8136 99.6249 55.3998 99.6249 54.9889 99.5858C54.5772 99.519 54.2045 99.306 53.9403 98.9868C53.6761 98.6677 53.5387 98.2644 53.554 97.8523C53.5315 97.4365 53.6723 97.0282 53.9471 96.7125C54.2219 96.3969 54.6094 96.1983 55.0288 96.1583C55.4664 96.1191 55.9067 96.1191 56.3443 96.1583H100.43C101.017 96.0996 101.565 95.8451 101.985 95.4369C102.406 95.0286 102.672 94.491 102.742 93.9126C102.812 93.3547 102.689 92.7897 102.392 92.3102C102.095 91.8306 101.642 91.4651 101.108 91.2731C100.619 91.1149 100.108 91.0351 99.5931 91.0367H83.6488C82.2537 91.0367 81.4564 90.2093 81.6558 88.9879C81.8551 87.7666 82.453 87.5697 83.6887 87.5697H97.2811V58.0612H83.6089C82.2536 58.0612 81.4963 57.2732 81.6558 56.0519C81.8152 54.8306 82.4529 54.5548 83.848 54.5548H100.51C100.944 54.509 101.356 54.3447 101.701 54.0803C102.046 53.8159 102.31 53.4618 102.463 53.0577C102.648 52.6389 102.718 52.1792 102.667 51.725C102.615 51.2709 102.443 50.8383 102.168 50.4708C101.893 50.1032 101.525 49.814 101.101 49.6318C100.677 49.4496 100.212 49.3811 99.7524 49.4332H92.8965C92.4754 49.5149 92.0421 49.5149 91.6209 49.4332C91.2613 49.2919 90.9659 49.026 90.7899 48.6853C90.6138 48.3446 90.5692 47.9522 90.6643 47.5814C90.732 47.1745 90.9472 46.8061 91.2701 46.545C91.593 46.2839 92.0013 46.1481 92.4182 46.1631H97.64V36.9049C97.64 34.4228 97.9588 34.0683 100.39 33.9501C101.015 33.9265 101.612 33.6833 102.072 33.2645C102.532 32.8458 102.826 32.2787 102.902 31.665C102.97 31.055 102.814 30.441 102.463 29.9348C102.112 29.4287 101.588 29.0639 100.988 28.9071C100.538 28.8485 100.083 28.8485 99.633 28.9071H38.6461C38.028 28.9398 37.4413 29.1868 36.9893 29.6047C36.5372 30.0226 36.2486 30.5848 36.1745 31.1922C36.1059 31.7919 36.2574 32.3961 36.6012 32.8949C36.945 33.3937 37.4583 33.7541 38.0481 33.9106C38.5111 33.9709 38.98 33.9709 39.4431 33.9106H80.9782C81.3491 33.8712 81.7232 33.8712 82.0942 33.9106C82.5275 33.9602 82.9255 34.1711 83.207 34.5005C83.4884 34.8299 83.6321 35.253 83.6089 35.6836C83.6209 36.1032 83.4712 36.5115 83.1899 36.826C82.9087 37.1405 82.517 37.3378 82.0942 37.3776C81.6566 37.4168 81.2163 37.4168 80.7787 37.3776H41.5159V46.0056H83.6887C84.134 46.0335 84.5538 46.2209 84.8694 46.5327C85.1849 46.8446 85.3745 47.2595 85.4027 47.6997C85.4136 48.1529 85.2444 48.5922 84.9314 48.9236C84.6185 49.255 84.1868 49.4521 83.7286 49.4726H39.8817C39.2999 49.3933 38.7097 49.3933 38.1279 49.4726C37.616 49.6176 37.163 49.9171 36.8321 50.3294C36.5012 50.7416 36.3091 51.2458 36.2827 51.7714C36.2564 52.297 36.3969 52.8175 36.6849 53.2601C36.9729 53.7027 37.3939 54.0452 37.8887 54.2395C38.4833 54.4144 39.1021 54.4942 39.7221 54.4759H55.6665C55.9064 54.4929 56.14 54.5608 56.3511 54.675C56.5621 54.7892 56.7457 54.947 56.8895 55.1376C57.0332 55.3283 57.1335 55.5474 57.1839 55.7799C57.2342 56.0124 57.2334 56.2531 57.1812 56.4852C57.1812 57.4307 56.3441 57.9429 55.1881 57.9429H41.5558V87.4514H55.3078C55.5899 87.423 55.8746 87.4626 56.1377 87.5668C56.4009 87.671 56.6345 87.8369 56.8187 88.0499C57.0028 88.2629 57.1322 88.5169 57.1953 88.79C57.2584 89.0632 57.2535 89.3475 57.1812 89.6184C56.9952 90.4852 56.3175 90.9184 55.1482 90.9184H39.2039C38.8262 90.8669 38.4417 90.8972 38.077 91.0071C37.7123 91.117 37.376 91.304 37.0917 91.5551C36.8073 91.8062 36.5817 92.1153 36.4302 92.4612C36.2787 92.807 36.205 93.1814 36.2144 93.5582C36.2144 95.0553 37.4102 96.04 39.2039 96.0794H46.6182C47.1084 96.0687 47.5833 96.2483 47.941 96.5798C48.2987 96.9113 48.5107 97.3681 48.5315 97.8523C48.527 98.1009 48.4706 98.3459 48.3663 98.572C48.2619 98.7982 48.1116 99.0007 47.9247 99.1669C47.7378 99.3332 47.5182 99.4596 47.2797 99.5385C47.0412 99.6173 46.789 99.6469 46.5384 99.6253L41.476 99.0736ZM58.975 24.2188C58.975 23.0369 58.975 21.8944 58.975 20.7518C58.9756 20.5294 58.9297 20.3093 58.8402 20.1052C58.7507 19.9011 58.6195 19.7175 58.4548 19.5659C58.2901 19.4142 58.0956 19.2978 57.8833 19.224C57.671 19.1501 57.4455 19.1204 57.2211 19.1367H46.8175C46.4212 19.0803 46.0183 19.181 45.6971 19.4173C45.3759 19.6535 45.1626 20.006 45.1035 20.3974C45.1035 21.6581 45.1035 22.9582 45.1035 24.3371L58.975 24.2188Z" fill="#124F2E"/>
<path d="M69.9365 88.5941C67.1251 88.6139 64.3872 87.7064 62.1563 86.0152C59.9255 84.324 58.3289 81.9459 57.6195 79.257C56.8009 75.2396 57.4064 71.0662 59.3337 67.4378C61.2827 63.4239 63.8812 59.7511 67.0268 56.5641C67.3336 56.2138 67.7129 55.9327 68.1393 55.7401C68.5658 55.5475 69.0293 55.4477 69.4981 55.4477C69.967 55.4477 70.4302 55.5475 70.8567 55.7401C71.2831 55.9327 71.6626 56.2138 71.9695 56.5641C76.4129 60.9388 79.6511 66.3635 81.3766 72.3231C82.0193 74.4098 82.119 76.6231 81.6661 78.7581C81.2132 80.893 80.2223 82.8803 78.7855 84.5361C77.6819 85.7892 76.3235 86.7982 74.7987 87.4974C73.2739 88.1966 71.6172 88.5704 69.9365 88.5941ZM69.5777 59.1248C66.7041 62.055 64.3225 65.42 62.5225 69.0924C61.5342 71.1861 60.9528 73.4447 60.8085 75.7506C60.7346 77.1059 60.9779 78.4599 61.5196 79.7072C62.0614 80.9544 62.887 82.0611 63.9321 82.9416C64.9772 83.8221 66.2137 84.4526 67.5455 84.7838C68.8772 85.115 70.2683 85.1381 71.6106 84.8514C73.8907 84.2473 75.8456 82.7936 77.0645 80.7955C78.2834 78.7974 78.6716 76.4102 78.1478 74.1352C76.7007 68.4643 73.7411 63.2808 69.5777 59.1248Z" fill="#124F2E"/>
</svg>
