<svg width="140" height="135" viewBox="0 0 140 135" fill="none" xmlns="http://www.w3.org/2000/svg">
<path d="M81.3628 81.2222C81.3628 83.8302 79.2412 85.9444 76.624 85.9444C74.0068 85.9444 71.8852 83.8302 71.8852 81.2222C71.8852 78.6142 74.0068 76.5 76.624 76.5C79.2412 76.5 81.3628 78.6142 81.3628 81.2222Z" fill="#43B02A"/>
<path d="M21.6538 108.611H118.326V116.167H21.6538V108.611Z" fill="#43B02A"/>
<path d="M29.2359 101.056H70.9374V106.722H29.2359V101.056Z" fill="#43B02A"/>
<path d="M29.2359 52.8889H56.721V60.4444H29.2359V52.8889Z" fill="#43B02A"/>
<path d="M104.109 62.3333C104.109 64.9413 101.987 67.0556 99.3703 67.0556C96.7531 67.0556 94.6315 64.9413 94.6315 62.3333C94.6315 59.7253 96.7531 57.6111 99.3703 57.6111C101.987 57.6111 104.109 59.7253 104.109 62.3333Z" fill="#43B02A"/>
<path d="M114.857 106.091H74.1803C74.3866 105.389 74.4986 104.662 74.5138 103.93C74.5193 103.085 74.3571 102.248 74.0366 101.467C73.7162 100.685 73.244 99.9746 72.6469 99.3757C72.0497 98.7767 71.3395 98.3015 70.5573 97.9771C69.7751 97.6528 68.9361 97.4858 68.0889 97.4858H53.07V93.3284C53.07 92.7441 52.8369 92.1837 52.4222 91.7705C52.0076 91.3573 51.4452 91.1251 50.8588 91.1251H44.7262V83.5172L50.4835 77.7801C50.8639 77.3508 51.0978 76.8122 51.1511 76.2419V72.8329C59.495 62.3564 59.495 62.8552 59.495 62.5226C59.495 62.1901 59.4948 62.0238 59.8285 61.6496V50.8406C59.8183 50.2665 59.5878 49.7183 59.1843 49.3085C58.7808 48.8986 58.2348 48.6584 57.6591 48.6372H53.4871V47.1406H66.5453C67.9361 47.1297 69.2668 46.5743 70.2502 45.5943C71.2337 44.6143 71.7911 43.2882 71.802 41.9023C71.8213 41.6441 71.9329 41.4014 72.1167 41.2183C72.3005 41.0351 72.544 40.9238 72.8032 40.9046H113.188C113.764 40.8835 114.309 40.6432 114.712 40.2333C115.116 39.8235 115.347 39.2753 115.357 38.7012C115.357 38.124 115.13 37.5698 114.724 37.1577C114.319 36.7457 113.767 36.5088 113.188 36.4979H72.8032C71.4124 36.5087 70.0817 37.064 69.0983 38.0441C68.1148 39.0241 67.5574 40.3501 67.5465 41.736C67.5272 41.9943 67.4156 42.2371 67.2318 42.4202C67.048 42.6033 66.8045 42.7147 66.5453 42.7339H54.0295V38.5765H66.5453C67.9361 38.5657 69.2668 38.0102 70.2502 37.0302C71.2337 36.0502 71.7911 34.7242 71.802 33.3383C71.82 33.0755 71.9301 32.8274 72.1131 32.6374C72.2962 32.4474 72.5405 32.3276 72.8032 32.2989H113.188C113.717 32.226 114.201 31.9649 114.552 31.5637C114.902 31.1625 115.096 30.6484 115.096 30.1164C115.096 29.5843 114.902 29.0702 114.552 28.669C114.201 28.2678 113.717 28.0067 113.188 27.9338H72.8032C71.4124 27.9447 70.0817 28.5 69.0983 29.48C68.1148 30.46 67.5574 31.786 67.5465 33.1719C67.5272 33.4302 67.4156 33.673 67.2318 33.8562C67.048 34.0393 66.8045 34.1506 66.5453 34.1698H54.0295V30.0125H66.5453C67.9361 30.0016 69.2668 29.4462 70.2502 28.4661C71.2337 27.4861 71.7911 26.1601 71.802 24.7742C71.8115 24.5086 71.9188 24.2558 72.1035 24.0641C72.2882 23.8724 72.5373 23.7551 72.8032 23.7348H113.188C113.767 23.724 114.319 23.487 114.724 23.075C115.13 22.663 115.357 22.1087 115.357 21.5315C115.347 20.9574 115.116 20.4091 114.712 19.9992C114.309 19.5894 113.764 19.3493 113.188 19.3281H72.8032C71.4124 19.339 70.0817 19.8943 69.0983 20.8743C68.1148 21.8543 67.5574 23.1805 67.5465 24.5664C67.537 24.832 67.4297 25.0847 67.245 25.2765C67.0603 25.4682 66.8112 25.5854 66.5453 25.6057H54.0295V19.1618C54.0186 18.5846 53.7809 18.0348 53.3674 17.6306C52.954 17.2263 52.3975 16.9999 51.8183 17H34.8805C34.3012 16.9999 33.7448 17.2263 33.3313 17.6306C32.9178 18.0348 32.6802 18.5846 32.6692 19.1618V48.7619H28.4973C27.9253 48.7726 27.3796 49.0038 26.9751 49.4069C26.5705 49.8101 26.3385 50.3538 26.3278 50.9238V61.7744C26.3413 61.9653 26.3926 62.1517 26.4785 62.323C26.5645 62.4942 26.6832 62.6468 26.8284 62.7721C26.8284 62.7721 33.0865 70.7127 34.7969 72.7498V76.2834C34.7999 76.5711 34.8606 76.8555 34.9752 77.1196C35.0898 77.3837 35.2562 77.6225 35.4646 77.8217L41.2219 83.5587V91.1667H37.05C36.4635 91.1667 35.9012 91.3989 35.4865 91.8121C35.0718 92.2253 34.8387 92.7857 34.8387 93.3701V97.5274H32.2104C31.3631 97.5274 30.5242 97.6943 29.7419 98.0186C28.9597 98.343 28.2496 98.8184 27.6524 99.4173C27.0553 100.016 26.583 100.727 26.2626 101.508C25.9422 102.29 25.7799 103.127 25.7854 103.971C25.8148 104.702 25.9271 105.427 26.1195 106.133H25.7854C24.8954 106.062 24.0001 106.175 23.1561 106.465C22.312 106.755 21.5379 107.217 20.8817 107.82C20.2254 108.424 19.7014 109.156 19.3432 109.971C18.985 110.786 18.8003 111.666 18.8003 112.556C18.8003 113.446 18.985 114.326 19.3432 115.141C19.7014 115.956 20.2254 116.689 20.8817 117.292C21.5379 117.895 22.312 118.357 23.1561 118.647C24.0001 118.938 24.8954 119.051 25.7854 118.979H114.773C116.415 118.848 117.946 118.106 119.063 116.9C120.18 115.695 120.8 114.114 120.8 112.473C120.8 110.832 120.18 109.251 119.063 108.046C117.946 106.84 116.415 106.098 114.773 105.967L114.857 106.091ZM48.8981 42.817H42.4732V38.6596H48.8981V42.817ZM48.8981 34.5023H42.4732V30.345H48.8981V34.5023ZM36.3823 21.8225H48.8981V25.9798H42.4732C42.4748 25.4232 42.2652 24.8864 41.886 24.4777C41.5067 24.0689 40.986 23.8185 40.429 23.7765C39.8459 23.7871 39.2896 24.0226 38.8772 24.4335C38.4648 24.8445 38.2284 25.3988 38.2177 25.9798V44.8956C38.2284 45.4767 38.4648 46.0309 38.8772 46.4418C39.2896 46.8527 39.8459 47.0883 40.429 47.099H48.7728V49.3024H36.257L36.3823 21.8225ZM29.9156 53.4181H55.3648V59.862H29.9156V53.4181ZM53.1536 64.061L48.0639 70.5048H37.3835L32.2939 64.061H53.1536ZM38.3847 74.7037H46.7286V75.9092L42.5567 80.0666L38.3847 75.9092V74.7037ZM38.3847 95.8229H48.8981V97.7768H38.4265V95.7398L38.3847 95.8229ZM30.0409 104.138C30.0516 103.556 30.288 103.002 30.7004 102.591C31.1128 102.18 31.669 101.945 32.2521 101.934H68.3812C68.6942 101.891 69.0124 101.915 69.3152 102.005C69.618 102.095 69.8984 102.249 70.1367 102.455C70.3749 102.662 70.5655 102.918 70.6964 103.204C70.8272 103.491 70.895 103.802 70.895 104.117C70.895 104.432 70.8272 104.743 70.6964 105.029C70.5655 105.316 70.3749 105.571 70.1367 105.778C69.8984 105.985 69.618 106.138 69.3152 106.228C69.0124 106.318 68.6942 106.342 68.3812 106.299H32.2104C31.6431 106.258 31.1068 106.026 30.6897 105.641C30.2726 105.255 29.9994 104.74 29.9156 104.179L30.0409 104.138ZM114.981 114.614H25.8272C25.2441 114.603 24.6878 114.368 24.2754 113.957C23.8631 113.546 23.6266 112.992 23.6159 112.411C23.6159 111.826 23.8491 111.266 24.2637 110.853C24.6784 110.439 25.2408 110.207 25.8272 110.207H114.815C115.401 110.207 115.964 110.439 116.378 110.853C116.793 111.266 117.026 111.826 117.026 112.411C117.026 112.995 116.793 113.555 116.378 113.969C115.964 114.382 115.401 114.614 114.815 114.614H114.981Z" fill="#124F2E"/>
<path d="M76.5581 87.2595C77.8388 87.2595 79.0908 86.8805 80.1551 86.1706C81.2194 85.4606 82.0482 84.4518 82.5364 83.2719C83.0246 82.092 83.1499 80.7943 82.897 79.5432C82.6441 78.2921 82.0241 77.1439 81.1156 76.2444C80.207 75.3449 79.0512 74.7344 77.7941 74.4905C76.537 74.2466 75.2354 74.3802 74.0545 74.8743C72.8737 75.3684 71.8664 76.2008 71.1609 77.2659C70.4554 78.3311 70.0831 79.581 70.0914 80.8572C70.1341 82.5489 70.8306 84.159 72.0353 85.3517C73.24 86.5445 74.8602 87.2279 76.5581 87.2595ZM76.5581 78.9448C77.1412 78.9555 77.6975 79.1911 78.1099 79.602C78.5222 80.013 78.7587 80.5672 78.7694 81.1482C78.8314 81.4559 78.824 81.7735 78.748 82.078C78.6719 82.3826 78.5289 82.6666 78.3294 82.9094C78.1298 83.1523 77.8786 83.3479 77.594 83.4823C77.3093 83.6166 76.9984 83.6863 76.6834 83.6863C76.3684 83.6863 76.0575 83.6166 75.7728 83.4823C75.4882 83.3479 75.2365 83.1523 75.0369 82.9094C74.8374 82.6666 74.6944 82.3826 74.6183 82.078C74.5422 81.7735 74.5354 81.4559 74.5974 81.1482C74.5627 80.8653 74.5864 80.5782 74.6677 80.3049C74.749 80.0316 74.8861 79.7779 75.07 79.5595C75.2539 79.3412 75.4812 79.1629 75.7372 79.0357C75.9932 78.9085 76.2725 78.8351 76.5581 78.8201V78.9448Z" fill="#124F2E"/>
<path d="M98.96 70.3801C100.439 70.3884 101.887 69.9589 103.12 69.1462C104.354 68.3335 105.318 67.1742 105.889 65.8152C106.461 64.4561 106.615 62.9586 106.331 61.5123C106.048 60.0661 105.34 58.7362 104.297 57.6913C103.254 56.6464 101.924 55.9336 100.474 55.6431C99.0244 55.3526 97.5204 55.4975 96.1535 56.0595C94.7865 56.6215 93.6178 57.5753 92.7953 58.7999C91.9729 60.0246 91.5339 61.4649 91.5339 62.9385C91.5447 64.9016 92.3295 66.7819 93.7186 68.174C95.1078 69.566 96.9901 70.3584 98.96 70.3801ZM98.96 59.7374C99.3854 59.7319 99.8076 59.8106 100.202 59.9691C100.597 60.1275 100.956 60.3623 101.258 60.6601C101.561 60.9579 101.802 61.3127 101.966 61.7038C102.13 62.0949 102.214 62.5146 102.214 62.9385C102.223 63.5815 102.039 64.2125 101.686 64.7512C101.334 65.2899 100.829 65.712 100.235 65.9639C99.6409 66.2157 98.9849 66.2858 98.351 66.1655C97.717 66.0451 97.1337 65.7396 96.6744 65.2878C96.2152 64.836 95.901 64.2583 95.772 63.6282C95.643 62.998 95.7047 62.3439 95.9498 61.7489C96.1948 61.154 96.6121 60.6451 97.1481 60.2869C97.6841 59.9287 98.3147 59.7374 98.96 59.7374Z" fill="#124F2E"/>
<path d="M108.433 76.6169C108.87 76.6169 109.297 76.7461 109.661 76.9882C110.025 77.2303 110.308 77.5744 110.475 77.9771C110.643 78.3797 110.686 78.8227 110.601 79.2501C110.516 79.6775 110.305 80.0701 109.996 80.3782C109.687 80.6864 109.293 80.8962 108.864 80.9812C108.435 81.0663 107.99 81.0227 107.586 80.8559C107.182 80.6891 106.837 80.4068 106.594 80.0444C106.351 79.6821 106.221 79.256 106.221 78.8202C106.221 78.2359 106.454 77.6755 106.869 77.2623C107.284 76.849 107.846 76.6169 108.433 76.6169Z" fill="#124F2E"/>
<path d="M72.3025 63.9357C72.7398 63.9357 73.1673 64.0649 73.5309 64.307C73.8945 64.5491 74.1779 64.8932 74.3452 65.2959C74.5126 65.6985 74.5563 66.1416 74.471 66.569C74.3857 66.9964 74.1752 67.389 73.866 67.6972C73.5568 68.0053 73.1628 68.2152 72.7339 68.3002C72.305 68.3852 71.8607 68.3416 71.4566 68.1748C71.0526 68.0081 70.707 67.7256 70.4641 67.3632C70.2211 67.0009 70.0913 66.575 70.0913 66.1392C70.0913 65.5548 70.3244 64.9943 70.7391 64.5811C71.1537 64.1679 71.7161 63.9357 72.3025 63.9357Z" fill="#124F2E"/>
<path d="M89.4495 44.8539C89.8868 44.8539 90.3142 44.9832 90.6779 45.2253C91.0415 45.4674 91.3253 45.8115 91.4927 46.2141C91.66 46.6167 91.7038 47.0599 91.6185 47.4873C91.5332 47.9147 91.3222 48.3073 91.013 48.6154C90.7037 48.9236 90.3098 49.1334 89.8809 49.2184C89.4519 49.3035 89.0076 49.2597 88.6036 49.093C88.1996 48.9262 87.854 48.6438 87.611 48.2815C87.3681 47.9191 87.2383 47.4931 87.2383 47.0573C87.2383 46.4729 87.4714 45.9125 87.886 45.4993C88.3007 45.0861 88.8631 44.8539 89.4495 44.8539Z" fill="#124F2E"/>
<path d="M61.7892 80.8562C62.2265 80.8562 62.6539 80.9854 63.0175 81.2275C63.3812 81.4696 63.665 81.8137 63.8324 82.2163C63.9997 82.619 64.0435 83.062 63.9582 83.4894C63.8728 83.9168 63.6619 84.3095 63.3526 84.6176C63.0434 84.9258 62.6495 85.1357 62.2205 85.2207C61.7916 85.3057 61.3473 85.262 60.9433 85.0952C60.5393 84.9284 60.1937 84.6461 59.9507 84.2837C59.7078 83.9214 59.5784 83.4953 59.5784 83.0595C59.5784 82.4752 59.8111 81.9148 60.2257 81.5015C60.6404 81.0883 61.2028 80.8562 61.7892 80.8562Z" fill="#124F2E"/>
<path d="M25.703 80.8566C26.1403 80.8566 26.5682 80.9858 26.9318 81.2279C27.2954 81.47 27.5788 81.8141 27.7461 82.2168C27.9135 82.6194 27.9572 83.0624 27.8719 83.4898C27.7866 83.9172 27.5761 84.3099 27.2669 84.6181C26.9577 84.9262 26.5637 85.1361 26.1348 85.2211C25.7059 85.3061 25.2611 85.2624 24.8571 85.0956C24.453 84.9288 24.1075 84.6465 23.8645 84.2841C23.6215 83.9218 23.4922 83.4957 23.4922 83.0599C23.4865 82.769 23.54 82.48 23.6491 82.2102C23.7582 81.9403 23.9208 81.6951 24.1273 81.4894C24.3337 81.2837 24.5796 81.1215 24.8504 81.0127C25.1213 80.904 25.411 80.8509 25.703 80.8566Z" fill="#124F2E"/>
</svg>
