<svg width="140" height="135" viewBox="0 0 140 135" fill="none" xmlns="http://www.w3.org/2000/svg">
<path d="M45 91C45 97.0751 40.0751 102 34 102C27.9249 102 23 97.0751 23 91C23 84.9249 27.9249 80 34 80C40.0751 80 45 84.9249 45 91Z" fill="#43B02A"/>
<path d="M37 90C37 91.6569 35.6569 93 34 93C32.3431 93 31 91.6569 31 90C31 88.3431 32.3431 87 34 87C35.6569 87 37 88.3431 37 90Z" fill="#124F2E"/>
<path d="M119 91C119 97.0751 114.075 102 108 102C101.925 102 97 97.0751 97 91C97 84.9249 101.925 80 108 80C114.075 80 119 84.9249 119 91Z" fill="#43B02A"/>
<path d="M111 90C111 91.6569 109.657 93 108 93C106.343 93 105 91.6569 105 90C105 88.3431 106.343 87 108 87C109.657 87 111 88.3431 111 90Z" fill="#124F2E"/>
<path d="M83 42H102L109.5 57H83V42Z" fill="#43B02A"/>
<path d="M127 68H134V76H127V68Z" fill="#43B02A"/>
<path d="M4.73938 56.8296C5.06553 55.5502 5.75472 54.3939 6.72268 53.5019C7.69064 52.6099 8.89566 52.0208 10.1906 51.8064C10.6493 51.7534 11.1123 51.7534 11.571 51.8064H31.7118C32.3012 51.7432 32.8957 51.8679 33.411 52.1627C33.6693 52.4184 33.8742 52.7234 34.014 53.0598C34.1538 53.3963 34.2256 53.7574 34.2251 54.122C34.2251 54.692 33.3756 55.2621 32.7739 55.6183C32.2747 55.7481 31.7508 55.7481 31.2516 55.6183H11.8896C9.37644 55.6183 8.35003 56.687 8.6686 59.3589H65.3037C67.8876 59.3589 68.6309 58.3971 68.1354 55.7964H41.6231C39.5701 55.7964 38.6142 55.1908 38.5788 53.8371C38.5434 52.4833 39.57 51.8421 41.6938 51.8421H68.3123V50.3458C68.3123 46.4982 68.3123 42.615 68.3123 38.7319C68.2277 37.7059 68.365 36.6737 68.7148 35.7063C69.0646 34.7389 69.6185 33.8594 70.3384 33.128C71.0583 32.3967 71.927 31.8311 72.8849 31.4701C73.8428 31.1091 74.8672 30.9612 75.8873 31.0368H89.4796C91.5444 30.9982 93.5819 31.5164 95.3807 32.5375C97.1794 33.5585 98.674 35.0454 99.7094 36.8437C102.86 41.9025 106.081 46.9257 109.16 52.0201C109.796 53.1847 110.752 54.1401 111.913 54.772C113.075 55.4038 114.393 55.6852 115.709 55.5827C119.249 55.5827 122.788 55.5827 126.115 55.5827C127.422 55.5584 128.72 55.8 129.932 56.2932C131.143 56.7863 132.243 57.5208 133.165 58.4524C134.088 59.3841 134.813 60.4937 135.299 61.7147C135.785 62.9357 136.02 64.2428 135.991 65.5577V84.9379C136.045 86.113 135.858 87.2868 135.442 88.3862C135.026 89.4857 134.39 90.4875 133.574 91.3293C132.757 92.1711 131.778 92.835 130.695 93.2799C129.613 93.7248 128.452 93.9412 127.284 93.9155H122.045C121.759 93.8636 121.463 93.9282 121.224 94.0952C120.986 94.2622 120.822 94.518 120.77 94.8061C119.833 97.4838 118.087 99.7993 115.776 101.428C113.466 103.057 110.707 103.918 107.886 103.891C105.088 103.913 102.354 103.047 100.073 101.416C97.7915 99.7856 96.0788 97.4726 95.1784 94.8061C94.7891 93.8443 94.2228 93.9155 93.5149 93.9155H53.9766C53.5099 93.8517 53.082 93.6199 52.7722 93.2629C52.4623 92.9059 52.2917 92.4479 52.2917 91.9739C52.2917 91.4999 52.4623 91.0419 52.7722 90.6849C53.082 90.3279 53.5099 90.0961 53.9766 90.0324C54.4116 89.979 54.8513 89.979 55.2863 90.0324H94.2229L95.2139 85.1161H46.6494C46.9799 87.0829 47.1691 89.0712 47.2157 91.0654C47.0454 94.2017 45.8052 97.1828 43.7045 99.5055C41.6038 101.828 38.7711 103.351 35.6847 103.815C32.5982 104.28 29.447 103.659 26.7629 102.056C24.0787 100.454 22.026 97.9687 20.9512 95.0199C20.8749 94.6951 20.679 94.4115 20.4031 94.2263C20.1272 94.0412 19.7919 93.9683 19.4646 94.0224H13.3056C11.3851 94.0591 9.50854 93.4423 7.97963 92.2721C6.45073 91.1019 5.35897 89.4466 4.88111 87.5742C4.88111 87.5742 4.88108 87.3248 4.6333 87.1823V75.2835C5.30584 74.4641 6.01371 73.716 7.21721 74.2147C8.4207 74.7135 8.52684 75.6397 8.49144 76.7441C8.45605 77.8485 8.49144 79.3804 8.49144 80.7341H23.0397C23.5288 80.6762 23.9872 80.4642 24.3494 80.1284C26.8701 77.7438 30.1994 76.4163 33.6588 76.4163C37.1182 76.4163 40.4473 77.7438 42.968 80.1284C43.5104 80.5702 44.1821 80.8206 44.8796 80.841H97.0546C97.7463 80.8135 98.4081 80.5497 98.9307 80.0929C101.461 77.7137 104.795 76.3903 108.258 76.3903C111.721 76.3903 115.054 77.7137 117.585 80.0929C118.02 80.4675 118.57 80.6811 119.142 80.6985H132.31V76.7798C131.602 76.7798 131 76.7798 130.434 76.7798C125.514 77.2073 123.354 74.9272 123.85 70.0465C123.845 69.3998 123.969 68.7587 124.216 68.1615C124.463 67.5644 124.827 67.0234 125.287 66.5711C125.746 66.1188 126.291 65.7643 126.89 65.529C127.488 65.2937 128.128 65.1824 128.77 65.2015C129.938 65.2015 131.142 65.2015 132.31 65.2015C132.318 64.3795 132.155 63.5648 131.831 62.8101C131.507 62.0555 131.03 61.3777 130.429 60.8204C129.829 60.263 129.119 59.8386 128.345 59.5746C127.572 59.3106 126.752 59.213 125.939 59.2877H86.8248C86.0177 59.3282 85.211 59.1986 84.4565 58.9072C83.702 58.6159 83.0163 58.1692 82.4432 57.5957C81.8701 57.0223 81.4224 56.3347 81.1286 55.577C80.8347 54.8194 80.7012 54.0083 80.7367 53.1957C80.7367 50.7376 80.7367 48.2795 80.7367 45.8569C80.7316 45.0574 80.8866 44.2651 81.1925 43.5273C81.4985 42.7895 81.949 42.1213 82.5173 41.5626C83.0856 41.004 83.7599 40.5663 84.5 40.2758C85.2401 39.9853 86.0308 39.848 86.8248 39.8719H97.4439C96.8368 38.3533 95.7971 37.0494 94.4556 36.1239C93.114 35.1984 91.5306 34.6928 89.9043 34.6707H76.4181C73.728 34.6707 72.6306 35.775 72.6306 38.5181V56.3308C72.7374 57.2566 72.6353 58.1948 72.3321 59.0754C72.0288 59.956 71.5323 60.7565 70.8792 61.4172C70.226 62.078 69.4333 62.582 68.5599 62.8918C67.6865 63.2016 66.7549 63.3091 65.8345 63.2064H8.56231C8.56231 64.6671 8.56231 65.9496 8.56231 67.2321C8.56231 68.5146 8.56232 69.2984 7.25264 69.7616C5.94295 70.2247 5.34109 69.5122 4.70395 68.6215L4.73938 56.8296ZM107.001 55.547C104.63 51.7707 102.4 48.2082 100.134 44.8594C99.9841 44.6735 99.7955 44.523 99.5815 44.4184C99.3674 44.3137 99.1332 44.2576 98.8953 44.2539C94.8954 44.2539 90.8955 44.2539 86.8603 44.2539C85.232 44.2539 84.5596 44.9664 84.5242 46.6051V53.3026C84.5242 55.0482 85.2321 55.7608 86.9311 55.7608H107.001V55.547ZM24.137 89.8898C24.0489 92.4262 24.9455 94.8974 26.6371 96.7795C28.3287 98.6616 30.6823 99.8066 33.1986 99.9717C34.5046 100.084 35.8195 99.9295 37.0648 99.5176C38.31 99.1058 39.4599 98.445 40.4452 97.575C41.4306 96.7051 42.2312 95.6438 42.7991 94.4549C43.3669 93.2659 43.6905 91.9738 43.7501 90.656C43.8097 89.3381 43.6042 88.0218 43.146 86.7858C42.6879 85.5498 41.9864 84.4197 41.0837 83.4632C40.1809 82.5067 39.0955 81.7435 37.8927 81.2194C36.6898 80.6954 35.3943 80.4213 34.0836 80.4135C31.5196 80.3558 29.0367 81.3188 27.1742 83.0932C25.3118 84.8676 24.2203 87.3101 24.137 89.8898ZM117.762 90.3173C117.781 88.3977 117.238 86.515 116.2 84.9045C115.162 83.294 113.675 82.0273 111.925 81.2629C110.176 80.4985 108.241 80.2703 106.363 80.6068C104.485 80.9433 102.748 81.8297 101.368 83.155C99.988 84.4802 99.0271 86.1856 98.6051 88.0577C98.1832 89.9298 98.319 91.8856 98.9958 93.6803C99.6725 95.4751 100.86 97.0293 102.41 98.1483C103.96 99.2673 105.803 99.9016 107.709 99.9717C109.005 100.024 110.297 99.814 111.51 99.3533C112.723 98.8927 113.832 98.1911 114.77 97.2903C115.708 96.3895 116.456 95.3078 116.97 94.1099C117.484 92.912 117.753 91.6222 117.762 90.3173ZM21.0575 84.9735H8.56231C8.47659 86.1117 8.81815 87.2408 9.51939 88.1378C10.2206 89.0349 11.2306 89.6345 12.3498 89.8185C14.8984 89.9966 17.4468 89.8185 19.96 89.8185L21.0575 84.9735ZM132.204 84.9735H120.841L121.868 89.8185H127.567C128.197 89.8401 128.824 89.7282 129.408 89.49C129.992 89.2517 130.52 88.8925 130.957 88.4356C131.395 87.9787 131.732 87.4344 131.946 86.838C132.161 86.2415 132.249 85.6063 132.204 84.9735ZM132.204 69.2984H130.044C127.531 69.2984 127.319 69.5121 127.673 72.0059C127.736 72.2439 127.855 72.4629 128.022 72.6431C128.189 72.8233 128.397 72.9593 128.629 73.039C129.808 73.109 130.99 73.109 132.168 73.039L132.204 69.2984Z" fill="#124F2E"/>
<path d="M39.1103 69.2286H62.0829C62.7053 69.2035 63.3212 69.3647 63.8527 69.6918C64.0942 69.9386 64.2795 70.2353 64.3956 70.5613C64.5118 70.8874 64.556 71.2349 64.5253 71.5799C64.1917 72.2187 63.6733 72.7405 63.0387 73.0762C62.7201 73.2544 62.1892 73.0762 61.7644 73.0762H15.996C14.5801 73.0762 13.7662 72.3637 13.7308 71.1881C13.6954 70.0125 14.5802 69.1931 16.0315 69.1931L39.1103 69.2286Z" fill="#124F2E"/>
<path d="M83.533 65.3812C83.957 65.346 84.3832 65.346 84.8072 65.3812C85.2545 65.4344 85.666 65.6539 85.9607 65.9967C86.2554 66.3394 86.412 66.7806 86.4001 67.2337C86.4605 67.6918 86.3379 68.1553 86.0592 68.5226C85.7805 68.89 85.3685 69.1311 84.9135 69.1931C84.1147 69.3 83.3054 69.3 82.5065 69.1931C82.2508 69.189 81.9985 69.1323 81.7653 69.0265C81.5321 68.9206 81.323 68.768 81.1506 68.5778C80.9782 68.3876 80.8462 68.1638 80.7628 67.9204C80.6795 67.6771 80.6465 67.4192 80.6658 67.1625C80.6656 66.9037 80.7172 66.6476 80.8177 66.4095C80.9182 66.1713 81.0654 65.9559 81.2504 65.7763C81.4355 65.5967 81.6548 65.4565 81.8949 65.3641C82.1351 65.2717 82.3911 65.2291 82.648 65.2387H83.533V65.3812Z" fill="#124F2E"/>
<path d="M28.0308 90.2463C28.1204 88.7769 28.758 87.3956 29.8158 86.3789C30.8736 85.3621 32.2736 84.7848 33.7361 84.7623C35.1987 84.7398 36.6158 85.2738 37.704 86.2575C38.7922 87.2413 39.4714 88.6021 39.6057 90.0681C39.679 90.8696 39.5869 91.6778 39.3354 92.4419C39.0838 93.2059 38.6781 93.9095 38.1437 94.5083C37.6093 95.1071 36.9579 95.5884 36.2299 95.9219C35.502 96.2553 34.7134 96.4338 33.9137 96.4461C33.114 96.4584 32.3205 96.3042 31.5828 95.9933C30.8451 95.6824 30.1791 95.2214 29.6267 94.6393C29.0744 94.0572 28.6477 93.3666 28.373 92.6106C28.0984 91.8546 27.9818 91.0497 28.0308 90.2463ZM33.8359 88.3225C33.5942 88.3129 33.353 88.3515 33.126 88.4359C32.8991 88.5202 32.6908 88.6488 32.5133 88.8142C32.3358 88.9796 32.1924 89.1787 32.0914 89.4C31.9903 89.6212 31.9335 89.8604 31.9244 90.1037C31.9093 90.362 31.9482 90.6205 32.0384 90.8627C32.1287 91.1049 32.2684 91.3253 32.4485 91.5099C32.6286 91.6945 32.8452 91.8391 33.0841 91.9343C33.3231 92.0296 33.5791 92.0735 33.8359 92.0631C34.3335 92.0631 34.8106 91.8642 35.1625 91.5101C35.5143 91.156 35.7119 90.6757 35.7119 90.1749C35.7026 89.6804 35.501 89.2092 35.1502 88.8628C34.7993 88.5164 34.3274 88.3224 33.8359 88.3225Z" fill="#124F2E"/>
<path d="M113.867 90.1411C113.876 91.6818 113.284 93.1647 112.219 94.2708C111.153 95.3768 109.698 96.0174 108.168 96.0548C107.365 96.1178 106.558 96.0131 105.797 95.7472C105.036 95.4813 104.339 95.06 103.747 94.5096C103.156 93.9593 102.685 93.2918 102.362 92.5492C102.039 91.8066 101.873 91.0049 101.873 90.1944C101.873 89.384 102.039 88.5823 102.362 87.8397C102.685 87.0971 103.156 86.4297 103.747 85.8794C104.339 85.329 105.036 84.9076 105.797 84.6417C106.558 84.3758 107.365 84.2711 108.168 84.3341C109.683 84.362 111.127 84.9849 112.192 86.0699C113.257 87.1549 113.858 88.616 113.867 90.1411ZM109.973 90.1411C110.01 89.8689 109.989 89.5919 109.911 89.3287C109.832 89.0655 109.699 88.8222 109.52 88.6152C109.34 88.4082 109.119 88.2422 108.87 88.1285C108.622 88.0148 108.352 87.956 108.079 87.956C107.806 87.956 107.537 88.0148 107.288 88.1285C107.04 88.2422 106.818 88.4082 106.639 88.6152C106.459 88.8222 106.326 89.0655 106.248 89.3287C106.17 89.5919 106.149 89.8689 106.186 90.1411C106.213 90.6325 106.426 91.0948 106.782 91.4328C107.137 91.7707 107.608 91.9586 108.097 91.9579C108.573 91.9679 109.035 91.7916 109.385 91.466C109.735 91.1405 109.946 90.6911 109.973 90.2123V90.1411Z" fill="#124F2E"/>
</svg>
