<svg width="19" height="22" viewBox="0 0 19 22" fill="none" xmlns="http://www.w3.org/2000/svg">
<path d="M18.7399 5.34356C17.5201 5.34356 16.3946 4.93946 15.4908 4.25774C14.4542 3.47624 13.7095 2.32988 13.4465 1.0086C13.3813 0.682139 13.3463 0.345244 13.3429 0H9.85835V9.52156L9.85417 14.737C9.85417 16.1313 8.94618 17.3136 7.68752 17.7294C7.32224 17.85 6.92773 17.9072 6.51695 17.8847C5.99261 17.8559 5.50125 17.6976 5.07418 17.4421C4.16536 16.8986 3.54918 15.9125 3.53248 14.7846C3.50618 13.0216 4.93141 11.5843 6.69312 11.5843C7.04087 11.5843 7.37484 11.641 7.68752 11.7442V9.14167V8.20613C7.35772 8.15729 7.02208 8.13182 6.68268 8.13182C4.75441 8.13182 2.95095 8.93335 1.66182 10.3774C0.687454 11.4686 0.103001 12.8609 0.0128285 14.3208C-0.105314 16.2386 0.596446 18.0617 1.95738 19.4067C2.15735 19.6042 2.36734 19.7875 2.58692 19.9565C3.75374 20.8545 5.18022 21.3413 6.68268 21.3413C7.02208 21.3413 7.35772 21.3162 7.68752 21.2674C9.09104 21.0595 10.386 20.417 11.408 19.4067C12.6637 18.1656 13.3575 16.5179 13.3651 14.7641L13.3471 6.97586C13.9462 7.43799 14.6012 7.82039 15.3042 8.11721C16.3975 8.57851 17.5568 8.81229 18.75 8.81187V6.28161V5.34273C18.7508 5.34356 18.7408 5.34356 18.7399 5.34356Z" fill="#222222"/>
</svg>
