<svg width="25" height="15" viewBox="0 0 25 15" fill="none" xmlns="http://www.w3.org/2000/svg">
<path fill-rule="evenodd" clip-rule="evenodd" d="M21.5161 9.27275C22.3453 10.1073 23.2206 10.8925 23.9644 11.8113C24.293 12.2196 24.604 12.6409 24.842 13.1147C25.1792 13.7882 24.8738 14.5294 24.2879 14.5696L20.6458 14.5679C19.7064 14.6483 18.9571 14.2585 18.327 13.5964C17.8227 13.067 17.3558 12.5035 16.8709 11.9562C16.6721 11.7325 16.4641 11.5221 16.2155 11.3557C15.7183 11.023 15.2868 11.1249 15.0026 11.6594C14.7133 12.203 14.6476 12.805 14.6192 13.4109C14.5802 14.295 14.321 14.5274 13.4595 14.5678C11.6184 14.6573 9.87113 14.3702 8.24797 13.4129C6.81694 12.5689 5.70723 11.3774 4.74135 10.0286C2.86077 7.40208 1.42061 4.51597 0.126258 1.54901C-0.165091 0.880554 0.0479794 0.521729 0.763497 0.509028C1.95165 0.485236 3.13963 0.48693 4.32918 0.507335C4.81208 0.514617 5.13176 0.800119 5.31822 1.27037C5.96104 2.89965 6.74761 4.44976 7.73493 5.88659C7.99786 6.26912 8.26596 6.65166 8.64775 6.9209C9.07011 7.21902 9.39169 7.12022 9.59038 6.63523C9.71647 6.32772 9.77166 5.99649 9.80008 5.66713C9.89422 4.53401 9.90662 3.40284 9.74152 2.27369C9.64016 1.569 9.25509 1.1128 8.57292 0.979448C8.22481 0.911459 8.27664 0.777937 8.44519 0.573123C8.73794 0.219885 9.01327 0 9.56213 0H13.6782C14.3262 0.131829 14.4701 0.431895 14.5588 1.104L14.5624 5.81691C14.5553 6.0771 14.6885 6.84919 15.1431 7.02141C15.507 7.14401 15.7468 6.84394 15.9652 6.60611C16.9507 5.52794 17.654 4.25376 18.2824 2.93436C18.5613 2.35421 18.801 1.75171 19.0334 1.14972C19.2056 0.703004 19.4757 0.483204 19.9639 0.492941L23.9254 0.496582C24.0428 0.496582 24.1617 0.49836 24.2755 0.518427C24.943 0.635693 25.1259 0.931695 24.9198 1.60363C24.5949 2.65784 23.9628 3.53636 23.3448 4.41894C22.6842 5.36122 21.9776 6.27124 21.3225 7.21911C20.7205 8.08468 20.7683 8.52098 21.5161 9.27275Z" fill="#0050D2"/>
</svg>
