<svg width="23" height="23" viewBox="0 0 23 23" fill="none" xmlns="http://www.w3.org/2000/svg">
<g clip-path="url(#clip0_1735_153927)">
<path d="M19.7821 0H2.81455C1.26334 0 0 1.24981 0 2.7867V14.4246C0 15.9615 1.26334 17.2113 2.81455 17.2113H13.4126L17.242 22.0885C17.7173 22.6934 18.2247 23 18.7507 23C19.0904 23 19.4073 22.8698 19.6454 22.634C19.9292 22.351 20.0731 21.9563 20.0721 21.457L20.0669 17.1959C21.4845 17.0534 22.5956 15.8651 22.5956 14.4236V2.7867C22.5956 1.24879 21.3333 0 19.7821 0ZM21.5591 14.4246C21.5591 15.3966 20.7628 16.184 19.7821 16.184H19.0293V16.2527L19.0365 21.4631C19.0355 21.8035 18.9268 21.9737 18.7507 21.9737C18.5747 21.9737 18.3303 21.8015 18.06 21.458L13.9211 16.184H2.81455C1.83184 16.184 1.03759 15.3966 1.03759 14.4246V2.85437C1.03759 1.88241 1.83288 1.09499 2.81455 1.09499H19.7821C20.7638 1.09499 21.5591 1.88343 21.5591 2.85437V14.4246Z" fill="black"/>
<path d="M9.86006 3.9699C9.5784 3.9699 9.36094 4.0591 9.29674 4.30004L7.34996 11.1735L5.38971 4.30004C5.32551 4.05807 5.10805 3.9699 4.82639 3.9699C4.37904 3.9699 3.77637 4.24877 3.77637 4.65478C3.77637 4.68041 3.78879 4.73065 3.80226 4.78192L6.27405 12.7586C6.40245 13.1389 6.86326 13.3163 7.34996 13.3163C7.83665 13.3163 8.31092 13.1389 8.42587 12.7586L10.8852 4.78192C10.8977 4.73065 10.9111 4.69374 10.9111 4.65478C10.9111 4.2621 10.3084 3.9699 9.86006 3.9699ZM16.3528 9.15676C17.3138 8.86456 18.0314 8.0792 18.0314 6.62023C18.0314 4.60249 16.6738 3.96887 14.9952 3.96887H12.4592C12.1382 3.96887 11.9218 4.20981 11.9218 4.47638L11.9208 12.7216C11.9208 13.0631 12.3308 13.2415 12.7533 13.2415C13.1758 13.2415 13.5859 13.0641 13.5859 12.7216V9.41103H14.6618L16.4812 12.9113C16.6096 13.1646 16.8281 13.304 17.058 13.304C17.5447 13.304 18.0945 12.8601 18.0945 12.4417C18.0945 12.3905 18.0832 12.3023 18.0314 12.2387L16.3528 9.15676ZM14.9963 8.11611H13.5869V5.41451H14.9963C15.8288 5.41451 16.3673 5.76926 16.3673 6.77198C16.3673 7.77469 15.8299 8.11611 14.9963 8.11611Z" fill="black"/>
</g>
<defs>
<clipPath id="clip0_1735_153927">
<rect width="23" height="23" fill="white"/>
</clipPath>
</defs>
</svg>
